<svg width="28" height="28" viewBox="0 0 28 28" fill="none" xmlns="http://www.w3.org/2000/svg">
<g clip-path="url(#clip0_362_636)">
<rect width="28" height="28" fill="#FF4100"/>
<path d="M12 12V8H8V12H12Z" fill="white"/>
<path d="M16 12H12V16H16V12Z" fill="white"/>
<path d="M16 4H12V8H16V4Z" fill="white"/>
<path d="M16 24V20H12V24H16Z" fill="white"/>
<path d="M16 4V8H20V4H16Z" fill="white"/>
<path d="M12 20H8V24H12V20Z" fill="white"/>
<path d="M20 20H16V24H20V20Z" fill="white"/>
<path d="M20 20V16H16V20H20Z" fill="white"/>
<path d="M16 12V16H20V12H16Z" fill="white"/>
<path d="M8 12V16H12V12H8Z" fill="white"/>
</g>
<defs>
<clipPath id="clip0_362_636">
<rect width="28" height="28" fill="white"/>
</clipPath>
</defs>
</svg>
