<svg width="28" height="28" viewBox="0 0 28 28" fill="none" xmlns="http://www.w3.org/2000/svg">
<g clip-path="url(#clip0_369_10537)">
<rect opacity="0.08" width="28" height="28" fill="#FF4100"/>
<path d="M16 24V20H12V24H16Z" fill="#FF4100"/>
<path d="M20 20H16V24H20V20Z" fill="#FF4100"/>
<path d="M12 20H8V24H12V20Z" fill="#FF4100"/>
<path d="M12 16H8V20H12V16Z" fill="#FF4100"/>
<path d="M16 12H12V16H16V12Z" fill="#FF4100"/>
<path d="M16 8V12H20V8H16Z" fill="#FF4100"/>
<path d="M16 4H12V8H16V4Z" fill="#FF4100"/>
<path d="M12 4H8V8H12V4Z" fill="#FF4100"/>
<path d="M8 12V16H12V12H8Z" fill="#FF4100"/>
</g>
<defs>
<clipPath id="clip0_369_10537">
<rect width="28" height="28" fill="white"/>
</clipPath>
</defs>
</svg>
