<svg width="238" height="40" viewBox="0 0 238 40" fill="none" xmlns="http://www.w3.org/2000/svg">
<path fill-rule="evenodd" clip-rule="evenodd" d="M233.137 12.0555H229.377V16.0555H230.177V14.6555H232.671L233.297 16.0555H234.177L233.52 14.583C233.905 14.4306 234.177 14.0549 234.177 13.6155V13.0955C234.177 12.5212 233.712 12.0555 233.137 12.0555ZM233.137 13.8555H230.177V12.8555H233.137C233.27 12.8555 233.377 12.963 233.377 13.0955V13.6155C233.377 13.7481 233.27 13.8555 233.137 13.8555Z" fill="#FF4100"/>
<path d="M236.977 14.0555C236.977 11.1837 234.649 8.85555 231.777 8.85555C228.905 8.85555 226.577 11.1837 226.577 14.0555C226.577 16.9274 228.905 19.2555 231.777 19.2555C234.649 19.2555 236.977 16.9274 236.977 14.0555ZM237.777 14.0555C237.777 17.3693 235.091 20.0555 231.777 20.0555C228.464 20.0555 225.777 17.3693 225.777 14.0555C225.777 10.7418 228.464 8.05555 231.777 8.05555C235.091 8.05555 237.777 10.7418 237.777 14.0555Z" fill="#FF4100"/>
<path d="M64.7773 18.0555C63.1205 18.0555 61.7773 16.7124 61.7773 15.0555C61.7773 13.3987 63.1205 12.0555 64.7773 12.0555H80.7773V8.05554L64.7773 8.05554C60.9114 8.05554 57.7773 11.1895 57.7773 15.0555C57.7773 18.9215 60.9114 22.0555 64.7773 22.0555L74.7773 22.0555C76.4342 22.0555 77.7773 23.3987 77.7773 25.0555C77.7773 26.7124 76.4342 28.0555 74.7773 28.0555H58.7773L58.7773 31.9444H74.7773C78.6433 31.9444 81.7773 28.9215 81.7773 25.0555C81.7773 21.1896 78.6433 18.0555 74.7773 18.0555H64.7773Z" fill="#FF4100"/>
<path fill-rule="evenodd" clip-rule="evenodd" d="M85.7773 24.4555V8.05555H89.7773V24.4555C89.7773 26.4438 91.3891 28.0555 93.3773 28.0555H102.177C104.166 28.0555 105.777 26.4438 105.777 24.4555V8.05555H109.777V24.4555C109.777 28.6529 106.375 31.9444 102.177 31.9444H93.3773C89.18 31.9444 85.7773 28.6529 85.7773 24.4555Z" fill="#FF4100"/>
<path fill-rule="evenodd" clip-rule="evenodd" d="M113.777 8.05555H118.177L133.777 25.9127V8.05555H137.777V31.9444H133.377L117.777 14.1984V31.9444H113.777V8.05555Z" fill="#FF4100"/>
<path fill-rule="evenodd" clip-rule="evenodd" d="M165.777 31.9444V15.6555C165.777 11.4582 162.375 8.05555 158.177 8.05555L149.377 8.05555C145.18 8.05555 141.777 11.4582 141.777 15.6555V31.9444H145.777V24.8555H161.777V31.9444H165.777ZM161.777 15.6555C161.777 13.6673 160.166 12.0555 158.177 12.0555L149.377 12.0555C147.389 12.0555 145.777 13.6673 145.777 15.6555V20.8555H161.777V15.6555Z" fill="#FF4100"/>
<path fill-rule="evenodd" clip-rule="evenodd" d="M221.777 31.9444V15.6555C221.777 11.4582 218.375 8.05555 214.177 8.05555L205.377 8.05555C201.18 8.05555 197.777 11.4582 197.777 15.6555V31.9444H201.777V24.8555H217.777V31.9444H221.777ZM217.777 15.6555C217.777 13.6673 216.166 12.0555 214.177 12.0555L205.377 12.0555C203.389 12.0555 201.777 13.6673 201.777 15.6555V20.8555H217.777V15.6555Z" fill="#FF4100"/>
<path d="M186.177 8.05555C190.374 8.05555 193.777 11.4583 193.777 15.6555V17.2555C193.777 20.3311 191.95 22.98 189.322 24.1762L193.777 31.9444H189.095L185.053 24.8555H173.777V31.9444H169.777V8.05555H186.177ZM173.777 20.8555H186.177C188.165 20.8555 189.777 19.2438 189.777 17.2555V15.6555C189.777 13.6674 188.165 12.0556 186.177 12.0555H173.777V20.8555Z" fill="#FF4100"/>
<path d="M35.329 35.3289C36.0461 34.6118 36.2351 33.6112 36.0628 32.4382C36.2574 32.0491 36.4297 31.6432 36.5687 31.2208C41.1438 24.472 41.1438 15.5329 36.5687 8.78412C36.4297 8.36162 36.2574 7.95581 36.0628 7.56667C36.2351 6.39369 36.0461 5.39305 35.329 4.67592C34.6119 3.95879 33.6113 3.76978 32.4383 3.94212C32.0492 3.74755 31.6434 3.57521 31.2209 3.43624C24.4722 -1.14448 15.5278 -1.14448 8.7791 3.43068C8.35661 3.56965 7.9508 3.74199 7.56167 3.93656C6.38871 3.76422 5.38809 3.95323 4.67097 4.67036C3.95386 5.38749 3.76485 6.38813 3.93718 7.56111C3.74262 7.95025 3.57029 8.35606 3.43131 8.77856C-1.14377 15.5273 -1.14377 24.4664 3.43131 31.2208C3.57029 31.6432 3.74262 32.0491 3.93718 32.4382C3.76485 33.6112 3.95386 34.6118 4.67097 35.3289C5.38809 36.0461 6.38871 36.2351 7.56167 36.0628C7.9508 36.2573 8.35661 36.4297 8.7791 36.5686C15.5278 41.1438 24.4667 41.1438 31.2153 36.5686C31.6378 36.4297 32.0436 36.2573 32.4328 36.0628C33.6057 36.2351 34.6063 36.0461 35.3235 35.3289H35.329ZM21.3203 34.7174C22.5877 34.0726 23.8552 33.2999 25.0948 32.4048C26.5624 33.45 28.0523 34.3895 29.4587 35.0621C28.8861 35.4235 28.2969 35.7459 27.6965 36.035C25.723 36.0572 23.5494 35.6013 21.3203 34.7174ZM12.3091 36.035C11.7087 35.7459 11.1194 35.4235 10.5469 35.0621C11.9477 34.3895 13.4376 33.4555 14.9107 32.4048C16.1504 33.2999 17.4178 34.0726 18.6853 34.7174C16.4561 35.6013 14.2825 36.0516 12.3091 36.035ZM5.28247 21.3199C5.92732 22.5874 6.70002 23.8549 7.59502 25.0946C6.54993 26.5622 5.61045 28.052 4.93781 29.4585C4.57647 28.8859 4.25405 28.2966 3.96498 27.6963C3.94274 25.7228 4.39858 23.5492 5.28247 21.3199ZM3.96498 12.3086C4.25405 11.7082 4.57647 11.1189 4.93781 10.5464C5.61045 11.9473 6.54437 13.4371 7.59502 14.9103C6.70002 16.15 5.92732 17.4174 5.28247 18.6849C4.39858 16.4557 3.9483 14.2821 3.96498 12.3086ZM18.6797 5.28187C17.4123 5.92672 16.1448 6.69944 14.9051 7.59446C13.4376 6.54935 11.9477 5.60985 10.5413 4.9372C11.1139 4.57586 11.7031 4.25343 12.3035 3.96435C14.277 3.94212 16.4506 4.39796 18.6797 5.28187ZM27.6909 3.96435C28.2913 4.25343 28.8805 4.57586 29.4531 4.9372C28.0523 5.60985 26.5624 6.54379 25.0893 7.59446C23.8496 6.69944 22.5822 5.92672 21.3147 5.28187C23.5439 4.39796 25.7175 3.94767 27.6909 3.96435ZM34.7175 18.6794C34.0727 17.4119 33.3 16.1444 32.405 14.9047C33.4501 13.4371 34.3895 11.9473 35.0622 10.5408C35.4235 11.1134 35.746 11.7027 36.035 12.303C36.0573 14.2765 35.6014 16.4502 34.7175 18.6794ZM36.035 27.6907C35.746 28.2911 35.4235 28.8804 35.0622 29.4529C34.3895 28.052 33.4556 26.5622 32.405 25.089C33.3 23.8493 34.0727 22.5819 34.7175 21.3144C35.6014 23.5436 36.0517 25.7172 36.035 27.6907ZM7.42269 32.5772C7.37266 32.5271 7.32263 32.4716 7.2726 32.4215C7.54499 31.4654 8.35105 29.8699 9.7686 27.7797C10.1522 28.2077 10.5469 28.6302 10.9638 29.0416C11.3807 29.4529 11.7977 29.8532 12.2257 30.2368C10.1355 31.6544 8.5345 32.4549 7.58391 32.7328C7.53387 32.6828 7.47828 32.6328 7.42825 32.5827L7.42269 32.5772ZM11.7476 28.2522C11.2862 27.7908 10.8415 27.3182 10.419 26.8402C11.3529 25.5393 12.5036 24.0717 13.8934 22.4707C14.7495 23.3824 15.3999 24.0439 15.6779 24.3219C15.9558 24.5998 16.6118 25.2502 17.529 26.1064C15.928 27.4961 14.4604 28.6469 13.1596 29.5808C12.6815 29.1583 12.2146 28.7136 11.7476 28.2522ZM18.0349 21.9648C17.3622 21.2922 16.7341 20.6417 16.1337 19.9969C16.7396 19.3576 17.3622 18.7016 18.0349 18.0289C18.7075 17.3563 19.3579 16.7281 20.0028 16.1277C20.6421 16.7337 21.298 17.3563 21.9707 18.0289C22.6433 18.7016 23.2715 19.352 23.8719 19.9969C23.2659 20.6362 22.6433 21.2922 21.9707 21.9648C21.298 22.6375 20.6476 23.2656 20.0028 23.866C19.3635 23.2601 18.7075 22.6375 18.0349 21.9648ZM7.42269 7.42213C7.47273 7.3721 7.52832 7.32206 7.57835 7.27203C8.5345 7.54443 10.1299 8.3505 12.2201 9.76808C11.7921 10.1517 11.3696 10.5464 10.9582 10.9633C10.5469 11.3802 10.1466 11.7972 9.76305 12.2252C8.34549 10.135 7.54499 8.53395 7.26704 7.58334C7.31707 7.53331 7.3671 7.47772 7.41714 7.42769L7.42269 7.42213ZM11.7476 11.7471C12.209 11.2857 12.6815 10.841 13.1596 10.4185C14.4604 11.3524 15.928 12.5032 17.529 13.893C16.6173 14.7491 15.9558 15.3995 15.6779 15.6774C15.3999 15.9554 14.7495 16.6114 13.8934 17.5286C12.5036 15.9276 11.3529 14.46 10.419 13.1591C10.8415 12.6811 11.2862 12.2085 11.7476 11.7471ZM32.5829 7.42213C32.6329 7.47216 32.6829 7.52775 32.733 7.57779C32.4606 8.53395 31.6545 10.1294 30.2369 12.2197C29.8534 11.7916 29.4587 11.3691 29.0418 10.9577C28.6248 10.5464 28.2079 10.1461 27.7799 9.76252C29.8701 8.34494 31.4711 7.54443 32.4216 7.26647C32.4717 7.31651 32.5273 7.36654 32.5773 7.41657L32.5829 7.42213ZM28.2579 11.7471C28.7193 12.2085 29.1641 12.6811 29.5865 13.1591C28.6526 14.46 27.5019 15.9276 26.1122 17.5286C25.2561 16.6169 24.6057 15.9554 24.3277 15.6774C24.0497 15.3995 23.3938 14.7491 22.4765 13.893C24.0775 12.5032 25.5451 11.3524 26.8459 10.4185C27.324 10.841 27.791 11.2857 28.2579 11.7471ZM26.1122 22.4762C27.5019 24.0773 28.6526 25.5449 29.5865 26.8457C29.1641 27.3238 28.7193 27.7908 28.2579 28.2577C27.7965 28.7247 27.324 29.1639 26.8459 29.5864C25.5451 28.6524 24.0775 27.5017 22.4765 26.1119C23.3882 25.2558 24.0497 24.6054 24.3277 24.3274C24.6057 24.0495 25.2561 23.3935 26.1122 22.4762ZM30.2369 27.7797C31.6545 29.8699 32.455 31.4709 32.733 32.4215C32.6829 32.4716 32.6329 32.5271 32.5829 32.5772C32.5328 32.6272 32.4772 32.6772 32.4272 32.7273C31.4711 32.4549 29.8756 31.6488 27.7854 30.2312C28.2135 29.8476 28.636 29.4529 29.0473 29.036C29.4587 28.6191 29.8589 28.2021 30.2425 27.7741L30.2369 27.7797ZM31.7212 24.1495C30.615 22.6764 29.442 21.2477 28.3469 19.9969C29.4365 18.7461 30.615 17.3229 31.7212 15.8442C32.6885 17.2118 33.5057 18.6071 34.1561 19.9969C33.5057 21.3867 32.6885 22.782 31.7212 24.1495ZM24.1554 8.27823C22.6822 9.3845 21.2536 10.5575 20.0028 11.6526C18.752 10.563 17.3289 9.3845 15.8502 8.27823C17.2177 7.31095 18.613 6.49376 20.0028 5.84334C21.3925 6.49376 22.7879 7.31095 24.1554 8.27823ZM8.28434 15.8442C9.39059 17.3174 10.5635 18.7461 11.6587 19.9969C10.5691 21.2477 9.39059 22.6708 8.28434 24.1495C7.31707 22.782 6.4999 21.3867 5.84949 19.9969C6.4999 18.6071 7.31707 17.2118 8.28434 15.8442ZM15.8502 31.7155C17.3233 30.6092 18.752 29.4363 20.0028 28.3411C21.2536 29.4307 22.6767 30.6092 24.1554 31.7155C22.7879 32.6828 21.3925 33.5 20.0028 34.1504C18.613 33.5 17.2177 32.6828 15.8502 31.7155ZM36.9523 25.3725C36.6965 23.6437 36.1573 21.8258 35.3513 19.9969C36.1573 18.1679 36.6965 16.3501 36.9523 14.6212C38.0529 18.1123 38.0529 21.8759 36.9523 25.367V25.3725ZM25.3728 3.0471C23.6439 3.30282 21.8261 3.84205 19.9972 4.64812C18.1683 3.84205 16.3505 3.30282 14.6216 3.0471C18.1127 1.94639 21.8762 1.94639 25.3728 3.0471ZM3.04774 14.6268C3.30345 16.3556 3.84268 18.1735 4.64874 20.0024C3.84268 21.8314 3.30345 23.6492 3.04774 25.3781C1.94705 21.887 1.94705 18.1234 3.04774 14.6268ZM14.6216 36.9522C16.3505 36.6965 18.1683 36.1573 19.9972 35.3512C21.8261 36.1573 23.6439 36.6965 25.3728 36.9522C21.8817 38.0529 18.1183 38.0529 14.6272 36.9522H14.6216Z" fill="#FF4100"/>
</svg>
