<svg width="429" height="72" viewBox="0 0 429 72" fill="none" xmlns="http://www.w3.org/2000/svg">
<path fill-rule="evenodd" clip-rule="evenodd" d="M419.648 21.7H412.88V28.9H414.32V26.38H418.809L419.936 28.9H421.52L420.336 26.2494C421.03 25.9752 421.52 25.2989 421.52 24.508V23.572C421.52 22.5381 420.682 21.7 419.648 21.7ZM419.648 24.94H414.32V23.14H419.648C419.887 23.14 420.08 23.3334 420.08 23.572V24.508C420.08 24.7466 419.887 24.94 419.648 24.94Z" fill="white"/>
<path d="M426.56 25.3C426.56 20.1306 422.369 15.94 417.2 15.94C412.031 15.94 407.84 20.1306 407.84 25.3C407.84 30.4694 412.031 34.66 417.2 34.66C422.369 34.66 426.56 30.4694 426.56 25.3ZM428 25.3C428 31.2647 423.165 36.1 417.2 36.1C411.235 36.1 406.4 31.2647 406.4 25.3C406.4 19.3353 411.235 14.5 417.2 14.5C423.165 14.5 428 19.3353 428 25.3Z" fill="white"/>
<path d="M116.6 32.5C113.618 32.5 111.2 30.0823 111.2 27.1C111.2 24.1177 113.618 21.7 116.6 21.7H145.4V14.5L116.6 14.5C109.641 14.5 104 20.1412 104 27.1C104 34.0588 109.641 39.7 116.6 39.7L134.6 39.7C137.582 39.7 140 42.1177 140 45.1C140 48.0823 137.582 50.5 134.6 50.5H105.8L105.8 57.5H134.6C141.559 57.5 147.2 52.0588 147.2 45.1C147.2 38.1412 141.559 32.5 134.6 32.5H116.6Z" fill="white"/>
<path fill-rule="evenodd" clip-rule="evenodd" d="M154.4 44.02V14.5H161.6V44.02C161.6 47.5988 164.501 50.5 168.08 50.5H183.92C187.499 50.5 190.4 47.5988 190.4 44.02V14.5H197.6V44.02C197.6 51.5753 191.475 57.5 183.92 57.5H168.08C160.525 57.5 154.4 51.5753 154.4 44.02Z" fill="white"/>
<path fill-rule="evenodd" clip-rule="evenodd" d="M204.8 14.5H212.72L240.8 46.6429V14.5H248V57.5H240.08L212 25.5571V57.5H204.8V14.5Z" fill="white"/>
<path fill-rule="evenodd" clip-rule="evenodd" d="M298.4 57.5V28.18C298.4 20.6248 292.275 14.5 284.72 14.5L268.88 14.5C261.325 14.5 255.2 20.6248 255.2 28.18V57.5H262.4V44.74H291.2V57.5H298.4ZM291.2 28.18C291.2 24.6012 288.299 21.7 284.72 21.7L268.88 21.7C265.301 21.7 262.4 24.6012 262.4 28.18V37.54H291.2V28.18Z" fill="white"/>
<path fill-rule="evenodd" clip-rule="evenodd" d="M399.2 57.5V28.18C399.2 20.6248 393.075 14.5 385.52 14.5L369.68 14.5C362.125 14.5 356 20.6248 356 28.18V57.5H363.2V44.74H392V57.5H399.2ZM392 28.18C392 24.6012 389.099 21.7 385.52 21.7L369.68 21.7C366.101 21.7 363.2 24.6012 363.2 28.18V37.54H392V28.18Z" fill="white"/>
<path d="M335.119 14.5C342.675 14.5 348.799 20.6249 348.799 28.18V31.06C348.799 36.596 345.511 41.3641 340.781 43.5173L348.8 57.5H340.371L333.096 44.74H312.799V57.5H305.599V14.5H335.119ZM312.799 37.54H335.119C338.698 37.54 341.599 34.6388 341.599 31.06V28.18C341.599 24.6013 338.698 21.7 335.119 21.7H312.799V37.54Z" fill="white"/>
<path d="M63.5922 63.5921C64.8831 62.3013 65.2233 60.5001 64.9131 58.3888C65.2633 57.6883 65.5735 56.9578 65.8236 56.1974C74.0588 44.0496 74.0588 27.9592 65.8236 15.8114C65.5735 15.0509 65.2633 14.3205 64.9131 13.62C65.2233 11.5086 64.8831 9.70749 63.5922 8.41666C62.3014 7.12583 60.5003 6.78561 58.389 7.09581C57.6886 6.74558 56.9581 6.43538 56.1976 6.18522C44.05 -2.06007 27.95 -2.06007 15.8024 6.17522C15.0419 6.42538 14.3114 6.73558 13.611 7.0858C11.4997 6.7756 9.69856 7.11582 8.40775 8.40665C7.11695 9.69748 6.77674 11.4986 7.08693 13.61C6.73671 14.3104 6.42652 15.0409 6.17636 15.8014C-2.05879 27.9492 -2.05879 44.0395 6.17636 56.1974C6.42652 56.9578 6.73671 57.6883 7.08693 58.3888C6.77674 60.5001 7.11695 62.3013 8.40775 63.5921C9.69856 64.8829 11.4997 65.2232 13.611 64.913C14.3114 65.2632 15.0419 65.5734 15.8024 65.8235C27.95 74.0588 44.04 74.0588 56.1876 65.8235C56.9481 65.5734 57.6786 65.2632 58.379 64.913C60.4903 65.2232 62.2914 64.8829 63.5822 63.5921H63.5922ZM38.3765 62.4914C40.6579 61.3307 42.9393 59.9398 45.1707 58.3287C47.8124 60.2099 50.4941 61.901 53.0256 63.1118C51.995 63.7622 50.9343 64.3426 49.8537 64.8629C46.3014 64.9029 42.389 64.0824 38.3765 62.4914ZM22.1563 64.8629C21.0757 64.3426 20.015 63.7622 18.9844 63.1118C21.5059 61.901 24.1876 60.2199 26.8393 58.3287C29.0707 59.9398 31.3521 61.3307 33.6335 62.4914C29.621 64.0824 25.7086 64.8929 22.1563 64.8629ZM9.50844 38.3759C10.6692 40.6574 12.06 42.9388 13.671 45.1703C11.7899 47.812 10.0988 50.4937 8.88806 53.0253C8.23765 51.9947 7.65729 50.934 7.13696 49.8533C7.09694 46.301 7.91745 42.3885 9.50844 38.3759ZM7.13696 22.1555C7.65729 21.0748 8.23765 20.0141 8.88806 18.9834C10.0988 21.5051 11.7799 24.1868 13.671 26.8385C12.06 29.0699 10.6692 31.3514 9.50844 33.6329C7.91745 29.6203 7.10694 25.7078 7.13696 22.1555ZM33.6235 9.50736C31.3421 10.6681 29.0607 12.059 26.8293 13.67C24.1876 11.7888 21.5059 10.0977 18.9744 8.88696C20.005 8.23654 21.0657 7.65617 22.1463 7.13584C25.6986 7.09581 29.611 7.91634 33.6235 9.50736ZM49.8437 7.13584C50.9243 7.65617 51.985 8.23654 53.0156 8.88696C50.4941 10.0977 47.8124 11.7788 45.1607 13.67C42.9293 12.059 40.6479 10.6681 38.3665 9.50736C42.379 7.91634 46.2914 7.10582 49.8437 7.13584ZM62.4916 33.6229C61.3308 31.3414 59.94 29.0599 58.329 26.8285C60.2101 24.1868 61.9012 21.5051 63.1119 18.9734C63.7624 20.0041 64.3427 21.0648 64.863 22.1455C64.9031 25.6978 64.0826 29.6103 62.4916 33.6229ZM64.863 49.8433C64.3427 50.924 63.7624 51.9847 63.1119 53.0153C61.9012 50.4937 60.2201 47.812 58.329 45.1603C59.94 42.9288 61.3308 40.6474 62.4916 38.3659C64.0826 42.3785 64.8931 46.291 64.863 49.8433ZM13.3609 58.6389C13.2708 58.5489 13.1807 58.4488 13.0907 58.3587C13.581 56.6376 15.0319 53.7658 17.5835 50.0034C18.2739 50.7739 18.9844 51.5344 19.7348 52.2748C20.4853 53.0153 21.2358 53.7358 22.0063 54.4262C18.2439 56.9779 15.3621 58.4188 13.651 58.9191C13.561 58.829 13.4609 58.739 13.3709 58.6489L13.3609 58.6389ZM21.1457 50.8539C20.3152 50.0234 19.5147 49.1728 18.7542 48.3123C20.4353 45.9708 22.5066 43.3291 25.0081 40.4472C26.5491 42.0883 27.7198 43.2791 28.2201 43.7794C28.7205 44.2797 29.9012 45.4505 31.5522 46.9914C28.6704 49.493 26.0288 51.5644 23.6873 53.2455C22.8268 52.485 21.9862 51.6845 21.1457 50.8539ZM32.4628 39.5367C31.252 38.3259 30.1213 37.1551 29.0407 35.9944C30.1313 34.8436 31.252 33.6629 32.4628 32.4521C33.6735 31.2413 34.8443 30.1106 36.005 29.0299C37.1557 30.1206 38.3365 31.2413 39.5472 32.4521C40.758 33.6629 41.8887 34.8336 42.9694 35.9944C41.8787 37.1451 40.758 38.3259 39.5472 39.5367C38.3365 40.7474 37.1657 41.8782 36.005 42.9589C34.8543 41.8682 33.6735 40.7474 32.4628 39.5367ZM13.3609 13.3598C13.4509 13.2698 13.551 13.1797 13.641 13.0897C15.3621 13.58 18.2339 15.0309 21.9962 17.5825C21.2258 18.273 20.4653 18.9834 19.7248 19.7339C18.9844 20.4844 18.2639 21.2349 17.5735 22.0054C15.0219 18.243 13.581 15.3611 13.0807 13.65C13.1707 13.56 13.2608 13.4599 13.3508 13.3698L13.3609 13.3598ZM21.1457 21.1448C21.9762 20.3143 22.8268 19.5138 23.6873 18.7533C26.0288 20.4344 28.6704 22.5057 31.5522 25.0073C29.9112 26.5483 28.7205 27.7191 28.2201 28.2194C27.7198 28.7197 26.5491 29.9005 25.0081 31.5515C22.5066 28.6697 20.4353 26.028 18.7542 23.6865C19.5147 22.8259 20.3152 21.9754 21.1457 21.1448ZM58.6492 13.3598C58.7392 13.4499 58.8293 13.55 58.9193 13.64C58.429 15.3611 56.9781 18.233 54.4265 21.9954C53.7361 21.2249 53.0256 20.4644 52.2752 19.7239C51.5247 18.9834 50.7742 18.263 50.0038 17.5725C53.7661 15.0209 56.6479 13.58 58.359 13.0797C58.449 13.1697 58.5491 13.2598 58.6392 13.3498L58.6492 13.3598ZM50.8643 21.1448C51.6948 21.9754 52.4953 22.8259 53.2558 23.6865C51.5747 26.028 49.5034 28.6697 47.0019 31.5515C45.4609 29.9105 44.2902 28.7197 43.7899 28.2194C43.2896 27.7191 42.1088 26.5483 40.4578 25.0073C43.3396 22.5057 45.9812 20.4344 48.3227 18.7533C49.1832 19.5138 50.0238 20.3143 50.8643 21.1448ZM47.0019 40.4572C49.5034 43.3391 51.5747 45.9808 53.2558 48.3223C52.4953 49.1829 51.6948 50.0234 50.8643 50.8639C50.0338 51.7045 49.1832 52.495 48.3227 53.2555C45.9812 51.5744 43.3396 49.5031 40.4578 47.0015C42.0988 45.4605 43.2896 44.2897 43.7899 43.7894C44.2902 43.2891 45.4609 42.1083 47.0019 40.4572ZM54.4265 50.0034C56.9781 53.7658 58.419 56.6476 58.9193 58.3587C58.8293 58.4488 58.7392 58.5489 58.6492 58.6389C58.5591 58.729 58.459 58.819 58.369 58.9091C56.6479 58.4188 53.7761 56.9679 50.0138 54.4162C50.7842 53.7258 51.5447 53.0153 52.2852 52.2648C53.0256 51.5143 53.7461 50.7639 54.4365 49.9934L54.4265 50.0034ZM57.0982 43.4692C55.1069 40.8175 52.9956 38.2458 51.0244 35.9944C52.9856 33.7429 55.1069 31.1813 57.0982 28.5196C58.8393 30.9812 60.3102 33.4928 61.4809 35.9944C60.3102 38.496 58.8393 41.0076 57.0982 43.4692ZM43.4797 14.9008C40.828 16.8921 38.2564 19.0035 36.005 20.9747C33.7536 19.0135 31.192 16.8921 28.5303 14.9008C30.9919 13.1597 33.5034 11.6888 36.005 10.518C38.5066 11.6888 41.0181 13.1597 43.4797 14.9008ZM14.9118 28.5196C16.9031 31.1713 19.0144 33.7429 20.9856 35.9944C19.0244 38.2458 16.9031 40.8075 14.9118 43.4692C13.1707 41.0076 11.6998 38.496 10.5291 35.9944C11.6998 33.4928 13.1707 30.9812 14.9118 28.5196ZM28.5303 57.0879C31.182 55.0966 33.7536 52.9853 36.005 51.014C38.2564 52.9753 40.818 55.0966 43.4797 57.0879C41.0181 58.829 38.5066 60.3 36.005 61.4707C33.5034 60.3 30.9919 58.829 28.5303 57.0879ZM66.5141 45.6706C66.0538 42.5586 65.0832 39.2865 63.6323 35.9944C65.0832 32.7023 66.0538 29.4302 66.5141 26.3182C68.4953 32.6022 68.4953 39.3766 66.5141 45.6606V45.6706ZM45.671 5.48477C42.5591 5.94507 39.2871 6.91569 35.995 8.36663C32.7029 6.91569 29.4309 5.94507 26.3189 5.48477C32.6029 3.5035 39.3771 3.5035 45.671 5.48477ZM5.48593 26.3282C5.94622 29.4402 6.91682 32.7123 8.36773 36.0044C6.91682 39.2965 5.94622 42.5686 5.48593 45.6806C3.50469 39.3966 3.50469 32.6222 5.48593 26.3282ZM26.3189 66.514C29.4309 66.0537 32.7029 65.0831 35.995 63.6321C39.2871 65.0831 42.5591 66.0537 45.671 66.514C39.3871 68.4953 32.6129 68.4953 26.329 66.514H26.3189Z" fill="white"/>
</svg>
