<svg width="328" height="330" viewBox="0 0 328 330" fill="none" xmlns="http://www.w3.org/2000/svg">
<rect x="0.5" y="0.5" width="327" height="329" fill="#FAFAFA"/>
<rect x="0.5" y="0.5" width="327" height="329" stroke="#DFDFDF"/>
<path d="M315.651 0.24707V0.741082H327.26V12.3504H327.754V0.24707H315.651Z" fill="#FF4100"/>
<path d="M12.3485 329.753V329.259H0.74007V317.65H0.246094V329.753H12.3485Z" fill="#FF4100"/>
<path d="M315.651 329.753V329.259H327.26V317.65H327.754V329.753H315.651Z" fill="#FF4100"/>
<path opacity="0.08" d="M0 0H13.8313V13.8323H0V0Z" fill="#FF4100"/>
<path d="M7.90361 11.8563V9.88024H5.92771V11.8563H7.90361Z" fill="#FF4100"/>
<path d="M5.92771 7.90419H3.95181V9.88024H5.92771V7.90419Z" fill="#FF4100"/>
<path d="M7.90361 5.92814H5.92771V7.90419H7.90361V5.92814Z" fill="#FF4100"/>
<path d="M7.90361 3.9521V5.92814H9.87952V3.9521H7.90361Z" fill="#FF4100"/>
<path d="M7.90361 1.97605H5.92771V3.9521H7.90361V1.97605Z" fill="#FF4100"/>
<path d="M5.92771 1.97605H3.95181V3.9521H5.92771V1.97605Z" fill="#FF4100"/>
<path d="M9.87952 9.88024H7.90361V11.8563H9.87952V9.88024Z" fill="#FF4100"/>
<path d="M5.92771 9.88024H3.95181V11.8563H5.92771V9.88024Z" fill="#FF4100"/>
<path d="M82.9881 165C82.9881 175.914 79.2351 184.761 74.6055 184.761C69.9759 184.761 66.2229 175.914 66.2229 165C66.2229 154.087 69.9759 145.24 74.6055 145.24C79.2351 145.24 82.9881 154.087 82.9881 165Z" fill="url(#paint0_linear_370_17936)"/>
<path d="M47.4219 165C47.4219 175.914 51.1749 184.761 55.8045 184.761H74.6055C69.9759 184.761 66.2229 175.914 66.2229 165C66.2229 154.087 69.9759 145.24 74.6055 145.24H55.8045C51.1749 145.24 47.4219 154.087 47.4219 165Z" fill="url(#paint1_linear_370_17936)"/>
<path d="M65.9748 165C65.9748 159.519 66.9168 154.544 68.4495 150.931C69.2157 149.125 70.1347 147.647 71.1674 146.618C71.6441 146.142 72.1488 145.761 72.6753 145.487H55.8035C54.7306 145.487 53.6872 145.998 52.7151 146.967C51.7421 147.937 50.8542 149.354 50.1034 151.124C48.6023 154.663 47.6678 159.568 47.6678 165C47.6678 170.432 48.6023 175.338 50.1034 178.876C50.8542 180.646 51.7421 182.063 52.7151 183.033C53.6872 184.002 54.7306 184.514 55.8035 184.514H72.6753C72.1488 184.239 71.6441 183.858 71.1674 183.383C70.1347 182.353 69.2157 180.876 68.4495 179.069C66.9168 175.456 65.9748 170.482 65.9748 165ZM66.4688 165C66.4688 170.432 67.4033 175.338 68.9044 178.876C69.6552 180.646 70.543 182.063 71.5161 183.033C72.4882 184.002 73.5315 184.514 74.6044 184.514C75.6773 184.514 76.7207 184.002 77.6928 183.033C78.6658 182.063 79.5537 180.646 80.3045 178.876C81.8056 175.338 82.7401 170.432 82.7401 165C82.7401 159.568 81.8056 154.663 80.3045 151.124C79.5537 149.354 78.6658 147.937 77.6928 146.967C76.7207 145.998 75.6773 145.487 74.6044 145.487C73.5315 145.487 72.4882 145.998 71.5161 146.967C70.543 147.937 69.6552 149.354 68.9044 151.124C67.4033 154.663 66.4688 159.568 66.4688 165ZM83.2341 165C83.2341 170.482 82.2921 175.456 80.7594 179.069C79.9932 180.876 79.0742 182.353 78.0415 183.383C77.0725 184.349 75.991 184.932 74.8365 185.001L74.6044 185.008H55.8035C54.5617 185.008 53.4 184.413 52.3664 183.383C51.3337 182.353 50.4147 180.876 49.6485 179.069C48.1158 175.456 47.1738 170.482 47.1738 165C47.1738 159.519 48.1158 154.544 49.6485 150.931C50.4147 149.125 51.3337 147.647 52.3664 146.618C53.4 145.587 54.5617 144.993 55.8035 144.993H74.6044C75.8462 144.993 77.0079 145.587 78.0415 146.618C79.0742 147.647 79.9932 149.125 80.7594 150.931C82.2921 154.544 83.2341 159.519 83.2341 165Z" fill="black"/>
<path d="M65.1973 66.1975C65.1973 55.2841 74.0443 46.437 84.9577 46.437H243.042C253.955 46.437 262.802 55.2841 262.802 66.1975V191.918C262.802 199.605 258.345 206.594 251.375 209.836L177.832 244.042H150.167L76.6242 209.836C69.6546 206.594 65.1973 199.605 65.1973 191.918V66.1975Z" fill="url(#paint2_linear_370_17936)"/>
<path d="M262.556 66.1974C262.556 55.4204 253.819 46.684 243.042 46.684H84.9587C74.1817 46.684 65.4452 55.4204 65.4452 66.1974V191.918C65.4452 199.509 69.8469 206.41 76.7293 209.611L150.223 243.795H177.778L251.272 209.611C258.154 206.41 262.556 199.509 262.556 191.918V66.1974ZM263.05 191.918C263.05 199.701 258.537 206.777 251.48 210.06L177.887 244.289H150.114L76.5209 210.06C69.4642 206.777 64.9512 199.701 64.9512 191.918V66.1974C64.9512 55.1476 73.9088 46.1899 84.9587 46.1899H243.042C254.092 46.1899 263.05 55.1476 263.05 66.1974V191.918Z" fill="black"/>
<g filter="url(#filter0_f_370_17936)">
<path d="M70.9824 85.9583C70.9824 77.2276 78.0601 70.1499 86.7908 70.1499H217.21C225.941 70.1499 233.018 77.2276 233.018 85.9583V189.697C233.018 195.846 229.452 201.437 223.877 204.031L166.513 230.711C164.425 231.683 162.15 232.186 159.846 232.186H144.154C141.851 232.186 139.576 231.683 137.487 230.711L80.1239 204.031C74.5483 201.437 70.9824 195.846 70.9824 189.697V85.9583Z" fill="white"/>
</g>
<path d="M39.5188 165L34.579 167.852V165.494H7.9043V164.506H34.579V162.148L39.5188 165Z" fill="#FF4100"/>
<g filter="url(#filter1_f_370_17936)">
<path d="M213.398 155.12V97.3201C213.398 94.0461 210.745 91.392 207.471 91.392C204.197 91.392 201.543 94.0461 201.543 97.3201V174.88C201.543 182.519 195.351 188.712 187.712 188.712C180.073 188.712 173.88 182.519 173.88 174.88V97.3201C173.88 94.0461 171.226 91.392 167.953 91.392C164.679 91.392 162.025 94.0461 162.025 97.3201V174.88C162.025 182.519 155.832 188.712 148.194 188.712C140.555 188.712 134.362 182.519 134.362 174.88V97.3201C134.362 94.0461 131.708 91.392 128.435 91.392C125.161 91.392 122.507 94.0461 122.507 97.3201V174.88C122.507 182.519 116.314 188.712 108.676 188.712C101.037 188.712 94.8442 182.519 94.8442 174.88C94.8442 171.606 92.1903 168.952 88.9165 168.952H59.278C57.0955 168.952 55.3262 167.182 55.3262 165C55.3262 162.817 57.0955 161.048 59.278 161.048H88.9165C96.5554 161.048 102.748 167.241 102.748 174.88C102.748 178.154 105.402 180.808 108.676 180.808C111.949 180.808 114.603 178.154 114.603 174.88V97.3201C114.603 89.6807 120.796 83.4878 128.435 83.4878C136.073 83.4878 142.266 89.6807 142.266 97.3201V174.88C142.266 178.154 144.92 180.808 148.194 180.808C151.467 180.808 154.121 178.154 154.121 174.88V97.3201C154.121 89.6807 160.314 83.4878 167.953 83.4878C175.591 83.4878 181.784 89.6807 181.784 97.3201V174.88C181.784 178.154 184.438 180.808 187.712 180.808C190.985 180.808 193.639 178.154 193.639 174.88V97.3201C193.639 89.6807 199.832 83.4878 207.471 83.4878C215.11 83.4878 221.302 89.6807 221.302 97.3201V155.12C221.302 158.394 223.956 161.048 227.23 161.048H255.386C257.569 161.048 259.338 162.817 259.338 165C259.338 167.182 257.569 168.952 255.386 168.952H227.23C219.591 168.952 213.398 162.759 213.398 155.12Z" fill="#FF4100"/>
</g>
<path d="M150.168 244.042H177.831V262.686V276.282C177.831 276.572 177.798 276.859 177.735 277.141C176.928 280.757 171.086 283.563 163.999 283.563C156.913 283.563 151.071 280.757 150.263 277.141C150.201 276.86 150.168 276.574 150.168 276.285L150.168 276.282V262.686L150.168 262.683V244.042Z" fill="url(#paint3_linear_370_17936)"/>
<path d="M149.922 243.795H178.078V276.282C178.078 276.513 178.059 276.743 178.021 276.969L177.977 277.195C177.549 279.112 175.804 280.765 173.328 281.931C170.843 283.103 167.574 283.81 164 283.81C160.427 283.81 157.157 283.103 154.672 281.931C152.274 280.801 150.561 279.215 150.067 277.374L150.023 277.195C149.957 276.897 149.922 276.593 149.922 276.285V243.795ZM150.416 276.284L150.422 276.487C150.433 276.689 150.461 276.889 150.505 277.087L150.544 277.246C150.984 278.883 152.54 280.38 154.883 281.485C157.292 282.62 160.487 283.316 164 283.316C167.513 283.316 170.708 282.62 173.118 281.485C175.536 280.344 177.116 278.785 177.495 277.087L177.534 276.888C177.567 276.688 177.585 276.486 177.585 276.282V244.289H150.416V276.284Z" fill="black"/>
<path d="M280.578 165C280.578 175.914 276.825 184.761 272.195 184.761C267.566 184.761 263.813 175.914 263.813 165C263.813 154.087 267.566 145.24 272.195 145.24C276.825 145.24 280.578 154.087 280.578 165Z" fill="url(#paint4_linear_370_17936)"/>
<path d="M245.012 165C245.012 175.914 248.765 184.761 253.394 184.761H272.195C267.566 184.761 263.813 175.914 263.813 165C263.813 154.087 267.566 145.24 272.195 145.24H253.394C248.765 145.24 245.012 154.087 245.012 165Z" fill="url(#paint5_linear_370_17936)"/>
<path d="M263.567 165C263.567 159.519 264.509 154.544 266.041 150.931C266.807 149.125 267.726 147.647 268.759 146.618C269.236 146.142 269.741 145.761 270.267 145.487H253.395C252.322 145.487 251.279 145.998 250.307 146.967C249.334 147.937 248.446 149.354 247.695 151.124C246.194 154.663 245.26 159.568 245.26 165C245.26 170.432 246.194 175.338 247.695 178.876C248.446 180.646 249.334 182.063 250.307 183.033C251.279 184.002 252.322 184.514 253.395 184.514H270.267C269.741 184.239 269.236 183.858 268.759 183.383C267.726 182.353 266.807 180.876 266.041 179.069C264.509 175.456 263.567 170.482 263.567 165ZM264.061 165C264.061 170.432 264.995 175.338 266.496 178.876C267.247 180.646 268.135 182.063 269.108 183.033C270.08 184.002 271.123 184.514 272.196 184.514C273.269 184.514 274.313 184.002 275.285 183.033C276.258 182.063 277.145 180.646 277.896 178.876C279.397 175.338 280.332 170.432 280.332 165C280.332 159.568 279.397 154.663 277.896 151.124C277.145 149.354 276.258 147.937 275.285 146.967C274.313 145.998 273.269 145.487 272.196 145.487C271.123 145.487 270.08 145.998 269.108 146.967C268.135 147.937 267.247 149.354 266.496 151.124C264.995 154.663 264.061 159.568 264.061 165ZM280.826 165C280.826 170.482 279.884 175.456 278.351 179.069C277.585 180.876 276.666 182.353 275.633 183.383C274.664 184.349 273.583 184.932 272.428 185.001L272.196 185.008H253.395C252.153 185.008 250.992 184.413 249.958 183.383C248.925 182.353 248.007 180.876 247.24 179.069C245.708 175.456 244.766 170.482 244.766 165C244.766 159.519 245.708 154.544 247.24 150.931C248.007 149.125 248.925 147.647 249.958 146.618C250.992 145.587 252.153 144.993 253.395 144.993H272.196C273.438 144.993 274.6 145.587 275.633 146.618C276.666 147.647 277.585 149.125 278.351 150.931C279.884 154.544 280.826 159.519 280.826 165Z" fill="black"/>
<path d="M262.556 66.1974C262.556 55.4204 253.819 46.684 243.042 46.684H84.9587C74.1817 46.684 65.4452 55.4204 65.4452 66.1974V191.918C65.4452 199.509 69.8469 206.41 76.7293 209.611L150.223 243.795H177.778L251.272 209.611C258.154 206.41 262.556 199.509 262.556 191.918V66.1974ZM263.05 191.918C263.05 199.701 258.537 206.777 251.48 210.06L177.887 244.289H150.114L76.5209 210.06C69.4642 206.777 64.9512 199.701 64.9512 191.918V66.1974C64.9512 55.1476 73.9088 46.1899 84.9587 46.1899H243.042C254.092 46.1899 263.05 55.1476 263.05 66.1974V191.918Z" fill="black"/>
<g filter="url(#filter2_i_370_17936)">
<path d="M213.398 155.12V97.3201C213.398 94.0461 210.745 91.392 207.471 91.392C204.197 91.392 201.543 94.0461 201.543 97.3201V174.88C201.543 182.519 195.351 188.712 187.712 188.712C180.073 188.712 173.88 182.519 173.88 174.88V97.3201C173.88 94.0461 171.226 91.392 167.953 91.392C164.679 91.392 162.025 94.0461 162.025 97.3201V174.88C162.025 182.519 155.832 188.712 148.194 188.712C140.555 188.712 134.362 182.519 134.362 174.88V97.3201C134.362 94.0461 131.708 91.392 128.435 91.392C125.161 91.392 122.507 94.0461 122.507 97.3201V174.88C122.507 182.519 116.314 188.712 108.676 188.712C101.037 188.712 94.8442 182.519 94.8442 174.88C94.8442 171.606 92.1903 168.952 88.9165 168.952H59.278C57.0955 168.952 55.3262 167.182 55.3262 165C55.3262 162.817 57.0955 161.048 59.278 161.048H88.9165C96.5554 161.048 102.748 167.241 102.748 174.88C102.748 178.154 105.402 180.808 108.676 180.808C111.949 180.808 114.603 178.154 114.603 174.88V97.3201C114.603 89.6807 120.796 83.4878 128.435 83.4878C136.073 83.4878 142.266 89.6807 142.266 97.3201V174.88C142.266 178.154 144.92 180.808 148.194 180.808C151.467 180.808 154.121 178.154 154.121 174.88V97.3201C154.121 89.6807 160.314 83.4878 167.953 83.4878C175.591 83.4878 181.784 89.6807 181.784 97.3201V174.88C181.784 178.154 184.438 180.808 187.712 180.808C190.985 180.808 193.639 178.154 193.639 174.88V97.3201C193.639 89.6807 199.832 83.4878 207.471 83.4878C215.11 83.4878 221.302 89.6807 221.302 97.3201V155.12C221.302 158.394 223.956 161.048 227.23 161.048H255.386C257.569 161.048 259.338 162.817 259.338 165C259.338 167.182 257.569 168.952 255.386 168.952H227.23C219.591 168.952 213.398 162.759 213.398 155.12Z" fill="#FF4100"/>
</g>
<path d="M263.567 165C263.567 159.519 264.509 154.544 266.041 150.931C266.807 149.125 267.726 147.647 268.759 146.618C269.236 146.142 269.741 145.761 270.267 145.487H253.395C252.322 145.487 251.279 145.998 250.307 146.967C249.334 147.937 248.446 149.354 247.695 151.124C246.194 154.663 245.26 159.568 245.26 165C245.26 170.432 246.194 175.338 247.695 178.876C248.446 180.646 249.334 182.063 250.307 183.033C251.279 184.002 252.322 184.514 253.395 184.514H270.267C269.741 184.239 269.236 183.858 268.759 183.383C267.726 182.353 266.807 180.876 266.041 179.069C264.509 175.456 263.567 170.482 263.567 165ZM264.061 165C264.061 170.432 264.995 175.338 266.496 178.876C267.247 180.646 268.135 182.063 269.108 183.033C270.08 184.002 271.123 184.514 272.196 184.514C273.269 184.514 274.313 184.002 275.285 183.033C276.258 182.063 277.145 180.646 277.896 178.876C279.397 175.338 280.332 170.432 280.332 165C280.332 159.568 279.397 154.663 277.896 151.124C277.145 149.354 276.258 147.937 275.285 146.967C274.313 145.998 273.269 145.487 272.196 145.487C271.123 145.487 270.08 145.998 269.108 146.967C268.135 147.937 267.247 149.354 266.496 151.124C264.995 154.663 264.061 159.568 264.061 165ZM280.826 165C280.826 170.482 279.884 175.456 278.351 179.069C277.585 180.876 276.666 182.353 275.633 183.383C274.664 184.349 273.583 184.932 272.428 185.001L272.196 185.008H253.395C252.153 185.008 250.992 184.413 249.958 183.383C248.925 182.353 248.007 180.876 247.24 179.069C245.708 175.456 244.766 170.482 244.766 165C244.766 159.519 245.708 154.544 247.24 150.931C248.007 149.125 248.925 147.647 249.958 146.618C250.992 145.587 252.153 144.993 253.395 144.993H272.196C273.438 144.993 274.6 145.587 275.633 146.618C276.666 147.647 277.585 149.125 278.351 150.931C279.884 154.544 280.826 159.519 280.826 165Z" fill="black"/>
<path d="M304.782 165L299.843 167.852V165.494H273.168V164.506H299.843V162.148L304.782 165Z" fill="#FF4100"/>
<defs>
<filter id="filter0_f_370_17936" x="54.9824" y="54.1499" width="194.035" height="194.036" filterUnits="userSpaceOnUse" color-interpolation-filters="sRGB">
<feFlood flood-opacity="0" result="BackgroundImageFix"/>
<feBlend mode="normal" in="SourceGraphic" in2="BackgroundImageFix" result="shape"/>
<feGaussianBlur stdDeviation="8" result="effect1_foregroundBlur_370_17936"/>
</filter>
<filter id="filter1_f_370_17936" x="39.3262" y="67.4878" width="236.012" height="137.225" filterUnits="userSpaceOnUse" color-interpolation-filters="sRGB">
<feFlood flood-opacity="0" result="BackgroundImageFix"/>
<feBlend mode="normal" in="SourceGraphic" in2="BackgroundImageFix" result="shape"/>
<feGaussianBlur stdDeviation="8" result="effect1_foregroundBlur_370_17936"/>
</filter>
<filter id="filter2_i_370_17936" x="55.3262" y="83.4878" width="204.012" height="109.225" filterUnits="userSpaceOnUse" color-interpolation-filters="sRGB">
<feFlood flood-opacity="0" result="BackgroundImageFix"/>
<feBlend mode="normal" in="SourceGraphic" in2="BackgroundImageFix" result="shape"/>
<feColorMatrix in="SourceAlpha" type="matrix" values="0 0 0 0 0 0 0 0 0 0 0 0 0 0 0 0 0 0 127 0" result="hardAlpha"/>
<feOffset dy="4"/>
<feGaussianBlur stdDeviation="4"/>
<feComposite in2="hardAlpha" operator="arithmetic" k2="-1" k3="1"/>
<feColorMatrix type="matrix" values="0 0 0 0 0 0 0 0 0 0 0 0 0 0 0 0 0 0 0.48 0"/>
<feBlend mode="normal" in2="shape" result="effect1_innerShadow_370_17936"/>
</filter>
<linearGradient id="paint0_linear_370_17936" x1="70.4635" y1="146.109" x2="54.9689" y2="180.463" gradientUnits="userSpaceOnUse">
<stop stop-color="#EEEEEE"/>
<stop offset="0.334842" stop-color="#E3E3E3"/>
<stop offset="0.751797" stop-color="#737B7F"/>
<stop offset="1" stop-color="#EEEEEE"/>
</linearGradient>
<linearGradient id="paint1_linear_370_17936" x1="65.205" y1="184.761" x2="65.205" y2="145.24" gradientUnits="userSpaceOnUse">
<stop stop-color="#343030"/>
<stop offset="0.115462" stop-color="#80868D"/>
<stop offset="0.212121" stop-color="#80868D"/>
<stop offset="0.541622" stop-color="white"/>
<stop offset="0.890909" stop-color="white"/>
<stop offset="1" stop-color="#B2B2B2"/>
</linearGradient>
<linearGradient id="paint2_linear_370_17936" x1="262.802" y1="145.239" x2="65.1973" y2="145.239" gradientUnits="userSpaceOnUse">
<stop stop-color="#343030"/>
<stop offset="0.115462" stop-color="#80868D"/>
<stop offset="0.212121" stop-color="#80868D"/>
<stop offset="0.541622" stop-color="white"/>
<stop offset="0.890909" stop-color="white"/>
<stop offset="1" stop-color="#B2B2B2"/>
</linearGradient>
<linearGradient id="paint3_linear_370_17936" x1="177.831" y1="263.802" x2="150.168" y2="263.802" gradientUnits="userSpaceOnUse">
<stop stop-color="#343030"/>
<stop offset="0.115462" stop-color="#80868D"/>
<stop offset="0.212121" stop-color="#80868D"/>
<stop offset="0.541622" stop-color="white"/>
<stop offset="0.890909" stop-color="white"/>
<stop offset="1" stop-color="#B2B2B2"/>
</linearGradient>
<linearGradient id="paint4_linear_370_17936" x1="268.053" y1="146.109" x2="252.559" y2="180.463" gradientUnits="userSpaceOnUse">
<stop stop-color="#EEEEEE"/>
<stop offset="0.334842" stop-color="#E3E3E3"/>
<stop offset="0.751797" stop-color="#737B7F"/>
<stop offset="1" stop-color="#EEEEEE"/>
</linearGradient>
<linearGradient id="paint5_linear_370_17936" x1="262.795" y1="184.761" x2="262.795" y2="145.24" gradientUnits="userSpaceOnUse">
<stop stop-color="#343030"/>
<stop offset="0.115462" stop-color="#80868D"/>
<stop offset="0.212121" stop-color="#80868D"/>
<stop offset="0.541622" stop-color="white"/>
<stop offset="0.890909" stop-color="white"/>
<stop offset="1" stop-color="#B2B2B2"/>
</linearGradient>
</defs>
</svg>
