<svg width="328" height="330" viewBox="0 0 328 330" fill="none" xmlns="http://www.w3.org/2000/svg">
<rect x="0.5" y="0.5" width="327" height="329" fill="#FAFAFA"/>
<rect x="0.5" y="0.5" width="327" height="329" stroke="#DFDFDF"/>
<path d="M138.313 52.8595C138.313 67.047 132.12 78.5481 124.481 78.5481C116.843 78.5481 110.65 67.047 110.65 52.8595C110.65 38.6721 116.843 27.1709 124.481 27.1709C132.12 27.1709 138.313 38.6721 138.313 52.8595Z" fill="url(#paint0_linear_370_17916)"/>
<path d="M39.5176 52.8595C39.5176 67.047 45.7101 78.5481 53.3489 78.5481H124.481C116.843 78.5481 110.65 67.047 110.65 52.8595C110.65 38.6721 116.843 27.1709 124.481 27.1709H53.3489C45.7101 27.1709 39.5176 38.6721 39.5176 52.8595Z" fill="url(#paint1_linear_370_17916)"/>
<path d="M110.404 52.8595C110.404 45.733 111.959 39.2689 114.485 34.5776C116.402 31.017 118.899 28.4452 121.725 27.4178H53.3498C49.6648 27.4178 46.2727 30.1959 43.7872 34.8121C41.3072 39.4183 39.7655 45.7984 39.7655 52.8595C39.7655 59.9205 41.3072 66.3007 43.7872 70.9068C46.2727 75.523 49.6648 78.3011 53.3498 78.3011H121.725C118.899 77.2737 116.402 74.7019 114.485 71.1413C111.959 66.45 110.404 59.9859 110.404 52.8595ZM110.898 52.8595C110.898 59.9205 112.44 66.3007 114.92 70.9068C117.405 75.523 120.797 78.3011 124.482 78.3011C128.167 78.3011 131.559 75.523 134.045 70.9068C136.525 66.3007 138.067 59.9205 138.067 52.8595C138.067 45.7984 136.525 39.4183 134.045 34.8121C131.559 30.1959 128.167 27.4178 124.482 27.4178C120.797 27.4178 117.405 30.1959 114.92 34.8121C112.44 39.4183 110.898 45.7984 110.898 52.8595ZM138.561 52.8595C138.561 59.9859 137.006 66.45 134.48 71.1413C131.96 75.8225 128.436 78.7951 124.482 78.7951H53.3498C49.396 78.7951 45.8726 75.8225 43.3521 71.1413C40.8262 66.45 39.2715 59.9859 39.2715 52.8595C39.2715 45.733 40.8262 39.2689 43.3521 34.5776C45.8726 29.8965 49.396 26.9238 53.3498 26.9238H124.482C128.436 26.9238 131.96 29.8965 134.48 34.5776C137.006 39.2689 138.561 45.733 138.561 52.8595Z" fill="black"/>
<path d="M93.5496 55.8945C92.9035 55.8945 92.3522 55.7641 91.8958 55.5032C91.4453 55.2365 91.1015 54.863 90.8643 54.3828C90.6332 53.9026 90.5176 53.3424 90.5176 52.7022C90.5176 52.0501 90.6361 51.481 90.8732 50.9949C91.1163 50.5088 91.463 50.1324 91.9136 49.8656C92.3641 49.5929 92.9064 49.4565 93.5407 49.4565C94.0209 49.4565 94.4506 49.5395 94.83 49.7055C95.2094 49.8656 95.5146 50.1057 95.7458 50.4258C95.9829 50.74 96.1311 51.1283 96.1904 51.5907H94.9634C94.8863 51.3002 94.7292 51.072 94.4921 50.906C94.2609 50.7341 93.9527 50.6481 93.5674 50.6481C93.1406 50.6481 92.7997 50.7459 92.5449 50.9415C92.2959 51.1312 92.1151 51.3802 92.0025 51.6885C91.8898 51.9908 91.8335 52.3109 91.8335 52.6488C91.8335 52.9986 91.8928 53.3306 92.0114 53.6448C92.1299 53.959 92.3166 54.2139 92.5715 54.4095C92.8323 54.6051 93.1732 54.7029 93.5941 54.7029C93.843 54.7029 94.0653 54.6674 94.2609 54.5962C94.4565 54.5192 94.6166 54.4095 94.7411 54.2672C94.8715 54.125 94.9604 53.956 95.0078 53.7604H96.2793C96.226 54.2168 96.0718 54.6051 95.8169 54.9253C95.5621 55.2454 95.239 55.4884 94.8478 55.6544C94.4565 55.8145 94.0238 55.8945 93.5496 55.8945Z" fill="#0A0000"/>
<path d="M85.1172 55.8235V49.5278H87.5713C88.0514 49.5278 88.4693 49.6019 88.825 49.7501C89.1866 49.8924 89.4652 50.1236 89.6608 50.4437C89.8564 50.7579 89.9542 51.1788 89.9542 51.7064C89.9542 52.1985 89.8445 52.6105 89.6252 52.9424C89.4118 53.2744 89.1184 53.5234 88.7449 53.6894C88.3715 53.8494 87.9477 53.9295 87.4735 53.9295H86.3887V55.8235H85.1172ZM86.3887 52.7913H87.4557C87.835 52.7913 88.1344 52.7024 88.3537 52.5245C88.579 52.3407 88.6916 52.0651 88.6916 51.6975C88.6916 51.3715 88.5968 51.1255 88.4071 50.9595C88.2233 50.7935 87.9269 50.7105 87.5179 50.7105H86.3887V52.7913Z" fill="#0A0000"/>
<path d="M81.3112 55.8235V50.7105H79.3906V49.5278H84.5211V50.7105H82.5916V55.8235H81.3112Z" fill="#0A0000"/>
<path d="M75.6408 57.1838L75.2852 56.6413C75.3741 56.5939 75.4719 56.5257 75.5786 56.4368C75.6912 56.3479 75.792 56.2501 75.8809 56.1434C75.9698 56.0426 76.0291 55.9477 76.0587 55.8588C75.8809 55.847 75.7238 55.7788 75.5875 55.6543C75.4511 55.5298 75.383 55.3579 75.383 55.1385C75.3889 54.8955 75.4689 54.7117 75.623 54.5872C75.7831 54.4568 75.9639 54.3916 76.1654 54.3916C76.4262 54.3916 76.6278 54.4865 76.7701 54.6762C76.9123 54.8599 76.9835 55.103 76.9835 55.4053C76.9835 55.6839 76.9182 55.9448 76.7878 56.1878C76.6574 56.4309 76.4915 56.6384 76.2899 56.8103C76.0884 56.9822 75.872 57.1067 75.6408 57.1838Z" fill="#0A0000"/>
<path d="M69.2891 55.8235V49.5278H71.6631C72.3211 49.5278 72.8813 49.6523 73.3436 49.9013C73.8119 50.1503 74.1676 50.5089 74.4106 50.9773C74.6596 51.4456 74.784 52.0177 74.784 52.6935C74.784 53.3574 74.6625 53.9236 74.4195 54.3919C74.1824 54.8543 73.8327 55.21 73.3703 55.4589C72.9079 55.702 72.3418 55.8235 71.672 55.8235H69.2891ZM70.5606 54.6497H71.6631C72.1018 54.6497 72.4545 54.5668 72.7212 54.4008C72.988 54.2348 73.1836 54.0036 73.3081 53.7072C73.4325 53.4108 73.4948 53.0699 73.4948 52.6846C73.4948 52.3111 73.4325 51.9762 73.3081 51.6797C73.1895 51.3774 72.9939 51.1403 72.7212 50.9684C72.4545 50.7965 72.0929 50.7105 71.6364 50.7105H70.5606V54.6497Z" fill="#0A0000"/>
<path d="M63.6289 55.8235V49.5278H66.083C66.5631 49.5278 66.981 49.6019 67.3367 49.7501C67.6983 49.8924 67.9769 50.1236 68.1725 50.4437C68.3681 50.7579 68.4659 51.1788 68.4659 51.7064C68.4659 52.1985 68.3563 52.6105 68.1369 52.9424C67.9235 53.2744 67.6301 53.5234 67.2567 53.6894C66.8832 53.8494 66.4594 53.9295 65.9852 53.9295H64.9004V55.8235H63.6289ZM64.9004 52.7913H65.9674C66.3468 52.7913 66.6461 52.7024 66.8654 52.5245C67.0907 52.3407 67.2033 52.0651 67.2033 51.6975C67.2033 51.3715 67.1085 51.1255 66.9188 50.9595C66.735 50.7935 66.4386 50.7105 66.0296 50.7105H64.9004V52.7913Z" fill="#0A0000"/>
<path d="M57.9688 55.8235V49.5278H60.4228C60.903 49.5278 61.3209 49.6019 61.6765 49.7501C62.0381 49.8924 62.3167 50.1236 62.5123 50.4437C62.708 50.7579 62.8058 51.1788 62.8058 51.7064C62.8058 52.1985 62.6961 52.6105 62.4768 52.9424C62.2634 53.2744 61.97 53.5234 61.5965 53.6894C61.2231 53.8494 60.7992 53.9295 60.325 53.9295H59.2402V55.8235H57.9688ZM59.2402 52.7913H60.3072C60.6866 52.7913 60.986 52.7024 61.2053 52.5245C61.4305 52.3407 61.5432 52.0651 61.5432 51.6975C61.5432 51.3715 61.4483 51.1255 61.2586 50.9595C61.0749 50.7935 60.7785 50.7105 60.3695 50.7105H59.2402V52.7913Z" fill="#0A0000"/>
<path d="M133.373 69.6557C133.373 72.9297 131.966 75.5838 130.23 75.5838C128.493 75.5838 127.086 72.9297 127.086 69.6557C127.086 66.3817 128.493 63.7275 130.23 63.7275C131.966 63.7275 133.373 66.3817 133.373 69.6557Z" fill="url(#paint2_linear_370_17916)"/>
<path d="M121.518 69.6557C121.518 72.9297 122.925 75.5838 124.661 75.5838H130.23C128.493 75.5838 127.086 72.9297 127.086 69.6557C127.086 66.3817 128.493 63.7275 130.23 63.7275H124.661C122.925 63.7275 121.518 66.3817 121.518 69.6557Z" fill="url(#paint3_linear_370_17916)"/>
<path d="M126.84 69.6556C126.84 67.9865 127.198 66.463 127.79 65.348C128.09 64.781 128.462 64.3045 128.887 63.9745H124.662C123.93 63.9746 123.21 64.5381 122.657 65.5795C122.111 66.6101 121.765 68.0507 121.765 69.6556C121.765 71.2605 122.111 72.7012 122.657 73.7317C123.21 74.7731 123.93 75.3367 124.662 75.3368H128.887C128.462 75.0067 128.09 74.5303 127.79 73.9633C127.198 72.8482 126.84 71.3248 126.84 69.6556ZM127.334 69.6556C127.334 71.2605 127.679 72.7012 128.226 73.7317C128.778 74.7732 129.499 75.3368 130.231 75.3368C130.962 75.3367 131.683 74.7731 132.235 73.7317C132.781 72.7012 133.127 71.2605 133.127 69.6556C133.127 68.0507 132.781 66.6101 132.235 65.5795C131.683 64.5381 130.962 63.9746 130.231 63.9745C129.499 63.9745 128.778 64.5381 128.226 65.5795C127.679 66.6101 127.334 68.0508 127.334 69.6556ZM133.621 69.6556C133.621 71.3248 133.263 72.8482 132.672 73.9633C132.104 75.0328 131.288 75.7825 130.324 75.8284L130.231 75.8308H124.662C123.657 75.8307 122.806 75.0673 122.221 73.9633C121.63 72.8482 121.271 71.3248 121.271 69.6556C121.271 67.9865 121.63 66.463 122.221 65.348C122.806 64.244 123.657 63.4806 124.662 63.4805H130.231C131.235 63.4806 132.086 64.244 132.672 65.348C133.263 66.463 133.621 67.9865 133.621 69.6556Z" fill="black"/>
<path d="M51.373 73.1138H59.2767V84.9701H51.373V73.1138Z" fill="url(#paint4_linear_370_17916)"/>
<path d="M59.2767 73.1138V84.9701L63.2285 78.5479C61.0056 78.5479 59.2767 75.5838 59.2767 73.1138Z" fill="url(#paint5_linear_370_17916)"/>
<path d="M51.373 73.1138H59.2767V84.9701H51.373V73.1138Z" fill="url(#paint6_linear_370_17916)"/>
<path d="M59.5245 72.8667V73.1137C59.5245 74.2968 59.9405 75.6075 60.6244 76.6186C61.3114 77.6342 62.2336 78.3008 63.2294 78.3008H63.6712L59.4155 85.217H51.127V72.8667H59.5245ZM51.6209 84.723H59.0306V73.3607H51.6209V84.723ZM59.5245 84.0973L62.8073 78.7616C61.7608 78.6 60.863 77.853 60.2153 76.8955C59.9429 76.4927 59.71 76.0462 59.5245 75.5785V84.0973Z" fill="black"/>
<path d="M102.746 73.1138H110.65V84.9701H102.746V73.1138Z" fill="url(#paint7_linear_370_17916)"/>
<path d="M110.65 73.1138V84.9701L114.602 78.5479C112.379 78.5479 110.65 75.5838 110.65 73.1138Z" fill="url(#paint8_linear_370_17916)"/>
<path d="M102.746 73.1138H110.65V84.9701H102.746V73.1138Z" fill="url(#paint9_linear_370_17916)"/>
<path d="M110.898 72.8667V73.1137C110.898 74.2968 111.314 75.6075 111.997 76.6186C112.684 77.6342 113.607 78.3008 114.602 78.3008H115.044L110.789 85.217H102.5V72.8667H110.898ZM102.994 84.723H110.404V73.3607H102.994V84.723ZM110.898 84.0973L114.18 78.7616C113.134 78.6 112.236 77.853 111.588 76.8955C111.316 76.4927 111.083 76.0462 110.898 75.5785V84.0973Z" fill="black"/>
<path d="M189.687 52.8595C189.687 67.047 195.88 78.5481 203.519 78.5481C211.157 78.5481 217.35 67.047 217.35 52.8595C217.35 38.6721 211.157 27.1709 203.519 27.1709C195.88 27.1709 189.687 38.6721 189.687 52.8595Z" fill="url(#paint10_linear_370_17916)"/>
<path d="M288.482 52.8595C288.482 67.047 282.29 78.5481 274.651 78.5481H203.519C211.157 78.5481 217.35 67.047 217.35 52.8595C217.35 38.6721 211.157 27.1709 203.519 27.1709H274.651C282.29 27.1709 288.482 38.6721 288.482 52.8595Z" fill="url(#paint11_linear_370_17916)"/>
<path d="M217.596 52.8595C217.596 45.733 216.041 39.2689 213.515 34.5776C211.598 31.017 209.101 28.4452 206.275 27.4178H274.65C278.335 27.4178 281.727 30.1959 284.213 34.8121C286.693 39.4183 288.235 45.7984 288.235 52.8595C288.235 59.9205 286.693 66.3007 284.213 70.9068C281.727 75.523 278.335 78.3011 274.65 78.3011H206.275C209.101 77.2737 211.598 74.7019 213.515 71.1413C216.041 66.45 217.596 59.9859 217.596 52.8595ZM217.102 52.8595C217.102 59.9205 215.56 66.3007 213.08 70.9068C210.595 75.523 207.203 78.3011 203.518 78.3011C199.833 78.3011 196.441 75.523 193.955 70.9068C191.475 66.3007 189.933 59.9205 189.933 52.8595C189.933 45.7984 191.475 39.4183 193.955 34.8121C196.441 30.1959 199.833 27.4178 203.518 27.4178C207.203 27.4178 210.595 30.1959 213.08 34.8121C215.56 39.4183 217.102 45.7984 217.102 52.8595ZM189.439 52.8595C189.439 59.9859 190.994 66.45 193.52 71.1413C196.04 75.8225 199.564 78.7951 203.518 78.7951H274.65C278.604 78.7951 282.127 75.8225 284.648 71.1413C287.174 66.45 288.729 59.9859 288.729 52.8595C288.729 45.733 287.174 39.2689 284.648 34.5776C282.127 29.8965 278.604 26.9238 274.65 26.9238H203.518C199.564 26.9238 196.04 29.8965 193.52 34.5776C190.994 39.2689 189.439 45.733 189.439 52.8595Z" fill="black"/>
<path d="M275.348 57.7995V57.09L276.383 56.2416C276.454 56.1812 276.536 56.1154 276.628 56.0442C276.721 55.9695 276.808 55.8895 276.889 55.8041C276.975 55.7152 277.046 55.6245 277.103 55.532C277.16 55.4396 277.188 55.3435 277.188 55.2439C277.188 55.1123 277.147 55.0038 277.065 54.9185C276.987 54.8331 276.863 54.7904 276.692 54.7904C276.525 54.7904 276.399 54.8296 276.313 54.9078C276.228 54.9825 276.178 55.075 276.164 55.1852H275.348C275.362 54.9114 275.435 54.6855 275.566 54.5077C275.698 54.3298 275.867 54.1964 276.073 54.1075C276.279 54.0186 276.496 53.9741 276.724 53.9741C276.966 53.9741 277.186 54.0204 277.386 54.1128C277.585 54.2018 277.743 54.3334 277.86 54.5077C277.981 54.6784 278.042 54.89 278.042 55.1426C278.042 55.3489 278.003 55.5391 277.924 55.7134C277.846 55.8842 277.738 56.0442 277.599 56.1936C277.46 56.343 277.302 56.4871 277.124 56.6258L276.644 57.0046H278.02V57.7995H275.348Z" fill="#0A0000"/>
<path d="M273.656 55.8235V49.5278H274.901V55.8235H273.656Z" fill="#0A0000"/>
<path d="M270.321 55.8945C269.675 55.8945 269.124 55.7641 268.667 55.5032C268.217 55.2365 267.873 54.863 267.636 54.3828C267.405 53.9026 267.289 53.3424 267.289 52.7022C267.289 52.0501 267.408 51.481 267.645 50.9949C267.888 50.5088 268.235 50.1324 268.685 49.8656C269.136 49.5929 269.678 49.4565 270.312 49.4565C270.792 49.4565 271.222 49.5395 271.601 49.7055C271.981 49.8656 272.286 50.1057 272.517 50.4258C272.754 50.74 272.903 51.1283 272.962 51.5907H271.735C271.658 51.3002 271.501 51.072 271.264 50.906C271.032 50.7341 270.724 50.6481 270.339 50.6481C269.912 50.6481 269.571 50.7459 269.316 50.9415C269.067 51.1312 268.887 51.3802 268.774 51.6885C268.661 51.9908 268.605 52.3109 268.605 52.6488C268.605 52.9986 268.664 53.3306 268.783 53.6448C268.901 53.959 269.088 54.2139 269.343 54.4095C269.604 54.6051 269.945 54.7029 270.366 54.7029C270.614 54.7029 270.837 54.6674 271.032 54.5962C271.228 54.5192 271.388 54.4095 271.513 54.2672C271.643 54.125 271.732 53.956 271.779 53.7604H273.051C272.997 54.2168 272.843 54.6051 272.588 54.9253C272.334 55.2454 272.01 55.4884 271.619 55.6544C271.228 55.8145 270.795 55.8945 270.321 55.8945Z" fill="#0A0000"/>
<path d="M264.038 55.8855C263.824 55.8855 263.617 55.8588 263.415 55.8055C263.22 55.7462 263.045 55.6573 262.891 55.5387C262.736 55.4201 262.615 55.2719 262.526 55.0941C262.437 54.9162 262.393 54.7088 262.393 54.4716C262.393 54.1515 262.458 53.8966 262.588 53.7069C262.719 53.5113 262.893 53.3631 263.113 53.2623C263.332 53.1615 263.584 53.0933 263.869 53.0578C264.159 53.0222 264.458 53.0044 264.767 53.0044H265.442C265.442 52.8325 265.41 52.6813 265.345 52.5509C265.285 52.4146 265.193 52.3108 265.069 52.2397C264.944 52.1626 264.784 52.1241 264.589 52.1241C264.464 52.1241 264.343 52.1419 264.224 52.1774C264.112 52.2071 264.017 52.2515 263.94 52.3108C263.863 52.3701 263.812 52.4472 263.789 52.542H262.526C262.562 52.2812 262.645 52.0589 262.775 51.8751C262.905 51.6854 263.068 51.5313 263.264 51.4127C263.46 51.2942 263.673 51.2082 263.904 51.1548C264.141 51.0956 264.384 51.0659 264.633 51.0659C265.315 51.0659 265.819 51.2615 266.145 51.6528C266.471 52.0381 266.634 52.5865 266.634 53.2979V55.8233H265.514L265.496 55.2186C265.348 55.4261 265.179 55.5772 264.989 55.6721C264.805 55.7669 264.627 55.8262 264.455 55.8499C264.284 55.8736 264.144 55.8855 264.038 55.8855ZM264.322 54.8985C264.53 54.8985 264.719 54.857 264.891 54.774C265.063 54.691 265.199 54.5783 265.3 54.4361C265.401 54.2938 265.451 54.1337 265.451 53.9559V53.8403H264.598C264.473 53.8403 264.352 53.8462 264.233 53.8581C264.121 53.8699 264.017 53.8936 263.922 53.9292C263.833 53.9589 263.762 54.0092 263.709 54.0804C263.655 54.1515 263.629 54.2464 263.629 54.3649C263.629 54.4835 263.658 54.5843 263.717 54.6673C263.783 54.7443 263.869 54.8036 263.975 54.8451C264.082 54.8807 264.198 54.8985 264.322 54.8985Z" fill="#0A0000"/>
<path d="M259.216 55.8945C258.57 55.8945 258.018 55.7641 257.562 55.5032C257.111 55.2365 256.767 54.863 256.53 54.3828C256.299 53.9026 256.184 53.3424 256.184 52.7022C256.184 52.0501 256.302 51.481 256.539 50.9949C256.782 50.5088 257.129 50.1324 257.58 49.8656C258.03 49.5929 258.572 49.4565 259.207 49.4565C259.687 49.4565 260.117 49.5395 260.496 49.7055C260.875 49.8656 261.181 50.1057 261.412 50.4258C261.649 50.74 261.797 51.1283 261.856 51.5907H260.629C260.552 51.3002 260.395 51.072 260.158 50.906C259.927 50.7341 259.619 50.6481 259.233 50.6481C258.807 50.6481 258.466 50.7459 258.211 50.9415C257.962 51.1312 257.781 51.3802 257.668 51.6885C257.556 51.9908 257.5 52.3109 257.5 52.6488C257.5 52.9986 257.559 53.3306 257.677 53.6448C257.796 53.959 257.983 54.2139 258.238 54.4095C258.498 54.6051 258.839 54.7029 259.26 54.7029C259.509 54.7029 259.731 54.6674 259.927 54.5962C260.123 54.5192 260.283 54.4095 260.407 54.2672C260.538 54.125 260.626 53.956 260.674 53.7604H261.945C261.892 54.2168 261.738 54.6051 261.483 54.9253C261.228 55.2454 260.905 55.4884 260.514 55.6544C260.123 55.8145 259.69 55.8945 259.216 55.8945Z" fill="#0A0000"/>
<path d="M252.196 57.1838L251.84 56.6413C251.929 56.5939 252.027 56.5257 252.133 56.4368C252.246 56.3479 252.347 56.2501 252.436 56.1434C252.524 56.0426 252.584 55.9477 252.613 55.8588C252.436 55.847 252.278 55.7788 252.142 55.6543C252.006 55.5298 251.938 55.3579 251.938 55.1385C251.944 54.8955 252.024 54.7117 252.178 54.5872C252.338 54.4568 252.519 54.3916 252.72 54.3916C252.981 54.3916 253.182 54.4865 253.325 54.6762C253.467 54.8599 253.538 55.103 253.538 55.4053C253.538 55.6839 253.473 55.9448 253.343 56.1878C253.212 56.4309 253.046 56.6384 252.845 56.8103C252.643 56.9822 252.427 57.1067 252.196 57.1838Z" fill="#0A0000"/>
<path d="M244.168 55.8235V49.5278H245.857L247.538 52.569L249.201 49.5278H250.828V55.8235H249.556V51.2262L247.769 54.4186H247.253L245.439 51.2262V55.8235H244.168Z" fill="#0A0000"/>
<path d="M238.508 55.8235V49.5278H240.962C241.442 49.5278 241.86 49.6019 242.216 49.7501C242.577 49.8924 242.856 50.1236 243.051 50.4437C243.247 50.7579 243.345 51.1788 243.345 51.7064C243.345 52.1985 243.235 52.6105 243.016 52.9424C242.802 53.2744 242.509 53.5234 242.136 53.6894C241.762 53.8494 241.338 53.9295 240.864 53.9295H239.779V55.8235H238.508ZM239.779 52.7913H240.846C241.226 52.7913 241.525 52.7024 241.744 52.5245C241.97 52.3407 242.082 52.0651 242.082 51.6975C242.082 51.3715 241.987 51.1255 241.798 50.9595C241.614 50.7935 241.318 50.7105 240.909 50.7105H239.779V52.7913Z" fill="#0A0000"/>
<path d="M231.848 55.8235V49.5278H233.146L236.053 53.7872V49.5278H237.325V55.8235H236.062L233.119 51.6086V55.8235H231.848Z" fill="#0A0000"/>
<path d="M194.627 69.6557C194.627 72.9297 196.034 75.5838 197.77 75.5838C199.507 75.5838 200.914 72.9297 200.914 69.6557C200.914 66.3817 199.507 63.7275 197.77 63.7275C196.034 63.7275 194.627 66.3817 194.627 69.6557Z" fill="url(#paint12_linear_370_17916)"/>
<path d="M206.482 69.6557C206.482 72.9297 205.075 75.5838 203.339 75.5838H197.77C199.507 75.5838 200.914 72.9297 200.914 69.6557C200.914 66.3817 199.507 63.7275 197.77 63.7275H203.339C205.075 63.7275 206.482 66.3817 206.482 69.6557Z" fill="url(#paint13_linear_370_17916)"/>
<path d="M201.16 69.6556C201.16 67.9865 200.802 66.463 200.21 65.348C199.91 64.781 199.538 64.3045 199.113 63.9745H203.338C204.07 63.9746 204.79 64.5381 205.343 65.5795C205.889 66.6101 206.235 68.0507 206.235 69.6556C206.235 71.2605 205.889 72.7012 205.343 73.7317C204.79 74.7731 204.07 75.3367 203.338 75.3368H199.113C199.538 75.0067 199.91 74.5303 200.21 73.9633C200.802 72.8482 201.16 71.3248 201.16 69.6556ZM200.666 69.6556C200.666 71.2605 200.321 72.7012 199.774 73.7317C199.222 74.7732 198.501 75.3368 197.769 75.3368C197.038 75.3367 196.317 74.7731 195.765 73.7317C195.219 72.7012 194.873 71.2605 194.873 69.6556C194.873 68.0507 195.219 66.6101 195.765 65.5795C196.317 64.5381 197.038 63.9746 197.769 63.9745C198.501 63.9745 199.222 64.5381 199.774 65.5795C200.321 66.6101 200.666 68.0508 200.666 69.6556ZM194.379 69.6556C194.379 71.3248 194.737 72.8482 195.328 73.9633C195.896 75.0328 196.712 75.7825 197.676 75.8284L197.769 75.8308H203.338C204.343 75.8307 205.194 75.0673 205.779 73.9633C206.37 72.8482 206.729 71.3248 206.729 69.6556C206.729 67.9865 206.37 66.463 205.779 65.348C205.194 64.244 204.343 63.4806 203.338 63.4805H197.769C196.765 63.4806 195.914 64.244 195.328 65.348C194.737 66.463 194.379 67.9865 194.379 69.6556Z" fill="black"/>
<path d="M276.627 73.1138H268.723V84.9701H276.627V73.1138Z" fill="url(#paint14_linear_370_17916)"/>
<path d="M268.723 73.1138V84.9701L264.772 78.5479C266.994 78.5479 268.723 75.5838 268.723 73.1138Z" fill="url(#paint15_linear_370_17916)"/>
<path d="M276.627 73.1138H268.723V84.9701H276.627V73.1138Z" fill="url(#paint16_linear_370_17916)"/>
<path d="M268.475 72.8667V73.1137C268.475 74.2968 268.059 75.6075 267.376 76.6186C266.689 77.6342 265.766 78.3008 264.771 78.3008H264.329L268.584 85.217H276.873V72.8667H268.475ZM276.379 84.723H268.969V73.3607H276.379V84.723ZM268.475 84.0973L265.193 78.7616C266.239 78.6 267.137 77.853 267.785 76.8955C268.057 76.4927 268.29 76.0462 268.475 75.5785V84.0973Z" fill="black"/>
<path d="M225.254 73.1138H217.35V84.9701H225.254V73.1138Z" fill="url(#paint17_linear_370_17916)"/>
<path d="M217.35 73.1138V84.9701L213.398 78.5479C215.621 78.5479 217.35 75.5838 217.35 73.1138Z" fill="url(#paint18_linear_370_17916)"/>
<path d="M225.254 73.1138H217.35V84.9701H225.254V73.1138Z" fill="url(#paint19_linear_370_17916)"/>
<path d="M217.102 72.8667V73.1137C217.102 74.2968 216.686 75.6075 216.003 76.6186C215.316 77.6342 214.393 78.3008 213.398 78.3008H212.956L217.211 85.217H225.5V72.8667H217.102ZM225.006 84.723H217.596V73.3607H225.006V84.723ZM217.102 84.0973L213.82 78.7616C214.866 78.6 215.764 77.853 216.412 76.8955C216.684 76.4927 216.917 76.0462 217.102 75.5785V84.0973Z" fill="black"/>
<path d="M164.001 263.308C172.731 263.308 179.808 267.034 179.808 271.63C179.808 276.226 172.731 279.951 164.001 279.951C155.27 279.951 148.193 276.226 148.193 271.63C148.193 267.034 155.27 263.308 164.001 263.308Z" fill="url(#paint20_linear_370_17916)"/>
<path d="M164.001 302.829C172.731 302.829 179.808 299.103 179.808 294.508L179.808 271.63C179.808 276.226 172.731 279.951 164.001 279.951C155.27 279.951 148.193 276.226 148.193 271.63L148.193 294.508C148.193 299.103 155.27 302.829 164.001 302.829Z" fill="url(#paint21_linear_370_17916)"/>
<path d="M164 280.198C159.603 280.198 155.61 279.261 152.707 277.732C150.693 276.672 149.176 275.309 148.439 273.757L148.439 294.508C148.439 296.668 150.107 298.684 152.937 300.173C155.756 301.657 159.666 302.582 164 302.582C168.333 302.582 172.243 301.657 175.062 300.173C177.892 298.684 179.56 296.668 179.56 294.508L179.56 273.757C178.823 275.309 177.306 276.672 175.292 277.732C172.389 279.261 168.396 280.198 164 280.198ZM164 279.704C168.333 279.704 172.243 278.779 175.062 277.295C177.892 275.806 179.56 273.79 179.56 271.63C179.56 269.469 177.892 267.454 175.062 265.964C172.243 264.48 168.333 263.555 164 263.555C159.666 263.555 155.756 264.48 152.937 265.964C150.107 267.454 148.439 269.469 148.439 271.63C148.439 273.79 150.107 275.806 152.937 277.295C155.756 278.779 159.666 279.704 164 279.704ZM164 263.061C168.396 263.061 172.389 263.999 175.292 265.527C178.093 267.001 179.936 269.061 180.048 271.402L180.054 271.63L180.054 294.508C180.054 296.943 178.183 299.088 175.292 300.61C172.389 302.139 168.396 303.076 164 303.076C159.603 303.076 155.61 302.139 152.707 300.61C149.816 299.088 147.945 296.943 147.945 294.508L147.945 271.63C147.945 269.194 149.816 267.049 152.707 265.527C155.61 263.999 159.603 263.061 164 263.061Z" fill="black"/>
<path d="M163.999 115.105C191.281 115.105 213.397 126.998 213.397 141.669C213.397 156.34 191.281 168.233 163.999 168.233C136.718 168.233 114.602 156.34 114.602 141.669C114.602 126.998 136.718 115.105 163.999 115.105Z" fill="url(#paint22_linear_370_17916)"/>
<path d="M163.999 292.949C191.281 292.949 213.397 281.056 213.397 266.385L213.397 141.669C213.397 156.34 191.281 168.233 163.999 168.233C136.718 168.233 114.602 156.34 114.602 141.669L114.602 266.385C114.602 281.056 136.718 292.949 163.999 292.949Z" fill="url(#paint23_linear_370_17916)"/>
<path d="M164 168.479C150.327 168.479 137.936 165.5 128.954 160.67C121.535 156.68 116.403 151.403 114.849 145.472L114.849 266.386C114.849 273.586 120.281 280.162 129.188 284.951C138.084 289.736 150.392 292.702 164 292.702C177.608 292.702 189.916 289.736 198.812 284.951C207.719 280.162 213.151 273.586 213.151 266.386L213.151 145.472C211.597 151.403 206.465 156.68 199.046 160.67C190.065 165.5 177.673 168.479 164 168.479ZM164 167.985C177.608 167.985 189.916 165.019 198.812 160.235C207.719 155.445 213.151 148.87 213.151 141.669C213.151 134.468 207.719 127.892 198.812 123.103C189.916 118.319 177.608 115.352 164 115.352C150.392 115.352 138.084 118.319 129.188 123.103C120.281 127.892 114.849 134.468 114.849 141.669C114.849 148.87 120.281 155.445 129.188 160.235C138.084 165.019 150.392 167.985 164 167.985ZM164 114.858C177.673 114.858 190.065 117.838 199.046 122.668C207.878 127.417 213.468 133.99 213.64 141.319L213.645 141.669L213.645 266.386C213.645 273.855 208.018 280.562 199.046 285.387C190.065 290.217 177.673 293.196 164 293.196C150.327 293.196 137.936 290.217 128.954 285.387C119.982 280.562 114.356 273.855 114.355 266.386L114.355 141.669C114.356 134.199 119.982 127.492 128.954 122.668C137.936 117.838 150.327 114.858 164 114.858Z" fill="black"/>
<g filter="url(#filter0_f_370_17916)">
<path d="M124.482 182.29C124.482 160.464 142.175 142.77 164 142.77C185.826 142.77 203.519 160.464 203.519 182.29V241.572C203.519 263.399 185.826 281.093 164 281.093C142.175 281.093 124.482 263.399 124.482 241.572V182.29Z" fill="white"/>
</g>
<g filter="url(#filter1_f_370_17916)">
<path d="M149.419 256.154C147.66 257.465 145.625 258.355 143.469 258.757C141.314 259.159 139.095 259.063 136.982 258.475C134.869 257.887 132.919 256.823 131.28 255.364C129.642 253.906 128.358 252.092 127.528 250.061C126.697 248.03 126.342 245.835 126.489 243.646C126.637 241.456 127.282 239.329 128.377 237.427C129.472 235.526 130.987 233.9 132.806 232.675C134.625 231.449 136.7 230.656 138.872 230.357C138.64 228.014 138.931 225.648 139.723 223.43C140.515 221.213 141.789 219.199 143.453 217.534C145.116 215.869 147.129 214.594 149.344 213.801C151.56 213.009 153.923 212.718 156.265 212.95C157.018 211.182 158.273 209.675 159.875 208.615C161.477 207.556 163.355 206.991 165.275 206.991C167.195 206.991 169.073 207.556 170.675 208.615C172.277 209.675 173.532 211.182 174.285 212.95C176.63 212.626 179.018 212.852 181.261 213.611C183.503 214.37 185.539 215.64 187.206 217.322C188.873 219.004 190.127 221.051 190.867 223.301C191.607 225.551 191.815 227.943 191.472 230.287C193.696 230.709 195.794 231.635 197.605 232.996C199.415 234.356 200.889 236.114 201.914 238.134C202.939 240.154 203.487 242.383 203.516 244.648C203.545 246.914 203.054 249.156 202.082 251.202C201.109 253.247 199.68 255.043 197.906 256.449C196.131 257.855 194.057 258.836 191.845 259.314C189.632 259.792 187.339 259.756 185.143 259.209C182.946 258.661 180.904 257.616 179.174 256.154C177.389 258.387 175.125 260.189 172.55 261.427C169.974 262.666 167.154 263.309 164.297 263.309C161.44 263.309 158.619 262.666 156.044 261.427C153.469 260.189 151.204 258.387 149.419 256.154Z" fill="#FF4100"/>
</g>
<g filter="url(#filter2_f_370_17916)">
<path d="M180.556 215.151C182.315 216.461 184.35 217.352 186.505 217.754C188.661 218.156 190.88 218.059 192.993 217.471C195.105 216.883 197.056 215.819 198.694 214.361C200.333 212.903 201.616 211.089 202.447 209.057C203.277 207.026 203.632 204.832 203.485 202.642C203.338 200.453 202.692 198.326 201.597 196.424C200.503 194.523 198.988 192.897 197.169 191.671C195.35 190.446 193.275 189.653 191.102 189.353C191.334 187.01 191.044 184.644 190.252 182.427C189.459 180.21 188.186 178.196 186.522 176.531C184.858 174.866 182.846 173.591 180.63 172.798C178.415 172.005 176.051 171.714 173.71 171.947C172.957 170.179 171.701 168.671 170.099 167.612C168.497 166.553 166.62 165.988 164.7 165.988C162.779 165.988 160.902 166.553 159.3 167.612C157.698 168.671 156.442 170.179 155.689 171.947C153.344 171.622 150.956 171.849 148.714 172.607C146.471 173.366 144.436 174.637 142.769 176.319C141.101 178 139.848 180.047 139.108 182.298C138.367 184.548 138.16 186.94 138.503 189.284C136.278 189.705 134.18 190.632 132.37 191.992C130.56 193.353 129.085 195.11 128.061 197.131C127.036 199.151 126.488 201.379 126.459 203.645C126.429 205.91 126.92 208.152 127.893 210.198C128.865 212.244 130.294 214.039 132.069 215.446C133.844 216.852 135.917 217.832 138.13 218.311C140.343 218.789 142.636 218.753 144.832 218.205C147.029 217.657 149.07 216.613 150.8 215.151C152.586 217.383 154.85 219.185 157.425 220.424C160 221.662 162.821 222.305 165.678 222.305C168.535 222.305 171.356 221.662 173.931 220.424C176.506 219.185 178.77 217.383 180.556 215.151Z" fill="#FFEC16"/>
</g>
<path d="M164 263.802C167.546 263.802 170.422 265.292 170.422 267.131C170.422 268.969 167.546 270.459 164 270.459C160.453 270.459 157.578 268.969 157.578 267.131C157.578 265.292 160.453 263.802 164 263.802Z" fill="url(#paint24_linear_370_17916)"/>
<path d="M164 278.623C167.546 278.623 170.422 277.132 170.422 275.294L170.422 267.131C170.422 268.969 167.546 270.459 164 270.459C160.453 270.459 157.578 268.969 157.578 267.131L157.578 275.294C157.578 277.132 160.453 278.623 164 278.623Z" fill="url(#paint25_linear_370_17916)"/>
<path d="M164.001 270.706C162.196 270.706 160.55 270.328 159.346 269.704C158.711 269.375 158.183 268.966 157.826 268.496L157.826 275.294C157.826 276.074 158.441 276.841 159.574 277.429C160.694 278.009 162.259 278.376 164.001 278.376C165.743 278.376 167.307 278.009 168.428 277.429C169.56 276.841 170.175 276.074 170.175 275.294L170.175 268.496C169.819 268.966 169.29 269.375 168.655 269.704C167.451 270.328 165.805 270.706 164.001 270.706ZM164.001 270.212C165.743 270.212 167.307 269.846 168.428 269.265C169.56 268.678 170.175 267.911 170.175 267.131C170.175 266.351 169.56 265.583 168.428 264.996C167.307 264.416 165.743 264.049 164.001 264.049C162.259 264.049 160.694 264.416 159.574 264.996C158.441 265.583 157.826 266.351 157.826 267.131C157.826 267.911 158.441 268.678 159.574 269.265C160.694 269.846 162.259 270.212 164.001 270.212ZM164.001 263.555C165.805 263.555 167.451 263.934 168.655 264.558C169.81 265.156 170.618 266.017 170.667 267.032L170.669 267.131L170.669 275.294C170.669 276.352 169.847 277.25 168.655 277.867C167.451 278.491 165.805 278.87 164.001 278.87C162.196 278.87 160.55 278.491 159.346 277.867C158.155 277.25 157.332 276.352 157.332 275.294L157.332 267.131C157.332 266.073 158.155 265.175 159.346 264.558C160.55 263.934 162.196 263.555 164.001 263.555Z" fill="black"/>
<path d="M164.001 140.793C165.911 140.793 167.459 141.588 167.459 142.569C167.459 143.549 165.911 144.344 164.001 144.344C162.091 144.344 160.543 143.549 160.543 142.569C160.543 141.588 162.091 140.793 164.001 140.793Z" fill="url(#paint26_linear_370_17916)"/>
<path d="M164.001 268.249C165.911 268.249 167.459 267.454 167.459 266.473L167.459 142.569C167.459 143.549 165.911 144.344 164.001 144.344C162.091 144.344 160.543 143.549 160.543 142.569L160.543 266.473C160.543 267.454 162.091 268.249 164.001 268.249Z" fill="url(#paint27_linear_370_17916)"/>
<path d="M164 144.591C163.014 144.591 162.109 144.386 161.442 144.044C161.196 143.917 160.972 143.766 160.789 143.594L160.789 266.473C160.789 266.823 161.07 267.202 161.667 267.509C162.251 267.809 163.076 268.002 164 268.002C164.924 268.002 165.748 267.809 166.332 267.509C166.929 267.202 167.211 266.823 167.211 266.473L167.211 143.594C167.028 143.766 166.804 143.917 166.557 144.044C165.89 144.386 164.985 144.591 164 144.591ZM164 144.097C164.924 144.097 165.748 143.904 166.332 143.604C166.929 143.298 167.211 142.918 167.211 142.569C167.211 142.219 166.929 141.84 166.332 141.533C165.748 141.233 164.924 141.041 164 141.041C163.076 141.041 162.251 141.233 161.667 141.533C161.07 141.84 160.789 142.219 160.789 142.569C160.789 142.918 161.07 143.298 161.667 143.604C162.251 143.904 163.076 144.097 164 144.097ZM164 140.546C164.985 140.546 165.89 140.751 166.557 141.094C167.171 141.409 167.642 141.875 167.699 142.452L167.705 142.569L167.705 266.473C167.705 267.104 167.212 267.613 166.557 267.949C165.89 268.291 164.985 268.496 164 268.496C163.014 268.496 162.109 268.291 161.442 267.949C160.788 267.613 160.295 267.104 160.295 266.473L160.295 142.569C160.295 141.938 160.788 141.43 161.442 141.094C162.109 140.751 163.014 140.546 164 140.546Z" fill="black"/>
<path d="M164 168.479C150.327 168.479 137.936 165.5 128.954 160.67C121.535 156.68 116.403 151.403 114.849 145.472L114.849 266.386C114.849 273.586 120.281 280.162 129.188 284.951C138.084 289.736 150.392 292.702 164 292.702C177.608 292.702 189.916 289.736 198.812 284.951C207.719 280.162 213.151 273.586 213.151 266.386L213.151 145.472C211.597 151.403 206.465 156.68 199.046 160.67C190.065 165.5 177.673 168.479 164 168.479ZM164 167.985C177.608 167.985 189.916 165.019 198.812 160.235C207.719 155.445 213.151 148.87 213.151 141.669C213.151 134.468 207.719 127.892 198.812 123.103C189.916 118.319 177.608 115.352 164 115.352C150.392 115.352 138.084 118.319 129.188 123.103C120.281 127.892 114.849 134.468 114.849 141.669C114.849 148.87 120.281 155.445 129.188 160.235C138.084 165.019 150.392 167.985 164 167.985ZM164 114.858C177.673 114.858 190.065 117.838 199.046 122.668C207.878 127.417 213.468 133.99 213.64 141.319L213.645 141.669L213.645 266.386C213.645 273.855 208.018 280.562 199.046 285.387C190.065 290.217 177.673 293.196 164 293.196C150.327 293.196 137.936 290.217 128.954 285.387C119.982 280.562 114.356 273.855 114.355 266.386L114.355 141.669C114.356 134.199 119.982 127.492 128.954 122.668C137.936 117.838 150.327 114.858 164 114.858Z" fill="black"/>
<path d="M164.001 109.177C172.731 109.177 179.808 112.903 179.808 117.498C179.808 122.094 172.731 125.82 164.001 125.82C155.27 125.82 148.193 122.094 148.193 117.498C148.193 112.903 155.27 109.177 164.001 109.177Z" fill="url(#paint28_linear_370_17916)"/>
<path d="M164.001 148.698C172.731 148.698 179.808 144.972 179.808 140.376L179.808 117.498C179.808 122.094 172.731 125.82 164.001 125.82C155.27 125.82 148.193 122.094 148.193 117.498L148.193 140.376C148.193 144.972 155.27 148.698 164.001 148.698Z" fill="url(#paint29_linear_370_17916)"/>
<path d="M164 126.067C159.603 126.067 155.61 125.129 152.707 123.601C150.693 122.541 149.176 121.178 148.439 119.626L148.439 140.376C148.439 142.537 150.107 144.552 152.937 146.042C155.756 147.526 159.666 148.451 164 148.451C168.333 148.451 172.243 147.526 175.062 146.042C177.892 144.552 179.56 142.537 179.56 140.376L179.56 119.626C178.823 121.178 177.306 122.541 175.292 123.601C172.389 125.129 168.396 126.067 164 126.067ZM164 125.573C168.333 125.573 172.243 124.648 175.062 123.164C177.892 121.674 179.56 119.659 179.56 117.498C179.56 115.338 177.892 113.322 175.062 111.833C172.243 110.349 168.333 109.424 164 109.424C159.666 109.424 155.756 110.349 152.937 111.833C150.107 113.322 148.439 115.338 148.439 117.498C148.439 119.659 150.107 121.674 152.937 123.164C155.756 124.648 159.666 125.573 164 125.573ZM164 108.93C168.396 108.93 172.389 109.867 175.292 111.396C178.093 112.87 179.936 114.93 180.048 117.271L180.054 117.498L180.054 140.376C180.054 142.812 178.183 144.957 175.292 146.479C172.389 148.007 168.396 148.945 164 148.945C159.603 148.945 155.61 148.007 152.707 146.479C149.816 144.957 147.945 142.812 147.945 140.376L147.945 117.498C147.945 115.063 149.816 112.918 152.707 111.396C155.61 109.867 159.603 108.93 164 108.93Z" fill="black"/>
<path d="M179.808 180.808L178.326 182.043L179.686 181.796C179.766 181.473 179.808 181.143 179.808 180.808Z" fill="black"/>
<path d="M181.29 182.043L179.808 180.808C179.808 181.143 179.766 181.473 179.686 181.796L181.29 182.043Z" fill="black"/>
<path d="M164 188.959C159.605 188.959 155.613 188.069 152.712 186.618C149.825 185.175 147.945 183.135 147.945 180.808C147.945 180.672 148.056 180.561 148.192 180.561C148.329 180.561 148.439 180.672 148.439 180.808C148.439 182.847 150.098 184.759 152.932 186.176C155.752 187.586 159.665 188.465 164 188.465C168.002 188.465 171.645 187.716 174.4 186.491C176.978 185.345 178.732 183.804 179.331 182.112L177.446 182.454L179.807 180.487L182.13 182.422L179.863 182.074C179.267 184.041 177.318 185.734 174.601 186.942C171.772 188.2 168.058 188.959 164 188.959ZM180.447 181.664L180.024 181.311C180.013 181.405 179.998 181.499 179.981 181.592L180.447 181.664ZM179.478 181.583C179.493 181.513 179.505 181.443 179.515 181.373L179.203 181.633L179.478 181.583Z" fill="black"/>
<path d="M149.675 200.569L151.157 201.804L149.797 201.557C149.716 201.233 149.675 200.904 149.675 200.569Z" fill="black"/>
<path d="M148.193 201.804L149.675 200.569C149.675 200.904 149.716 201.233 149.797 201.557L148.193 201.804Z" fill="black"/>
<path d="M165.483 208.72C169.878 208.72 173.869 207.83 176.771 206.379C179.657 204.935 181.537 202.896 181.537 200.569C181.537 200.433 181.427 200.322 181.29 200.322C181.154 200.322 181.043 200.433 181.043 200.569C181.043 202.608 179.384 204.52 176.55 205.937C173.731 207.347 169.818 208.226 165.483 208.226C161.481 208.226 157.838 207.477 155.082 206.252C152.505 205.105 150.75 203.564 150.151 201.873L152.036 202.215L149.676 200.248L147.352 202.183L149.619 201.835C150.215 203.802 152.165 205.495 154.882 206.703C157.711 207.961 161.424 208.72 165.483 208.72ZM149.035 201.425L149.459 201.072C149.47 201.166 149.484 201.26 149.502 201.353L149.035 201.425ZM150.004 201.343C149.99 201.274 149.978 201.204 149.967 201.133L150.279 201.393L150.004 201.343Z" fill="black"/>
<path d="M179.808 220.329L178.326 221.564L179.686 221.317C179.766 220.994 179.808 220.664 179.808 220.329Z" fill="black"/>
<path d="M181.29 221.564L179.808 220.329C179.808 220.664 179.766 220.994 179.686 221.317L181.29 221.564Z" fill="black"/>
<path d="M164 228.48C159.605 228.48 155.613 227.59 152.712 226.139C149.825 224.696 147.945 222.656 147.945 220.329C147.945 220.193 148.056 220.082 148.192 220.082C148.329 220.082 148.439 220.193 148.439 220.329C148.439 222.368 150.098 224.28 152.932 225.697C155.752 227.107 159.665 227.986 164 227.986C168.002 227.986 171.645 227.237 174.4 226.012C176.978 224.866 178.732 223.325 179.331 221.633L177.446 221.975L179.807 220.008L182.13 221.943L179.863 221.595C179.267 223.562 177.318 225.255 174.601 226.463C171.772 227.721 168.058 228.48 164 228.48ZM180.447 221.185L180.024 220.832C180.013 220.926 179.998 221.02 179.981 221.113L180.447 221.185ZM179.478 221.104C179.493 221.034 179.505 220.964 179.515 220.894L179.203 221.154L179.478 221.104Z" fill="black"/>
<path d="M164 105.225C167.546 105.225 170.422 106.715 170.422 108.553C170.422 110.392 167.546 111.882 164 111.882C160.453 111.882 157.578 110.392 157.578 108.553C157.578 106.715 160.453 105.225 164 105.225Z" fill="url(#paint30_linear_370_17916)"/>
<path d="M164 120.045C167.546 120.045 170.422 118.555 170.422 116.716L170.422 108.553C170.422 110.392 167.546 111.882 164 111.882C160.453 111.882 157.578 110.392 157.578 108.553L157.578 116.716C157.578 118.555 160.453 120.045 164 120.045Z" fill="url(#paint31_linear_370_17916)"/>
<path d="M164.001 112.129C162.196 112.129 160.55 111.75 159.346 111.126C158.711 110.797 158.183 110.388 157.826 109.918L157.826 116.716C157.826 117.496 158.441 118.264 159.574 118.851C160.694 119.432 162.259 119.798 164.001 119.798C165.743 119.798 167.307 119.432 168.428 118.851C169.56 118.264 170.175 117.496 170.175 116.716L170.175 109.918C169.819 110.388 169.29 110.797 168.655 111.126C167.451 111.75 165.805 112.129 164.001 112.129ZM164.001 111.635C165.743 111.635 167.307 111.268 168.428 110.688C169.56 110.101 170.175 109.333 170.175 108.553C170.175 107.774 169.56 107.006 168.428 106.419C167.307 105.838 165.743 105.472 164.001 105.472C162.259 105.472 160.694 105.838 159.574 106.419C158.441 107.006 157.826 107.774 157.826 108.553C157.826 109.333 158.441 110.101 159.574 110.688C160.694 111.268 162.259 111.635 164.001 111.635ZM164.001 104.978C165.805 104.978 167.451 105.356 168.655 105.98C169.81 106.578 170.618 107.439 170.667 108.455L170.669 108.553L170.669 116.716C170.669 117.775 169.847 118.672 168.655 119.289C167.451 119.914 165.805 120.292 164.001 120.292C162.196 120.292 160.55 119.914 159.346 119.289C158.155 118.672 157.332 117.775 157.332 116.716L157.332 108.553C157.332 107.495 158.155 106.598 159.346 105.98C160.55 105.356 162.196 104.978 164.001 104.978Z" fill="black"/>
<path d="M164.001 102.26C165.91 102.26 167.459 103.055 167.459 104.036C167.459 105.016 165.91 105.811 164.001 105.811C162.091 105.811 160.543 105.016 160.543 104.036C160.543 103.055 162.091 102.26 164.001 102.26Z" fill="url(#paint32_linear_370_17916)"/>
<path d="M164.001 110.165C165.91 110.165 167.459 109.37 167.459 108.389L167.459 104.036C167.459 105.016 165.91 105.811 164.001 105.811C162.091 105.811 160.543 105.016 160.543 104.036L160.543 108.389C160.543 109.37 162.091 110.165 164.001 110.165Z" fill="url(#paint33_linear_370_17916)"/>
<path d="M164 106.058C163.014 106.058 162.109 105.853 161.442 105.511C161.196 105.384 160.972 105.233 160.789 105.06L160.789 108.389C160.789 108.739 161.07 109.118 161.667 109.425C162.251 109.725 163.076 109.918 164 109.918C164.924 109.918 165.748 109.725 166.332 109.425C166.929 109.118 167.211 108.739 167.211 108.389L167.211 105.06C167.028 105.233 166.804 105.384 166.557 105.511C165.89 105.853 164.986 106.058 164 106.058ZM164 105.564C164.924 105.564 165.748 105.371 166.332 105.071C166.929 104.765 167.211 104.385 167.211 104.036C167.211 103.686 166.929 103.307 166.332 103C165.748 102.7 164.924 102.507 164 102.507C163.076 102.507 162.251 102.7 161.667 103C161.07 103.307 160.789 103.686 160.789 104.036C160.789 104.385 161.07 104.765 161.667 105.071C162.251 105.371 163.076 105.564 164 105.564ZM164 102.013C164.985 102.013 165.89 102.218 166.557 102.56C167.171 102.875 167.642 103.342 167.699 103.919L167.705 104.036L167.705 108.389C167.705 109.02 167.212 109.529 166.557 109.865C165.89 110.207 164.985 110.412 164 110.412C163.014 110.412 162.109 110.207 161.442 109.865C160.788 109.529 160.295 109.02 160.295 108.389L160.295 104.036C160.295 103.405 160.788 102.896 161.442 102.56C162.109 102.218 163.014 102.013 164 102.013Z" fill="black"/>
<path d="M170.422 270.487C170.422 269.796 170.982 269.236 171.672 269.236H200.06C201.152 269.236 202.036 270.121 202.036 271.212C202.036 272.304 201.152 273.188 200.06 273.188H175.13C174.311 273.188 173.506 272.975 172.794 272.568L171.052 271.572C170.662 271.35 170.422 270.935 170.422 270.487Z" fill="url(#paint34_linear_370_17916)"/>
<path d="M170.174 270.487C170.174 269.66 170.844 268.99 171.671 268.99H200.059C201.287 268.99 202.282 269.985 202.282 271.213C202.282 272.441 201.287 273.436 200.059 273.436H175.129C174.267 273.436 173.419 273.211 172.671 272.783L170.928 271.787C170.462 271.521 170.174 271.025 170.174 270.487ZM170.668 270.487C170.668 270.847 170.861 271.18 171.173 271.358L172.916 272.354C173.59 272.739 174.353 272.942 175.129 272.942H200.059C201.014 272.942 201.788 272.168 201.788 271.213C201.788 270.258 201.014 269.484 200.059 269.484H171.671C171.117 269.484 170.668 269.933 170.668 270.487Z" fill="black"/>
<path d="M157.578 271.938C157.578 272.629 157.018 273.188 156.328 273.188H127.94C126.848 273.188 125.964 272.304 125.964 271.212C125.964 270.121 126.848 269.236 127.94 269.236H152.87C153.689 269.236 154.494 269.45 155.206 269.857L156.948 270.852C157.338 271.075 157.578 271.489 157.578 271.938Z" fill="url(#paint35_linear_370_17916)"/>
<path d="M157.826 271.938C157.826 272.765 157.156 273.436 156.329 273.436H127.941C126.713 273.436 125.718 272.44 125.718 271.212C125.718 269.985 126.713 268.989 127.941 268.989H152.871C153.733 268.989 154.581 269.214 155.329 269.642L157.072 270.638C157.538 270.905 157.826 271.401 157.826 271.938ZM157.332 271.938C157.332 271.578 157.139 271.245 156.827 271.067L155.084 270.071C154.41 269.686 153.647 269.483 152.871 269.483H127.941C126.986 269.483 126.212 270.258 126.212 271.212C126.212 272.167 126.986 272.942 127.941 272.942H156.329C156.883 272.942 157.332 272.492 157.332 271.938Z" fill="black"/>
<path d="M223.278 234.161C223.278 239.618 221.401 244.042 219.087 244.042C216.772 244.042 214.895 239.618 214.895 234.161C214.895 228.705 216.772 224.281 219.087 224.281C221.401 224.281 223.278 228.705 223.278 234.161Z" fill="url(#paint36_linear_370_17916)"/>
<path d="M207.471 234.161C207.471 239.618 209.347 244.042 211.662 244.042H219.087C216.772 244.042 214.895 239.618 214.895 234.161C214.895 228.705 216.772 224.281 219.087 224.281H211.662C209.347 224.281 207.471 228.705 207.471 234.161Z" fill="url(#paint37_linear_370_17916)"/>
<path d="M214.647 234.161C214.647 231.408 215.12 228.904 215.894 227.078C216.281 226.166 216.749 225.412 217.28 224.883C217.412 224.751 217.549 224.632 217.691 224.528H211.661C211.167 224.528 210.674 224.763 210.204 225.233C209.732 225.703 209.296 226.396 208.925 227.271C208.182 229.022 207.717 231.458 207.717 234.161C207.717 236.865 208.182 239.301 208.925 241.052C209.296 241.927 209.732 242.62 210.204 243.09C210.674 243.56 211.167 243.795 211.661 243.795H217.691C217.549 243.691 217.412 243.572 217.28 243.44C216.749 242.91 216.281 242.157 215.894 241.245C215.12 239.419 214.647 236.915 214.647 234.161ZM215.141 234.161C215.141 236.865 215.606 239.301 216.349 241.052C216.721 241.927 217.157 242.62 217.628 243.09C218.099 243.56 218.592 243.795 219.086 243.795C219.58 243.795 220.072 243.56 220.543 243.09C221.014 242.62 221.45 241.927 221.822 241.052C222.565 239.301 223.03 236.865 223.03 234.161C223.03 231.458 222.565 229.022 221.822 227.271C221.45 226.396 221.014 225.703 220.543 225.233C220.072 224.763 219.58 224.528 219.086 224.528C218.592 224.528 218.099 224.763 217.628 225.233C217.157 225.703 216.721 226.396 216.349 227.271C215.606 229.022 215.141 231.458 215.141 234.161ZM223.524 234.161C223.524 236.915 223.051 239.419 222.277 241.245C221.89 242.157 221.423 242.91 220.891 243.44C220.392 243.938 219.825 244.248 219.209 244.285L219.086 244.289H211.661C210.998 244.289 210.387 243.971 209.855 243.44C209.324 242.91 208.857 242.157 208.47 241.245C207.695 239.419 207.223 236.915 207.223 234.161C207.223 231.408 207.695 228.904 208.47 227.078C208.857 226.166 209.324 225.412 209.855 224.883C210.387 224.352 210.998 224.034 211.661 224.034H219.086C219.749 224.034 220.359 224.352 220.891 224.883C221.423 225.412 221.89 226.166 222.277 227.078C223.051 228.904 223.524 231.408 223.524 234.161Z" fill="black"/>
<path d="M162.272 102.796V103.743H161.778V102.796H162.272ZM162.272 99.9549V101.849H161.778V99.9549H162.272ZM162.272 97.1144V99.0084H161.778V97.1144H162.272ZM162.272 94.2738V96.1678H161.778V94.2738H162.272ZM162.272 91.4332V93.3273H161.778V91.4332H162.272ZM162.272 88.5927V90.4867H161.778V88.5927H162.272ZM162.272 85.7521V87.6461H161.778V85.7521H162.272ZM162.272 82.9115V84.8056H161.778V82.9115H162.272ZM162.272 80.071V81.965H161.778V80.071H162.272ZM162.272 77.2304V79.1244H161.778V77.2304H162.272ZM162.272 74.3898V76.2839H161.778V74.3898H162.272ZM162.272 71.5492V73.4433H161.778V71.5492H162.272ZM162.272 69.4087V70.6027H161.778V69.9027H161.067V69.4087H162.272ZM131.368 69.4087V69.9027H130.41V69.4087H131.368ZM134.242 69.4087V69.9027H132.326V69.4087H134.242ZM137.116 69.4087V69.9027H135.2V69.4087H137.116ZM139.99 69.4087V69.9027H138.075V69.4087H139.99ZM142.864 69.4087V69.9027H140.948V69.4087H142.864ZM145.738 69.4087V69.9027H143.822V69.4087H145.738ZM148.612 69.4087V69.9027H146.696V69.4087H148.612ZM151.487 69.4087V69.9027H149.571V69.4087H151.487ZM154.36 69.4087V69.9027H152.445V69.4087H154.36ZM157.234 69.4087V69.9027H155.318V69.4087H157.234ZM160.109 69.4087V69.9027H158.192V69.4087H160.109Z" fill="#FF4100"/>
<path d="M251.433 234.162L246.493 237.014V234.656H219.818V233.668H246.493V231.31L251.433 234.162Z" fill="#FF4100"/>
<path d="M165.728 102.796V103.743H166.222V102.796H165.728ZM165.728 99.9549V101.849H166.222V99.9549H165.728ZM165.728 97.1144V99.0084H166.222V97.1144H165.728ZM165.728 94.2738V96.1678H166.222V94.2738H165.728ZM165.728 91.4332V93.3273H166.222V91.4332H165.728ZM165.728 88.5927V90.4867H166.222V88.5927H165.728ZM165.728 85.7521V87.6461H166.222V85.7521H165.728ZM165.728 82.9115V84.8056H166.222V82.9115H165.728ZM165.728 80.071V81.965H166.222V80.071H165.728ZM165.728 77.2304V79.1244H166.222V77.2304H165.728ZM165.728 74.3898V76.2839H166.222V74.3898H165.728ZM165.728 71.5492V73.4433H166.222V71.5492H165.728ZM165.728 69.4087V70.6027H166.222V69.9027H166.933V69.4087H165.728ZM196.632 69.4087V69.9027H197.59V69.4087H196.632ZM193.758 69.4087V69.9027H195.674V69.4087H193.758ZM190.884 69.4087V69.9027H192.8V69.4087H190.884ZM188.01 69.4087V69.9027H189.925V69.4087H188.01ZM185.136 69.4087V69.9027H187.052V69.4087H185.136ZM182.262 69.4087V69.9027H184.178V69.4087H182.262ZM179.388 69.4087V69.9027H181.304V69.4087H179.388ZM176.513 69.4087V69.9027H178.429V69.4087H176.513ZM173.64 69.4087V69.9027H175.555V69.4087H173.64ZM170.766 69.4087V69.9027H172.682V69.4087H170.766ZM167.891 69.4087V69.9027H169.808V69.4087H167.891Z" fill="#FF4100"/>
<path d="M315.651 0.24707V0.741082H327.26V12.3504H327.754V0.24707H315.651Z" fill="#FF4100"/>
<path d="M12.3485 329.753V329.259H0.74007V317.65H0.246094V329.753H12.3485Z" fill="#FF4100"/>
<path d="M315.651 329.753V329.259H327.26V317.65H327.754V329.753H315.651Z" fill="#FF4100"/>
<path opacity="0.08" d="M0 0H13.8313V13.8323H0V0Z" fill="#FF4100"/>
<path d="M7.90361 5.92814H5.92771V7.90419H7.90361V5.92814Z" fill="#FF4100"/>
<path d="M7.90361 3.9521H5.92771V5.92814H7.90361V3.9521Z" fill="#FF4100"/>
<path d="M7.90361 7.90419H5.92771V9.88024H7.90361V7.90419Z" fill="#FF4100"/>
<path d="M7.90361 11.8563V9.88024H5.92771V11.8563H7.90361Z" fill="#FF4100"/>
<path d="M9.87952 9.88024H7.90361V11.8563H9.87952V9.88024Z" fill="#FF4100"/>
<path d="M5.92771 9.88024H3.95181V11.8563H5.92771V9.88024Z" fill="#FF4100"/>
<path fill-rule="evenodd" clip-rule="evenodd" d="M5.92771 3.9521V1.97605H7.90361V3.9521H5.92771Z" fill="#FF4100"/>
<path d="M5.92771 5.92814V3.9521H3.95181V5.92814H5.92771Z" fill="#FF4100"/>
<defs>
<filter id="filter0_f_370_17916" x="108.482" y="126.77" width="111.037" height="170.323" filterUnits="userSpaceOnUse" color-interpolation-filters="sRGB">
<feFlood flood-opacity="0" result="BackgroundImageFix"/>
<feBlend mode="normal" in="SourceGraphic" in2="BackgroundImageFix" result="shape"/>
<feGaussianBlur stdDeviation="8" result="effect1_foregroundBlur_370_17916"/>
</filter>
<filter id="filter1_f_370_17916" x="110.457" y="190.991" width="109.061" height="88.3174" filterUnits="userSpaceOnUse" color-interpolation-filters="sRGB">
<feFlood flood-opacity="0" result="BackgroundImageFix"/>
<feBlend mode="normal" in="SourceGraphic" in2="BackgroundImageFix" result="shape"/>
<feGaussianBlur stdDeviation="8" result="effect1_foregroundBlur_370_17916"/>
</filter>
<filter id="filter2_f_370_17916" x="110.457" y="149.988" width="109.061" height="88.3174" filterUnits="userSpaceOnUse" color-interpolation-filters="sRGB">
<feFlood flood-opacity="0" result="BackgroundImageFix"/>
<feBlend mode="normal" in="SourceGraphic" in2="BackgroundImageFix" result="shape"/>
<feGaussianBlur stdDeviation="8" result="effect1_foregroundBlur_370_17916"/>
</filter>
<linearGradient id="paint0_linear_370_17916" x1="103.522" y1="28.3004" x2="92.6614" y2="79.7542" gradientUnits="userSpaceOnUse">
<stop stop-color="#EEEEEE"/>
<stop offset="0.334842" stop-color="#E3E3E3"/>
<stop offset="0.751797" stop-color="#737B7F"/>
<stop offset="1" stop-color="#EEEEEE"/>
</linearGradient>
<linearGradient id="paint1_linear_370_17916" x1="88.9152" y1="78.5481" x2="88.9152" y2="27.1709" gradientUnits="userSpaceOnUse">
<stop stop-color="#343030"/>
<stop offset="0.115462" stop-color="#80868D"/>
<stop offset="0.212121" stop-color="#80868D"/>
<stop offset="0.541622" stop-color="white"/>
<stop offset="0.890909" stop-color="white"/>
<stop offset="1" stop-color="#B2B2B2"/>
</linearGradient>
<linearGradient id="paint2_linear_370_17916" x1="129.198" y1="63.9882" x2="124.876" y2="74.6366" gradientUnits="userSpaceOnUse">
<stop stop-color="#EEEEEE"/>
<stop offset="0.334842" stop-color="#E3E3E3"/>
<stop offset="0.751797" stop-color="#737B7F"/>
<stop offset="1" stop-color="#EEEEEE"/>
</linearGradient>
<linearGradient id="paint3_linear_370_17916" x1="127.445" y1="75.5838" x2="127.445" y2="63.7275" gradientUnits="userSpaceOnUse">
<stop stop-color="#343030"/>
<stop offset="0.115462" stop-color="#80868D"/>
<stop offset="0.212121" stop-color="#80868D"/>
<stop offset="0.541622" stop-color="white"/>
<stop offset="0.890909" stop-color="white"/>
<stop offset="1" stop-color="#B2B2B2"/>
</linearGradient>
<linearGradient id="paint4_linear_370_17916" x1="56.4934" y1="73.3744" x2="50.984" y2="82.4229" gradientUnits="userSpaceOnUse">
<stop stop-color="#EEEEEE"/>
<stop offset="0.334842" stop-color="#E3E3E3"/>
<stop offset="0.751797" stop-color="#737B7F"/>
<stop offset="1" stop-color="#EEEEEE"/>
</linearGradient>
<linearGradient id="paint5_linear_370_17916" x1="56.4934" y1="73.3744" x2="50.984" y2="82.4229" gradientUnits="userSpaceOnUse">
<stop stop-color="#EEEEEE"/>
<stop offset="0.334842" stop-color="#E3E3E3"/>
<stop offset="0.751797" stop-color="#737B7F"/>
<stop offset="1" stop-color="#EEEEEE"/>
</linearGradient>
<linearGradient id="paint6_linear_370_17916" x1="56.4934" y1="73.3744" x2="50.984" y2="82.4229" gradientUnits="userSpaceOnUse">
<stop stop-color="#EEEEEE"/>
<stop offset="0.334842" stop-color="#E3E3E3"/>
<stop offset="0.751797" stop-color="#737B7F"/>
<stop offset="1" stop-color="#EEEEEE"/>
</linearGradient>
<linearGradient id="paint7_linear_370_17916" x1="107.866" y1="73.3744" x2="102.357" y2="82.4229" gradientUnits="userSpaceOnUse">
<stop stop-color="#EEEEEE"/>
<stop offset="0.334842" stop-color="#E3E3E3"/>
<stop offset="0.751797" stop-color="#737B7F"/>
<stop offset="1" stop-color="#EEEEEE"/>
</linearGradient>
<linearGradient id="paint8_linear_370_17916" x1="107.866" y1="73.3744" x2="102.357" y2="82.4229" gradientUnits="userSpaceOnUse">
<stop stop-color="#EEEEEE"/>
<stop offset="0.334842" stop-color="#E3E3E3"/>
<stop offset="0.751797" stop-color="#737B7F"/>
<stop offset="1" stop-color="#EEEEEE"/>
</linearGradient>
<linearGradient id="paint9_linear_370_17916" x1="107.866" y1="73.3744" x2="102.357" y2="82.4229" gradientUnits="userSpaceOnUse">
<stop stop-color="#EEEEEE"/>
<stop offset="0.334842" stop-color="#E3E3E3"/>
<stop offset="0.751797" stop-color="#737B7F"/>
<stop offset="1" stop-color="#EEEEEE"/>
</linearGradient>
<linearGradient id="paint10_linear_370_17916" x1="224.478" y1="28.3004" x2="235.339" y2="79.7542" gradientUnits="userSpaceOnUse">
<stop stop-color="#EEEEEE"/>
<stop offset="0.334842" stop-color="#E3E3E3"/>
<stop offset="0.751797" stop-color="#737B7F"/>
<stop offset="1" stop-color="#EEEEEE"/>
</linearGradient>
<linearGradient id="paint11_linear_370_17916" x1="239.085" y1="78.5481" x2="239.085" y2="27.1709" gradientUnits="userSpaceOnUse">
<stop stop-color="#343030"/>
<stop offset="0.115462" stop-color="#80868D"/>
<stop offset="0.212121" stop-color="#80868D"/>
<stop offset="0.541622" stop-color="white"/>
<stop offset="0.890909" stop-color="white"/>
<stop offset="1" stop-color="#B2B2B2"/>
</linearGradient>
<linearGradient id="paint12_linear_370_17916" x1="198.802" y1="63.9882" x2="203.124" y2="74.6366" gradientUnits="userSpaceOnUse">
<stop stop-color="#EEEEEE"/>
<stop offset="0.334842" stop-color="#E3E3E3"/>
<stop offset="0.751797" stop-color="#737B7F"/>
<stop offset="1" stop-color="#EEEEEE"/>
</linearGradient>
<linearGradient id="paint13_linear_370_17916" x1="200.555" y1="75.5838" x2="200.555" y2="63.7275" gradientUnits="userSpaceOnUse">
<stop stop-color="#343030"/>
<stop offset="0.115462" stop-color="#80868D"/>
<stop offset="0.212121" stop-color="#80868D"/>
<stop offset="0.541622" stop-color="white"/>
<stop offset="0.890909" stop-color="white"/>
<stop offset="1" stop-color="#B2B2B2"/>
</linearGradient>
<linearGradient id="paint14_linear_370_17916" x1="271.507" y1="73.3744" x2="277.016" y2="82.4229" gradientUnits="userSpaceOnUse">
<stop stop-color="#EEEEEE"/>
<stop offset="0.334842" stop-color="#E3E3E3"/>
<stop offset="0.751797" stop-color="#737B7F"/>
<stop offset="1" stop-color="#EEEEEE"/>
</linearGradient>
<linearGradient id="paint15_linear_370_17916" x1="271.507" y1="73.3744" x2="277.016" y2="82.4229" gradientUnits="userSpaceOnUse">
<stop stop-color="#EEEEEE"/>
<stop offset="0.334842" stop-color="#E3E3E3"/>
<stop offset="0.751797" stop-color="#737B7F"/>
<stop offset="1" stop-color="#EEEEEE"/>
</linearGradient>
<linearGradient id="paint16_linear_370_17916" x1="271.507" y1="73.3744" x2="277.016" y2="82.4229" gradientUnits="userSpaceOnUse">
<stop stop-color="#EEEEEE"/>
<stop offset="0.334842" stop-color="#E3E3E3"/>
<stop offset="0.751797" stop-color="#737B7F"/>
<stop offset="1" stop-color="#EEEEEE"/>
</linearGradient>
<linearGradient id="paint17_linear_370_17916" x1="220.134" y1="73.3744" x2="225.643" y2="82.4229" gradientUnits="userSpaceOnUse">
<stop stop-color="#EEEEEE"/>
<stop offset="0.334842" stop-color="#E3E3E3"/>
<stop offset="0.751797" stop-color="#737B7F"/>
<stop offset="1" stop-color="#EEEEEE"/>
</linearGradient>
<linearGradient id="paint18_linear_370_17916" x1="220.134" y1="73.3744" x2="225.643" y2="82.4229" gradientUnits="userSpaceOnUse">
<stop stop-color="#EEEEEE"/>
<stop offset="0.334842" stop-color="#E3E3E3"/>
<stop offset="0.751797" stop-color="#737B7F"/>
<stop offset="1" stop-color="#EEEEEE"/>
</linearGradient>
<linearGradient id="paint19_linear_370_17916" x1="220.134" y1="73.3744" x2="225.643" y2="82.4229" gradientUnits="userSpaceOnUse">
<stop stop-color="#EEEEEE"/>
<stop offset="0.334842" stop-color="#E3E3E3"/>
<stop offset="0.751797" stop-color="#737B7F"/>
<stop offset="1" stop-color="#EEEEEE"/>
</linearGradient>
<linearGradient id="paint20_linear_370_17916" x1="148.888" y1="277.225" x2="178.807" y2="286.939" gradientUnits="userSpaceOnUse">
<stop stop-color="#EEEEEE"/>
<stop offset="0.334842" stop-color="#E3E3E3"/>
<stop offset="0.751797" stop-color="#737B7F"/>
<stop offset="1" stop-color="#EEEEEE"/>
</linearGradient>
<linearGradient id="paint21_linear_370_17916" x1="179.808" y1="283.069" x2="148.193" y2="283.069" gradientUnits="userSpaceOnUse">
<stop stop-color="#343030"/>
<stop offset="0.115462" stop-color="#80868D"/>
<stop offset="0.212121" stop-color="#80868D"/>
<stop offset="0.541622" stop-color="white"/>
<stop offset="0.890909" stop-color="white"/>
<stop offset="1" stop-color="#B2B2B2"/>
</linearGradient>
<linearGradient id="paint22_linear_370_17916" x1="116.773" y1="177.733" x2="215.124" y2="199.908" gradientUnits="userSpaceOnUse">
<stop stop-color="#EEEEEE"/>
<stop offset="0.334842" stop-color="#E3E3E3"/>
<stop offset="0.751797" stop-color="#737B7F"/>
<stop offset="1" stop-color="#EEEEEE"/>
</linearGradient>
<linearGradient id="paint23_linear_370_17916" x1="213.397" y1="204.027" x2="114.602" y2="204.027" gradientUnits="userSpaceOnUse">
<stop stop-color="#343030"/>
<stop offset="0.115462" stop-color="#80868D"/>
<stop offset="0.212121" stop-color="#80868D"/>
<stop offset="0.541622" stop-color="white"/>
<stop offset="0.890909" stop-color="white"/>
<stop offset="1" stop-color="#B2B2B2"/>
</linearGradient>
<linearGradient id="paint24_linear_370_17916" x1="157.86" y1="269.021" x2="169.817" y2="273.227" gradientUnits="userSpaceOnUse">
<stop stop-color="#EEEEEE"/>
<stop offset="0.334842" stop-color="#E3E3E3"/>
<stop offset="0.751797" stop-color="#737B7F"/>
<stop offset="1" stop-color="#EEEEEE"/>
</linearGradient>
<linearGradient id="paint25_linear_370_17916" x1="170.422" y1="271.212" x2="157.578" y2="271.212" gradientUnits="userSpaceOnUse">
<stop stop-color="#343030"/>
<stop offset="0.115462" stop-color="#80868D"/>
<stop offset="0.212121" stop-color="#80868D"/>
<stop offset="0.541622" stop-color="white"/>
<stop offset="0.890909" stop-color="white"/>
<stop offset="1" stop-color="#B2B2B2"/>
</linearGradient>
<linearGradient id="paint26_linear_370_17916" x1="160.695" y1="185.677" x2="167.926" y2="185.836" gradientUnits="userSpaceOnUse">
<stop stop-color="#EEEEEE"/>
<stop offset="0.334842" stop-color="#E3E3E3"/>
<stop offset="0.751797" stop-color="#737B7F"/>
<stop offset="1" stop-color="#EEEEEE"/>
</linearGradient>
<linearGradient id="paint27_linear_370_17916" x1="167.459" y1="204.521" x2="160.543" y2="204.521" gradientUnits="userSpaceOnUse">
<stop stop-color="#343030"/>
<stop offset="0.115462" stop-color="#80868D"/>
<stop offset="0.212121" stop-color="#80868D"/>
<stop offset="0.541622" stop-color="white"/>
<stop offset="0.890909" stop-color="white"/>
<stop offset="1" stop-color="#B2B2B2"/>
</linearGradient>
<linearGradient id="paint28_linear_370_17916" x1="148.888" y1="123.094" x2="178.807" y2="132.808" gradientUnits="userSpaceOnUse">
<stop stop-color="#EEEEEE"/>
<stop offset="0.334842" stop-color="#E3E3E3"/>
<stop offset="0.751797" stop-color="#737B7F"/>
<stop offset="1" stop-color="#EEEEEE"/>
</linearGradient>
<linearGradient id="paint29_linear_370_17916" x1="179.808" y1="128.937" x2="148.193" y2="128.937" gradientUnits="userSpaceOnUse">
<stop stop-color="#343030"/>
<stop offset="0.115462" stop-color="#80868D"/>
<stop offset="0.212121" stop-color="#80868D"/>
<stop offset="0.541622" stop-color="white"/>
<stop offset="0.890909" stop-color="white"/>
<stop offset="1" stop-color="#B2B2B2"/>
</linearGradient>
<linearGradient id="paint30_linear_370_17916" x1="157.86" y1="110.444" x2="169.817" y2="114.649" gradientUnits="userSpaceOnUse">
<stop stop-color="#EEEEEE"/>
<stop offset="0.334842" stop-color="#E3E3E3"/>
<stop offset="0.751797" stop-color="#737B7F"/>
<stop offset="1" stop-color="#EEEEEE"/>
</linearGradient>
<linearGradient id="paint31_linear_370_17916" x1="170.422" y1="112.635" x2="157.578" y2="112.635" gradientUnits="userSpaceOnUse">
<stop stop-color="#343030"/>
<stop offset="0.115462" stop-color="#80868D"/>
<stop offset="0.212121" stop-color="#80868D"/>
<stop offset="0.541622" stop-color="white"/>
<stop offset="0.890909" stop-color="white"/>
<stop offset="1" stop-color="#B2B2B2"/>
</linearGradient>
<linearGradient id="paint32_linear_370_17916" x1="160.695" y1="105.044" x2="167.119" y2="107.325" gradientUnits="userSpaceOnUse">
<stop stop-color="#EEEEEE"/>
<stop offset="0.334842" stop-color="#E3E3E3"/>
<stop offset="0.751797" stop-color="#737B7F"/>
<stop offset="1" stop-color="#EEEEEE"/>
</linearGradient>
<linearGradient id="paint33_linear_370_17916" x1="167.459" y1="106.212" x2="160.543" y2="106.212" gradientUnits="userSpaceOnUse">
<stop stop-color="#343030"/>
<stop offset="0.115462" stop-color="#80868D"/>
<stop offset="0.212121" stop-color="#80868D"/>
<stop offset="0.541622" stop-color="white"/>
<stop offset="0.890909" stop-color="white"/>
<stop offset="1" stop-color="#B2B2B2"/>
</linearGradient>
<linearGradient id="paint34_linear_370_17916" x1="186.723" y1="269.236" x2="186.723" y2="273.188" gradientUnits="userSpaceOnUse">
<stop stop-color="#EEEEEE"/>
<stop offset="0.334842" stop-color="#E3E3E3"/>
<stop offset="0.751797" stop-color="#737B7F"/>
<stop offset="1" stop-color="#EEEEEE"/>
</linearGradient>
<linearGradient id="paint35_linear_370_17916" x1="141.277" y1="273.188" x2="141.277" y2="269.236" gradientUnits="userSpaceOnUse">
<stop stop-color="#EEEEEE"/>
<stop offset="0.334842" stop-color="#E3E3E3"/>
<stop offset="0.751797" stop-color="#737B7F"/>
<stop offset="1" stop-color="#EEEEEE"/>
</linearGradient>
<linearGradient id="paint36_linear_370_17916" x1="217.711" y1="224.716" x2="209.37" y2="241.155" gradientUnits="userSpaceOnUse">
<stop stop-color="#EEEEEE"/>
<stop offset="0.334842" stop-color="#E3E3E3"/>
<stop offset="0.751797" stop-color="#737B7F"/>
<stop offset="1" stop-color="#EEEEEE"/>
</linearGradient>
<linearGradient id="paint37_linear_370_17916" x1="215.374" y1="244.042" x2="215.374" y2="224.281" gradientUnits="userSpaceOnUse">
<stop stop-color="#343030"/>
<stop offset="0.115462" stop-color="#80868D"/>
<stop offset="0.212121" stop-color="#80868D"/>
<stop offset="0.541622" stop-color="white"/>
<stop offset="0.890909" stop-color="white"/>
<stop offset="1" stop-color="#B2B2B2"/>
</linearGradient>
</defs>
</svg>
