<svg width="328" height="330" viewBox="0 0 328 330" fill="none" xmlns="http://www.w3.org/2000/svg">
<rect x="0.5" y="0.5" width="327" height="329" fill="#FAFAFA"/>
<rect x="0.5" y="0.5" width="327" height="329" stroke="#DFDFDF"/>
<path d="M315.651 0.24707V0.741082H327.26V12.3504H327.754V0.24707H315.651Z" fill="#FF4100"/>
<path d="M12.3485 329.753V329.259H0.74007V317.65H0.246094V329.753H12.3485Z" fill="#FF4100"/>
<path d="M315.651 329.753V329.259H327.26V317.65H327.754V329.753H315.651Z" fill="#FF4100"/>
<path opacity="0.08" d="M0 0H13.8313V13.8323H0V0Z" fill="#FF4100"/>
<path d="M7.90361 11.8563V9.88024H5.92771V11.8563H7.90361Z" fill="#FF4100"/>
<path fill-rule="evenodd" clip-rule="evenodd" d="M5.92771 3.9521V1.97605H7.90361V3.9521H5.92771Z" fill="#FF4100"/>
<path d="M7.90361 3.9521V5.92814H9.87952V3.9521H7.90361Z" fill="#FF4100"/>
<path d="M7.90361 5.92814V7.90419H9.87952V5.92814H7.90361Z" fill="#FF4100"/>
<path d="M9.87952 9.88024V7.90419H7.90361V9.88024H9.87952Z" fill="#FF4100"/>
<path d="M7.90361 5.92814H5.92771V7.90419H7.90361V5.92814Z" fill="#FF4100"/>
<path d="M5.92771 9.88024H3.95181V11.8563H5.92771V9.88024Z" fill="#FF4100"/>
<path d="M3.95181 5.92814V7.90419H5.92771V5.92814H3.95181Z" fill="#FF4100"/>
<path d="M5.92771 1.97605H3.95181V3.9521H5.92771V1.97605Z" fill="#FF4100"/>
<path d="M101.76 176.362C101.76 187.275 98.0066 196.123 93.377 196.123C88.7474 196.123 84.9944 187.275 84.9944 176.362C84.9944 165.449 88.7474 156.602 93.377 156.602C98.0066 156.602 101.76 165.449 101.76 176.362Z" fill="url(#paint0_linear_370_17956)"/>
<path d="M66.1934 176.362C66.1934 187.275 69.9464 196.123 74.576 196.123H93.377C88.7474 196.123 84.9944 187.275 84.9944 176.362C84.9944 165.449 88.7474 156.602 93.377 156.602H74.576C69.9464 156.602 66.1934 165.449 66.1934 176.362Z" fill="url(#paint1_linear_370_17956)"/>
<path d="M84.7463 176.362C84.7463 170.881 85.6883 165.906 87.221 162.293C87.9872 160.487 88.9062 159.009 89.9388 157.98C90.4156 157.504 90.9203 157.123 91.4468 156.849H74.5749C73.502 156.849 72.4587 157.36 71.4866 158.33C70.5135 159.3 69.6257 160.716 68.8749 162.486C67.3738 166.025 66.4393 170.931 66.4393 176.362C66.4393 181.794 67.3738 186.7 68.8749 190.239C69.6257 192.009 70.5135 193.425 71.4866 194.395C72.4587 195.364 73.502 195.876 74.5749 195.876H91.4468C90.9203 195.602 90.4156 195.22 89.9388 194.745C88.9062 193.715 87.9872 192.238 87.221 190.432C85.6883 186.818 84.7463 181.844 84.7463 176.362ZM85.2403 176.362C85.2403 181.794 86.1748 186.7 87.6759 190.239C88.4267 192.009 89.3145 193.425 90.2876 194.395C91.2596 195.364 92.303 195.876 93.3759 195.876C94.4488 195.876 95.4922 195.364 96.4642 194.395C97.4373 193.425 98.3252 192.009 99.0759 190.239C100.577 186.7 101.512 181.794 101.512 176.362C101.512 170.931 100.577 166.025 99.0759 162.486C98.3252 160.716 97.4373 159.3 96.4642 158.33C95.4922 157.36 94.4488 156.849 93.3759 156.849C92.303 156.849 91.2596 157.36 90.2876 158.33C89.3145 159.3 88.4267 160.716 87.6759 162.486C86.1748 166.025 85.2403 170.931 85.2403 176.362ZM102.006 176.362C102.006 181.844 101.064 186.818 99.5308 190.432C98.7647 192.238 97.8457 193.715 96.813 194.745C95.844 195.711 94.7625 196.294 93.608 196.363L93.3759 196.37H74.5749C73.3332 196.37 72.1715 195.776 71.1378 194.745C70.1052 193.715 69.1862 192.238 68.42 190.432C66.8873 186.818 65.9453 181.844 65.9453 176.362C65.9453 170.881 66.8873 165.906 68.42 162.293C69.1862 160.487 70.1052 159.009 71.1378 157.98C72.1715 156.949 73.3332 156.355 74.5749 156.355H93.3759C94.6177 156.355 95.7794 156.949 96.813 157.98C97.8457 159.009 98.7647 160.487 99.5308 162.293C101.064 165.906 102.006 170.881 102.006 176.362Z" fill="black"/>
<path fill-rule="evenodd" clip-rule="evenodd" d="M80.0234 211.437L148.192 250.958H170.915L238.096 211.437V84.9702L212.646 53.3534H105.473L80.0234 84.9702V211.437Z" fill="url(#paint2_linear_370_17956)"/>
<path d="M238.096 84.9702V211.437L257.855 205.509V79.0421L238.096 84.9702Z" fill="url(#paint3_linear_370_17956)"/>
<path d="M212.646 53.3534L238.096 84.9702L257.855 79.0421L232.415 47.4253L212.646 53.3534Z" fill="url(#paint4_linear_370_17956)"/>
<path d="M232.415 47.4253H125.222L105.473 53.3534H212.646L232.415 47.4253Z" fill="url(#paint5_linear_370_17956)"/>
<path d="M80.2713 85.057V211.294L148.26 250.711H170.849L237.85 211.296V85.057L212.529 53.6004H105.592L80.2713 85.057ZM238.196 211.664L172.951 250.047L189.341 244.802L255.901 206.353L238.196 211.664ZM238.344 85.1535V211.105L257.609 205.325V79.3734L238.344 85.1535ZM213.069 53.4841L238.185 84.6855L257.433 78.9108L232.327 47.7094L213.069 53.4841ZM107.155 53.1064H212.611L230.733 47.6722H125.259L107.155 53.1064ZM258.103 205.652L257.979 205.723L189.563 245.244L189.54 245.257L189.515 245.265L170.991 251.194L170.954 251.205H148.126L79.7773 211.58V84.8833L79.8319 84.8153L105.282 53.1985L105.33 53.1387L105.403 53.117L125.152 47.1888L125.187 47.1782H232.534L258.048 78.8871L258.103 78.9552V205.652Z" fill="black"/>
<path d="M232.417 47.4253H125.224L105.475 53.3534H212.648L232.417 47.4253Z" fill="url(#paint6_linear_370_17956)"/>
<path d="M232.415 47.1782L232.486 47.6616L212.717 53.5898L212.682 53.6004H105.473L105.402 53.117L125.151 47.1888L125.186 47.1782H232.415ZM107.154 53.1064H212.611L230.732 47.6722H125.258L107.154 53.1064Z" fill="black"/>
<path d="M212.646 53.3534L238.096 84.9702L257.855 79.0421L232.415 47.4253L212.646 53.3534Z" fill="url(#paint7_linear_370_17956)"/>
<path d="M258.278 79.1733L238.009 85.2543L212.225 53.2222L232.504 47.1411L258.278 79.1733ZM213.069 53.4841L238.185 84.6855L257.434 78.9108L232.328 47.7094L213.069 53.4841Z" fill="black"/>
<path d="M170.916 250.958L238.097 211.437L257.856 205.509L189.44 245.03L170.916 250.958Z" fill="url(#paint8_linear_370_17956)"/>
<path d="M257.98 205.723L189.564 245.244L189.541 245.257L189.516 245.265L170.992 251.193L170.791 250.745L237.972 211.224L237.998 211.209L238.026 211.201L257.785 205.272L257.98 205.723ZM238.197 211.664L172.952 250.047L189.341 244.802L255.901 206.353L238.197 211.664Z" fill="black"/>
<path d="M170.916 250.958H148.193V276.568V276.57C148.194 276.809 148.22 277.045 148.272 277.277C148.935 280.26 153.734 282.575 159.555 282.575C165.376 282.575 170.175 280.26 170.838 277.277C170.89 277.044 170.916 276.807 170.916 276.568V250.958Z" fill="url(#paint9_linear_370_17956)"/>
<path d="M170.668 276.567V251.205H148.439V276.57L148.444 276.735C148.453 276.899 148.476 277.062 148.512 277.223L148.543 277.352C148.9 278.685 150.164 279.912 152.084 280.821C154.056 281.755 156.674 282.328 159.554 282.328C162.434 282.328 165.052 281.755 167.024 280.821C169.005 279.883 170.288 278.605 170.596 277.223L170.627 277.061C170.654 276.898 170.668 276.734 170.668 276.567ZM171.162 276.567C171.162 276.761 171.146 276.953 171.114 277.142L171.078 277.33C170.722 278.931 169.274 280.303 167.235 281.268C165.187 282.237 162.495 282.822 159.554 282.822C156.613 282.822 153.921 282.237 151.873 281.268C149.897 280.333 148.476 279.016 148.066 277.479L148.029 277.33C147.974 277.081 147.946 276.828 147.945 276.57V250.711H171.162V276.567Z" fill="black"/>
<g filter="url(#filter0_i_370_17956)">
<path d="M147.485 97.5626L155.242 96.7636C157.435 96.5376 159.397 98.1328 159.623 100.326C159.849 102.52 158.254 104.482 156.06 104.708L132.556 107.129C128.734 107.523 125.955 110.941 126.349 114.763C126.742 118.585 130.16 121.364 133.981 120.971L157.486 118.549C159.68 118.323 161.641 119.918 161.867 122.112C162.093 124.306 160.498 126.267 158.304 126.493L134.8 128.915C130.978 129.309 128.199 132.726 128.593 136.548C128.986 140.37 132.404 143.15 136.225 142.756L159.73 140.335C161.923 140.109 163.885 141.704 164.111 143.897C164.337 146.091 162.742 148.053 160.548 148.279L137.044 150.7C133.22 151.094 130.444 154.517 130.837 158.338C131.23 162.154 134.643 164.936 138.461 164.543C140.65 164.317 142.607 165.909 142.833 168.098L144.314 182.48C144.398 183.294 145.126 183.886 145.94 183.802C146.754 183.718 147.346 182.99 147.262 182.176L145.781 167.794C145.388 163.977 141.975 161.201 138.158 161.594C135.97 161.819 134.011 160.225 133.785 158.034C133.559 155.839 135.155 153.874 137.347 153.649L160.852 151.227C164.674 150.833 167.453 147.416 167.059 143.594C166.665 139.772 163.248 136.992 159.426 137.386L135.922 139.808C133.728 140.033 131.767 138.438 131.541 136.245C131.315 134.051 132.91 132.089 135.103 131.863L158.608 129.442C162.43 129.048 165.209 125.631 164.815 121.808C164.421 117.986 161.004 115.207 157.182 115.601L133.678 118.022C131.484 118.248 129.523 116.653 129.297 114.459C129.071 112.265 130.666 110.304 132.859 110.078L156.364 107.656C160.186 107.262 162.965 103.845 162.571 100.023C162.177 96.2007 158.76 93.4214 154.938 93.8151L147.182 94.6142C143.858 94.9565 140.788 93.3108 139.154 90.6389L145.376 89.9979L135.346 76.1323L128.354 91.7515L135.978 90.9661C137.942 95.2871 142.503 98.0759 147.485 97.5626Z" fill="#FFF100"/>
</g>
<g filter="url(#filter1_i_370_17956)">
<path d="M135.144 74.1664L126.753 92.9094L135.395 92.0191C137.639 96.2737 142.267 98.9874 147.333 98.5689L147.587 98.5452L155.343 97.7461C156.942 97.5814 158.378 98.703 158.62 100.274L158.64 100.427C158.805 102.027 157.684 103.462 156.113 103.705L155.959 103.725L132.455 106.146C128.158 106.589 125.016 110.378 125.347 114.659L125.366 114.864C125.808 119.16 129.597 122.304 133.879 121.972L134.083 121.953L157.587 119.532C159.238 119.362 160.714 120.562 160.884 122.213C161.049 123.812 159.928 125.248 158.357 125.491L158.203 125.51L134.699 127.932C130.334 128.382 127.16 132.284 127.61 136.649C128.052 140.946 131.841 144.089 136.123 143.757L136.327 143.739L159.831 141.317C161.43 141.152 162.866 142.274 163.108 143.845L163.128 143.998C163.293 145.598 162.172 147.033 160.601 147.276L160.447 147.296L136.943 149.717C132.644 150.16 129.504 153.955 129.836 158.235L129.854 158.439C130.303 162.797 134.2 165.975 138.563 165.525C140.157 165.361 141.588 166.479 141.83 168.046L141.85 168.199L143.331 182.581C143.467 183.895 144.61 184.862 145.914 184.794L146.041 184.785C147.398 184.645 148.385 183.431 148.245 182.075L147.262 182.176C147.346 182.99 146.754 183.718 145.94 183.802C145.126 183.886 144.398 183.294 144.314 182.479L142.833 168.098C142.607 165.909 140.65 164.317 138.461 164.542C134.643 164.936 131.23 162.154 130.837 158.338C130.444 154.517 133.22 151.094 137.044 150.7L160.548 148.279C162.742 148.052 164.337 146.091 164.111 143.897C163.885 141.704 161.923 140.108 159.73 140.334L136.225 142.756C132.404 143.149 128.986 140.37 128.593 136.548C128.199 132.726 130.978 129.308 134.8 128.915L158.304 126.493C160.498 126.267 162.093 124.306 161.867 122.112C161.641 119.918 159.68 118.323 157.486 118.549L133.981 120.971C130.16 121.364 126.742 118.585 126.349 114.762C125.955 110.94 128.734 107.523 132.556 107.129L156.06 104.707C158.254 104.481 159.849 102.52 159.623 100.326C159.397 98.1325 157.435 96.5374 155.242 96.7633L147.485 97.5624C142.503 98.0756 137.942 95.2868 135.978 90.9658L128.354 91.7512L135.346 76.1321L145.376 89.9977L139.154 90.6386C140.788 93.3106 143.858 94.9563 147.182 94.6139L154.938 93.8149C158.76 93.4212 162.177 96.2004 162.571 100.022C162.965 103.845 160.186 107.262 156.364 107.656L132.859 110.077C130.666 110.303 129.071 112.265 129.297 114.459L130.28 114.357C130.115 112.758 131.236 111.323 132.808 111.08L132.961 111.06L156.465 108.639C160.83 108.189 164.003 104.286 163.554 99.9213L163.53 99.7176C162.991 95.5257 159.255 92.487 155.041 92.8134L154.837 92.832L147.081 93.6311C144.744 93.8717 142.55 92.9982 141.024 91.4392L147.179 90.8051L135.144 74.1664ZM138.158 161.594C141.975 161.201 145.388 163.976 145.781 167.794L146.764 167.693C146.322 163.401 142.537 160.261 138.261 160.592L138.056 160.611C136.413 160.78 134.938 159.581 134.768 157.933L133.785 158.034C134.011 160.225 135.97 161.819 138.158 161.594ZM135.922 139.807L159.426 137.386C163.248 136.992 166.665 139.771 167.059 143.594C167.453 147.416 164.674 150.833 160.852 151.227L137.347 153.648C135.155 153.874 133.559 155.839 133.785 158.034L134.768 157.933C134.603 156.331 135.727 154.894 137.296 154.651L137.449 154.631L160.953 152.21C165.318 151.76 168.491 147.857 168.042 143.492L168.018 143.289C167.479 139.097 163.743 136.058 159.529 136.384L159.325 136.403L135.821 138.824C134.17 138.995 132.694 137.794 132.524 136.143L131.541 136.244C131.767 138.438 133.728 140.033 135.922 139.807ZM133.678 118.022L157.182 115.601C161.004 115.207 164.421 117.986 164.815 121.808C165.209 125.63 162.43 129.048 158.608 129.442L135.103 131.863C132.91 132.089 131.315 134.051 131.541 136.244L132.524 136.143C132.359 134.544 133.48 133.109 135.051 132.866L135.205 132.846L158.709 130.425C163.074 129.975 166.247 126.072 165.798 121.707C165.355 117.41 161.567 114.267 157.285 114.599L157.081 114.618L133.577 117.039C131.926 117.209 130.45 116.008 130.28 114.357L129.297 114.459C129.523 116.652 131.484 118.248 133.678 118.022ZM146.764 167.693L145.781 167.794L147.262 182.176L148.245 182.075L146.764 167.693Z" fill="#FF4100"/>
</g>
<path d="M91.8789 176.362C91.8789 187.275 95.6319 196.123 100.262 196.123H247.496C242.867 196.123 239.114 187.275 239.114 176.362C239.114 165.449 242.867 156.602 247.496 156.602L100.262 156.602C95.6319 156.602 91.8789 165.449 91.8789 176.362Z" fill="#F98818"/>
<path d="M91.8789 176.362C91.8789 187.275 95.6319 196.123 100.262 196.123H247.496C242.867 196.123 239.114 187.275 239.114 176.362C239.114 165.449 242.867 156.602 247.496 156.602L100.262 156.602C95.6319 156.602 91.8789 165.449 91.8789 176.362Z" fill="url(#paint10_radial_370_17956)"/>
<path d="M238.619 176.362C238.619 170.856 239.565 165.847 241.114 162.197C241.888 160.373 242.822 158.864 243.884 157.805C244.149 157.541 244.423 157.304 244.706 157.096H100.261C99.2728 157.096 98.2885 157.566 97.3472 158.505C96.4039 159.445 95.5316 160.831 94.7886 162.583C93.3032 166.084 92.3727 170.956 92.3727 176.362C92.3727 181.769 93.3032 186.641 94.7886 190.142C95.5316 191.894 96.4039 193.28 97.3472 194.22C98.2885 195.159 99.2728 195.629 100.261 195.629H244.706C244.423 195.421 244.149 195.183 243.884 194.92C242.822 193.86 241.888 192.352 241.114 190.528C239.565 186.878 238.619 181.869 238.619 176.362ZM239.607 176.362C239.607 181.769 240.538 186.641 242.023 190.142C242.766 191.894 243.639 193.28 244.582 194.22C245.523 195.159 246.508 195.629 247.496 195.629V196.617H100.261C98.9351 196.617 97.7141 195.981 96.6497 194.92C95.5872 193.86 94.6531 192.352 93.8792 190.528C92.3307 186.878 91.3848 181.869 91.3848 176.362C91.3848 170.856 92.3307 165.847 93.8792 162.197C94.6531 160.372 95.5872 158.864 96.6497 157.805C97.7141 156.744 98.9351 156.108 100.261 156.108H247.496V157.096C246.508 157.096 245.523 157.566 244.582 158.505C243.639 159.445 242.766 160.831 242.023 162.583C240.538 166.084 239.607 170.956 239.607 176.362Z" fill="#FFF100"/>
<path d="M238.096 84.9701V211.437L257.855 205.509V79.042L238.096 84.9701Z" fill="url(#paint11_linear_370_17956)"/>
<path d="M258.103 205.693L257.927 205.745L237.85 211.769V84.7862L238.026 84.7336L258.103 78.71V205.693ZM238.344 85.1533V211.105L257.609 205.325V79.3733L238.344 85.1533Z" fill="black"/>
<path d="M277.615 176.362C277.615 187.275 273.862 196.123 269.232 196.123C264.603 196.123 260.85 187.275 260.85 176.362C260.85 165.449 264.603 156.602 269.232 156.602C273.862 156.602 277.615 165.449 277.615 176.362Z" fill="url(#paint12_linear_370_17956)"/>
<path d="M242.049 176.362C242.049 187.275 245.802 196.123 250.431 196.123H269.232C264.603 196.123 260.85 187.275 260.85 176.362C260.85 165.449 264.603 156.602 269.232 156.602H250.431C245.802 156.602 242.049 165.449 242.049 176.362Z" fill="url(#paint13_linear_370_17956)"/>
<path d="M260.602 176.362C260.602 170.881 261.544 165.906 263.076 162.293C263.843 160.487 264.762 159.009 265.794 157.98C266.271 157.504 266.776 157.123 267.302 156.849H250.43C249.358 156.849 248.314 157.36 247.342 158.33C246.369 159.3 245.481 160.716 244.73 162.486C243.229 166.025 242.295 170.931 242.295 176.362C242.295 181.794 243.229 186.7 244.73 190.239C245.481 192.009 246.369 193.425 247.342 194.395C248.314 195.364 249.358 195.876 250.43 195.876H267.302C266.776 195.602 266.271 195.22 265.794 194.745C264.762 193.715 263.843 192.238 263.076 190.432C261.544 186.818 260.602 181.844 260.602 176.362ZM261.096 176.362C261.096 181.794 262.03 186.7 263.531 190.239C264.282 192.009 265.17 193.425 266.143 194.395C267.115 195.364 268.158 195.876 269.231 195.876C270.304 195.876 271.348 195.364 272.32 194.395C273.293 193.425 274.181 192.009 274.931 190.239C276.433 186.7 277.367 181.794 277.367 176.362C277.367 170.931 276.433 166.025 274.931 162.486C274.181 160.716 273.293 159.3 272.32 158.33C271.348 157.36 270.304 156.849 269.231 156.849C268.158 156.849 267.115 157.36 266.143 158.33C265.17 159.3 264.282 160.716 263.531 162.486C262.03 166.025 261.096 170.931 261.096 176.362ZM277.861 176.362C277.861 181.844 276.919 186.818 275.386 190.432C274.62 192.238 273.701 193.715 272.668 194.745C271.699 195.711 270.618 196.294 269.463 196.363L269.231 196.37H250.43C249.189 196.37 248.027 195.776 246.993 194.745C245.961 193.715 245.042 192.238 244.275 190.432C242.743 186.818 241.801 181.844 241.801 176.362C241.801 170.881 242.743 165.906 244.275 162.293C245.042 160.487 245.961 159.009 246.993 157.98C248.027 156.949 249.189 156.355 250.43 156.355H269.231C270.473 156.355 271.635 156.949 272.668 157.98C273.701 159.009 274.62 160.487 275.386 162.293C276.919 165.906 277.861 170.881 277.861 176.362Z" fill="black"/>
<g filter="url(#filter2_i_370_17956)">
<path d="M110.499 126.191L102.848 127.697C100.685 128.123 99.276 130.223 99.7018 132.387C100.128 134.55 102.227 135.959 104.391 135.533L127.575 130.97C131.344 130.228 135.002 132.682 135.744 136.452C136.486 140.222 134.031 143.88 130.262 144.622L107.078 149.186C104.914 149.612 103.505 151.711 103.931 153.875C104.357 156.039 106.456 157.448 108.62 157.022L131.804 152.458C135.574 151.716 139.231 154.171 139.973 157.941C140.715 161.711 138.261 165.369 134.491 166.111L111.307 170.674C109.143 171.1 107.735 173.2 108.161 175.364C108.586 177.527 110.686 178.936 112.849 178.51L136.033 173.946C139.805 173.204 143.462 175.665 144.203 179.433C144.944 183.197 142.495 186.856 138.729 187.598C136.57 188.023 135.164 190.118 135.589 192.277L138.381 206.463C138.539 207.266 138.016 208.045 137.213 208.203C136.41 208.361 135.631 207.838 135.473 207.035L132.681 192.849C131.94 189.084 134.391 185.431 138.156 184.689C140.314 184.265 141.721 182.166 141.295 180.006C140.869 177.841 138.768 176.429 136.606 176.855L113.422 181.419C109.652 182.161 105.995 179.706 105.253 175.936C104.511 172.166 106.965 168.508 110.735 167.766L133.919 163.202C136.082 162.776 137.491 160.677 137.065 158.513C136.639 156.349 134.54 154.941 132.376 155.367L109.192 159.93C105.423 160.672 101.765 158.218 101.023 154.448C100.281 150.678 102.736 147.02 106.505 146.278L129.689 141.714C131.853 141.288 133.262 139.188 132.836 137.025C132.41 134.861 130.311 133.452 128.147 133.878L104.963 138.442C101.193 139.184 97.5357 136.729 96.7937 132.959C96.0518 129.189 98.5062 125.531 102.276 124.789L109.927 123.283C113.205 122.638 115.659 120.166 116.44 117.132L110.303 118.34L115.835 102.147L127.092 115.035L119.573 116.516C118.958 121.222 115.413 125.224 110.499 126.191Z" fill="#FFF100"/>
</g>
<g filter="url(#filter3_i_370_17956)">
<path d="M115.455 100.208L128.963 115.674L120.439 117.352C119.539 122.077 115.907 126.027 110.94 127.109L110.691 127.161L103.04 128.667C101.463 128.977 100.419 130.47 100.646 132.043L100.672 132.196C100.983 133.773 102.475 134.817 104.048 134.59L104.201 134.564L127.385 130C131.623 129.166 135.736 131.869 136.672 136.06L136.714 136.261C137.548 140.499 134.846 144.614 130.654 145.55L130.454 145.592L107.27 150.156C105.641 150.476 104.581 152.056 104.902 153.684C105.212 155.262 106.705 156.306 108.278 156.079L108.43 156.053L131.614 151.489C135.919 150.641 140.096 153.444 140.944 157.75C141.778 161.988 139.075 166.102 134.884 167.038L134.683 167.08L111.499 171.644C109.922 171.954 108.878 173.447 109.105 175.02L109.131 175.173C109.442 176.75 110.934 177.794 112.507 177.567L112.66 177.541L135.844 172.977C140.084 172.142 144.197 174.853 145.132 179.042L145.174 179.242C146.02 183.541 143.224 187.72 138.921 188.567C137.348 188.877 136.307 190.365 136.533 191.934L136.559 192.086L139.352 206.272C139.607 207.568 138.797 208.827 137.529 209.144L137.405 209.172C136.067 209.436 134.768 208.564 134.505 207.226L135.474 207.035C135.632 207.838 136.411 208.361 137.214 208.203C138.017 208.045 138.54 207.266 138.382 206.462L135.59 192.277C135.165 190.117 136.571 188.023 138.73 187.598C142.496 186.856 144.945 183.197 144.205 179.433C143.463 175.665 139.806 173.204 136.035 173.946L112.851 178.51C110.687 178.936 108.588 177.527 108.162 175.363C107.736 173.2 109.145 171.1 111.308 170.674L134.492 166.111C138.262 165.368 140.716 161.711 139.974 157.941C139.232 154.171 135.575 151.716 131.805 152.458L108.621 157.022C106.458 157.448 104.358 156.039 103.932 153.875C103.507 151.711 104.915 149.612 107.079 149.186L130.263 144.622C134.033 143.88 136.487 140.222 135.745 136.452C135.003 132.682 131.345 130.227 127.576 130.969L104.392 135.533C102.228 135.959 100.129 134.55 99.703 132.386C99.2772 130.223 100.686 128.123 102.849 127.697L110.5 126.191C115.415 125.224 118.96 121.222 119.574 116.515L127.093 115.035L115.837 102.146L110.304 118.34L116.441 117.132C115.66 120.166 113.206 122.638 109.928 123.283L102.277 124.789C98.5074 125.531 96.053 129.189 96.7949 132.959C97.537 136.729 101.194 139.184 104.964 138.441L128.148 133.878C130.312 133.452 132.411 134.861 132.837 137.024L131.868 137.215C131.557 135.638 130.064 134.593 128.491 134.821L128.339 134.847L105.155 139.411C100.85 140.258 96.673 137.455 95.8256 133.15L95.7883 132.948C95.0775 128.782 97.761 124.783 101.886 123.862L102.086 123.82L109.737 122.314C112.041 121.86 113.884 120.382 114.887 118.445L108.816 119.64L115.455 100.208ZM138.157 184.689C134.392 185.431 131.941 189.084 132.682 192.849L131.713 193.04C130.879 188.806 133.579 184.697 137.766 183.762L137.967 183.72C139.588 183.401 140.647 181.823 140.327 180.196L141.297 180.006C141.722 182.166 140.315 184.265 138.157 184.689ZM133.92 163.202L110.736 167.766C106.966 168.508 104.512 172.166 105.254 175.936C105.996 179.706 109.653 182.16 113.423 181.418L136.607 176.855C138.769 176.429 140.87 177.84 141.297 180.006L140.327 180.196C140.016 178.617 138.521 177.571 136.95 177.798L136.798 177.824L113.614 182.388C109.309 183.235 105.132 180.432 104.284 176.127L104.247 175.925C103.536 171.759 106.22 167.76 110.344 166.839L110.545 166.797L133.729 162.233C135.357 161.912 136.418 160.332 136.097 158.704L137.066 158.513C137.492 160.677 136.084 162.776 133.92 163.202ZM129.691 141.714L106.507 146.278C102.737 147.02 100.282 150.678 101.024 154.448C101.766 158.218 105.424 160.672 109.194 159.93L132.378 155.366C134.541 154.941 136.64 156.349 137.066 158.513L136.097 158.704C135.787 157.127 134.294 156.082 132.721 156.31L132.568 156.336L109.384 160.9C105.079 161.747 100.902 158.944 100.055 154.638C99.2209 150.4 101.924 146.286 106.115 145.35L106.316 145.308L129.5 140.745C131.128 140.424 132.188 138.844 131.868 137.215L132.837 137.024C133.263 139.188 131.854 141.288 129.691 141.714ZM131.713 193.04L132.682 192.849L135.474 207.035L134.505 207.226L131.713 193.04Z" fill="#FF4100"/>
</g>
<g filter="url(#filter4_i_370_17956)">
<path d="M186.188 94.2678L178.489 93.0339C176.312 92.6849 174.264 94.1673 173.915 96.3448C173.566 98.5224 175.048 100.57 177.226 100.919L200.557 104.659C204.35 105.267 206.933 108.835 206.325 112.629C205.717 116.423 202.149 119.006 198.355 118.398L175.024 114.659C172.847 114.31 170.799 115.792 170.45 117.97C170.101 120.147 171.583 122.196 173.76 122.545L197.092 126.284C200.885 126.892 203.468 130.46 202.86 134.254C202.252 138.048 198.684 140.631 194.89 140.023L171.559 136.284C169.382 135.935 167.334 137.417 166.985 139.595C166.636 141.772 168.118 143.82 170.295 144.169L193.626 147.908C197.422 148.517 200.002 152.091 199.394 155.883C198.787 159.671 195.224 162.257 191.433 161.649C189.26 161.301 187.217 162.78 186.869 164.953L184.581 179.229C184.452 180.037 183.691 180.587 182.883 180.458C182.075 180.328 181.525 179.568 181.655 178.76L183.942 164.484C184.549 160.695 188.113 158.115 191.902 158.722C194.073 159.07 196.119 157.588 196.468 155.414C196.817 153.235 195.333 151.184 193.158 150.835L169.826 147.096C166.033 146.488 163.45 142.92 164.058 139.126C164.666 135.332 168.234 132.749 172.028 133.357L195.359 137.096C197.536 137.445 199.584 135.963 199.933 133.785C200.282 131.607 198.8 129.559 196.623 129.21L173.291 125.471C169.498 124.863 166.915 121.295 167.523 117.501C168.131 113.707 171.699 111.124 175.493 111.732L198.824 115.471C201.002 115.82 203.05 114.337 203.398 112.16C203.747 109.982 202.265 107.934 200.088 107.585L176.757 103.846C172.963 103.238 170.38 99.6698 170.988 95.8758C171.596 92.0819 175.164 89.4992 178.958 90.1071L186.657 91.341C189.956 91.8697 193.114 90.3992 194.896 87.8234L188.72 86.8336L199.513 73.5538L205.616 89.5414L198.049 88.3286C195.844 92.5323 191.134 95.0603 186.188 94.2678Z" fill="#FFF100"/>
</g>
<g filter="url(#filter5_i_370_17956)">
<path d="M199.827 71.6028L207.15 90.7878L198.572 89.4131C196.093 93.5348 191.32 95.9841 186.285 95.2813L186.033 95.2434L178.334 94.0095C176.746 93.7551 175.25 94.7943 174.92 96.3494L174.891 96.5013C174.637 98.0887 175.676 99.5848 177.231 99.9157L177.383 99.944L200.714 103.683C204.979 104.367 207.903 108.326 207.332 112.582L207.301 112.785C206.618 117.05 202.659 119.976 198.403 119.404L198.2 119.374L174.869 115.635C173.23 115.372 171.689 116.488 171.426 118.126C171.172 119.714 172.211 121.21 173.765 121.541L173.918 121.569L197.249 125.308C201.581 126.003 204.531 130.078 203.836 134.41C203.153 138.676 199.194 141.6 194.938 141.028L194.735 140.998L171.404 137.259C169.816 137.005 168.32 138.044 167.989 139.599L167.961 139.751C167.707 141.339 168.745 142.835 170.3 143.165L170.453 143.194L193.784 146.933C198.051 147.617 200.972 151.582 200.401 155.837L200.371 156.039C199.677 160.365 195.608 163.319 191.278 162.625C189.695 162.371 188.203 163.407 187.873 164.958L187.845 165.109L185.558 179.385C185.348 180.69 184.153 181.591 182.854 181.45L182.728 181.433C181.381 181.218 180.464 179.951 180.68 178.604L181.656 178.76C181.526 179.568 182.076 180.328 182.884 180.458C183.692 180.587 184.453 180.037 184.582 179.229L186.87 164.953C187.218 162.78 189.261 161.301 191.434 161.649C195.225 162.257 198.788 159.671 199.395 155.883C200.003 152.091 197.423 148.517 193.627 147.908L170.296 144.169C168.119 143.82 166.637 141.772 166.986 139.595C167.335 137.417 169.382 135.935 171.56 136.284L194.891 140.023C198.685 140.631 202.253 138.048 202.861 134.254C203.469 130.46 200.886 126.892 197.093 126.284L173.761 122.545C171.584 122.196 170.102 120.148 170.451 117.97C170.8 115.792 172.848 114.31 175.025 114.659L198.356 118.398C202.15 119.006 205.718 116.423 206.326 112.629C206.934 108.835 204.351 105.267 200.558 104.659L177.227 100.92C175.049 100.571 173.567 98.5225 173.916 96.3449C174.265 94.1674 176.313 92.685 178.49 93.034L186.189 94.2678C191.135 95.0604 195.845 92.5324 198.05 88.3287L205.617 89.5415L199.514 73.5539L188.721 86.8337L194.897 87.8235C193.115 90.3993 189.957 91.8698 186.658 91.3411L178.959 90.1072C175.165 89.4993 171.597 92.082 170.989 95.8759C170.381 99.6699 172.964 103.238 176.758 103.846L200.089 107.585C202.266 107.934 203.748 109.983 203.399 112.16L202.424 112.004C202.678 110.416 201.639 108.92 200.084 108.589L199.932 108.561L176.601 104.822C172.269 104.128 169.32 100.052 170.014 95.7196L170.049 95.5175C170.823 91.3626 174.724 88.5388 178.913 89.1016L179.115 89.1316L186.815 90.3655C189.134 90.7372 191.374 89.9883 192.985 88.5176L186.875 87.5385L199.827 71.6028ZM191.903 158.723C188.114 158.115 184.55 160.695 183.943 164.484L182.968 164.328C183.65 160.067 187.605 157.146 191.856 157.717L192.059 157.747C193.691 158.008 195.231 156.894 195.493 155.258L196.469 155.414C196.12 157.588 194.074 159.07 191.903 158.723ZM195.36 137.096L172.029 133.357C168.235 132.749 164.667 135.332 164.059 139.126C163.451 142.92 166.034 146.488 169.827 147.096L193.158 150.835C195.334 151.184 196.818 153.235 196.469 155.414L195.493 155.258C195.748 153.668 194.707 152.169 193.154 151.839L193.002 151.811L169.671 148.072C165.339 147.377 162.389 143.302 163.084 138.969L163.118 138.767C163.893 134.612 167.794 131.789 171.982 132.351L172.185 132.381L195.516 136.121C197.155 136.383 198.696 135.268 198.959 133.629L199.934 133.785C199.585 135.963 197.537 137.445 195.36 137.096ZM198.825 115.471L175.494 111.732C171.7 111.124 168.132 113.707 167.524 117.501C166.916 121.295 169.499 124.863 173.292 125.471L196.624 129.21C198.801 129.559 200.283 131.608 199.934 133.785L198.959 133.629C199.213 132.041 198.174 130.545 196.62 130.214L196.467 130.186L173.136 126.447C168.804 125.753 165.854 121.677 166.549 117.345C167.232 113.08 171.191 110.155 175.447 110.727L175.65 110.757L198.981 114.496C200.62 114.758 202.161 113.643 202.424 112.004L203.399 112.16C203.051 114.338 201.002 115.82 198.825 115.471ZM182.968 164.328L183.943 164.484L181.656 178.76L180.68 178.604L182.968 164.328Z" fill="#FF4100"/>
</g>
<g filter="url(#filter6_i_370_17956)">
<path d="M215.677 124.846L223.165 127.019C225.283 127.634 226.502 129.849 225.887 131.967C225.272 134.085 223.057 135.304 220.94 134.689L198.247 128.103C194.557 127.032 190.698 129.155 189.627 132.845C188.556 136.535 190.679 140.395 194.369 141.466L217.062 148.052C219.179 148.667 220.398 150.882 219.783 153C219.169 155.118 216.954 156.337 214.836 155.722L192.143 149.136C188.454 148.065 184.594 150.188 183.523 153.878C182.453 157.568 184.576 161.428 188.266 162.499L210.958 169.085C213.076 169.7 214.294 171.915 213.68 174.033C213.065 176.151 210.85 177.37 208.732 176.755L186.04 170.169C182.349 169.097 178.489 171.227 177.419 174.915C176.35 178.599 178.467 182.46 182.154 183.53C184.267 184.143 185.483 186.353 184.87 188.467L180.84 202.352C180.612 203.138 181.065 203.96 181.85 204.188C182.637 204.417 183.459 203.964 183.687 203.178L187.716 189.293C188.786 185.607 186.665 181.753 182.98 180.683C180.868 180.07 179.651 177.856 180.265 175.741C180.88 173.622 183.097 172.401 185.214 173.015L207.906 179.602C211.596 180.672 215.455 178.549 216.526 174.859C217.597 171.169 215.474 167.309 211.784 166.239L189.092 159.652C186.974 159.038 185.755 156.822 186.37 154.705C186.984 152.587 189.2 151.368 191.317 151.983L214.01 158.569C217.7 159.64 221.559 157.516 222.63 153.826C223.701 150.136 221.577 146.277 217.888 145.206L195.195 138.62C193.077 138.005 191.859 135.789 192.474 133.671C193.088 131.554 195.303 130.335 197.421 130.949L220.114 137.536C223.803 138.607 227.663 136.483 228.733 132.793C229.804 129.103 227.681 125.244 223.991 124.173L216.503 121.999C213.294 121.068 211.067 118.389 210.556 115.299L216.563 117.042L212.477 100.425L200.129 112.273L207.49 114.409C207.688 119.152 210.867 123.45 215.677 124.846Z" fill="#FFF100"/>
</g>
<g filter="url(#filter7_i_370_17956)">
<path d="M213.028 98.5267L198.211 112.745L206.554 115.166C207.036 119.952 210.305 124.206 215.158 125.721L215.402 125.795L222.89 127.968C224.434 128.416 225.343 129.995 224.978 131.542L224.939 131.692C224.491 133.236 222.912 134.145 221.365 133.779L221.215 133.74L198.523 127.154C194.375 125.95 190.039 128.281 188.738 132.373L188.679 132.57C187.475 136.718 189.805 141.054 193.898 142.356L194.094 142.415L216.787 149.001C218.38 149.464 219.297 151.131 218.835 152.725C218.387 154.269 216.808 155.178 215.261 154.813L215.112 154.773L192.419 148.187C188.205 146.964 183.798 149.389 182.575 153.603C181.371 157.751 183.702 162.087 187.794 163.388L187.991 163.448L210.683 170.034C212.227 170.482 213.136 172.06 212.771 173.608L212.731 173.757C212.283 175.301 210.705 176.21 209.158 175.845L209.008 175.806L186.316 169.22C182.165 168.015 177.83 170.353 176.53 174.444L176.47 174.64C175.249 178.847 177.667 183.256 181.879 184.479C183.418 184.926 184.325 186.499 183.961 188.042L183.921 188.191L179.892 202.077C179.524 203.346 180.22 204.671 181.454 205.098L181.576 205.137C182.886 205.517 184.256 204.764 184.636 203.453L183.687 203.178C183.459 203.964 182.637 204.416 181.851 204.188C181.065 203.96 180.613 203.138 180.841 202.352L184.87 188.467C185.483 186.353 184.267 184.143 182.154 183.53C178.468 182.46 176.35 178.599 177.419 174.915C178.489 171.227 182.349 169.097 186.04 170.169L208.733 176.755C210.85 177.369 213.066 176.151 213.68 174.033C214.295 171.915 213.076 169.7 210.958 169.085L188.266 162.499C184.576 161.428 182.453 157.568 183.524 153.878C184.595 150.188 188.454 148.065 192.144 149.136L214.836 155.722C216.954 156.337 219.169 155.118 219.784 153C220.398 150.882 219.18 148.667 217.062 148.052L194.369 141.466C190.68 140.395 188.557 136.535 189.628 132.845C190.698 129.155 194.558 127.032 198.247 128.103L220.94 134.689C223.058 135.304 225.273 134.085 225.887 131.967C226.502 129.849 225.283 127.634 223.166 127.019L215.677 124.846C210.867 123.45 207.688 119.152 207.49 114.409L200.13 112.273L212.477 100.424L216.563 117.042L210.556 115.299C211.068 118.389 213.295 121.068 216.503 121.999L223.992 124.173C227.682 125.243 229.805 129.103 228.734 132.793C227.663 136.483 223.804 138.606 220.114 137.535L197.421 130.949C195.304 130.335 193.089 131.553 192.474 133.671L193.423 133.947C193.871 132.402 195.45 131.493 196.997 131.859L197.146 131.898L219.839 138.484C224.052 139.707 228.46 137.283 229.683 133.068L229.737 132.871C230.812 128.783 228.491 124.564 224.463 123.283L224.267 123.224L216.779 121.05C214.523 120.396 212.818 118.762 211.989 116.744L217.931 118.468L213.028 98.5267ZM182.98 180.683C186.666 181.753 188.786 185.607 187.717 189.293L188.665 189.568C189.868 185.424 187.54 181.093 183.452 179.794L183.256 179.734C181.669 179.274 180.752 177.608 181.214 176.017L180.265 175.741C179.652 177.856 180.868 180.07 182.98 180.683ZM189.092 159.652L211.784 166.238C215.474 167.309 217.597 171.169 216.527 174.859C215.456 178.549 211.596 180.672 207.907 179.601L185.214 173.015C183.098 172.401 180.881 173.622 180.265 175.741L181.214 176.017C181.663 174.47 183.244 173.56 184.789 173.925L184.939 173.964L207.631 180.55C211.845 181.773 216.252 179.349 217.475 175.134L217.53 174.937C218.605 170.849 216.284 166.629 212.256 165.349L212.06 165.29L189.367 158.703C187.774 158.241 186.857 156.574 187.319 154.98L186.37 154.704C185.756 156.822 186.974 159.038 189.092 159.652ZM195.196 138.619L217.888 145.206C221.578 146.277 223.701 150.136 222.63 153.826C221.559 157.516 217.7 159.64 214.01 158.569L191.318 151.982C189.2 151.368 186.985 152.586 186.37 154.704L187.319 154.98C187.767 153.436 189.345 152.527 190.893 152.892L191.042 152.931L213.735 159.518C217.949 160.741 222.356 158.316 223.579 154.102C224.783 149.953 222.452 145.617 218.36 144.316L218.163 144.257L195.471 137.671C193.877 137.208 192.96 135.541 193.423 133.947L192.474 133.671C191.859 135.789 193.078 138.005 195.196 138.619ZM188.665 189.568L187.717 189.293L183.687 203.178L184.636 203.453L188.665 189.568Z" fill="#FF4100"/>
</g>
<path d="M58.2883 176.362L53.3485 179.215V176.856H26.6738V175.868H53.3485V173.51L58.2883 176.362Z" fill="#FF4100"/>
<path d="M301.325 176.362L296.386 179.215V176.856H269.711V175.868H296.386V173.51L301.325 176.362Z" fill="#FF4100"/>
<defs>
<filter id="filter0_i_370_17956" x="126.311" y="76.1323" width="40.7852" height="111.678" filterUnits="userSpaceOnUse" color-interpolation-filters="sRGB">
<feFlood flood-opacity="0" result="BackgroundImageFix"/>
<feBlend mode="normal" in="SourceGraphic" in2="BackgroundImageFix" result="shape"/>
<feColorMatrix in="SourceAlpha" type="matrix" values="0 0 0 0 0 0 0 0 0 0 0 0 0 0 0 0 0 0 127 0" result="hardAlpha"/>
<feOffset dy="4"/>
<feGaussianBlur stdDeviation="2"/>
<feComposite in2="hardAlpha" operator="arithmetic" k2="-1" k3="1"/>
<feColorMatrix type="matrix" values="0 0 0 0 0 0 0 0 0 0 0 0 0 0 0 0 0 0 0.25 0"/>
<feBlend mode="normal" in2="shape" result="effect1_innerShadow_370_17956"/>
</filter>
<filter id="filter1_i_370_17956" x="125.322" y="74.1665" width="42.7617" height="114.631" filterUnits="userSpaceOnUse" color-interpolation-filters="sRGB">
<feFlood flood-opacity="0" result="BackgroundImageFix"/>
<feBlend mode="normal" in="SourceGraphic" in2="BackgroundImageFix" result="shape"/>
<feColorMatrix in="SourceAlpha" type="matrix" values="0 0 0 0 0 0 0 0 0 0 0 0 0 0 0 0 0 0 127 0" result="hardAlpha"/>
<feOffset dy="4"/>
<feGaussianBlur stdDeviation="2"/>
<feComposite in2="hardAlpha" operator="arithmetic" k2="-1" k3="1"/>
<feColorMatrix type="matrix" values="0 0 0 0 0 0 0 0 0 0 0 0 0 0 0 0 0 0 0.25 0"/>
<feBlend mode="normal" in2="shape" result="effect1_innerShadow_370_17956"/>
</filter>
<filter id="filter2_i_370_17956" x="96.6621" y="102.146" width="47.6738" height="110.084" filterUnits="userSpaceOnUse" color-interpolation-filters="sRGB">
<feFlood flood-opacity="0" result="BackgroundImageFix"/>
<feBlend mode="normal" in="SourceGraphic" in2="BackgroundImageFix" result="shape"/>
<feColorMatrix in="SourceAlpha" type="matrix" values="0 0 0 0 0 0 0 0 0 0 0 0 0 0 0 0 0 0 127 0" result="hardAlpha"/>
<feOffset dy="4"/>
<feGaussianBlur stdDeviation="2"/>
<feComposite in2="hardAlpha" operator="arithmetic" k2="-1" k3="1"/>
<feColorMatrix type="matrix" values="0 0 0 0 0 0 0 0 0 0 0 0 0 0 0 0 0 0 0.25 0"/>
<feBlend mode="normal" in2="shape" result="effect1_innerShadow_370_17956"/>
</filter>
<filter id="filter3_i_370_17956" x="95.6738" y="100.208" width="49.6504" height="113.012" filterUnits="userSpaceOnUse" color-interpolation-filters="sRGB">
<feFlood flood-opacity="0" result="BackgroundImageFix"/>
<feBlend mode="normal" in="SourceGraphic" in2="BackgroundImageFix" result="shape"/>
<feColorMatrix in="SourceAlpha" type="matrix" values="0 0 0 0 0 0 0 0 0 0 0 0 0 0 0 0 0 0 127 0" result="hardAlpha"/>
<feOffset dy="4"/>
<feGaussianBlur stdDeviation="2"/>
<feComposite in2="hardAlpha" operator="arithmetic" k2="-1" k3="1"/>
<feColorMatrix type="matrix" values="0 0 0 0 0 0 0 0 0 0 0 0 0 0 0 0 0 0 0.25 0"/>
<feBlend mode="normal" in2="shape" result="effect1_innerShadow_370_17956"/>
</filter>
<filter id="filter4_i_370_17956" x="163.969" y="73.5537" width="42.4453" height="110.923" filterUnits="userSpaceOnUse" color-interpolation-filters="sRGB">
<feFlood flood-opacity="0" result="BackgroundImageFix"/>
<feBlend mode="normal" in="SourceGraphic" in2="BackgroundImageFix" result="shape"/>
<feColorMatrix in="SourceAlpha" type="matrix" values="0 0 0 0 0 0 0 0 0 0 0 0 0 0 0 0 0 0 127 0" result="hardAlpha"/>
<feOffset dy="4"/>
<feGaussianBlur stdDeviation="2"/>
<feComposite in2="hardAlpha" operator="arithmetic" k2="-1" k3="1"/>
<feColorMatrix type="matrix" values="0 0 0 0 0 0 0 0 0 0 0 0 0 0 0 0 0 0 0.25 0"/>
<feBlend mode="normal" in2="shape" result="effect1_innerShadow_370_17956"/>
</filter>
<filter id="filter5_i_370_17956" x="162.982" y="71.6025" width="44.4199" height="113.862" filterUnits="userSpaceOnUse" color-interpolation-filters="sRGB">
<feFlood flood-opacity="0" result="BackgroundImageFix"/>
<feBlend mode="normal" in="SourceGraphic" in2="BackgroundImageFix" result="shape"/>
<feColorMatrix in="SourceAlpha" type="matrix" values="0 0 0 0 0 0 0 0 0 0 0 0 0 0 0 0 0 0 127 0" result="hardAlpha"/>
<feOffset dy="4"/>
<feGaussianBlur stdDeviation="2"/>
<feComposite in2="hardAlpha" operator="arithmetic" k2="-1" k3="1"/>
<feColorMatrix type="matrix" values="0 0 0 0 0 0 0 0 0 0 0 0 0 0 0 0 0 0 0.25 0"/>
<feBlend mode="normal" in2="shape" result="effect1_innerShadow_370_17956"/>
</filter>
<filter id="filter6_i_370_17956" x="177.141" y="100.425" width="51.8711" height="107.823" filterUnits="userSpaceOnUse" color-interpolation-filters="sRGB">
<feFlood flood-opacity="0" result="BackgroundImageFix"/>
<feBlend mode="normal" in="SourceGraphic" in2="BackgroundImageFix" result="shape"/>
<feColorMatrix in="SourceAlpha" type="matrix" values="0 0 0 0 0 0 0 0 0 0 0 0 0 0 0 0 0 0 127 0" result="hardAlpha"/>
<feOffset dy="4"/>
<feGaussianBlur stdDeviation="2"/>
<feComposite in2="hardAlpha" operator="arithmetic" k2="-1" k3="1"/>
<feColorMatrix type="matrix" values="0 0 0 0 0 0 0 0 0 0 0 0 0 0 0 0 0 0 0.25 0"/>
<feBlend mode="normal" in2="shape" result="effect1_innerShadow_370_17956"/>
</filter>
<filter id="filter7_i_370_17956" x="176.154" y="98.5269" width="53.8457" height="110.709" filterUnits="userSpaceOnUse" color-interpolation-filters="sRGB">
<feFlood flood-opacity="0" result="BackgroundImageFix"/>
<feBlend mode="normal" in="SourceGraphic" in2="BackgroundImageFix" result="shape"/>
<feColorMatrix in="SourceAlpha" type="matrix" values="0 0 0 0 0 0 0 0 0 0 0 0 0 0 0 0 0 0 127 0" result="hardAlpha"/>
<feOffset dy="4"/>
<feGaussianBlur stdDeviation="2"/>
<feComposite in2="hardAlpha" operator="arithmetic" k2="-1" k3="1"/>
<feColorMatrix type="matrix" values="0 0 0 0 0 0 0 0 0 0 0 0 0 0 0 0 0 0 0.25 0"/>
<feBlend mode="normal" in2="shape" result="effect1_innerShadow_370_17956"/>
</filter>
<linearGradient id="paint0_linear_370_17956" x1="89.235" y1="157.47" x2="73.7403" y2="191.825" gradientUnits="userSpaceOnUse">
<stop stop-color="#EEEEEE"/>
<stop offset="0.334842" stop-color="#E3E3E3"/>
<stop offset="0.751797" stop-color="#737B7F"/>
<stop offset="1" stop-color="#EEEEEE"/>
</linearGradient>
<linearGradient id="paint1_linear_370_17956" x1="83.9765" y1="196.123" x2="83.9765" y2="156.602" gradientUnits="userSpaceOnUse">
<stop stop-color="#FF4100"/>
<stop offset="0.115462" stop-color="#FF6835"/>
<stop offset="0.212121" stop-color="#FF6835"/>
<stop offset="0.541622" stop-color="white"/>
<stop offset="0.890909" stop-color="white"/>
<stop offset="1" stop-color="#FF6835"/>
</linearGradient>
<linearGradient id="paint2_linear_370_17956" x1="168.939" y1="250.958" x2="168.939" y2="47.4253" gradientUnits="userSpaceOnUse">
<stop stop-color="#F79C1E"/>
<stop offset="1" stop-color="#FF4100"/>
</linearGradient>
<linearGradient id="paint3_linear_370_17956" x1="257.855" y1="149.192" x2="238.205" y2="149.192" gradientUnits="userSpaceOnUse">
<stop stop-color="#343030"/>
<stop offset="0.115462" stop-color="#80868D"/>
<stop offset="0.212121" stop-color="#80868D"/>
<stop offset="0.541622" stop-color="white"/>
<stop offset="0.890909" stop-color="white"/>
<stop offset="1" stop-color="#B2B2B2"/>
</linearGradient>
<linearGradient id="paint4_linear_370_17956" x1="239.433" y1="57.0585" x2="225.372" y2="68.097" gradientUnits="userSpaceOnUse">
<stop stop-color="#343030"/>
<stop offset="0.115462" stop-color="#80868D"/>
<stop offset="0.212121" stop-color="#80868D"/>
<stop offset="0.541622" stop-color="white"/>
<stop offset="0.890909" stop-color="white"/>
<stop offset="1" stop-color="#B2B2B2"/>
</linearGradient>
<linearGradient id="paint5_linear_370_17956" x1="168.939" y1="47.4253" x2="168.939" y2="53.8474" gradientUnits="userSpaceOnUse">
<stop stop-color="#343030"/>
<stop offset="0.115462" stop-color="#80868D"/>
<stop offset="0.212121" stop-color="#80868D"/>
<stop offset="0.541622" stop-color="white"/>
<stop offset="0.890909" stop-color="white"/>
<stop offset="1" stop-color="#B2B2B2"/>
</linearGradient>
<linearGradient id="paint6_linear_370_17956" x1="162.766" y1="47.4253" x2="162.766" y2="53.3534" gradientUnits="userSpaceOnUse">
<stop stop-color="#FF4100"/>
<stop offset="1" stop-color="#F79B1E"/>
</linearGradient>
<linearGradient id="paint7_linear_370_17956" x1="244.765" y1="61.0106" x2="226.981" y2="71.3837" gradientUnits="userSpaceOnUse">
<stop stop-color="#FF4100"/>
<stop offset="1" stop-color="#F79B1E"/>
</linearGradient>
<linearGradient id="paint8_linear_370_17956" x1="215.374" y1="232.926" x2="211.669" y2="226.752" gradientUnits="userSpaceOnUse">
<stop stop-color="#FF4100"/>
<stop offset="1" stop-color="#F79B1E"/>
</linearGradient>
<linearGradient id="paint9_linear_370_17956" x1="170.916" y1="266.766" x2="148.193" y2="266.766" gradientUnits="userSpaceOnUse">
<stop stop-color="#FF4100"/>
<stop offset="0.115462" stop-color="#FF6835"/>
<stop offset="0.212121" stop-color="#FF6835"/>
<stop offset="0.541622" stop-color="white"/>
<stop offset="0.890909" stop-color="white"/>
<stop offset="1" stop-color="#FF6835"/>
</linearGradient>
<radialGradient id="paint10_radial_370_17956" cx="0" cy="0" r="1" gradientUnits="userSpaceOnUse" gradientTransform="translate(173.879 176.362) scale(48.1627 48.1662)">
<stop stop-color="#FFF100"/>
<stop offset="1" stop-color="#FFF100" stop-opacity="0"/>
</radialGradient>
<linearGradient id="paint11_linear_370_17956" x1="257.855" y1="145.24" x2="238.096" y2="145.24" gradientUnits="userSpaceOnUse">
<stop stop-color="#FF4100"/>
<stop offset="1" stop-color="#F79B1E"/>
</linearGradient>
<linearGradient id="paint12_linear_370_17956" x1="265.09" y1="157.47" x2="249.596" y2="191.825" gradientUnits="userSpaceOnUse">
<stop stop-color="#EEEEEE"/>
<stop offset="0.334842" stop-color="#E3E3E3"/>
<stop offset="0.751797" stop-color="#737B7F"/>
<stop offset="1" stop-color="#EEEEEE"/>
</linearGradient>
<linearGradient id="paint13_linear_370_17956" x1="259.832" y1="196.123" x2="259.832" y2="156.602" gradientUnits="userSpaceOnUse">
<stop stop-color="#FF4100"/>
<stop offset="0.115462" stop-color="#FF6835"/>
<stop offset="0.212121" stop-color="#FF6835"/>
<stop offset="0.541622" stop-color="white"/>
<stop offset="0.890909" stop-color="white"/>
<stop offset="1" stop-color="#FF6835"/>
</linearGradient>
</defs>
</svg>
