<svg width="664" height="668" viewBox="0 0 664 668" fill="none" xmlns="http://www.w3.org/2000/svg">
<rect width="664" height="668" fill="#FAFAFA"/>
<path d="M206 357C206 379.091 198.402 397 189.03 397C179.658 397 172.061 379.091 172.061 357C172.061 334.909 179.658 317 189.03 317C198.402 317 206 334.909 206 357Z" fill="url(#paint0_linear_369_11363)"/>
<path d="M134 357C134 379.091 141.598 397 150.97 397H189.03C179.658 397 172.061 379.091 172.061 357C172.061 334.909 179.658 317 189.03 317H150.97C141.598 317 134 334.909 134 357Z" fill="url(#paint1_linear_369_11363)"/>
<path d="M171.561 357C171.561 345.904 173.467 335.834 176.57 328.521C178.121 324.864 179.982 321.873 182.072 319.789C183.037 318.827 184.059 318.055 185.125 317.5H150.97C148.798 317.5 146.686 318.535 144.718 320.497C142.748 322.461 140.951 325.329 139.431 328.911C136.392 336.074 134.5 346.005 134.5 357C134.5 367.995 136.392 377.926 139.431 385.089C140.951 388.671 142.748 391.539 144.718 393.503C146.686 395.465 148.798 396.5 150.97 396.5H185.125C184.059 395.945 183.037 395.173 182.072 394.211C179.982 392.127 178.121 389.136 176.57 385.479C173.467 378.166 171.561 368.096 171.561 357ZM172.561 357C172.561 367.995 174.452 377.926 177.491 385.089C179.011 388.671 180.808 391.539 182.778 393.503C184.746 395.465 186.858 396.5 189.03 396.5C191.202 396.5 193.314 395.465 195.282 393.503C197.252 391.539 199.049 388.671 200.569 385.089C203.608 377.926 205.5 367.995 205.5 357C205.5 346.005 203.608 336.074 200.569 328.911C199.049 325.329 197.252 322.461 195.282 320.497C193.314 318.535 191.202 317.5 189.03 317.5C186.858 317.5 184.746 318.535 182.778 320.497C180.808 322.461 179.011 325.329 177.491 328.911C174.452 336.074 172.561 346.005 172.561 357ZM206.5 357C206.5 368.096 204.593 378.166 201.49 385.479C199.939 389.136 198.079 392.127 195.988 394.211C194.027 396.167 191.837 397.346 189.5 397.486L189.03 397.5H150.97C148.456 397.5 146.104 396.297 144.012 394.211C141.921 392.127 140.061 389.136 138.51 385.479C135.407 378.166 133.5 368.096 133.5 357C133.5 345.904 135.407 335.834 138.51 328.521C140.061 324.864 141.921 321.873 144.012 319.789C146.104 317.703 148.456 316.5 150.97 316.5H189.03C191.544 316.5 193.896 317.703 195.988 319.789C198.079 321.873 199.939 324.864 201.49 328.521C204.593 335.834 206.5 345.904 206.5 357Z" fill="black"/>
<path fill-rule="evenodd" clip-rule="evenodd" d="M162 428L300 508H346L482 428V172L430.48 108H213.52L162 172V428Z" fill="url(#paint2_linear_369_11363)"/>
<path d="M482 172V428L522 416V160L482 172Z" fill="url(#paint3_linear_369_11363)"/>
<path d="M430.48 108L482 172L522 160L470.5 96L430.48 108Z" fill="url(#paint4_linear_369_11363)"/>
<path d="M470.5 96H253.5L213.52 108H430.48L470.5 96Z" fill="url(#paint5_linear_369_11363)"/>
<path d="M162.5 172.176V427.711L300.135 507.5H345.864L481.5 427.714V172.176L430.241 108.5H213.759L162.5 172.176ZM482.202 428.46L350.12 506.155L383.299 495.538L518.042 417.708L482.202 428.46ZM482.5 172.371V427.328L521.5 415.628V160.671L482.5 172.371ZM431.335 108.265L482.179 171.424L521.145 159.734L470.32 96.5752L431.335 108.265ZM216.924 107.5H430.407L467.093 96.5H253.572L216.924 107.5ZM522.5 416.289L522.25 416.433L383.75 496.433L383.703 496.46L383.652 496.477L346.152 508.477L346.078 508.5H299.865L161.5 428.288V171.824L161.61 171.687L213.131 107.687L213.228 107.565L213.376 107.521L253.356 95.5215L253.427 95.5H470.739L522.39 159.687L522.5 159.824V416.289Z" fill="black"/>
<path d="M470.5 96H253.5L213.52 108H430.48L470.5 96Z" fill="url(#paint6_linear_369_11363)"/>
<path d="M470.501 95.5L470.645 96.4785L430.624 108.479L430.554 108.5H213.521L213.377 107.521L253.356 95.5215L253.427 95.5H470.501ZM216.924 107.5H430.408L467.093 96.5H253.573L216.924 107.5Z" fill="black"/>
<path d="M430.48 108L482 172L522 160L470.5 96L430.48 108Z" fill="url(#paint7_linear_369_11363)"/>
<path d="M522.855 160.266L481.822 172.575L429.625 107.734L470.679 95.4248L522.855 160.266ZM431.335 108.265L482.179 171.424L521.146 159.734L470.321 96.5752L431.335 108.265Z" fill="black"/>
<path d="M346 508L482 428L522 416L383.5 496L346 508Z" fill="url(#paint8_linear_369_11363)"/>
<path d="M522.25 416.433L383.75 496.433L383.703 496.46L383.652 496.477L346.152 508.477L345.746 507.569L481.746 427.569L481.799 427.538L481.856 427.521L521.856 415.521L522.25 416.433ZM482.202 428.46L350.12 506.155L383.299 495.538L518.042 417.708L482.202 428.46Z" fill="black"/>
<path d="M346 508H300V559.84V559.845C300 560.329 300.054 560.806 300.158 561.275C301.501 567.314 311.216 572 323 572C334.784 572 344.499 567.314 345.842 561.275C345.946 560.804 346 560.326 346 559.84V508Z" fill="url(#paint9_linear_369_11363)"/>
<path d="M345.5 559.84V508.5H300.5V559.845L300.51 560.179C300.528 560.511 300.574 560.841 300.646 561.166L300.711 561.428C301.433 564.126 303.991 566.61 307.878 568.45C311.87 570.34 317.169 571.5 323 571.5C328.831 571.5 334.13 570.34 338.122 568.45C342.134 566.551 344.731 563.965 345.354 561.166L345.417 560.839C345.472 560.509 345.5 560.176 345.5 559.84ZM346.5 559.84C346.5 560.232 346.467 560.62 346.403 561.003L346.33 561.384C345.609 564.625 342.677 567.401 338.55 569.354C334.403 571.317 328.953 572.5 323 572.5C317.047 572.5 311.597 571.317 307.45 569.354C303.452 567.462 300.575 564.797 299.744 561.686L299.67 561.384C299.558 560.88 299.5 560.366 299.5 559.846V507.5H346.5V559.84Z" fill="black"/>
<g filter="url(#filter0_i_369_11363)">
<path d="M298.569 197.49L314.271 195.873C318.712 195.415 322.682 198.644 323.14 203.085C323.597 207.525 320.368 211.496 315.928 211.953L268.345 216.855C260.609 217.652 254.983 224.57 255.78 232.307C256.577 240.044 263.495 245.671 271.232 244.874L318.814 239.972C323.254 239.515 327.225 242.744 327.683 247.184C328.14 251.625 324.911 255.596 320.47 256.053L272.888 260.955C265.151 261.752 259.525 268.67 260.322 276.407C261.119 284.144 268.037 289.769 275.774 288.972L323.356 284.071C327.797 283.614 331.768 286.843 332.225 291.283C332.683 295.724 329.454 299.694 325.013 300.152L277.431 305.053C269.691 305.851 264.069 312.78 264.866 320.514C265.662 328.239 272.57 333.87 280.301 333.074C284.732 332.618 288.694 335.839 289.15 340.27L292.149 369.383C292.319 371.031 293.793 372.229 295.441 372.06C297.089 371.89 298.287 370.416 298.117 368.768L295.118 339.655C294.322 331.928 287.413 326.31 279.686 327.105C275.258 327.562 271.291 324.334 270.834 319.899C270.377 315.456 273.608 311.479 278.046 311.022L325.628 306.12C333.365 305.323 338.991 298.405 338.194 290.668C337.397 282.931 330.479 277.306 322.742 278.102L275.159 283.004C270.719 283.461 266.748 280.232 266.291 275.792C265.833 271.351 269.062 267.381 273.503 266.923L321.085 262.022C328.822 261.224 334.448 254.306 333.651 246.57C332.854 238.833 325.936 233.207 318.199 234.004L270.617 238.905C266.176 239.363 262.205 236.133 261.748 231.692C261.291 227.252 264.52 223.281 268.96 222.823L316.542 217.922C324.279 217.125 329.905 210.207 329.108 202.47C328.311 194.733 321.393 189.107 313.656 189.904L297.954 191.522C291.226 192.215 285.011 188.883 281.702 183.475L294.298 182.177L273.994 154.11L259.839 185.727L275.272 184.137C279.25 192.884 288.483 198.529 298.569 197.49Z" fill="#FFF100"/>
</g>
<g filter="url(#filter1_i_369_11363)">
<path d="M273.585 150.131L256.6 188.071L274.094 186.269C278.636 194.882 288.005 200.375 298.261 199.528L298.775 199.48L314.477 197.862C317.714 197.529 320.62 199.799 321.111 202.98L321.151 203.29C321.485 206.527 319.215 209.433 316.034 209.924L315.723 209.964L268.141 214.866C259.444 215.762 253.082 223.432 253.753 232.099L253.791 232.512C254.687 241.21 262.357 247.573 271.024 246.901L271.437 246.863L319.02 241.962C322.362 241.618 325.35 244.048 325.694 247.389C326.027 250.627 323.757 253.532 320.577 254.024L320.266 254.064L272.684 258.965C263.848 259.876 257.424 267.776 258.334 276.612C259.23 285.309 266.899 291.671 275.567 291L275.98 290.962L323.562 286.06C326.8 285.727 329.705 287.997 330.197 291.177L330.237 291.488C330.57 294.725 328.3 297.631 325.12 298.123L324.809 298.162L277.227 303.064C268.524 303.961 262.169 311.643 262.84 320.306L262.877 320.719C263.786 329.54 271.675 335.973 280.506 335.063C283.735 334.731 286.631 336.994 287.122 340.165L287.161 340.475L290.16 369.588C290.435 372.249 292.748 374.206 295.389 374.069L295.646 374.049C298.393 373.766 300.391 371.31 300.108 368.563L298.118 368.768C298.288 370.416 297.09 371.89 295.442 372.06C293.793 372.229 292.32 371.031 292.15 369.383L289.151 340.27C288.694 335.839 284.733 332.618 280.302 333.074C272.571 333.87 265.663 328.239 264.867 320.514C264.07 312.78 269.692 305.851 277.432 305.054L325.014 300.152C329.455 299.694 332.684 295.724 332.226 291.283C331.769 286.843 327.798 283.614 323.357 284.071L275.775 288.973C268.038 289.77 261.12 284.144 260.323 276.407C259.526 268.67 265.152 261.752 272.889 260.955L320.471 256.053C324.912 255.596 328.141 251.625 327.683 247.185C327.226 242.744 323.255 239.515 318.815 239.972L271.232 244.874C263.496 245.671 256.577 240.044 255.78 232.307C254.984 224.57 260.609 217.652 268.346 216.855L315.928 211.954C320.369 211.496 323.598 207.526 323.141 203.085C322.683 198.644 318.712 195.415 314.272 195.873L298.57 197.49C288.484 198.529 279.251 192.884 275.273 184.137L259.84 185.727L273.995 154.11L294.299 182.177L281.703 183.475C285.012 188.884 291.227 192.215 297.955 191.522L313.657 189.904C321.394 189.107 328.312 194.733 329.109 202.47C329.906 210.207 324.28 217.125 316.543 217.922L268.961 222.824C264.521 223.281 261.292 227.252 261.749 231.692L263.738 231.487C263.405 228.25 265.675 225.344 268.856 224.853L269.166 224.813L316.748 219.912C325.584 219.001 332.009 211.101 331.098 202.265L331.051 201.853C329.959 193.367 322.395 187.216 313.865 187.877L313.452 187.915L297.75 189.532C293.021 190.019 288.579 188.251 285.49 185.095L297.949 183.812L273.585 150.131ZM279.687 327.106C287.414 326.31 294.323 331.928 295.119 339.656L297.109 339.451C296.214 330.763 288.553 324.408 279.895 325.078L279.482 325.116C276.154 325.459 273.169 323.032 272.825 319.694L270.835 319.899C271.292 324.334 275.258 327.562 279.687 327.106ZM275.16 283.004L322.743 278.103C330.479 277.306 337.397 282.932 338.195 290.668C338.992 298.405 333.366 305.323 325.629 306.12L278.047 311.022C273.609 311.479 270.378 315.456 270.835 319.899L272.825 319.694C272.491 316.452 274.765 313.542 277.941 313.051L278.252 313.011L325.834 308.11C334.669 307.2 341.094 299.299 340.184 290.463L340.137 290.051C339.045 281.566 331.481 275.415 322.951 276.075L322.538 276.113L274.955 281.015C271.614 281.359 268.625 278.929 268.281 275.587L266.292 275.792C266.749 280.233 270.72 283.462 275.16 283.004ZM270.618 238.905L318.2 234.004C325.937 233.207 332.855 238.833 333.652 246.57C334.449 254.307 328.823 261.225 321.086 262.022L273.504 266.923C269.063 267.381 265.834 271.351 266.292 275.792L268.281 275.587C267.948 272.35 270.217 269.444 273.398 268.953L273.709 268.913L321.291 264.011C330.127 263.101 336.551 255.2 335.641 246.365C334.745 237.667 327.076 231.305 318.408 231.977L317.995 232.014L270.413 236.916C267.071 237.26 264.083 234.83 263.738 231.487L261.749 231.692C262.206 236.133 266.177 239.363 270.618 238.905ZM297.109 339.451L295.119 339.656L298.118 368.768L300.108 368.563L297.109 339.451Z" fill="#FF4100"/>
</g>
<path d="M186 357C186 379.091 193.598 397 202.97 397H501.03C491.658 397 484.061 379.091 484.061 357C484.061 334.909 491.658 317 501.03 317L202.97 317C193.598 317 186 334.909 186 357Z" fill="#F98818"/>
<path d="M186 357C186 379.091 193.598 397 202.97 397H501.03C491.658 397 484.061 379.091 484.061 357C484.061 334.909 491.658 317 501.03 317L202.97 317C193.598 317 186 334.909 186 357Z" fill="url(#paint10_radial_369_11363)"/>
<path d="M483.061 357C483.061 345.853 484.975 335.715 488.11 328.325C489.677 324.633 491.568 321.58 493.719 319.436C494.254 318.902 494.81 318.421 495.383 318H202.97C200.969 318 198.976 318.952 197.07 320.852C195.161 322.755 193.395 325.561 191.891 329.106C188.884 336.194 187 346.055 187 357C187 367.945 188.884 377.806 191.891 384.894C193.395 388.439 195.161 391.245 197.07 393.148C198.976 395.048 200.969 396 202.97 396H495.383C494.81 395.579 494.254 395.098 493.719 394.564C491.568 392.42 489.677 389.367 488.11 385.675C484.975 378.285 483.061 368.147 483.061 357ZM485.061 357C485.061 367.945 486.944 377.806 489.951 384.894C491.455 388.439 493.221 391.245 495.131 393.148C497.036 395.048 499.029 396 501.03 396V398H202.97C200.285 398 197.813 396.713 195.658 394.564C193.507 392.42 191.616 389.367 190.05 385.675C186.915 378.285 185 368.147 185 357C185 345.853 186.915 335.715 190.05 328.325C191.616 324.633 193.507 321.58 195.658 319.436C197.813 317.287 200.285 316 202.97 316H501.03V318C499.029 318 497.036 318.952 495.131 320.852C493.221 322.755 491.455 325.561 489.951 329.106C486.944 336.194 485.061 346.055 485.061 357Z" fill="#FFF100"/>
<path d="M482 172V428L522 416V160L482 172Z" fill="url(#paint11_linear_369_11363)"/>
<path d="M522.5 416.372L522.144 416.479L481.5 428.672V171.628L481.856 171.521L522.5 159.328V416.372ZM482.5 172.371V427.328L521.5 415.628V160.671L482.5 172.371Z" fill="black"/>
<path d="M562 357C562 379.091 554.402 397 545.03 397C535.658 397 528.061 379.091 528.061 357C528.061 334.909 535.658 317 545.03 317C554.402 317 562 334.909 562 357Z" fill="url(#paint12_linear_369_11363)"/>
<path d="M490 357C490 379.091 497.598 397 506.97 397H545.03C535.658 397 528.061 379.091 528.061 357C528.061 334.909 535.658 317 545.03 317H506.97C497.598 317 490 334.909 490 357Z" fill="url(#paint13_linear_369_11363)"/>
<path d="M527.561 357C527.561 345.904 529.467 335.834 532.57 328.521C534.121 324.864 535.982 321.873 538.072 319.789C539.037 318.827 540.059 318.055 541.125 317.5H506.97C504.798 317.5 502.686 318.535 500.718 320.497C498.748 322.461 496.951 325.329 495.431 328.911C492.392 336.074 490.5 346.005 490.5 357C490.5 367.995 492.392 377.926 495.431 385.089C496.951 388.671 498.748 391.539 500.718 393.503C502.686 395.465 504.798 396.5 506.97 396.5H541.125C540.059 395.945 539.037 395.173 538.072 394.211C535.982 392.127 534.121 389.136 532.57 385.479C529.467 378.166 527.561 368.096 527.561 357ZM528.561 357C528.561 367.995 530.452 377.926 533.491 385.089C535.011 388.671 536.808 391.539 538.778 393.503C540.746 395.465 542.858 396.5 545.03 396.5C547.202 396.5 549.314 395.465 551.282 393.503C553.252 391.539 555.049 388.671 556.569 385.089C559.608 377.926 561.5 367.995 561.5 357C561.5 346.005 559.608 336.074 556.569 328.911C555.049 325.329 553.252 322.461 551.282 320.497C549.314 318.535 547.202 317.5 545.03 317.5C542.858 317.5 540.746 318.535 538.778 320.497C536.808 322.461 535.011 325.329 533.491 328.911C530.452 336.074 528.561 346.005 528.561 357ZM562.5 357C562.5 368.096 560.593 378.166 557.49 385.479C555.939 389.136 554.079 392.127 551.988 394.211C550.027 396.167 547.837 397.346 545.5 397.486L545.03 397.5H506.97C504.456 397.5 502.104 396.297 500.012 394.211C497.921 392.127 496.061 389.136 494.51 385.479C491.407 378.166 489.5 368.096 489.5 357C489.5 345.904 491.407 335.834 494.51 328.521C496.061 324.864 497.921 321.873 500.012 319.789C502.104 317.703 504.456 316.5 506.97 316.5H545.03C547.544 316.5 549.896 317.703 551.988 319.789C554.079 321.873 555.939 324.864 557.49 328.521C560.593 335.834 562.5 345.904 562.5 357Z" fill="black"/>
<g filter="url(#filter2_i_369_11363)">
<path d="M223.694 255.442L208.206 258.491C203.826 259.353 200.974 263.603 201.836 267.983C202.698 272.363 206.948 275.214 211.328 274.352L258.261 265.114C265.893 263.612 273.297 268.581 274.799 276.212C276.301 283.844 271.333 291.249 263.701 292.751L216.768 301.989C212.388 302.851 209.536 307.101 210.398 311.481C211.26 315.861 215.51 318.713 219.89 317.851L266.823 308.612C274.455 307.11 281.859 312.079 283.361 319.71C284.863 327.342 279.895 334.746 272.263 336.248L225.33 345.486C220.95 346.349 218.098 350.598 218.96 354.978C219.822 359.358 224.072 362.21 228.452 361.348L275.385 352.11C283.02 350.607 290.423 355.588 291.925 363.217C293.424 370.836 288.467 378.242 280.842 379.743C276.471 380.604 273.625 384.844 274.486 389.215L280.138 417.93C280.458 419.556 279.399 421.133 277.774 421.453C276.148 421.773 274.571 420.715 274.251 419.089L268.599 390.373C267.098 382.751 272.061 375.357 279.683 373.856C284.051 372.997 286.899 368.749 286.038 364.375C285.175 359.992 280.921 357.135 276.544 357.997L229.611 367.235C221.979 368.737 214.575 363.769 213.073 356.137C211.571 348.506 216.54 341.102 224.171 339.599L271.104 330.361C275.484 329.499 278.336 325.249 277.474 320.869C276.612 316.489 272.362 313.637 267.982 314.5L221.049 323.738C213.417 325.24 206.013 320.271 204.511 312.64C203.009 305.008 207.978 297.604 215.609 296.102L262.543 286.864C266.923 286.002 269.774 281.751 268.912 277.371C268.05 272.991 263.8 270.139 259.42 271.001L212.487 280.239C204.855 281.741 197.451 276.773 195.949 269.141C194.447 261.51 199.416 254.106 207.047 252.604L222.535 249.555C229.172 248.249 234.139 243.245 235.72 237.104L223.297 239.55L234.497 206.769L257.285 232.859L242.063 235.856C240.819 245.384 233.642 253.484 223.694 255.442Z" fill="#FFF100"/>
</g>
<g filter="url(#filter3_i_369_11363)">
<path d="M233.724 202.845L261.07 234.153L243.814 237.549C241.991 247.114 234.64 255.109 224.585 257.3L224.08 257.404L208.592 260.453C205.399 261.082 203.285 264.103 203.746 267.288L203.798 267.596C204.427 270.789 207.448 272.903 210.633 272.443L210.942 272.39L257.875 263.152C266.454 261.463 274.782 266.935 276.676 275.42L276.761 275.826C278.45 284.405 272.978 292.734 264.494 294.628L264.087 294.713L217.154 303.951C213.858 304.6 211.712 307.798 212.36 311.095C212.989 314.288 216.01 316.402 219.195 315.941L219.504 315.888L266.437 306.65C275.152 304.935 283.608 310.609 285.323 319.324C287.012 327.903 281.54 336.231 273.056 338.126L272.649 338.211L225.716 347.449C222.523 348.077 220.409 351.098 220.869 354.283L220.922 354.592C221.551 357.785 224.572 359.899 227.756 359.439L228.066 359.386L274.999 350.148C283.583 348.458 291.908 353.944 293.802 362.424L293.887 362.83C295.6 371.531 289.939 379.991 281.228 381.706C278.044 382.333 275.936 385.345 276.395 388.52L276.448 388.828L282.1 417.544C282.617 420.169 280.977 422.717 278.412 423.359L278.16 423.416C275.45 423.949 272.822 422.185 272.288 419.475L274.251 419.089C274.571 420.715 276.148 421.773 277.774 421.453C279.399 421.133 280.458 419.556 280.138 417.93L274.486 389.215C273.625 384.844 276.471 380.604 280.841 379.743C288.467 378.242 293.424 370.836 291.925 363.217C290.423 355.588 283.02 350.607 275.385 352.11L228.452 361.348C224.072 362.21 219.822 359.358 218.96 354.978C218.098 350.598 220.95 346.349 225.33 345.486L272.263 336.248C279.894 334.746 284.863 327.342 283.361 319.711C281.859 312.079 274.455 307.11 266.823 308.613L219.89 317.851C215.51 318.713 211.26 315.861 210.398 311.481C209.536 307.101 212.388 302.851 216.768 301.989L263.701 292.751C271.333 291.249 276.301 283.844 274.799 276.212C273.297 268.581 265.893 263.612 258.261 265.114L211.328 274.352C206.948 275.214 202.698 272.363 201.836 267.983C200.974 263.603 203.826 259.353 208.206 258.491L223.694 255.442C233.642 253.484 240.819 245.384 242.062 235.856L257.285 232.86L234.497 206.769L223.297 239.55L235.72 237.104C234.139 243.245 229.171 248.249 222.535 249.555L207.047 252.604C199.416 254.106 194.447 261.51 195.949 269.141C197.451 276.773 204.855 281.741 212.487 280.239L259.42 271.001C263.8 270.139 268.05 272.991 268.912 277.371L266.95 277.757C266.321 274.564 263.299 272.45 260.114 272.911L259.806 272.964L212.873 282.202C204.158 283.917 195.702 278.243 193.987 269.528L193.911 269.119C192.472 260.686 197.905 252.591 206.254 250.726L206.661 250.641L222.149 247.593C226.814 246.674 230.544 243.684 232.574 239.762L220.284 242.181L233.724 202.845ZM279.683 373.856C272.061 375.357 267.098 382.751 268.598 390.373L266.636 390.76C264.949 382.19 270.415 373.872 278.89 371.979L279.296 371.894C282.579 371.248 284.723 368.053 284.075 364.762L286.038 364.375C286.899 368.749 284.051 372.997 279.683 373.856ZM271.104 330.361L224.171 339.599C216.54 341.102 211.571 348.506 213.073 356.137C214.575 363.769 221.979 368.737 229.611 367.235L276.544 357.997C280.921 357.135 285.175 359.992 286.038 364.375L284.075 364.762C283.446 361.564 280.419 359.447 277.238 359.907L276.93 359.959L229.997 369.197C221.282 370.913 212.826 365.239 211.111 356.523L211.035 356.115C209.596 347.682 215.029 339.586 223.378 337.722L223.785 337.637L270.718 328.399C274.014 327.75 276.16 324.552 275.512 321.256L277.474 320.869C278.336 325.249 275.484 329.499 271.104 330.361ZM262.542 286.864L215.609 296.102C207.978 297.604 203.009 305.008 204.511 312.64C206.013 320.271 213.417 325.24 221.049 323.738L267.982 314.5C272.362 313.637 276.612 316.489 277.474 320.869L275.512 321.256C274.883 318.062 271.862 315.948 268.677 316.409L268.368 316.462L221.435 325.7C212.72 327.415 204.264 321.741 202.549 313.026C200.86 304.447 206.332 296.119 214.816 294.225L215.223 294.14L262.156 284.901C265.452 284.253 267.599 281.054 266.95 277.757L268.912 277.371C269.774 281.751 266.923 286.002 262.542 286.864ZM266.636 390.76L268.598 390.373L274.251 419.089L272.288 419.475L266.636 390.76Z" fill="#FF4100"/>
</g>
<g filter="url(#filter4_i_369_11363)">
<path d="M376.918 190.821L361.332 188.323C356.924 187.617 352.778 190.617 352.072 195.025C351.365 199.433 354.366 203.579 358.774 204.285L406.005 211.854C413.685 213.085 418.913 220.308 417.682 227.988C416.452 235.668 409.228 240.897 401.548 239.666L354.317 232.098C349.909 231.391 345.763 234.392 345.057 238.8C344.351 243.208 347.351 247.354 351.759 248.06L398.99 255.629C406.67 256.859 411.898 264.083 410.668 271.763C409.437 279.443 402.213 284.671 394.534 283.44L347.302 275.871C342.894 275.165 338.748 278.166 338.042 282.573C337.336 286.981 340.336 291.127 344.744 291.833L391.976 299.402C399.658 300.633 404.882 307.868 403.651 315.545C402.423 323.212 395.209 328.447 387.535 327.217C383.137 326.512 379 329.506 378.295 333.905L373.664 362.803C373.402 364.439 371.863 365.552 370.227 365.29C368.591 365.028 367.478 363.489 367.74 361.853L372.371 332.955C373.6 325.285 380.814 320.064 388.485 321.293C392.88 321.997 397.022 318.997 397.727 314.596C398.434 310.185 395.431 306.033 391.026 305.327L343.795 297.758C336.115 296.527 330.887 289.304 332.118 281.624C333.348 273.944 340.572 268.716 348.252 269.947L395.483 277.516C399.891 278.222 404.037 275.221 404.743 270.813C405.449 266.405 402.449 262.26 398.041 261.553L350.81 253.984C343.13 252.754 337.902 245.53 339.132 237.85C340.363 230.171 347.586 224.943 355.266 226.173L402.498 233.742C406.906 234.448 411.052 231.447 411.758 227.039C412.464 222.631 409.463 218.485 405.056 217.779L357.824 210.21C350.145 208.979 344.916 201.756 346.147 194.076C347.378 186.396 354.601 181.168 362.281 182.399L377.867 184.896C384.546 185.967 390.938 182.99 394.546 177.776L382.043 175.772L403.892 148.891L416.248 181.253L400.928 178.799C396.465 187.308 386.93 192.425 376.918 190.821Z" fill="#FFF100"/>
</g>
<g filter="url(#filter5_i_369_11363)">
<path d="M404.526 144.941L419.352 183.776L401.986 180.994C396.967 189.337 387.304 194.295 377.112 192.872L376.602 192.796L361.015 190.298C357.802 189.783 354.773 191.886 354.104 195.035L354.047 195.342C353.532 198.555 355.635 201.584 358.782 202.253L359.09 202.311L406.322 209.88C414.955 211.263 420.876 219.278 419.718 227.894L419.657 228.305C418.274 236.938 410.259 242.86 401.643 241.702L401.232 241.641L354.001 234.072C350.683 233.541 347.563 235.799 347.032 239.116C346.517 242.33 348.62 245.358 351.767 246.028L352.076 246.085L399.307 253.654C408.077 255.06 414.048 263.309 412.643 272.079C411.259 280.713 403.244 286.633 394.628 285.476L394.217 285.415L346.986 277.846C343.773 277.331 340.744 279.434 340.074 282.582L340.017 282.89C339.502 286.103 341.605 289.132 344.753 289.801L345.061 289.859L392.292 297.428C400.931 298.812 406.844 306.84 405.687 315.451L405.627 315.861C404.223 324.618 395.985 330.597 387.219 329.192C384.015 328.679 380.995 330.775 380.327 333.914L380.27 334.221L375.639 363.119C375.216 365.76 372.796 367.584 370.167 367.299L369.911 367.265C367.184 366.828 365.328 364.263 365.765 361.537L367.74 361.853C367.478 363.489 368.592 365.028 370.228 365.29C371.864 365.552 373.402 364.439 373.664 362.803L378.295 333.905C379 329.506 383.137 326.513 387.535 327.217C395.209 328.447 402.423 323.213 403.652 315.545C404.882 307.868 399.659 300.634 391.976 299.402L344.744 291.834C340.337 291.127 337.336 286.981 338.042 282.573C338.749 278.166 342.895 275.165 347.302 275.871L394.534 283.44C402.214 284.671 409.437 279.443 410.668 271.763C411.898 264.083 406.67 256.86 398.991 255.629L351.759 248.06C347.351 247.354 344.351 243.208 345.057 238.8C345.763 234.392 349.909 231.391 354.317 232.098L401.548 239.666C409.228 240.897 416.452 235.668 417.683 227.988C418.913 220.309 413.685 213.085 406.005 211.854L358.774 204.286C354.366 203.579 351.365 199.433 352.072 195.025C352.778 190.618 356.924 187.617 361.332 188.323L376.918 190.821C386.93 192.425 396.465 187.308 400.929 178.799L416.248 181.254L403.893 148.891L382.044 175.772L394.546 177.776C390.938 182.99 384.546 185.967 377.868 184.896L362.281 182.399C354.602 181.168 347.378 186.396 346.147 194.076C344.917 201.756 350.145 208.979 357.825 210.21L405.056 217.779C409.464 218.485 412.464 222.631 411.758 227.039L409.783 226.722C410.298 223.509 408.195 220.48 405.047 219.811L404.74 219.754L357.508 212.185C348.738 210.779 342.767 202.53 344.173 193.76L344.243 193.35C345.81 184.94 353.708 179.224 362.187 180.363L362.598 180.424L378.184 182.922C382.879 183.674 387.413 182.158 390.675 179.181L378.307 177.199L404.526 144.941ZM388.485 321.293C380.814 320.064 373.6 325.285 372.371 332.955L370.396 332.639C371.778 324.015 379.784 318.101 388.391 319.257L388.801 319.318C392.104 319.847 395.222 317.592 395.752 314.279L397.727 314.596C397.022 318.997 392.88 321.997 388.485 321.293ZM395.483 277.516L348.252 269.947C340.572 268.716 333.349 273.944 332.118 281.624C330.887 289.304 336.115 296.527 343.795 297.758L391.026 305.327C395.431 306.033 398.434 310.185 397.727 314.596L395.752 314.279C396.268 311.061 394.161 308.028 391.017 307.359L390.71 307.302L343.479 299.733C334.708 298.327 328.738 290.078 330.143 281.308L330.214 280.899C331.781 272.488 339.679 266.772 348.158 267.911L348.568 267.972L395.8 275.541C399.117 276.072 402.237 273.814 402.769 270.497L404.743 270.813C404.037 275.221 399.891 278.222 395.483 277.516ZM402.498 233.742L355.266 226.173C347.587 224.943 340.363 230.171 339.133 237.85C337.902 245.53 343.13 252.754 350.81 253.984L398.041 261.553C402.449 262.26 405.45 266.405 404.743 270.813L402.769 270.497C403.284 267.284 401.181 264.255 398.033 263.585L397.725 263.528L350.493 255.959C341.723 254.554 335.752 246.304 337.158 237.534C338.541 228.901 346.556 222.98 355.172 224.138L355.583 224.198L402.814 231.767C406.131 232.299 409.252 230.04 409.783 226.722L411.758 227.039C411.052 231.447 406.906 234.448 402.498 233.742ZM370.396 332.639L372.371 332.955L367.74 361.853L365.765 361.537L370.396 332.639Z" fill="#FF4100"/>
</g>
<g filter="url(#filter6_i_369_11363)">
<path d="M436.614 252.718L451.773 257.118C456.06 258.362 458.527 262.846 457.283 267.133C456.039 271.42 451.555 273.887 447.267 272.643L401.329 259.311C393.859 257.143 386.047 261.441 383.879 268.911C381.711 276.38 386.009 284.194 393.478 286.362L439.417 299.694C443.704 300.938 446.171 305.422 444.927 309.709C443.682 313.996 439.198 316.463 434.911 315.219L388.973 301.887C381.503 299.719 373.69 304.017 371.523 311.487C369.355 318.957 373.653 326.769 381.122 328.937L427.061 342.269C431.348 343.513 433.815 347.998 432.571 352.285C431.326 356.572 426.842 359.039 422.555 357.795L376.617 344.462C369.144 342.294 361.331 346.604 359.164 354.071C357 361.528 361.287 369.343 368.75 371.509C373.028 372.75 375.489 377.224 374.248 381.502L366.091 409.609C365.629 411.201 366.545 412.865 368.136 413.327C369.727 413.788 371.391 412.873 371.853 411.282L380.01 383.175C382.175 375.714 377.883 367.912 370.422 365.746C366.147 364.506 363.684 360.024 364.926 355.743C366.171 351.453 370.66 348.981 374.944 350.225L420.883 363.557C428.352 365.725 436.165 361.427 438.333 353.957C440.501 346.487 436.203 338.675 428.733 336.507L382.795 323.175C378.507 321.931 376.041 317.446 377.285 313.159C378.529 308.872 383.013 306.405 387.3 307.649L433.239 320.982C440.708 323.149 448.521 318.851 450.689 311.382C452.857 303.912 448.559 296.099 441.089 293.932L395.151 280.6C390.863 279.355 388.397 274.87 389.641 270.583C390.886 266.296 395.37 263.829 399.657 265.073L445.595 278.405C453.065 280.573 460.877 276.275 463.045 268.805C465.213 261.336 460.915 253.523 453.446 251.355L438.286 246.956C431.79 245.071 427.282 239.649 426.247 233.393L438.408 236.922L430.135 203.284L405.14 227.267L420.039 231.591C420.44 241.192 426.876 249.892 436.614 252.718Z" fill="#FFF100"/>
</g>
<g filter="url(#filter7_i_369_11363)">
<path d="M431.25 199.442L401.256 228.223L418.146 233.124C419.12 242.812 425.739 251.423 435.562 254.49L436.056 254.639L451.216 259.038C454.341 259.946 456.181 263.141 455.442 266.274L455.362 266.576C454.455 269.701 451.26 271.541 448.128 270.802L447.825 270.722L401.886 257.39C393.489 254.953 384.712 259.672 382.078 267.956L381.958 268.353C379.521 276.75 384.239 285.528 392.524 288.162L392.921 288.283L438.859 301.615C442.086 302.551 443.942 305.926 443.006 309.152C442.099 312.277 438.904 314.117 435.772 313.378L435.469 313.299L389.53 299.967C381 297.491 372.077 302.399 369.602 310.93C367.165 319.327 371.883 328.104 380.168 330.738L380.565 330.858L426.503 344.19C429.629 345.097 431.469 348.292 430.73 351.424L430.65 351.727C429.743 354.853 426.548 356.693 423.416 355.954L423.113 355.874L377.174 342.542C368.772 340.104 359.996 344.836 357.364 353.116L357.243 353.513C354.772 362.03 359.666 370.955 368.193 373.43C371.309 374.334 373.144 377.52 372.407 380.643L372.327 380.945L364.17 409.052C363.425 411.621 364.833 414.304 367.333 415.169L367.578 415.247C370.23 416.017 373.004 414.491 373.774 411.839L371.853 411.282C371.391 412.873 369.727 413.789 368.136 413.327C366.545 412.865 365.629 411.201 366.091 409.609L374.248 381.503C375.489 377.225 373.028 372.751 368.75 371.509C361.287 369.343 357 361.528 359.164 354.071C361.331 346.604 369.144 342.294 376.617 344.463L422.555 357.795C426.842 359.039 431.326 356.572 432.571 352.285C433.815 347.998 431.348 343.514 427.061 342.269L381.122 328.937C373.653 326.769 369.355 318.957 371.523 311.487C373.69 304.017 381.503 299.72 388.973 301.887L434.911 315.219C439.198 316.463 443.682 313.997 444.927 309.71C446.171 305.422 443.704 300.938 439.417 299.694L393.478 286.362C386.009 284.194 381.711 276.38 383.879 268.911C386.047 261.441 393.859 257.143 401.329 259.311L447.267 272.643C451.555 273.887 456.039 271.421 457.283 267.133C458.527 262.846 456.06 258.362 451.773 257.118L436.614 252.718C426.876 249.892 420.44 241.192 420.039 231.592L405.14 227.267L430.135 203.284L438.407 236.922L426.247 233.393C427.282 239.649 431.79 245.071 438.286 246.956L453.445 251.355C460.915 253.523 465.213 261.336 463.045 268.806C460.877 276.275 453.065 280.573 445.595 278.405L399.657 265.073C395.37 263.829 390.885 266.296 389.641 270.583L391.562 271.141C392.469 268.015 395.665 266.175 398.797 266.914L399.099 266.994L445.038 280.326C453.568 282.802 462.49 277.893 464.966 269.363L465.077 268.963C467.253 260.689 462.553 252.147 454.4 249.555L454.003 249.435L438.843 245.035C434.277 243.71 430.825 240.403 429.148 236.317L441.177 239.808L431.25 199.442ZM370.422 365.747C377.883 367.912 382.175 375.714 380.01 383.175L381.931 383.732C384.365 375.344 379.652 366.577 371.377 363.946L370.98 363.826C367.767 362.893 365.912 359.523 366.847 356.301L364.926 355.743C363.684 360.024 366.147 364.506 370.422 365.747ZM382.795 323.175L428.733 336.507C436.203 338.675 440.501 346.488 438.333 353.957C436.165 361.427 428.352 365.725 420.883 363.557L374.944 350.225C370.66 348.982 366.171 351.453 364.926 355.743L366.847 356.301C367.756 353.17 370.956 351.328 374.085 352.066L374.387 352.146L420.325 365.478C428.856 367.953 437.778 363.045 440.254 354.515L440.365 354.115C442.54 345.84 437.841 337.299 429.688 334.707L429.291 334.586L383.352 321.254C380.126 320.318 378.269 316.943 379.206 313.717L377.285 313.159C376.041 317.447 378.507 321.931 382.795 323.175ZM395.151 280.6L441.089 293.932C448.559 296.1 452.857 303.912 450.689 311.382C448.521 318.851 440.708 323.149 433.239 320.982L387.3 307.65C383.013 306.405 378.529 308.872 377.285 313.159L379.206 313.717C380.113 310.591 383.308 308.751 386.44 309.49L386.743 309.57L432.681 322.902C441.212 325.378 450.134 320.469 452.61 311.939C455.047 303.542 450.329 294.765 442.044 292.131L441.647 292.011L395.708 278.679C392.482 277.743 390.625 274.367 391.562 271.141L389.641 270.583C388.397 274.87 390.863 279.355 395.151 280.6ZM381.931 383.732L380.01 383.175L371.853 411.282L373.774 411.839L381.931 383.732Z" fill="#FF4100"/>
</g>
<path d="M118 357L108 362.773V358H54V356H108V351.227L118 357Z" fill="#FF4100"/>
<path d="M610 357L600 362.773V358H546V356H600V351.227L610 357Z" fill="#FF4100"/>
<defs>
<filter id="filter0_i_369_11363" x="255.705" y="154.11" width="82.5645" height="221.966" filterUnits="userSpaceOnUse" color-interpolation-filters="sRGB">
<feFlood flood-opacity="0" result="BackgroundImageFix"/>
<feBlend mode="normal" in="SourceGraphic" in2="BackgroundImageFix" result="shape"/>
<feColorMatrix in="SourceAlpha" type="matrix" values="0 0 0 0 0 0 0 0 0 0 0 0 0 0 0 0 0 0 127 0" result="hardAlpha"/>
<feOffset dy="4"/>
<feGaussianBlur stdDeviation="2"/>
<feComposite in2="hardAlpha" operator="arithmetic" k2="-1" k3="1"/>
<feColorMatrix type="matrix" values="0 0 0 0 0 0 0 0 0 0 0 0 0 0 0 0 0 0 0.25 0"/>
<feBlend mode="normal" in2="shape" result="effect1_innerShadow_369_11363"/>
</filter>
<filter id="filter1_i_369_11363" x="253.705" y="150.131" width="86.5645" height="227.945" filterUnits="userSpaceOnUse" color-interpolation-filters="sRGB">
<feFlood flood-opacity="0" result="BackgroundImageFix"/>
<feBlend mode="normal" in="SourceGraphic" in2="BackgroundImageFix" result="shape"/>
<feColorMatrix in="SourceAlpha" type="matrix" values="0 0 0 0 0 0 0 0 0 0 0 0 0 0 0 0 0 0 127 0" result="hardAlpha"/>
<feOffset dy="4"/>
<feGaussianBlur stdDeviation="2"/>
<feComposite in2="hardAlpha" operator="arithmetic" k2="-1" k3="1"/>
<feColorMatrix type="matrix" values="0 0 0 0 0 0 0 0 0 0 0 0 0 0 0 0 0 0 0.25 0"/>
<feBlend mode="normal" in2="shape" result="effect1_innerShadow_369_11363"/>
</filter>
<filter id="filter2_i_369_11363" x="195.682" y="206.769" width="96.5098" height="218.741" filterUnits="userSpaceOnUse" color-interpolation-filters="sRGB">
<feFlood flood-opacity="0" result="BackgroundImageFix"/>
<feBlend mode="normal" in="SourceGraphic" in2="BackgroundImageFix" result="shape"/>
<feColorMatrix in="SourceAlpha" type="matrix" values="0 0 0 0 0 0 0 0 0 0 0 0 0 0 0 0 0 0 127 0" result="hardAlpha"/>
<feOffset dy="4"/>
<feGaussianBlur stdDeviation="2"/>
<feComposite in2="hardAlpha" operator="arithmetic" k2="-1" k3="1"/>
<feColorMatrix type="matrix" values="0 0 0 0 0 0 0 0 0 0 0 0 0 0 0 0 0 0 0.25 0"/>
<feBlend mode="normal" in2="shape" result="effect1_innerShadow_369_11363"/>
</filter>
<filter id="filter3_i_369_11363" x="193.68" y="202.845" width="100.514" height="224.666" filterUnits="userSpaceOnUse" color-interpolation-filters="sRGB">
<feFlood flood-opacity="0" result="BackgroundImageFix"/>
<feBlend mode="normal" in="SourceGraphic" in2="BackgroundImageFix" result="shape"/>
<feColorMatrix in="SourceAlpha" type="matrix" values="0 0 0 0 0 0 0 0 0 0 0 0 0 0 0 0 0 0 127 0" result="hardAlpha"/>
<feOffset dy="4"/>
<feGaussianBlur stdDeviation="2"/>
<feComposite in2="hardAlpha" operator="arithmetic" k2="-1" k3="1"/>
<feColorMatrix type="matrix" values="0 0 0 0 0 0 0 0 0 0 0 0 0 0 0 0 0 0 0.25 0"/>
<feBlend mode="normal" in2="shape" result="effect1_innerShadow_369_11363"/>
</filter>
<filter id="filter4_i_369_11363" x="331.938" y="148.891" width="85.9238" height="220.438" filterUnits="userSpaceOnUse" color-interpolation-filters="sRGB">
<feFlood flood-opacity="0" result="BackgroundImageFix"/>
<feBlend mode="normal" in="SourceGraphic" in2="BackgroundImageFix" result="shape"/>
<feColorMatrix in="SourceAlpha" type="matrix" values="0 0 0 0 0 0 0 0 0 0 0 0 0 0 0 0 0 0 127 0" result="hardAlpha"/>
<feOffset dy="4"/>
<feGaussianBlur stdDeviation="2"/>
<feComposite in2="hardAlpha" operator="arithmetic" k2="-1" k3="1"/>
<feColorMatrix type="matrix" values="0 0 0 0 0 0 0 0 0 0 0 0 0 0 0 0 0 0 0.25 0"/>
<feBlend mode="normal" in2="shape" result="effect1_innerShadow_369_11363"/>
</filter>
<filter id="filter5_i_369_11363" x="329.938" y="144.941" width="89.9258" height="226.387" filterUnits="userSpaceOnUse" color-interpolation-filters="sRGB">
<feFlood flood-opacity="0" result="BackgroundImageFix"/>
<feBlend mode="normal" in="SourceGraphic" in2="BackgroundImageFix" result="shape"/>
<feColorMatrix in="SourceAlpha" type="matrix" values="0 0 0 0 0 0 0 0 0 0 0 0 0 0 0 0 0 0 127 0" result="hardAlpha"/>
<feOffset dy="4"/>
<feGaussianBlur stdDeviation="2"/>
<feComposite in2="hardAlpha" operator="arithmetic" k2="-1" k3="1"/>
<feColorMatrix type="matrix" values="0 0 0 0 0 0 0 0 0 0 0 0 0 0 0 0 0 0 0.25 0"/>
<feBlend mode="normal" in2="shape" result="effect1_innerShadow_369_11363"/>
</filter>
<filter id="filter6_i_369_11363" x="358.604" y="203.283" width="105.004" height="214.163" filterUnits="userSpaceOnUse" color-interpolation-filters="sRGB">
<feFlood flood-opacity="0" result="BackgroundImageFix"/>
<feBlend mode="normal" in="SourceGraphic" in2="BackgroundImageFix" result="shape"/>
<feColorMatrix in="SourceAlpha" type="matrix" values="0 0 0 0 0 0 0 0 0 0 0 0 0 0 0 0 0 0 127 0" result="hardAlpha"/>
<feOffset dy="4"/>
<feGaussianBlur stdDeviation="2"/>
<feComposite in2="hardAlpha" operator="arithmetic" k2="-1" k3="1"/>
<feColorMatrix type="matrix" values="0 0 0 0 0 0 0 0 0 0 0 0 0 0 0 0 0 0 0.25 0"/>
<feBlend mode="normal" in2="shape" result="effect1_innerShadow_369_11363"/>
</filter>
<filter id="filter7_i_369_11363" x="356.602" y="199.442" width="109.006" height="220.005" filterUnits="userSpaceOnUse" color-interpolation-filters="sRGB">
<feFlood flood-opacity="0" result="BackgroundImageFix"/>
<feBlend mode="normal" in="SourceGraphic" in2="BackgroundImageFix" result="shape"/>
<feColorMatrix in="SourceAlpha" type="matrix" values="0 0 0 0 0 0 0 0 0 0 0 0 0 0 0 0 0 0 127 0" result="hardAlpha"/>
<feOffset dy="4"/>
<feGaussianBlur stdDeviation="2"/>
<feComposite in2="hardAlpha" operator="arithmetic" k2="-1" k3="1"/>
<feColorMatrix type="matrix" values="0 0 0 0 0 0 0 0 0 0 0 0 0 0 0 0 0 0 0.25 0"/>
<feBlend mode="normal" in2="shape" result="effect1_innerShadow_369_11363"/>
</filter>
<linearGradient id="paint0_linear_369_11363" x1="180.645" y1="318.759" x2="149.282" y2="388.303" gradientUnits="userSpaceOnUse">
<stop stop-color="#EEEEEE"/>
<stop offset="0.334842" stop-color="#E3E3E3"/>
<stop offset="0.751797" stop-color="#737B7F"/>
<stop offset="1" stop-color="#EEEEEE"/>
</linearGradient>
<linearGradient id="paint1_linear_369_11363" x1="170" y1="397" x2="170" y2="317" gradientUnits="userSpaceOnUse">
<stop stop-color="#FF4100"/>
<stop offset="0.115462" stop-color="#FF6835"/>
<stop offset="0.212121" stop-color="#FF6835"/>
<stop offset="0.541622" stop-color="white"/>
<stop offset="0.890909" stop-color="white"/>
<stop offset="1" stop-color="#FF6835"/>
</linearGradient>
<linearGradient id="paint2_linear_369_11363" x1="342" y1="508" x2="342" y2="96" gradientUnits="userSpaceOnUse">
<stop stop-color="#F79C1E"/>
<stop offset="1" stop-color="#FF4100"/>
</linearGradient>
<linearGradient id="paint3_linear_369_11363" x1="522" y1="302" x2="482.221" y2="302" gradientUnits="userSpaceOnUse">
<stop stop-color="#343030"/>
<stop offset="0.115462" stop-color="#80868D"/>
<stop offset="0.212121" stop-color="#80868D"/>
<stop offset="0.541622" stop-color="white"/>
<stop offset="0.890909" stop-color="white"/>
<stop offset="1" stop-color="#B2B2B2"/>
</linearGradient>
<linearGradient id="paint4_linear_369_11363" x1="484.707" y1="115.5" x2="456.244" y2="137.847" gradientUnits="userSpaceOnUse">
<stop stop-color="#343030"/>
<stop offset="0.115462" stop-color="#80868D"/>
<stop offset="0.212121" stop-color="#80868D"/>
<stop offset="0.541622" stop-color="white"/>
<stop offset="0.890909" stop-color="white"/>
<stop offset="1" stop-color="#B2B2B2"/>
</linearGradient>
<linearGradient id="paint5_linear_369_11363" x1="342" y1="96" x2="342" y2="109" gradientUnits="userSpaceOnUse">
<stop stop-color="#343030"/>
<stop offset="0.115462" stop-color="#80868D"/>
<stop offset="0.212121" stop-color="#80868D"/>
<stop offset="0.541622" stop-color="white"/>
<stop offset="0.890909" stop-color="white"/>
<stop offset="1" stop-color="#B2B2B2"/>
</linearGradient>
<linearGradient id="paint6_linear_369_11363" x1="329.5" y1="96" x2="329.5" y2="108" gradientUnits="userSpaceOnUse">
<stop stop-color="#FF4100"/>
<stop offset="1" stop-color="#F79B1E"/>
</linearGradient>
<linearGradient id="paint7_linear_369_11363" x1="495.5" y1="123.5" x2="459.5" y2="144.5" gradientUnits="userSpaceOnUse">
<stop stop-color="#FF4100"/>
<stop offset="1" stop-color="#F79B1E"/>
</linearGradient>
<linearGradient id="paint8_linear_369_11363" x1="436" y1="471.5" x2="428.5" y2="459" gradientUnits="userSpaceOnUse">
<stop stop-color="#FF4100"/>
<stop offset="1" stop-color="#F79B1E"/>
</linearGradient>
<linearGradient id="paint9_linear_369_11363" x1="346" y1="540" x2="300" y2="540" gradientUnits="userSpaceOnUse">
<stop stop-color="#FF4100"/>
<stop offset="0.115462" stop-color="#FF6835"/>
<stop offset="0.212121" stop-color="#FF6835"/>
<stop offset="0.541622" stop-color="white"/>
<stop offset="0.890909" stop-color="white"/>
<stop offset="1" stop-color="#FF6835"/>
</linearGradient>
<radialGradient id="paint10_radial_369_11363" cx="0" cy="0" r="1" gradientUnits="userSpaceOnUse" gradientTransform="translate(352 357) scale(97.5)">
<stop stop-color="#FFF100"/>
<stop offset="1" stop-color="#FFF100" stop-opacity="0"/>
</radialGradient>
<linearGradient id="paint11_linear_369_11363" x1="522" y1="294" x2="482" y2="294" gradientUnits="userSpaceOnUse">
<stop stop-color="#FF4100"/>
<stop offset="1" stop-color="#F79B1E"/>
</linearGradient>
<linearGradient id="paint12_linear_369_11363" x1="536.645" y1="318.759" x2="505.282" y2="388.303" gradientUnits="userSpaceOnUse">
<stop stop-color="#EEEEEE"/>
<stop offset="0.334842" stop-color="#E3E3E3"/>
<stop offset="0.751797" stop-color="#737B7F"/>
<stop offset="1" stop-color="#EEEEEE"/>
</linearGradient>
<linearGradient id="paint13_linear_369_11363" x1="526" y1="397" x2="526" y2="317" gradientUnits="userSpaceOnUse">
<stop stop-color="#FF4100"/>
<stop offset="0.115462" stop-color="#FF6835"/>
<stop offset="0.212121" stop-color="#FF6835"/>
<stop offset="0.541622" stop-color="white"/>
<stop offset="0.890909" stop-color="white"/>
<stop offset="1" stop-color="#FF6835"/>
</linearGradient>
</defs>
</svg>
