<svg width="664" height="668" viewBox="0 0 664 668" fill="none" xmlns="http://www.w3.org/2000/svg">
<rect width="664" height="668" fill="#FAFAFA"/>
<path d="M280 107C280 135.719 267.464 159 252 159C236.536 159 224 135.719 224 107C224 78.2812 236.536 55 252 55C267.464 55 280 78.2812 280 107Z" fill="url(#paint0_linear_369_14725)"/>
<path d="M80 107C80 135.719 92.536 159 108 159H252C236.536 159 224 135.719 224 107C224 78.2812 236.536 55 252 55H108C92.536 55 80 78.2812 80 107Z" fill="url(#paint1_linear_369_14725)"/>
<path d="M223.5 107C223.5 92.5744 226.647 79.4895 231.761 69.9932C235.642 62.7856 240.698 57.5797 246.418 55.5H108C100.54 55.5 93.6732 61.1234 88.6416 70.4678C83.621 79.7918 80.5 92.7068 80.5 107C80.5 121.293 83.621 134.208 88.6416 143.532C93.6732 152.877 100.54 158.5 108 158.5H246.418C240.698 156.42 235.642 151.214 231.761 144.007C226.647 134.511 223.5 121.426 223.5 107ZM224.5 107C224.5 121.293 227.621 134.208 232.642 143.532C237.673 152.877 244.54 158.5 252 158.5C259.46 158.5 266.327 152.877 271.358 143.532C276.379 134.208 279.5 121.293 279.5 107C279.5 92.7068 276.379 79.7918 271.358 70.4678C266.327 61.1234 259.46 55.5 252 55.5C244.54 55.5 237.673 61.1234 232.642 70.4678C227.621 79.7918 224.5 92.7068 224.5 107ZM280.5 107C280.5 121.426 277.353 134.511 272.239 144.007C267.137 153.483 260.004 159.5 252 159.5H108C99.996 159.5 92.8632 153.483 87.7607 144.007C82.6473 134.511 79.5 121.426 79.5 107C79.5 92.5744 82.6473 79.4895 87.7607 69.9932C92.8632 60.5173 99.996 54.5 108 54.5H252C260.004 54.5 267.137 60.5173 272.239 69.9932C277.353 79.4895 280.5 92.5744 280.5 107Z" fill="black"/>
<path d="M189.382 113.144C188.074 113.144 186.958 112.88 186.034 112.352C185.122 111.812 184.426 111.056 183.946 110.084C183.478 109.112 183.244 107.978 183.244 106.682C183.244 105.362 183.484 104.21 183.964 103.226C184.456 102.242 185.158 101.48 186.07 100.94C186.982 100.388 188.08 100.112 189.364 100.112C190.336 100.112 191.206 100.28 191.974 100.616C192.742 100.94 193.36 101.426 193.828 102.074C194.308 102.71 194.608 103.496 194.728 104.432H192.244C192.088 103.844 191.77 103.382 191.29 103.046C190.822 102.698 190.198 102.524 189.418 102.524C188.554 102.524 187.864 102.722 187.348 103.118C186.844 103.502 186.478 104.006 186.25 104.63C186.022 105.242 185.908 105.89 185.908 106.574C185.908 107.282 186.028 107.954 186.268 108.59C186.508 109.226 186.886 109.742 187.402 110.138C187.93 110.534 188.62 110.732 189.472 110.732C189.976 110.732 190.426 110.66 190.822 110.516C191.218 110.36 191.542 110.138 191.794 109.85C192.058 109.562 192.238 109.22 192.334 108.824H194.908C194.8 109.748 194.488 110.534 193.972 111.182C193.456 111.83 192.802 112.322 192.01 112.658C191.218 112.982 190.342 113.144 189.382 113.144Z" fill="#0A0000"/>
<path d="M172.311 113V100.256H177.279C178.251 100.256 179.097 100.406 179.817 100.706C180.549 100.994 181.113 101.462 181.509 102.11C181.905 102.746 182.103 103.598 182.103 104.666C182.103 105.662 181.881 106.496 181.437 107.168C181.005 107.84 180.411 108.344 179.655 108.68C178.899 109.004 178.041 109.166 177.081 109.166H174.885V113H172.311ZM174.885 106.862H177.045C177.813 106.862 178.419 106.682 178.863 106.322C179.319 105.95 179.547 105.392 179.547 104.648C179.547 103.988 179.355 103.49 178.971 103.154C178.599 102.818 177.999 102.65 177.171 102.65H174.885V106.862Z" fill="#0A0000"/>
<path d="M164.605 113V102.65H160.717V100.256H171.103V102.65H167.197V113H164.605Z" fill="#0A0000"/>
<path d="M153.126 115.754L152.406 114.656C152.586 114.56 152.784 114.422 153 114.242C153.228 114.062 153.432 113.864 153.612 113.648C153.792 113.444 153.912 113.252 153.972 113.072C153.612 113.048 153.294 112.91 153.018 112.658C152.742 112.406 152.604 112.058 152.604 111.614C152.616 111.122 152.778 110.75 153.09 110.498C153.414 110.234 153.78 110.102 154.188 110.102C154.716 110.102 155.124 110.294 155.412 110.678C155.7 111.05 155.844 111.542 155.844 112.154C155.844 112.718 155.712 113.246 155.448 113.738C155.184 114.23 154.848 114.65 154.44 114.998C154.032 115.346 153.594 115.598 153.126 115.754Z" fill="#0A0000"/>
<path d="M140.27 113V100.256H145.076C146.408 100.256 147.542 100.508 148.478 101.012C149.426 101.516 150.146 102.242 150.638 103.19C151.142 104.138 151.394 105.296 151.394 106.664C151.394 108.008 151.148 109.154 150.656 110.102C150.176 111.038 149.468 111.758 148.532 112.262C147.596 112.754 146.45 113 145.094 113H140.27ZM142.844 110.624H145.076C145.964 110.624 146.678 110.456 147.218 110.12C147.758 109.784 148.154 109.316 148.406 108.716C148.658 108.116 148.784 107.426 148.784 106.646C148.784 105.89 148.658 105.212 148.406 104.612C148.166 104 147.77 103.52 147.218 103.172C146.678 102.824 145.946 102.65 145.022 102.65H142.844V110.624Z" fill="#0A0000"/>
<path d="M128.811 113V100.256H133.779C134.751 100.256 135.597 100.406 136.317 100.706C137.049 100.994 137.613 101.462 138.009 102.11C138.405 102.746 138.603 103.598 138.603 104.666C138.603 105.662 138.381 106.496 137.937 107.168C137.505 107.84 136.911 108.344 136.155 108.68C135.399 109.004 134.541 109.166 133.581 109.166H131.385V113H128.811ZM131.385 106.862H133.545C134.313 106.862 134.919 106.682 135.363 106.322C135.819 105.95 136.047 105.392 136.047 104.648C136.047 103.988 135.855 103.49 135.471 103.154C135.099 102.818 134.499 102.65 133.671 102.65H131.385V106.862Z" fill="#0A0000"/>
<path d="M117.35 113V100.256H122.318C123.29 100.256 124.136 100.406 124.856 100.706C125.588 100.994 126.152 101.462 126.548 102.11C126.944 102.746 127.142 103.598 127.142 104.666C127.142 105.662 126.92 106.496 126.476 107.168C126.044 107.84 125.45 108.344 124.694 108.68C123.938 109.004 123.08 109.166 122.12 109.166H119.924V113H117.35ZM119.924 106.862H122.084C122.852 106.862 123.458 106.682 123.902 106.322C124.358 105.95 124.586 105.392 124.586 104.648C124.586 103.988 124.394 103.49 124.01 103.154C123.638 102.818 123.038 102.65 122.21 102.65H119.924V106.862Z" fill="#0A0000"/>
<path d="M270 141C270 147.627 267.151 153 263.636 153C260.122 153 257.273 147.627 257.273 141C257.273 134.373 260.122 129 263.636 129C267.151 129 270 134.373 270 141Z" fill="url(#paint2_linear_369_14725)"/>
<path d="M246 141C246 147.627 248.849 153 252.364 153H263.636C260.122 153 257.273 147.627 257.273 141C257.273 134.373 260.122 129 263.636 129H252.364C248.849 129 246 134.373 246 141Z" fill="url(#paint3_linear_369_14725)"/>
<path d="M256.772 141C256.772 137.621 257.498 134.537 258.695 132.28C259.304 131.133 260.055 130.168 260.917 129.5H252.363C250.882 129.5 249.424 130.641 248.306 132.749C247.199 134.835 246.5 137.751 246.5 141C246.5 144.249 247.199 147.165 248.306 149.251C249.424 151.359 250.882 152.5 252.363 152.5H260.917C260.055 151.832 259.304 150.867 258.695 149.72C257.498 147.463 256.772 144.379 256.772 141ZM257.772 141C257.772 144.249 258.472 147.165 259.578 149.251C260.696 151.359 262.155 152.5 263.637 152.5C265.118 152.5 266.576 151.359 267.694 149.251C268.801 147.165 269.5 144.249 269.5 141C269.5 137.751 268.801 134.835 267.694 132.749C266.576 130.641 265.118 129.5 263.637 129.5C262.155 129.5 260.696 130.641 259.578 132.749C258.472 134.835 257.772 137.751 257.772 141ZM270.5 141C270.5 144.379 269.775 147.463 268.578 149.72C267.43 151.885 265.777 153.402 263.826 153.495L263.637 153.5H252.363C250.33 153.5 248.607 151.955 247.422 149.72C246.225 147.463 245.5 144.379 245.5 141C245.5 137.621 246.225 134.537 247.422 132.28C248.607 130.045 250.33 128.5 252.363 128.5H263.637C265.67 128.5 267.393 130.045 268.578 132.28C269.775 134.537 270.5 137.621 270.5 141Z" fill="black"/>
<path d="M104 148H120V172H104V148Z" fill="url(#paint4_linear_369_14725)"/>
<path d="M120 148V172L128 159C123.5 159 120 153 120 148Z" fill="url(#paint5_linear_369_14725)"/>
<path d="M104 148H120V172H104V148Z" fill="url(#paint6_linear_369_14725)"/>
<path d="M120.5 147.5V148C120.5 150.395 121.342 153.048 122.727 155.095C124.117 157.151 125.984 158.5 128 158.5H128.895L120.279 172.5H103.5V147.5H120.5ZM104.5 171.5H119.5V148.5H104.5V171.5ZM120.5 170.233L127.146 159.433C125.027 159.106 123.21 157.593 121.898 155.655C121.347 154.84 120.876 153.936 120.5 152.989V170.233Z" fill="black"/>
<path d="M208 148H224V172H208V148Z" fill="url(#paint7_linear_369_14725)"/>
<path d="M224 148V172L232 159C227.5 159 224 153 224 148Z" fill="url(#paint8_linear_369_14725)"/>
<path d="M208 148H224V172H208V148Z" fill="url(#paint9_linear_369_14725)"/>
<path d="M224.5 147.5V148C224.5 150.395 225.342 153.048 226.727 155.095C228.117 157.151 229.984 158.5 232 158.5H232.895L224.279 172.5H207.5V147.5H224.5ZM208.5 171.5H223.5V148.5H208.5V171.5ZM224.5 170.233L231.146 159.433C229.027 159.106 227.21 157.593 225.898 155.655C225.347 154.84 224.876 153.936 224.5 152.989V170.233Z" fill="black"/>
<path d="M384 107C384 135.719 396.536 159 412 159C427.464 159 440 135.719 440 107C440 78.2812 427.464 55 412 55C396.536 55 384 78.2812 384 107Z" fill="url(#paint10_linear_369_14725)"/>
<path d="M584 107C584 135.719 571.464 159 556 159H412C427.464 159 440 135.719 440 107C440 78.2812 427.464 55 412 55H556C571.464 55 584 78.2812 584 107Z" fill="url(#paint11_linear_369_14725)"/>
<path d="M440.5 107C440.5 92.5744 437.353 79.4895 432.239 69.9932C428.358 62.7856 423.302 57.5797 417.582 55.5H556C563.46 55.5 570.327 61.1234 575.358 70.4678C580.379 79.7918 583.5 92.7068 583.5 107C583.5 121.293 580.379 134.208 575.358 143.532C570.327 152.877 563.46 158.5 556 158.5H417.582C423.302 156.42 428.358 151.214 432.239 144.007C437.353 134.511 440.5 121.426 440.5 107ZM439.5 107C439.5 121.293 436.379 134.208 431.358 143.532C426.327 152.877 419.46 158.5 412 158.5C404.54 158.5 397.673 152.877 392.642 143.532C387.621 134.208 384.5 121.293 384.5 107C384.5 92.7068 387.621 79.7918 392.642 70.4678C397.673 61.1234 404.54 55.5 412 55.5C419.46 55.5 426.327 61.1234 431.358 70.4678C436.379 79.7918 439.5 92.7068 439.5 107ZM383.5 107C383.5 121.426 386.647 134.511 391.761 144.007C396.863 153.483 403.996 159.5 412 159.5H556C564.004 159.5 571.137 153.483 576.239 144.007C581.353 134.511 584.5 121.426 584.5 107C584.5 92.5744 581.353 79.4895 576.239 69.9932C571.137 60.5173 564.004 54.5 556 54.5H412C403.996 54.5 396.863 60.5173 391.761 69.9932C386.647 79.4895 383.5 92.5744 383.5 107Z" fill="black"/>
<path d="M557.41 117V115.564L559.505 113.846C559.649 113.724 559.815 113.591 560.002 113.447C560.189 113.296 560.366 113.134 560.531 112.961C560.704 112.781 560.848 112.597 560.963 112.41C561.079 112.223 561.136 112.028 561.136 111.827C561.136 111.56 561.053 111.341 560.888 111.168C560.729 110.995 560.477 110.909 560.132 110.909C559.793 110.909 559.538 110.988 559.365 111.146C559.192 111.298 559.091 111.485 559.063 111.708H557.41C557.439 111.154 557.587 110.696 557.853 110.336C558.119 109.976 558.461 109.706 558.879 109.526C559.297 109.346 559.736 109.256 560.197 109.256C560.686 109.256 561.133 109.35 561.536 109.537C561.939 109.717 562.259 109.984 562.497 110.336C562.742 110.682 562.864 111.11 562.864 111.622C562.864 112.039 562.785 112.424 562.627 112.777C562.468 113.123 562.249 113.447 561.968 113.749C561.687 114.052 561.367 114.343 561.007 114.624L560.035 115.391H562.821V117H557.41Z" fill="#0A0000"/>
<path d="M553.988 113V100.256H556.508V113H553.988Z" fill="#0A0000"/>
<path d="M547.236 113.144C545.928 113.144 544.812 112.88 543.888 112.352C542.976 111.812 542.28 111.056 541.8 110.084C541.332 109.112 541.098 107.978 541.098 106.682C541.098 105.362 541.338 104.21 541.818 103.226C542.31 102.242 543.012 101.48 543.924 100.94C544.836 100.388 545.934 100.112 547.218 100.112C548.19 100.112 549.06 100.28 549.828 100.616C550.596 100.94 551.214 101.426 551.682 102.074C552.162 102.71 552.462 103.496 552.582 104.432H550.098C549.942 103.844 549.624 103.382 549.144 103.046C548.676 102.698 548.052 102.524 547.272 102.524C546.408 102.524 545.718 102.722 545.202 103.118C544.698 103.502 544.332 104.006 544.104 104.63C543.876 105.242 543.762 105.89 543.762 106.574C543.762 107.282 543.882 107.954 544.122 108.59C544.362 109.226 544.74 109.742 545.256 110.138C545.784 110.534 546.474 110.732 547.326 110.732C547.83 110.732 548.28 110.66 548.676 110.516C549.072 110.36 549.396 110.138 549.648 109.85C549.912 109.562 550.092 109.22 550.188 108.824H552.762C552.654 109.748 552.342 110.534 551.826 111.182C551.31 111.83 550.656 112.322 549.864 112.658C549.072 112.982 548.196 113.144 547.236 113.144Z" fill="#0A0000"/>
<path d="M534.514 113.126C534.082 113.126 533.662 113.072 533.254 112.964C532.858 112.844 532.504 112.664 532.192 112.424C531.88 112.184 531.634 111.884 531.454 111.524C531.274 111.164 531.184 110.744 531.184 110.264C531.184 109.616 531.316 109.1 531.58 108.716C531.844 108.32 532.198 108.02 532.642 107.816C533.086 107.612 533.596 107.474 534.172 107.402C534.76 107.33 535.366 107.294 535.99 107.294H537.358C537.358 106.946 537.292 106.64 537.16 106.376C537.04 106.1 536.854 105.89 536.602 105.746C536.35 105.59 536.026 105.512 535.63 105.512C535.378 105.512 535.132 105.548 534.892 105.62C534.664 105.68 534.472 105.77 534.316 105.89C534.16 106.01 534.058 106.166 534.01 106.358H531.454C531.526 105.83 531.694 105.38 531.958 105.008C532.222 104.624 532.552 104.312 532.948 104.072C533.344 103.832 533.776 103.658 534.244 103.55C534.724 103.43 535.216 103.37 535.72 103.37C537.1 103.37 538.12 103.766 538.78 104.558C539.44 105.338 539.77 106.448 539.77 107.888V113H537.502L537.466 111.776C537.166 112.196 536.824 112.502 536.44 112.694C536.068 112.886 535.708 113.006 535.36 113.054C535.012 113.102 534.73 113.126 534.514 113.126ZM535.09 111.128C535.51 111.128 535.894 111.044 536.242 110.876C536.59 110.708 536.866 110.48 537.07 110.192C537.274 109.904 537.376 109.58 537.376 109.22V108.986H535.648C535.396 108.986 535.15 108.998 534.91 109.022C534.682 109.046 534.472 109.094 534.28 109.166C534.1 109.226 533.956 109.328 533.848 109.472C533.74 109.616 533.686 109.808 533.686 110.048C533.686 110.288 533.746 110.492 533.866 110.66C533.998 110.816 534.172 110.936 534.388 111.02C534.604 111.092 534.838 111.128 535.09 111.128Z" fill="#0A0000"/>
<path d="M524.755 113.144C523.447 113.144 522.331 112.88 521.407 112.352C520.495 111.812 519.799 111.056 519.319 110.084C518.851 109.112 518.617 107.978 518.617 106.682C518.617 105.362 518.857 104.21 519.337 103.226C519.829 102.242 520.531 101.48 521.443 100.94C522.355 100.388 523.453 100.112 524.737 100.112C525.709 100.112 526.579 100.28 527.347 100.616C528.115 100.94 528.733 101.426 529.201 102.074C529.681 102.71 529.981 103.496 530.101 104.432H527.617C527.461 103.844 527.143 103.382 526.663 103.046C526.195 102.698 525.571 102.524 524.791 102.524C523.927 102.524 523.237 102.722 522.721 103.118C522.217 103.502 521.851 104.006 521.623 104.63C521.395 105.242 521.281 105.89 521.281 106.574C521.281 107.282 521.401 107.954 521.641 108.59C521.881 109.226 522.259 109.742 522.775 110.138C523.303 110.534 523.993 110.732 524.845 110.732C525.349 110.732 525.799 110.66 526.195 110.516C526.591 110.36 526.915 110.138 527.167 109.85C527.431 109.562 527.611 109.22 527.707 108.824H530.281C530.173 109.748 529.861 110.534 529.345 111.182C528.829 111.83 528.175 112.322 527.383 112.658C526.591 112.982 525.715 113.144 524.755 113.144Z" fill="#0A0000"/>
<path d="M510.54 115.754L509.82 114.656C510 114.56 510.198 114.422 510.414 114.242C510.642 114.062 510.846 113.864 511.026 113.648C511.206 113.444 511.326 113.252 511.386 113.072C511.026 113.048 510.708 112.91 510.432 112.658C510.156 112.406 510.018 112.058 510.018 111.614C510.03 111.122 510.192 110.75 510.504 110.498C510.828 110.234 511.194 110.102 511.602 110.102C512.13 110.102 512.538 110.294 512.826 110.678C513.114 111.05 513.258 111.542 513.258 112.154C513.258 112.718 513.126 113.246 512.862 113.738C512.598 114.23 512.262 114.65 511.854 114.998C511.446 115.346 511.008 115.598 510.54 115.754Z" fill="#0A0000"/>
<path d="M494.291 113V100.256H497.711L501.113 106.412L504.479 100.256H507.773V113H505.199V103.694L501.581 110.156H500.537L496.865 103.694V113H494.291Z" fill="#0A0000"/>
<path d="M482.832 113V100.256H487.8C488.772 100.256 489.618 100.406 490.338 100.706C491.07 100.994 491.634 101.462 492.03 102.11C492.426 102.746 492.624 103.598 492.624 104.666C492.624 105.662 492.402 106.496 491.958 107.168C491.526 107.84 490.932 108.344 490.176 108.68C489.42 109.004 488.562 109.166 487.602 109.166H485.406V113H482.832ZM485.406 106.862H487.566C488.334 106.862 488.94 106.682 489.384 106.322C489.84 105.95 490.068 105.392 490.068 104.648C490.068 103.988 489.876 103.49 489.492 103.154C489.12 102.818 488.52 102.65 487.692 102.65H485.406V106.862Z" fill="#0A0000"/>
<path d="M469.35 113V100.256H471.978L477.864 108.878V100.256H480.438V113H477.882L471.924 104.468V113H469.35Z" fill="#0A0000"/>
<path d="M394 141C394 147.627 396.849 153 400.364 153C403.878 153 406.727 147.627 406.727 141C406.727 134.373 403.878 129 400.364 129C396.849 129 394 134.373 394 141Z" fill="url(#paint12_linear_369_14725)"/>
<path d="M418 141C418 147.627 415.151 153 411.636 153H400.364C403.878 153 406.727 147.627 406.727 141C406.727 134.373 403.878 129 400.364 129H411.636C415.151 129 418 134.373 418 141Z" fill="url(#paint13_linear_369_14725)"/>
<path d="M407.228 141C407.228 137.621 406.502 134.537 405.305 132.28C404.696 131.133 403.945 130.168 403.083 129.5H411.637C413.118 129.5 414.576 130.641 415.694 132.749C416.801 134.835 417.5 137.751 417.5 141C417.5 144.249 416.801 147.165 415.694 149.251C414.576 151.359 413.118 152.5 411.637 152.5H403.083C403.945 151.832 404.696 150.867 405.305 149.72C406.502 147.463 407.228 144.379 407.228 141ZM406.228 141C406.228 144.249 405.528 147.165 404.422 149.251C403.304 151.359 401.845 152.5 400.363 152.5C398.882 152.5 397.424 151.359 396.306 149.251C395.199 147.165 394.5 144.249 394.5 141C394.5 137.751 395.199 134.835 396.306 132.749C397.424 130.641 398.882 129.5 400.363 129.5C401.845 129.5 403.304 130.641 404.422 132.749C405.528 134.835 406.228 137.751 406.228 141ZM393.5 141C393.5 144.379 394.225 147.463 395.422 149.72C396.57 151.885 398.223 153.402 400.174 153.495L400.363 153.5H411.637C413.67 153.5 415.393 151.955 416.578 149.72C417.775 147.463 418.5 144.379 418.5 141C418.5 137.621 417.775 134.537 416.578 132.28C415.393 130.045 413.67 128.5 411.637 128.5H400.363C398.33 128.5 396.607 130.045 395.422 132.28C394.225 134.537 393.5 137.621 393.5 141Z" fill="black"/>
<path d="M560 148H544V172H560V148Z" fill="url(#paint14_linear_369_14725)"/>
<path d="M544 148V172L536 159C540.5 159 544 153 544 148Z" fill="url(#paint15_linear_369_14725)"/>
<path d="M560 148H544V172H560V148Z" fill="url(#paint16_linear_369_14725)"/>
<path d="M543.5 147.5V148C543.5 150.395 542.658 153.048 541.273 155.095C539.883 157.151 538.016 158.5 536 158.5H535.105L543.721 172.5H560.5V147.5H543.5ZM559.5 171.5H544.5V148.5H559.5V171.5ZM543.5 170.233L536.854 159.433C538.973 159.106 540.79 157.593 542.102 155.655C542.653 154.84 543.124 153.936 543.5 152.989V170.233Z" fill="black"/>
<path d="M456 148H440V172H456V148Z" fill="url(#paint17_linear_369_14725)"/>
<path d="M440 148V172L432 159C436.5 159 440 153 440 148Z" fill="url(#paint18_linear_369_14725)"/>
<path d="M456 148H440V172H456V148Z" fill="url(#paint19_linear_369_14725)"/>
<path d="M439.5 147.5V148C439.5 150.395 438.658 153.048 437.273 155.095C435.883 157.151 434.016 158.5 432 158.5H431.105L439.721 172.5H456.5V147.5H439.5ZM455.5 171.5H440.5V148.5H455.5V171.5ZM439.5 170.233L432.854 159.433C434.973 159.106 436.79 157.593 438.102 155.655C438.653 154.84 439.124 153.936 439.5 152.989V170.233Z" fill="black"/>
<path d="M332 533C349.673 533 364 540.542 364 549.845C364 559.148 349.673 566.69 332 566.69C314.327 566.69 300 559.148 300 549.845C300 540.542 314.327 533 332 533Z" fill="url(#paint20_linear_369_14725)"/>
<path d="M332 613C349.673 613 364 605.458 364 596.155L364 549.845C364 559.148 349.673 566.69 332 566.69C314.327 566.69 300 559.148 300 549.845L300 596.155C300 605.458 314.327 613 332 613Z" fill="url(#paint21_linear_369_14725)"/>
<path d="M332 567.189C323.099 567.189 315.016 565.291 309.14 562.198C305.063 560.052 301.99 557.293 300.5 554.151L300.5 596.155C300.5 600.529 303.877 604.608 309.605 607.624C315.311 610.627 323.228 612.5 332 612.5C340.772 612.5 348.689 610.627 354.395 607.624C360.123 604.608 363.5 600.529 363.5 596.155L363.5 554.151C362.009 557.293 358.937 560.052 354.86 562.198C348.984 565.291 340.901 567.189 332 567.189ZM332 566.189C340.772 566.189 348.689 564.317 354.395 561.313C360.123 558.298 363.5 554.218 363.5 549.845C363.5 545.471 360.123 541.392 354.395 538.376C348.689 535.373 340.772 533.5 332 533.5C323.228 533.5 315.311 535.373 309.605 538.376C303.877 541.392 300.5 545.471 300.5 549.845C300.5 554.218 303.877 558.298 309.605 561.313C315.311 564.317 323.228 566.189 332 566.189ZM332 532.5C340.901 532.5 348.984 534.398 354.86 537.491C360.531 540.476 364.262 544.645 364.489 549.385L364.5 549.845L364.5 596.155C364.5 601.085 360.713 605.428 354.86 608.509C348.984 611.602 340.901 613.5 332 613.5C323.099 613.5 315.016 611.602 309.14 608.509C303.287 605.428 299.5 601.085 299.5 596.155L299.5 549.845C299.5 544.915 303.287 540.572 309.14 537.491C315.016 534.398 323.099 532.5 332 532.5Z" fill="black"/>
<path d="M332 233C387.228 233 432 257.074 432 286.772C432 316.469 387.228 340.543 332 340.543C276.772 340.543 232 316.469 232 286.772C232 257.074 276.772 233 332 233Z" fill="url(#paint22_linear_369_14725)"/>
<path d="M332 593C387.228 593 432 568.926 432 539.228L432 286.772C432 316.469 387.228 340.543 332 340.543C276.772 340.543 232 316.469 232 286.772L232 539.228C232 568.926 276.772 593 332 593Z" fill="url(#paint23_linear_369_14725)"/>
<path d="M332 341.043C304.32 341.043 279.235 335.011 261.053 325.234C246.034 317.158 235.646 306.477 232.5 294.471L232.5 539.229C232.5 553.805 243.496 567.115 261.526 576.811C279.537 586.495 304.452 592.5 332 592.5C359.548 592.5 384.463 586.495 402.474 576.811C420.504 567.115 431.5 553.805 431.5 539.229L431.5 294.471C428.354 306.477 417.966 317.158 402.947 325.234C384.765 335.011 359.68 341.043 332 341.043ZM332 340.043C359.548 340.043 384.463 334.038 402.474 324.354C420.504 314.658 431.5 301.348 431.5 286.771C431.5 272.195 420.504 258.885 402.474 249.189C384.463 239.505 359.548 233.5 332 233.5C304.452 233.5 279.537 239.505 261.526 249.189C243.496 258.885 232.5 272.195 232.5 286.771C232.5 301.348 243.495 314.658 261.526 324.354C279.537 334.038 304.452 340.043 332 340.043ZM332 232.5C359.68 232.5 384.765 238.532 402.947 248.309C420.826 257.922 432.142 271.228 432.491 286.064L432.5 286.771L432.5 539.229C432.5 554.35 421.109 567.925 402.947 577.691C384.765 587.468 359.68 593.5 332 593.5C304.32 593.5 279.235 587.468 261.053 577.691C242.891 567.925 231.5 554.35 231.5 539.229L231.5 286.771C231.5 271.65 242.891 258.075 261.053 248.309C279.235 238.532 304.32 232.5 332 232.5Z" fill="black"/>
<g filter="url(#filter0_f_369_14725)">
<path d="M252 369C252 324.817 287.817 289 332 289C376.183 289 412 324.817 412 369V489C412 533.183 376.183 569 332 569C287.817 569 252 533.183 252 489V369Z" fill="white"/>
</g>
<g filter="url(#filter1_f_369_14725)">
<path d="M302.484 518.518C298.923 521.171 294.803 522.973 290.439 523.787C286.075 524.601 281.583 524.406 277.307 523.215C273.03 522.025 269.082 519.871 265.765 516.919C262.447 513.967 259.849 510.295 258.168 506.183C256.487 502.072 255.768 497.63 256.066 493.197C256.364 488.765 257.671 484.459 259.887 480.61C262.103 476.761 265.17 473.47 268.853 470.99C272.535 468.509 276.736 466.904 281.133 466.298C280.664 461.554 281.252 456.766 282.856 452.277C284.459 447.789 287.038 443.712 290.406 440.341C293.774 436.971 297.847 434.39 302.333 432.785C306.818 431.181 311.603 430.592 316.343 431.062C317.867 427.483 320.409 424.432 323.652 422.288C326.895 420.143 330.696 419 334.583 419C338.47 419 342.271 420.143 345.514 422.288C348.757 424.432 351.299 427.483 352.823 431.062C357.57 430.406 362.405 430.864 366.944 432.4C371.484 433.936 375.604 436.507 378.979 439.912C382.355 443.316 384.892 447.46 386.391 452.015C387.89 456.57 388.309 461.412 387.616 466.157C392.119 467.01 396.366 468.886 400.031 471.639C403.695 474.393 406.68 477.951 408.755 482.041C410.829 486.13 411.939 490.641 411.998 495.227C412.056 499.813 411.063 504.351 409.094 508.492C407.125 512.634 404.233 516.268 400.64 519.115C397.047 521.962 392.85 523.946 388.37 524.914C383.891 525.883 379.249 525.81 374.802 524.701C370.356 523.592 366.222 521.477 362.721 518.518C359.106 523.037 354.523 526.685 349.31 529.192C344.096 531.698 338.386 533 332.602 533C326.818 533 321.109 531.698 315.895 529.192C310.682 526.685 306.098 523.037 302.484 518.518Z" fill="#FF4100"/>
</g>
<g filter="url(#filter2_f_369_14725)">
<path d="M365.516 435.518C369.077 438.171 373.197 439.973 377.561 440.787C381.925 441.601 386.417 441.406 390.693 440.215C394.97 439.025 398.918 436.871 402.235 433.919C405.553 430.967 408.151 427.295 409.832 423.183C411.513 419.072 412.232 414.63 411.934 410.197C411.636 405.765 410.329 401.459 408.113 397.61C405.897 393.761 402.83 390.47 399.147 387.99C395.465 385.509 391.264 383.904 386.867 383.298C387.336 378.554 386.748 373.766 385.144 369.277C383.541 364.789 380.962 360.712 377.594 357.341C374.226 353.971 370.153 351.39 365.667 349.785C361.182 348.181 356.397 347.592 351.657 348.062C350.133 344.483 347.591 341.432 344.348 339.288C341.105 337.143 337.304 336 333.417 336C329.53 336 325.729 337.143 322.486 339.288C319.243 341.432 316.701 344.483 315.177 348.062C310.43 347.406 305.595 347.864 301.056 349.4C296.516 350.936 292.396 353.507 289.021 356.912C285.645 360.316 283.108 364.46 281.609 369.015C280.11 373.57 279.691 378.412 280.384 383.157C275.881 384.01 271.634 385.886 267.969 388.639C264.305 391.393 261.32 394.951 259.245 399.041C257.171 403.13 256.061 407.641 256.002 412.227C255.944 416.813 256.937 421.351 258.906 425.492C260.875 429.634 263.767 433.268 267.36 436.115C270.953 438.962 275.15 440.946 279.63 441.914C284.109 442.883 288.751 442.81 293.198 441.701C297.644 440.592 301.778 438.477 305.279 435.518C308.894 440.037 313.477 443.685 318.69 446.192C323.904 448.698 329.614 450 335.398 450C341.182 450 346.891 448.698 352.105 446.192C357.318 443.685 361.902 440.037 365.516 435.518Z" fill="#FFEC16"/>
</g>
<path d="M332 534C339.18 534 345 537.017 345 540.738C345 544.459 339.18 547.476 332 547.476C324.82 547.476 319 544.459 319 540.738C319 537.017 324.82 534 332 534Z" fill="url(#paint24_linear_369_14725)"/>
<path d="M332 564C339.18 564 345 560.983 345 557.262L345 540.738C345 544.459 339.18 547.476 332 547.476C324.82 547.476 319 544.459 319 540.738L319 557.262C319 560.983 324.82 564 332 564Z" fill="url(#paint25_linear_369_14725)"/>
<path d="M332 547.976C328.347 547.976 325.014 547.209 322.577 545.946C321.292 545.28 320.222 544.452 319.5 543.501L319.5 557.262C319.5 558.84 320.745 560.395 323.038 561.583C325.306 562.758 328.474 563.5 332 563.5C335.526 563.5 338.694 562.758 340.962 561.583C343.255 560.395 344.5 558.84 344.5 557.262L344.5 543.501C343.778 544.452 342.708 545.28 341.423 545.946C338.986 547.209 335.653 547.976 332 547.976ZM332 546.976C335.526 546.976 338.694 546.234 340.962 545.059C343.255 543.87 344.5 542.317 344.5 540.738C344.5 539.16 343.255 537.605 340.962 536.417C338.694 535.242 335.526 534.5 332 534.5C328.474 534.5 325.306 535.242 323.038 536.417C320.745 537.605 319.5 539.16 319.5 540.738C319.5 542.317 320.745 543.87 323.038 545.059C325.306 546.234 328.474 546.976 332 546.976ZM332 533.5C335.653 533.5 338.986 534.266 341.423 535.529C343.759 536.74 345.395 538.482 345.495 540.538L345.5 540.738L345.5 557.262C345.5 559.404 343.835 561.22 341.423 562.471C338.986 563.734 335.653 564.5 332 564.5C328.347 564.5 325.014 563.734 322.577 562.471C320.165 561.22 318.5 559.404 318.5 557.262L318.5 540.738C318.5 538.596 320.165 536.78 322.577 535.529C325.014 534.266 328.347 533.5 332 533.5Z" fill="black"/>
<path d="M332 285C335.866 285 339 286.609 339 288.594C339 290.578 335.866 292.187 332 292.187C328.134 292.187 325 290.578 325 288.594C325 286.609 328.134 285 332 285Z" fill="url(#paint26_linear_369_14725)"/>
<path d="M332 543C335.866 543 339 541.391 339 539.406L339 288.594C339 290.578 335.866 292.187 332 292.187C328.134 292.187 325 290.578 325 288.594L325 539.406C325 541.391 328.134 543 332 543Z" fill="url(#paint27_linear_369_14725)"/>
<path d="M332 292.687C330.004 292.687 328.173 292.273 326.822 291.579C326.323 291.323 325.87 291.018 325.5 290.668L325.5 539.406C325.5 540.114 326.07 540.882 327.278 541.503C328.461 542.11 330.13 542.5 332 542.5C333.87 542.5 335.539 542.11 336.722 541.503C337.93 540.882 338.5 540.114 338.5 539.406L338.5 290.668C338.13 291.018 337.677 291.323 337.178 291.579C335.827 292.273 333.996 292.687 332 292.687ZM332 291.687C333.87 291.687 335.539 291.297 336.722 290.689C337.93 290.069 338.5 289.301 338.5 288.594C338.5 287.886 337.93 287.118 336.722 286.497C335.539 285.89 333.87 285.5 332 285.5C330.13 285.5 328.461 285.89 327.278 286.497C326.07 287.118 325.5 287.886 325.5 288.594C325.5 289.301 326.07 290.069 327.278 290.689C328.461 291.297 330.13 291.687 332 291.687ZM332 284.5C333.995 284.5 335.827 284.914 337.178 285.607C338.42 286.245 339.374 287.19 339.488 288.357L339.5 288.594L339.5 539.406C339.5 540.683 338.502 541.713 337.178 542.393C335.827 543.086 333.995 543.5 332 543.5C330.005 543.5 328.173 543.086 326.822 542.393C325.498 541.713 324.5 540.683 324.5 539.406L324.5 288.594C324.5 287.317 325.498 286.287 326.822 285.607C328.173 284.914 330.005 284.5 332 284.5Z" fill="black"/>
<path d="M332 341.043C304.32 341.043 279.235 335.011 261.053 325.234C246.034 317.158 235.646 306.477 232.5 294.471L232.5 539.229C232.5 553.805 243.496 567.115 261.526 576.811C279.537 586.495 304.452 592.5 332 592.5C359.548 592.5 384.463 586.495 402.474 576.811C420.504 567.115 431.5 553.805 431.5 539.229L431.5 294.471C428.354 306.477 417.966 317.158 402.947 325.234C384.765 335.011 359.68 341.043 332 341.043ZM332 340.043C359.548 340.043 384.463 334.038 402.474 324.354C420.504 314.658 431.5 301.348 431.5 286.771C431.5 272.195 420.504 258.885 402.474 249.189C384.463 239.505 359.548 233.5 332 233.5C304.452 233.5 279.537 239.505 261.526 249.189C243.496 258.885 232.5 272.195 232.5 286.771C232.5 301.348 243.495 314.658 261.526 324.354C279.537 334.038 304.452 340.043 332 340.043ZM332 232.5C359.68 232.5 384.765 238.532 402.947 248.309C420.826 257.922 432.142 271.228 432.491 286.064L432.5 286.771L432.5 539.229C432.5 554.35 421.109 567.925 402.947 577.691C384.765 587.468 359.68 593.5 332 593.5C304.32 593.5 279.235 587.468 261.053 577.691C242.891 567.925 231.5 554.35 231.5 539.229L231.5 286.771C231.5 271.65 242.891 258.075 261.053 248.309C279.235 238.532 304.32 232.5 332 232.5Z" fill="black"/>
<path d="M332 221C349.673 221 364 228.542 364 237.845C364 247.148 349.673 254.69 332 254.69C314.327 254.69 300 247.148 300 237.845C300 228.542 314.327 221 332 221Z" fill="url(#paint28_linear_369_14725)"/>
<path d="M332 301C349.673 301 364 293.458 364 284.155L364 237.845C364 247.148 349.673 254.69 332 254.69C314.327 254.69 300 247.148 300 237.845L300 284.155C300 293.458 314.327 301 332 301Z" fill="url(#paint29_linear_369_14725)"/>
<path d="M332 255.189C323.099 255.189 315.016 253.291 309.14 250.198C305.063 248.052 301.99 245.293 300.5 242.151L300.5 284.155C300.5 288.529 303.877 292.608 309.605 295.624C315.311 298.627 323.228 300.5 332 300.5C340.772 300.5 348.689 298.627 354.395 295.624C360.123 292.608 363.5 288.529 363.5 284.155L363.5 242.151C362.009 245.293 358.937 248.052 354.86 250.198C348.984 253.291 340.901 255.189 332 255.189ZM332 254.189C340.772 254.189 348.689 252.317 354.395 249.313C360.123 246.298 363.5 242.218 363.5 237.845C363.5 233.471 360.123 229.392 354.395 226.376C348.689 223.373 340.772 221.5 332 221.5C323.228 221.5 315.311 223.373 309.605 226.376C303.877 229.392 300.5 233.471 300.5 237.845C300.5 242.218 303.877 246.298 309.605 249.313C315.311 252.317 323.228 254.189 332 254.189ZM332 220.5C340.901 220.5 348.984 222.398 354.86 225.491C360.531 228.476 364.262 232.645 364.489 237.385L364.5 237.845L364.5 284.155C364.5 289.085 360.713 293.428 354.86 296.509C348.984 299.602 340.901 301.5 332 301.5C323.099 301.5 315.016 299.602 309.14 296.509C303.287 293.428 299.5 289.085 299.5 284.155L299.5 237.845C299.5 232.915 303.287 228.572 309.14 225.491C315.016 222.398 323.099 220.5 332 220.5Z" fill="black"/>
<path d="M364 366L361 368.5L363.752 368C363.916 367.345 364 366.677 364 366Z" fill="black"/>
<path d="M367 368.5L364 366C364 366.677 363.916 367.345 363.752 368L367 368.5Z" fill="black"/>
<path d="M332 382.5C323.103 382.5 315.023 380.698 309.149 377.761C303.305 374.839 299.5 370.71 299.5 366C299.5 365.724 299.724 365.5 300 365.5C300.276 365.5 300.5 365.724 300.5 366C300.5 370.127 303.858 373.997 309.596 376.866C315.304 379.72 323.224 381.5 332 381.5C340.102 381.5 347.477 379.983 353.055 377.503C358.273 375.182 361.825 372.063 363.037 368.639L359.222 369.331L364 365.35L368.703 369.268L364.114 368.562C362.908 372.545 358.961 375.971 353.461 378.417C347.734 380.964 340.217 382.5 332 382.5ZM365.297 367.732L364.439 367.018C364.417 367.208 364.388 367.398 364.353 367.587L365.297 367.732ZM363.335 367.567C363.364 367.426 363.389 367.285 363.41 367.143L362.778 367.669L363.335 367.567Z" fill="black"/>
<path d="M303 406L306 408.5L303.248 408C303.084 407.345 303 406.677 303 406Z" fill="black"/>
<path d="M300 408.5L303 406C303 406.677 303.084 407.345 303.248 408L300 408.5Z" fill="black"/>
<path d="M335 422.5C343.897 422.5 351.977 420.698 357.851 417.761C363.695 414.839 367.5 410.71 367.5 406C367.5 405.724 367.276 405.5 367 405.5C366.724 405.5 366.5 405.724 366.5 406C366.5 410.127 363.142 413.997 357.404 416.866C351.696 419.72 343.776 421.5 335 421.5C326.898 421.5 319.523 419.983 313.945 417.503C308.727 415.182 305.175 412.063 303.963 408.639L307.778 409.331L303 405.35L298.297 409.268L302.886 408.562C304.092 412.545 308.039 415.971 313.539 418.417C319.266 420.964 326.783 422.5 335 422.5ZM301.703 407.732L302.561 407.018C302.583 407.208 302.612 407.398 302.647 407.587L301.703 407.732ZM303.665 407.567C303.636 407.426 303.611 407.285 303.59 407.143L304.222 407.669L303.665 407.567Z" fill="black"/>
<path d="M364 446L361 448.5L363.752 448C363.916 447.345 364 446.677 364 446Z" fill="black"/>
<path d="M367 448.5L364 446C364 446.677 363.916 447.345 363.752 448L367 448.5Z" fill="black"/>
<path d="M332 462.5C323.103 462.5 315.023 460.698 309.149 457.761C303.305 454.839 299.5 450.71 299.5 446C299.5 445.724 299.724 445.5 300 445.5C300.276 445.5 300.5 445.724 300.5 446C300.5 450.127 303.858 453.997 309.596 456.866C315.304 459.72 323.224 461.5 332 461.5C340.102 461.5 347.477 459.983 353.055 457.503C358.273 455.182 361.825 452.063 363.037 448.639L359.222 449.331L364 445.35L368.703 449.268L364.114 448.562C362.908 452.545 358.961 455.971 353.461 458.417C347.734 460.964 340.217 462.5 332 462.5ZM365.297 447.732L364.439 447.018C364.417 447.208 364.388 447.398 364.353 447.587L365.297 447.732ZM363.335 447.567C363.364 447.426 363.389 447.285 363.41 447.143L362.778 447.669L363.335 447.567Z" fill="black"/>
<path d="M332 213C339.18 213 345 216.017 345 219.738C345 223.459 339.18 226.476 332 226.476C324.82 226.476 319 223.459 319 219.738C319 216.017 324.82 213 332 213Z" fill="url(#paint30_linear_369_14725)"/>
<path d="M332 243C339.18 243 345 239.983 345 236.262L345 219.738C345 223.459 339.18 226.476 332 226.476C324.82 226.476 319 223.459 319 219.738L319 236.262C319 239.983 324.82 243 332 243Z" fill="url(#paint31_linear_369_14725)"/>
<path d="M332 226.976C328.347 226.976 325.014 226.209 322.577 224.946C321.292 224.28 320.222 223.452 319.5 222.501L319.5 236.262C319.5 237.84 320.745 239.395 323.038 240.583C325.306 241.758 328.474 242.5 332 242.5C335.526 242.5 338.694 241.758 340.962 240.583C343.255 239.395 344.5 237.84 344.5 236.262L344.5 222.501C343.778 223.452 342.708 224.28 341.423 224.946C338.986 226.209 335.653 226.976 332 226.976ZM332 225.976C335.526 225.976 338.694 225.234 340.962 224.059C343.255 222.87 344.5 221.317 344.5 219.738C344.5 218.16 343.255 216.605 340.962 215.417C338.694 214.242 335.526 213.5 332 213.5C328.474 213.5 325.306 214.242 323.038 215.417C320.745 216.605 319.5 218.16 319.5 219.738C319.5 221.317 320.745 222.87 323.038 224.059C325.306 225.234 328.474 225.976 332 225.976ZM332 212.5C335.653 212.5 338.986 213.266 341.423 214.529C343.759 215.74 345.395 217.482 345.495 219.538L345.5 219.738L345.5 236.262C345.5 238.404 343.835 240.22 341.423 241.471C338.986 242.734 335.653 243.5 332 243.5C328.347 243.5 325.014 242.734 322.577 241.471C320.165 240.22 318.5 238.404 318.5 236.262L318.5 219.738C318.5 217.596 320.165 215.78 322.577 214.529C325.014 213.266 328.347 212.5 332 212.5Z" fill="black"/>
<path d="M332 207C335.866 207 339 208.609 339 210.594C339 212.578 335.866 214.187 332 214.187C328.134 214.187 325 212.578 325 210.594C325 208.609 328.134 207 332 207Z" fill="url(#paint32_linear_369_14725)"/>
<path d="M332 223C335.866 223 339 221.391 339 219.406L339 210.594C339 212.578 335.866 214.187 332 214.187C328.134 214.187 325 212.578 325 210.594L325 219.406C325 221.391 328.134 223 332 223Z" fill="url(#paint33_linear_369_14725)"/>
<path d="M332 214.687C330.004 214.687 328.173 214.273 326.822 213.579C326.323 213.323 325.87 213.018 325.5 212.668L325.5 219.406C325.5 220.114 326.07 220.882 327.278 221.503C328.461 222.11 330.13 222.5 332 222.5C333.87 222.5 335.539 222.11 336.722 221.503C337.93 220.882 338.5 220.114 338.5 219.406L338.5 212.668C338.13 213.018 337.677 213.323 337.178 213.579C335.827 214.273 333.996 214.687 332 214.687ZM332 213.687C333.87 213.687 335.539 213.297 336.722 212.689C337.93 212.069 338.5 211.301 338.5 210.594C338.5 209.886 337.93 209.118 336.722 208.497C335.539 207.89 333.87 207.5 332 207.5C330.13 207.5 328.461 207.89 327.278 208.497C326.07 209.118 325.5 209.886 325.5 210.594C325.5 211.301 326.07 212.069 327.278 212.689C328.461 213.297 330.13 213.687 332 213.687ZM332 206.5C333.995 206.5 335.827 206.914 337.178 207.607C338.42 208.245 339.374 209.19 339.488 210.357L339.5 210.594L339.5 219.406C339.5 220.683 338.502 221.713 337.178 222.393C335.827 223.086 333.995 223.5 332 223.5C330.005 223.5 328.173 223.086 326.822 222.393C325.498 221.713 324.5 220.683 324.5 219.406L324.5 210.594C324.5 209.317 325.498 208.287 326.822 207.607C328.173 206.914 330.005 206.5 332 206.5Z" fill="black"/>
<path d="M345 547.531C345 546.133 346.133 545 347.531 545H405C407.209 545 409 546.791 409 549C409 551.209 407.209 553 405 553H354.531C352.872 553 351.242 552.567 349.802 551.744L346.275 549.729C345.487 549.278 345 548.439 345 547.531Z" fill="url(#paint34_linear_369_14725)"/>
<path d="M344.5 547.531C344.5 545.857 345.857 544.5 347.531 544.5H405C407.485 544.5 409.5 546.515 409.5 549C409.5 551.485 407.485 553.5 405 553.5H354.531C352.786 553.5 351.07 553.045 349.555 552.179L346.027 550.163C345.083 549.623 344.5 548.619 344.5 547.531ZM345.5 547.531C345.5 548.26 345.891 548.933 346.523 549.295L350.051 551.311C351.415 552.09 352.96 552.5 354.531 552.5H405C406.933 552.5 408.5 550.933 408.5 549C408.5 547.067 406.933 545.5 405 545.5H347.531C346.409 545.5 345.5 546.409 345.5 547.531Z" fill="black"/>
<path d="M319 550.469C319 551.867 317.867 553 316.469 553H259C256.791 553 255 551.209 255 549C255 546.791 256.791 545 259 545H309.469C311.128 545 312.758 545.433 314.198 546.256L317.725 548.271C318.513 548.722 319 549.561 319 550.469Z" fill="url(#paint35_linear_369_14725)"/>
<path d="M319.5 550.469C319.5 552.143 318.143 553.5 316.469 553.5H259C256.515 553.5 254.5 551.485 254.5 549C254.5 546.515 256.515 544.5 259 544.5H309.469C311.214 544.5 312.93 544.955 314.445 545.821L317.973 547.837C318.917 548.377 319.5 549.381 319.5 550.469ZM318.5 550.469C318.5 549.74 318.109 549.067 317.477 548.705L313.949 546.689C312.585 545.91 311.04 545.5 309.469 545.5H259C257.067 545.5 255.5 547.067 255.5 549C255.5 550.933 257.067 552.5 259 552.5H316.469C317.591 552.5 318.5 551.591 318.5 550.469Z" fill="black"/>
<path d="M452 474C452 485.046 448.201 494 443.515 494C438.829 494 435.03 485.046 435.03 474C435.03 462.954 438.829 454 443.515 454C448.201 454 452 462.954 452 474Z" fill="url(#paint36_linear_369_14725)"/>
<path d="M420 474C420 485.046 423.799 494 428.485 494H443.515C438.829 494 435.03 485.046 435.03 474C435.03 462.954 438.829 454 443.515 454H428.485C423.799 454 420 462.954 420 474Z" fill="url(#paint37_linear_369_14725)"/>
<path d="M434.53 474C434.53 468.427 435.487 463.357 437.055 459.662C437.838 457.816 438.784 456.29 439.859 455.218C440.127 454.951 440.405 454.71 440.691 454.5H428.484C427.484 454.5 426.488 454.976 425.535 455.926C424.58 456.878 423.697 458.28 422.945 460.053C421.442 463.597 420.5 468.528 420.5 474C420.5 479.472 421.442 484.403 422.945 487.947C423.697 489.72 424.58 491.122 425.535 492.074C426.488 493.024 427.484 493.5 428.484 493.5H440.691C440.405 493.29 440.127 493.049 439.859 492.782C438.784 491.71 437.838 490.184 437.055 488.338C435.487 484.643 434.53 479.573 434.53 474ZM435.53 474C435.53 479.472 436.472 484.403 437.976 487.947C438.728 489.72 439.611 491.122 440.565 492.074C441.518 493.024 442.515 493.5 443.516 493.5C444.516 493.5 445.512 493.024 446.465 492.074C447.42 491.122 448.303 489.72 449.055 487.947C450.558 484.403 451.5 479.472 451.5 474C451.5 468.528 450.558 463.597 449.055 460.053C448.303 458.28 447.42 456.878 446.465 455.926C445.512 454.976 444.516 454.5 443.516 454.5C442.515 454.5 441.518 454.976 440.565 455.926C439.611 456.878 438.728 458.28 437.976 460.053C436.472 463.597 435.53 468.528 435.53 474ZM452.5 474C452.5 479.573 451.543 484.643 449.976 488.338C449.192 490.184 448.246 491.71 447.171 492.782C446.161 493.789 445.011 494.418 443.766 494.492L443.516 494.5H428.484C427.142 494.5 425.906 493.856 424.829 492.782C423.754 491.71 422.808 490.184 422.024 488.338C420.457 484.643 419.5 479.573 419.5 474C419.5 468.427 420.457 463.357 422.024 459.662C422.808 457.816 423.754 456.29 424.829 455.218C425.906 454.144 427.142 453.5 428.484 453.5H443.516C444.858 453.5 446.094 454.144 447.171 455.218C448.246 456.29 449.192 457.816 449.976 459.662C451.543 463.357 452.5 468.427 452.5 474Z" fill="black"/>
<path d="M328.5 208.083V210H327.5V208.083H328.5ZM328.5 202.333V206.167H327.5V202.333H328.5ZM328.5 196.583V200.417H327.5V196.583H328.5ZM328.5 190.833V194.667H327.5V190.833H328.5ZM328.5 185.083V188.917H327.5V185.083H328.5ZM328.5 179.333V183.167H327.5V179.333H328.5ZM328.5 173.583V177.417H327.5V173.583H328.5ZM328.5 167.833V171.667H327.5V167.833H328.5ZM328.5 162.083V165.917H327.5V162.083H328.5ZM328.5 156.333V160.167H327.5V156.333H328.5ZM328.5 150.583V154.417H327.5V150.583H328.5ZM328.5 144.833V148.667H327.5V144.833H328.5ZM328.5 140.5V142.917H327.5V141.5H326.061V140.5H328.5ZM265.939 140.5V141.5H264V140.5H265.939ZM271.758 140.5V141.5H267.879V140.5H271.758ZM277.576 140.5V141.5H273.697V140.5H277.576ZM283.394 140.5V141.5H279.516V140.5H283.394ZM289.212 140.5V141.5H285.333V140.5H289.212ZM295.03 140.5V141.5H291.151V140.5H295.03ZM300.849 140.5V141.5H296.97V140.5H300.849ZM306.667 140.5V141.5H302.788V140.5H306.667ZM312.484 140.5V141.5H308.606V140.5H312.484ZM318.303 140.5V141.5H314.424V140.5H318.303ZM324.121 140.5V141.5H320.242V140.5H324.121Z" fill="#FF4100"/>
<path d="M509 474L499 479.773V475H445V473H499V468.227L509 474Z" fill="#FF4100"/>
<path d="M335.5 208.083V210H336.5V208.083H335.5ZM335.5 202.333V206.167H336.5V202.333H335.5ZM335.5 196.583V200.417H336.5V196.583H335.5ZM335.5 190.833V194.667H336.5V190.833H335.5ZM335.5 185.083V188.917H336.5V185.083H335.5ZM335.5 179.333V183.167H336.5V179.333H335.5ZM335.5 173.583V177.417H336.5V173.583H335.5ZM335.5 167.833V171.667H336.5V167.833H335.5ZM335.5 162.083V165.917H336.5V162.083H335.5ZM335.5 156.333V160.167H336.5V156.333H335.5ZM335.5 150.583V154.417H336.5V150.583H335.5ZM335.5 144.833V148.667H336.5V144.833H335.5ZM335.5 140.5V142.917H336.5V141.5H337.939V140.5H335.5ZM398.061 140.5V141.5H400V140.5H398.061ZM392.242 140.5V141.5H396.121V140.5H392.242ZM386.424 140.5V141.5H390.303V140.5H386.424ZM380.606 140.5V141.5H384.484V140.5H380.606ZM374.788 140.5V141.5H378.667V140.5H374.788ZM368.97 140.5V141.5H372.849V140.5H368.97ZM363.151 140.5V141.5H367.03V140.5H363.151ZM357.333 140.5V141.5H361.212V140.5H357.333ZM351.516 140.5V141.5H355.394V140.5H351.516ZM345.697 140.5V141.5H349.576V140.5H345.697ZM339.879 140.5V141.5H343.758V140.5H339.879Z" fill="#FF4100"/>
<defs>
<filter id="filter0_f_369_14725" x="236" y="273" width="192" height="312" filterUnits="userSpaceOnUse" color-interpolation-filters="sRGB">
<feFlood flood-opacity="0" result="BackgroundImageFix"/>
<feBlend mode="normal" in="SourceGraphic" in2="BackgroundImageFix" result="shape"/>
<feGaussianBlur stdDeviation="8" result="effect1_foregroundBlur_369_14725"/>
</filter>
<filter id="filter1_f_369_14725" x="240" y="403" width="188" height="146" filterUnits="userSpaceOnUse" color-interpolation-filters="sRGB">
<feFlood flood-opacity="0" result="BackgroundImageFix"/>
<feBlend mode="normal" in="SourceGraphic" in2="BackgroundImageFix" result="shape"/>
<feGaussianBlur stdDeviation="8" result="effect1_foregroundBlur_369_14725"/>
</filter>
<filter id="filter2_f_369_14725" x="240" y="320" width="188" height="146" filterUnits="userSpaceOnUse" color-interpolation-filters="sRGB">
<feFlood flood-opacity="0" result="BackgroundImageFix"/>
<feBlend mode="normal" in="SourceGraphic" in2="BackgroundImageFix" result="shape"/>
<feGaussianBlur stdDeviation="8" result="effect1_foregroundBlur_369_14725"/>
</filter>
<linearGradient id="paint0_linear_369_14725" x1="209.57" y1="57.2863" x2="187.587" y2="161.442" gradientUnits="userSpaceOnUse">
<stop stop-color="#EEEEEE"/>
<stop offset="0.334842" stop-color="#E3E3E3"/>
<stop offset="0.751797" stop-color="#737B7F"/>
<stop offset="1" stop-color="#EEEEEE"/>
</linearGradient>
<linearGradient id="paint1_linear_369_14725" x1="180" y1="159" x2="180" y2="55" gradientUnits="userSpaceOnUse">
<stop stop-color="#343030"/>
<stop offset="0.115462" stop-color="#80868D"/>
<stop offset="0.212121" stop-color="#80868D"/>
<stop offset="0.541622" stop-color="white"/>
<stop offset="0.890909" stop-color="white"/>
<stop offset="1" stop-color="#B2B2B2"/>
</linearGradient>
<linearGradient id="paint2_linear_369_14725" x1="261.548" y1="129.528" x2="252.799" y2="151.083" gradientUnits="userSpaceOnUse">
<stop stop-color="#EEEEEE"/>
<stop offset="0.334842" stop-color="#E3E3E3"/>
<stop offset="0.751797" stop-color="#737B7F"/>
<stop offset="1" stop-color="#EEEEEE"/>
</linearGradient>
<linearGradient id="paint3_linear_369_14725" x1="258" y1="153" x2="258" y2="129" gradientUnits="userSpaceOnUse">
<stop stop-color="#343030"/>
<stop offset="0.115462" stop-color="#80868D"/>
<stop offset="0.212121" stop-color="#80868D"/>
<stop offset="0.541622" stop-color="white"/>
<stop offset="0.890909" stop-color="white"/>
<stop offset="1" stop-color="#B2B2B2"/>
</linearGradient>
<linearGradient id="paint4_linear_369_14725" x1="114.366" y1="148.528" x2="103.214" y2="166.845" gradientUnits="userSpaceOnUse">
<stop stop-color="#EEEEEE"/>
<stop offset="0.334842" stop-color="#E3E3E3"/>
<stop offset="0.751797" stop-color="#737B7F"/>
<stop offset="1" stop-color="#EEEEEE"/>
</linearGradient>
<linearGradient id="paint5_linear_369_14725" x1="114.366" y1="148.528" x2="103.214" y2="166.845" gradientUnits="userSpaceOnUse">
<stop stop-color="#EEEEEE"/>
<stop offset="0.334842" stop-color="#E3E3E3"/>
<stop offset="0.751797" stop-color="#737B7F"/>
<stop offset="1" stop-color="#EEEEEE"/>
</linearGradient>
<linearGradient id="paint6_linear_369_14725" x1="114.366" y1="148.528" x2="103.214" y2="166.845" gradientUnits="userSpaceOnUse">
<stop stop-color="#EEEEEE"/>
<stop offset="0.334842" stop-color="#E3E3E3"/>
<stop offset="0.751797" stop-color="#737B7F"/>
<stop offset="1" stop-color="#EEEEEE"/>
</linearGradient>
<linearGradient id="paint7_linear_369_14725" x1="218.366" y1="148.528" x2="207.214" y2="166.845" gradientUnits="userSpaceOnUse">
<stop stop-color="#EEEEEE"/>
<stop offset="0.334842" stop-color="#E3E3E3"/>
<stop offset="0.751797" stop-color="#737B7F"/>
<stop offset="1" stop-color="#EEEEEE"/>
</linearGradient>
<linearGradient id="paint8_linear_369_14725" x1="218.366" y1="148.528" x2="207.214" y2="166.845" gradientUnits="userSpaceOnUse">
<stop stop-color="#EEEEEE"/>
<stop offset="0.334842" stop-color="#E3E3E3"/>
<stop offset="0.751797" stop-color="#737B7F"/>
<stop offset="1" stop-color="#EEEEEE"/>
</linearGradient>
<linearGradient id="paint9_linear_369_14725" x1="218.366" y1="148.528" x2="207.214" y2="166.845" gradientUnits="userSpaceOnUse">
<stop stop-color="#EEEEEE"/>
<stop offset="0.334842" stop-color="#E3E3E3"/>
<stop offset="0.751797" stop-color="#737B7F"/>
<stop offset="1" stop-color="#EEEEEE"/>
</linearGradient>
<linearGradient id="paint10_linear_369_14725" x1="454.43" y1="57.2863" x2="476.413" y2="161.442" gradientUnits="userSpaceOnUse">
<stop stop-color="#EEEEEE"/>
<stop offset="0.334842" stop-color="#E3E3E3"/>
<stop offset="0.751797" stop-color="#737B7F"/>
<stop offset="1" stop-color="#EEEEEE"/>
</linearGradient>
<linearGradient id="paint11_linear_369_14725" x1="484" y1="159" x2="484" y2="55" gradientUnits="userSpaceOnUse">
<stop stop-color="#343030"/>
<stop offset="0.115462" stop-color="#80868D"/>
<stop offset="0.212121" stop-color="#80868D"/>
<stop offset="0.541622" stop-color="white"/>
<stop offset="0.890909" stop-color="white"/>
<stop offset="1" stop-color="#B2B2B2"/>
</linearGradient>
<linearGradient id="paint12_linear_369_14725" x1="402.452" y1="129.528" x2="411.201" y2="151.083" gradientUnits="userSpaceOnUse">
<stop stop-color="#EEEEEE"/>
<stop offset="0.334842" stop-color="#E3E3E3"/>
<stop offset="0.751797" stop-color="#737B7F"/>
<stop offset="1" stop-color="#EEEEEE"/>
</linearGradient>
<linearGradient id="paint13_linear_369_14725" x1="406" y1="153" x2="406" y2="129" gradientUnits="userSpaceOnUse">
<stop stop-color="#343030"/>
<stop offset="0.115462" stop-color="#80868D"/>
<stop offset="0.212121" stop-color="#80868D"/>
<stop offset="0.541622" stop-color="white"/>
<stop offset="0.890909" stop-color="white"/>
<stop offset="1" stop-color="#B2B2B2"/>
</linearGradient>
<linearGradient id="paint14_linear_369_14725" x1="549.634" y1="148.528" x2="560.786" y2="166.845" gradientUnits="userSpaceOnUse">
<stop stop-color="#EEEEEE"/>
<stop offset="0.334842" stop-color="#E3E3E3"/>
<stop offset="0.751797" stop-color="#737B7F"/>
<stop offset="1" stop-color="#EEEEEE"/>
</linearGradient>
<linearGradient id="paint15_linear_369_14725" x1="549.634" y1="148.528" x2="560.786" y2="166.845" gradientUnits="userSpaceOnUse">
<stop stop-color="#EEEEEE"/>
<stop offset="0.334842" stop-color="#E3E3E3"/>
<stop offset="0.751797" stop-color="#737B7F"/>
<stop offset="1" stop-color="#EEEEEE"/>
</linearGradient>
<linearGradient id="paint16_linear_369_14725" x1="549.634" y1="148.528" x2="560.786" y2="166.845" gradientUnits="userSpaceOnUse">
<stop stop-color="#EEEEEE"/>
<stop offset="0.334842" stop-color="#E3E3E3"/>
<stop offset="0.751797" stop-color="#737B7F"/>
<stop offset="1" stop-color="#EEEEEE"/>
</linearGradient>
<linearGradient id="paint17_linear_369_14725" x1="445.634" y1="148.528" x2="456.786" y2="166.845" gradientUnits="userSpaceOnUse">
<stop stop-color="#EEEEEE"/>
<stop offset="0.334842" stop-color="#E3E3E3"/>
<stop offset="0.751797" stop-color="#737B7F"/>
<stop offset="1" stop-color="#EEEEEE"/>
</linearGradient>
<linearGradient id="paint18_linear_369_14725" x1="445.634" y1="148.528" x2="456.786" y2="166.845" gradientUnits="userSpaceOnUse">
<stop stop-color="#EEEEEE"/>
<stop offset="0.334842" stop-color="#E3E3E3"/>
<stop offset="0.751797" stop-color="#737B7F"/>
<stop offset="1" stop-color="#EEEEEE"/>
</linearGradient>
<linearGradient id="paint19_linear_369_14725" x1="445.634" y1="148.528" x2="456.786" y2="166.845" gradientUnits="userSpaceOnUse">
<stop stop-color="#EEEEEE"/>
<stop offset="0.334842" stop-color="#E3E3E3"/>
<stop offset="0.751797" stop-color="#737B7F"/>
<stop offset="1" stop-color="#EEEEEE"/>
</linearGradient>
<linearGradient id="paint20_linear_369_14725" x1="301.407" y1="561.172" x2="361.972" y2="580.838" gradientUnits="userSpaceOnUse">
<stop stop-color="#EEEEEE"/>
<stop offset="0.334842" stop-color="#E3E3E3"/>
<stop offset="0.751797" stop-color="#737B7F"/>
<stop offset="1" stop-color="#EEEEEE"/>
</linearGradient>
<linearGradient id="paint21_linear_369_14725" x1="364" y1="573" x2="300" y2="573" gradientUnits="userSpaceOnUse">
<stop stop-color="#343030"/>
<stop offset="0.115462" stop-color="#80868D"/>
<stop offset="0.212121" stop-color="#80868D"/>
<stop offset="0.541622" stop-color="white"/>
<stop offset="0.890909" stop-color="white"/>
<stop offset="1" stop-color="#B2B2B2"/>
</linearGradient>
<linearGradient id="paint22_linear_369_14725" x1="236.397" y1="359.774" x2="435.495" y2="404.669" gradientUnits="userSpaceOnUse">
<stop stop-color="#EEEEEE"/>
<stop offset="0.334842" stop-color="#E3E3E3"/>
<stop offset="0.751797" stop-color="#737B7F"/>
<stop offset="1" stop-color="#EEEEEE"/>
</linearGradient>
<linearGradient id="paint23_linear_369_14725" x1="432" y1="413" x2="232" y2="413" gradientUnits="userSpaceOnUse">
<stop stop-color="#343030"/>
<stop offset="0.115462" stop-color="#80868D"/>
<stop offset="0.212121" stop-color="#80868D"/>
<stop offset="0.541622" stop-color="white"/>
<stop offset="0.890909" stop-color="white"/>
<stop offset="1" stop-color="#B2B2B2"/>
</linearGradient>
<linearGradient id="paint24_linear_369_14725" x1="319.572" y1="544.565" x2="343.775" y2="553.079" gradientUnits="userSpaceOnUse">
<stop stop-color="#EEEEEE"/>
<stop offset="0.334842" stop-color="#E3E3E3"/>
<stop offset="0.751797" stop-color="#737B7F"/>
<stop offset="1" stop-color="#EEEEEE"/>
</linearGradient>
<linearGradient id="paint25_linear_369_14725" x1="345" y1="549" x2="319" y2="549" gradientUnits="userSpaceOnUse">
<stop stop-color="#343030"/>
<stop offset="0.115462" stop-color="#80868D"/>
<stop offset="0.212121" stop-color="#80868D"/>
<stop offset="0.541622" stop-color="white"/>
<stop offset="0.890909" stop-color="white"/>
<stop offset="1" stop-color="#B2B2B2"/>
</linearGradient>
<linearGradient id="paint26_linear_369_14725" x1="325.308" y1="375.855" x2="339.946" y2="376.177" gradientUnits="userSpaceOnUse">
<stop stop-color="#EEEEEE"/>
<stop offset="0.334842" stop-color="#E3E3E3"/>
<stop offset="0.751797" stop-color="#737B7F"/>
<stop offset="1" stop-color="#EEEEEE"/>
</linearGradient>
<linearGradient id="paint27_linear_369_14725" x1="339" y1="414" x2="325" y2="414" gradientUnits="userSpaceOnUse">
<stop stop-color="#343030"/>
<stop offset="0.115462" stop-color="#80868D"/>
<stop offset="0.212121" stop-color="#80868D"/>
<stop offset="0.541622" stop-color="white"/>
<stop offset="0.890909" stop-color="white"/>
<stop offset="1" stop-color="#B2B2B2"/>
</linearGradient>
<linearGradient id="paint28_linear_369_14725" x1="301.407" y1="249.172" x2="361.972" y2="268.838" gradientUnits="userSpaceOnUse">
<stop stop-color="#EEEEEE"/>
<stop offset="0.334842" stop-color="#E3E3E3"/>
<stop offset="0.751797" stop-color="#737B7F"/>
<stop offset="1" stop-color="#EEEEEE"/>
</linearGradient>
<linearGradient id="paint29_linear_369_14725" x1="364" y1="261" x2="300" y2="261" gradientUnits="userSpaceOnUse">
<stop stop-color="#343030"/>
<stop offset="0.115462" stop-color="#80868D"/>
<stop offset="0.212121" stop-color="#80868D"/>
<stop offset="0.541622" stop-color="white"/>
<stop offset="0.890909" stop-color="white"/>
<stop offset="1" stop-color="#B2B2B2"/>
</linearGradient>
<linearGradient id="paint30_linear_369_14725" x1="319.572" y1="223.565" x2="343.775" y2="232.079" gradientUnits="userSpaceOnUse">
<stop stop-color="#EEEEEE"/>
<stop offset="0.334842" stop-color="#E3E3E3"/>
<stop offset="0.751797" stop-color="#737B7F"/>
<stop offset="1" stop-color="#EEEEEE"/>
</linearGradient>
<linearGradient id="paint31_linear_369_14725" x1="345" y1="228" x2="319" y2="228" gradientUnits="userSpaceOnUse">
<stop stop-color="#343030"/>
<stop offset="0.115462" stop-color="#80868D"/>
<stop offset="0.212121" stop-color="#80868D"/>
<stop offset="0.541622" stop-color="white"/>
<stop offset="0.890909" stop-color="white"/>
<stop offset="1" stop-color="#B2B2B2"/>
</linearGradient>
<linearGradient id="paint32_linear_369_14725" x1="325.308" y1="212.634" x2="338.313" y2="217.253" gradientUnits="userSpaceOnUse">
<stop stop-color="#EEEEEE"/>
<stop offset="0.334842" stop-color="#E3E3E3"/>
<stop offset="0.751797" stop-color="#737B7F"/>
<stop offset="1" stop-color="#EEEEEE"/>
</linearGradient>
<linearGradient id="paint33_linear_369_14725" x1="339" y1="215" x2="325" y2="215" gradientUnits="userSpaceOnUse">
<stop stop-color="#343030"/>
<stop offset="0.115462" stop-color="#80868D"/>
<stop offset="0.212121" stop-color="#80868D"/>
<stop offset="0.541622" stop-color="white"/>
<stop offset="0.890909" stop-color="white"/>
<stop offset="1" stop-color="#B2B2B2"/>
</linearGradient>
<linearGradient id="paint34_linear_369_14725" x1="378" y1="545" x2="378" y2="553" gradientUnits="userSpaceOnUse">
<stop stop-color="#EEEEEE"/>
<stop offset="0.334842" stop-color="#E3E3E3"/>
<stop offset="0.751797" stop-color="#737B7F"/>
<stop offset="1" stop-color="#EEEEEE"/>
</linearGradient>
<linearGradient id="paint35_linear_369_14725" x1="286" y1="553" x2="286" y2="545" gradientUnits="userSpaceOnUse">
<stop stop-color="#EEEEEE"/>
<stop offset="0.334842" stop-color="#E3E3E3"/>
<stop offset="0.751797" stop-color="#737B7F"/>
<stop offset="1" stop-color="#EEEEEE"/>
</linearGradient>
<linearGradient id="paint36_linear_369_14725" x1="440.731" y1="454.879" x2="423.847" y2="488.158" gradientUnits="userSpaceOnUse">
<stop stop-color="#EEEEEE"/>
<stop offset="0.334842" stop-color="#E3E3E3"/>
<stop offset="0.751797" stop-color="#737B7F"/>
<stop offset="1" stop-color="#EEEEEE"/>
</linearGradient>
<linearGradient id="paint37_linear_369_14725" x1="436" y1="494" x2="436" y2="454" gradientUnits="userSpaceOnUse">
<stop stop-color="#343030"/>
<stop offset="0.115462" stop-color="#80868D"/>
<stop offset="0.212121" stop-color="#80868D"/>
<stop offset="0.541622" stop-color="white"/>
<stop offset="0.890909" stop-color="white"/>
<stop offset="1" stop-color="#B2B2B2"/>
</linearGradient>
</defs>
</svg>
