<svg width="328" height="330" viewBox="0 0 328 330" fill="none" xmlns="http://www.w3.org/2000/svg">
<rect x="0.5" y="0.5" width="327" height="329" fill="#FAFAFA"/>
<rect x="0.5" y="0.5" width="327" height="329" stroke="#DFDFDF"/>
<path d="M315.651 0.24707V0.741082H327.26V12.3504H327.754V0.24707H315.651Z" fill="#FF4100"/>
<path d="M12.3485 329.753V329.259H0.74007V317.65H0.246094V329.753H12.3485Z" fill="#FF4100"/>
<path d="M315.651 329.753V329.259H327.26V317.65H327.754V329.753H315.651Z" fill="#FF4100"/>
<path opacity="0.08" d="M0 0H13.8313V13.8323H0V0Z" fill="#FF4100"/>
<path d="M5.92771 1.97605H3.95181V3.9521H5.92771V1.97605Z" fill="#FF4100"/>
<path d="M5.92771 5.92814V3.9521H3.95181V5.92814H5.92771Z" fill="#FF4100"/>
<path d="M9.87952 9.88024V7.90419H7.90361V9.88024H9.87952Z" fill="#FF4100"/>
<path d="M7.90361 3.9521V5.92814H9.87952V3.9521H7.90361Z" fill="#FF4100"/>
<path d="M9.87952 9.88024H7.90361V11.8563H9.87952V9.88024Z" fill="#FF4100"/>
<path d="M7.90361 5.92814H5.92771V7.90419H7.90361V5.92814Z" fill="#FF4100"/>
<path d="M7.90361 5.92814V7.90419H9.87952V5.92814H7.90361Z" fill="#FF4100"/>
<path d="M3.95181 5.92814V7.90419H5.92771V5.92814H3.95181Z" fill="#FF4100"/>
<path d="M75.0831 221.811C75.0831 249.095 69.2451 271.213 62.0435 271.213C54.8419 271.213 49.0038 249.095 49.0038 221.811C49.0038 194.528 54.8419 172.41 62.0435 172.41C69.2451 172.41 75.0831 194.528 75.0831 221.811Z" fill="url(#paint0_linear_370_17976)"/>
<path d="M19.7578 221.811C19.7578 249.095 25.5959 271.213 32.7974 271.213H62.0435C54.8419 271.213 49.0038 249.095 49.0038 221.811C49.0038 194.528 54.8419 172.41 62.0435 172.41H32.7974C25.5959 172.41 19.7578 194.528 19.7578 221.811Z" fill="url(#paint1_linear_370_17976)"/>
<path d="M48.7576 221.811C48.7576 208.155 50.2184 195.782 52.5849 186.817C53.7677 182.335 55.1805 178.691 56.7591 176.161C57.7972 174.498 58.9269 173.287 60.1321 172.657H32.7984C31.1327 172.657 29.4819 173.94 27.9325 176.423C26.391 178.893 24.9936 182.484 23.8166 186.942C21.4638 195.856 20.0057 208.184 20.0057 221.811C20.0057 235.438 21.4638 247.766 23.8166 256.68C24.9936 261.139 26.391 264.73 27.9325 267.2C29.4819 269.682 31.1327 270.965 32.7984 270.965H60.1321C58.9269 270.335 57.7972 269.125 56.7591 267.461C55.1805 264.931 53.7677 261.287 52.5849 256.806C50.2184 247.84 48.7576 235.468 48.7576 221.811ZM49.2516 221.811C49.2516 235.438 50.7101 247.766 53.063 256.68C54.2399 261.139 55.6369 264.73 57.1783 267.2C58.7278 269.682 60.3786 270.965 62.0443 270.965C63.71 270.965 65.3608 269.682 66.9102 267.2C68.4517 264.73 69.8492 261.139 71.0261 256.68C73.3789 247.766 74.837 235.438 74.837 221.811C74.837 208.184 73.3789 195.856 71.0261 186.942C69.8492 182.484 68.4517 178.893 66.9102 176.423C65.3608 173.94 63.71 172.657 62.0443 172.657C60.3786 172.657 58.7278 173.94 57.1783 176.423C55.6369 178.893 54.2399 182.484 53.063 186.942C50.7101 195.856 49.2516 208.184 49.2516 221.811ZM75.331 221.811C75.331 235.468 73.8702 247.84 71.5036 256.806C70.3209 261.287 68.9081 264.931 67.3295 267.461C65.8079 269.899 64.0904 271.366 62.2252 271.455L62.0443 271.46H32.7984C30.8633 271.46 29.0838 269.978 27.5133 267.461C25.9346 264.931 24.5219 261.287 23.3391 256.806C20.9725 247.84 19.5117 235.468 19.5117 221.811C19.5117 208.155 20.9725 195.782 23.3391 186.817C24.5219 182.335 25.9346 178.691 27.5133 176.161C29.0838 173.645 30.8633 172.163 32.7984 172.163H62.0443C63.9794 172.163 65.7589 173.645 67.3295 176.161C68.9081 178.691 70.3209 182.335 71.5036 186.817C73.8702 195.782 75.331 208.155 75.331 221.811Z" fill="black"/>
<path d="M153.352 171.312C153.352 173.21 152.599 174.933 151.376 176.197C151.322 176.253 151.267 176.308 151.211 176.362C149.947 177.585 148.224 178.338 146.326 178.338C142.446 178.338 139.301 175.193 139.301 171.312C139.301 169.441 140.032 167.741 141.224 166.482C141.313 166.389 141.403 166.298 141.496 166.21C141.639 166.075 141.787 165.946 141.94 165.823C143.142 164.861 144.667 164.286 146.326 164.286C150.206 164.286 153.352 167.432 153.352 171.312Z" fill="url(#paint2_linear_370_17976)"/>
<path d="M146.326 164.286C150.206 164.286 153.352 167.432 153.352 171.312C153.352 173.21 152.599 174.933 151.376 176.197L152.967 174.825C154.287 173.548 155.108 171.538 155.108 169.556C155.108 165.675 151.963 162.53 148.083 162.53C146.212 162.53 144.512 163.481 143.253 164.673L141.496 166.21C141.639 166.075 141.787 165.946 141.94 165.823C143.142 164.861 144.667 164.286 146.326 164.286Z" fill="url(#paint3_linear_370_17976)"/>
<path d="M153.106 171.312C153.105 167.568 150.071 164.533 146.327 164.533C144.826 164.533 143.44 165.021 142.317 165.846L142.096 166.016C142.084 166.026 142.072 166.036 142.06 166.046L141.667 166.389L141.4 166.656C140.252 167.871 139.549 169.509 139.549 171.312C139.549 175.056 142.584 178.091 146.327 178.091C148.159 178.091 149.82 177.365 151.04 176.185L151.202 176.022C152.381 174.803 153.106 173.142 153.106 171.312ZM153.599 171.312C153.599 172.517 153.306 173.654 152.787 174.655L152.8 174.644C154.066 173.416 154.862 171.474 154.862 169.556C154.862 165.812 151.827 162.777 148.083 162.777C146.497 162.777 145.025 163.494 143.853 164.471C144.625 164.192 145.459 164.039 146.327 164.039C150.344 164.039 153.599 167.295 153.599 171.312ZM155.356 169.556C155.356 171.6 154.512 173.675 153.14 175.003L153.129 175.012L151.544 176.378L151.383 176.54C150.075 177.806 148.292 178.585 146.327 178.585C142.311 178.585 139.055 175.329 139.055 171.312C139.055 169.375 139.812 167.615 141.046 166.312L141.185 166.169C141.232 166.122 141.279 166.076 141.327 166.031L141.553 165.826C141.611 165.775 141.67 165.727 141.729 165.678L143.091 164.487C144.378 163.271 146.132 162.283 148.083 162.283C152.1 162.283 155.356 165.539 155.356 169.556Z" fill="black"/>
<path d="M183.211 140.574C183.211 144.37 181.706 147.815 179.259 150.344C179.151 150.455 179.041 150.565 178.929 150.673C176.401 153.12 172.956 154.626 169.16 154.626C161.4 154.626 155.109 148.334 155.109 140.574C155.109 136.832 156.572 133.431 158.957 130.913C159.133 130.727 159.314 130.546 159.5 130.369C159.785 130.099 160.082 129.841 160.389 129.596C162.793 127.672 165.842 126.522 169.16 126.522C176.92 126.522 183.211 132.813 183.211 140.574Z" fill="url(#paint4_linear_370_17976)"/>
<path d="M169.16 126.522C176.92 126.522 183.211 132.813 183.211 140.574C183.211 144.37 181.706 147.815 179.259 150.344L182.442 147.6C185.082 145.045 186.724 141.025 186.724 137.061C186.724 129.3 180.433 123.009 172.673 123.009C168.931 123.009 165.531 124.911 163.013 127.295L159.5 130.369C159.785 130.099 160.082 129.841 160.389 129.596C162.793 127.672 165.842 126.522 169.16 126.522Z" fill="url(#paint5_linear_370_17976)"/>
<path d="M182.965 140.574C182.965 132.95 176.785 126.769 169.161 126.769C166.003 126.769 163.093 127.83 160.767 129.614L160.544 129.789C160.522 129.806 160.501 129.824 160.479 129.841L159.671 130.549L159.137 131.083L158.92 131.318C156.705 133.766 155.357 137.013 155.357 140.574C155.357 148.198 161.537 154.379 169.161 154.379C172.891 154.379 176.274 152.9 178.758 150.496L179.085 150.169C181.487 147.685 182.965 144.302 182.965 140.574ZM183.459 140.574C183.459 143.469 182.598 146.163 181.119 148.415L182.271 147.422C184.86 144.917 186.478 140.963 186.478 137.061C186.478 129.437 180.298 123.256 172.674 123.256C169.016 123.256 165.673 125.117 163.184 127.475L163.18 127.478L162.919 127.707C164.806 126.79 166.923 126.275 169.161 126.275C177.058 126.275 183.459 132.677 183.459 140.574ZM186.972 137.061C186.972 141.087 185.307 145.173 182.615 147.777L182.61 147.783L182.604 147.787L179.427 150.527C179.375 150.58 179.323 150.633 179.271 150.685L179.102 150.851C176.529 153.341 173.024 154.873 169.161 154.873C161.265 154.873 154.863 148.471 154.863 140.574C154.863 136.766 156.352 133.306 158.778 130.744L158.783 130.739C158.961 130.551 159.144 130.368 159.331 130.19L159.551 129.987C159.75 129.806 159.954 129.632 160.163 129.462L162.851 127.11C165.397 124.701 168.852 122.762 172.674 122.762C180.57 122.762 186.972 129.164 186.972 137.061Z" fill="black"/>
<path d="M169.417 125C177.33 125 184.748 131.307 184.748 139.311H183.76C183.76 131.941 176.877 125.988 169.417 125.988C165.532 125.988 161.893 127.721 159.385 130.528C156.872 133.341 156.477 137.366 156.249 141.353L154.827 166.251C154.404 173.646 148.749 179.68 141.397 180.579L62.7954 190.191L62.6758 189.21L141.277 179.598C148.155 178.757 153.445 173.113 153.84 166.195L155.263 141.296C155.488 137.358 155.873 132.976 158.648 129.87C161.335 126.863 165.237 125 169.417 125Z" fill="#FF4100"/>
<path d="M169.416 125C177.33 125 184.748 131.307 184.748 139.311H183.76C183.76 131.941 176.877 125.988 169.416 125.988C165.634 125.988 162.085 127.631 159.585 130.309L159.347 130.571C156.871 133.366 156.474 137.347 156.239 141.294L154.748 166.344C154.36 172.863 149.88 178.419 143.592 180.18L59.4108 203.762L59.1445 202.81L143.325 179.229C149.208 177.581 153.399 172.383 153.762 166.285L155.252 141.235C155.484 137.336 155.872 133.003 158.607 129.916L158.863 129.635C161.541 126.766 165.347 125 169.416 125Z" fill="#FF4100"/>
<path d="M169.414 125C177.328 125 184.745 131.307 184.745 139.311H183.757C183.757 131.941 176.875 125.988 169.414 125.988C165.485 125.988 161.808 127.761 159.297 130.625C157.018 133.225 156.525 136.837 156.271 140.489L156.223 141.22L154.603 167.148C154.289 172.171 151.527 176.719 147.215 179.314L68.9157 226.434L68.4062 225.587L146.706 178.468C150.74 176.04 153.323 171.785 153.617 167.086L155.237 141.158L155.285 140.432C155.536 136.779 156.037 132.845 158.554 129.973C161.244 126.906 165.187 125 169.414 125Z" fill="#FF4100"/>
<path d="M169.414 125C177.328 125 184.745 131.307 184.745 139.311H183.758C183.758 131.941 176.875 125.988 169.414 125.988C165.605 125.988 162.032 127.654 159.53 130.366L159.291 130.632C156.866 133.402 156.466 137.32 156.222 141.21L154.557 167.689C154.269 172.253 151.958 176.45 148.253 179.132L59.0711 243.701L58.4922 242.901L147.674 178.332C151.139 175.823 153.302 171.896 153.57 167.626L155.236 141.148C155.477 137.305 155.87 133.041 158.548 129.981L158.804 129.696C161.484 126.791 165.316 125 169.414 125Z" fill="#FF4100"/>
<path d="M169.415 125C177.329 125 184.746 131.307 184.746 139.311H183.758C183.758 131.941 176.876 125.988 169.415 125.988C165.535 125.988 161.901 127.717 159.392 130.519C156.871 133.335 156.477 137.37 156.251 141.366L154.701 168.741C154.479 172.668 152.754 176.359 149.885 179.049L63.566 259.964L62.8906 259.243L149.209 178.328C151.893 175.812 153.507 172.359 153.715 168.685L155.264 141.31C155.488 137.363 155.872 132.97 158.656 129.86C161.343 126.859 165.24 125 169.415 125Z" fill="#FF4100"/>
<path d="M233.652 181.055C233.652 168.353 223.684 158.084 211.423 158.084C206.341 158.084 201.657 159.845 197.912 162.813L197.552 163.104C197.07 163.502 196.603 163.921 196.155 164.358L196.156 164.359L195.285 165.257L194.936 165.647C191.368 169.721 189.194 175.124 189.194 181.055C189.194 193.757 199.161 204.027 211.423 204.027C217.423 204.027 222.87 201.57 226.872 197.572L227.4 197.027C231.269 192.894 233.652 187.264 233.652 181.055ZM234.639 181.055C234.639 187.321 232.308 193.028 228.489 197.299L228.115 197.708C228.026 197.803 227.936 197.898 227.845 197.992L227.57 198.271C223.394 202.443 217.7 205.015 211.423 205.015C198.594 205.015 188.219 194.287 188.206 181.081L183.763 139.363L183.76 139.337V139.311C183.76 131.941 176.878 125.988 169.417 125.988C165.62 125.988 162.058 127.644 159.557 130.34L159.318 130.604C156.869 133.386 156.471 137.333 156.231 141.248L154.667 166.743C154.32 172.406 150.87 177.413 145.702 179.755L61.705 217.815L61.2969 216.915L145.294 178.855C150.129 176.664 153.356 171.98 153.681 166.683L155.245 141.188C155.482 137.319 155.872 133.023 158.576 129.951L158.832 129.668C161.511 126.78 165.331 125 169.417 125C177.321 125 184.73 131.291 184.747 139.282L188.681 176.216C189.565 171.767 191.643 167.767 194.557 164.589L194.777 164.353C194.999 164.118 195.225 163.887 195.455 163.662L195.812 163.32C196.172 162.982 196.542 162.656 196.923 162.342L197.298 162.038C201.21 158.94 206.107 157.096 211.423 157.096C224.26 157.096 234.639 167.838 234.639 181.055Z" fill="#FF4100"/>
<path d="M183.211 140.574C183.211 144.37 181.706 147.815 179.259 150.344C179.151 150.456 179.041 150.566 178.929 150.674C176.401 153.12 172.956 154.626 169.16 154.626C161.4 154.626 155.109 148.335 155.109 140.574C155.109 136.832 156.572 133.431 158.957 130.913C159.133 130.727 159.314 130.546 159.5 130.37C159.785 130.1 160.082 129.841 160.389 129.596C162.793 127.672 165.842 126.522 169.16 126.522C176.92 126.522 183.211 132.813 183.211 140.574Z" fill="url(#paint6_linear_370_17976)"/>
<path d="M182.965 140.574C182.965 132.95 176.785 126.769 169.161 126.769C166.003 126.769 163.093 127.829 160.767 129.614L160.544 129.788C160.242 130.03 159.951 130.284 159.671 130.549L159.137 131.083L158.92 131.317C156.705 133.766 155.357 137.012 155.357 140.574C155.357 148.198 161.537 154.379 169.161 154.379C172.891 154.379 176.274 152.9 178.758 150.496L179.085 150.169C181.487 147.685 182.965 144.302 182.965 140.574ZM183.459 140.574C183.459 144.316 182.021 147.723 179.668 150.272L179.438 150.515C179.383 150.572 179.327 150.629 179.271 150.685L179.102 150.851C176.529 153.34 173.024 154.873 169.161 154.873C161.265 154.873 154.863 148.471 154.863 140.574C154.863 136.766 156.352 133.305 158.778 130.743L158.783 130.738C158.961 130.551 159.144 130.368 159.331 130.19L159.551 129.986C159.773 129.785 160.001 129.59 160.235 129.403L160.466 129.222C162.875 127.373 165.89 126.275 169.161 126.275C177.058 126.275 183.459 132.677 183.459 140.574Z" fill="black"/>
<path d="M232.388 183.169C232.388 189.338 229.942 194.936 225.966 199.045C225.791 199.227 225.612 199.405 225.43 199.581C221.321 203.557 215.724 206.003 209.555 206.003C196.945 206.003 186.723 195.78 186.723 183.169C186.723 177.088 189.099 171.562 192.975 167.47C193.261 167.168 193.555 166.873 193.858 166.587C194.321 166.148 194.803 165.729 195.301 165.33C199.208 162.204 204.163 160.335 209.555 160.335C222.165 160.335 232.388 170.558 232.388 183.169Z" fill="url(#paint7_linear_370_17976)"/>
<path d="M209.555 160.335C222.165 160.335 232.388 170.558 232.388 183.169C232.388 189.338 229.942 194.936 225.966 199.045L231.138 194.586C235.429 190.435 238.096 183.902 238.096 177.46C238.096 164.849 227.874 154.626 215.263 154.626C209.183 154.626 203.658 157.716 199.566 161.592L193.858 166.587C194.321 166.148 194.803 165.729 195.301 165.33C199.208 162.204 204.163 160.335 209.555 160.335Z" fill="url(#paint8_linear_370_17976)"/>
<path d="M232.142 183.169C232.142 170.694 222.03 160.582 209.556 160.582C204.389 160.582 199.628 162.317 195.822 165.236L195.456 165.522C195.424 165.548 195.393 165.574 195.361 165.6L194.029 166.765L193.155 167.64L192.8 168.024C189.177 172.03 186.971 177.341 186.971 183.169C186.971 195.643 197.083 205.756 209.556 205.756C215.658 205.756 221.195 203.336 225.259 199.403L225.793 198.87C229.724 194.806 232.142 189.27 232.142 183.169ZM232.636 183.169C232.636 188.279 230.974 193.001 228.163 196.825L230.975 194.401C235.209 190.299 237.85 183.837 237.85 177.46C237.85 164.986 227.738 154.873 215.264 154.873C209.268 154.873 203.8 157.923 199.737 161.771L199.733 161.775L199.729 161.778L198.343 162.99C201.663 161.141 205.487 160.088 209.556 160.088C222.303 160.088 232.636 170.421 232.636 183.169ZM238.344 177.46C238.344 183.964 235.653 190.562 231.311 194.763L231.301 194.773L226.139 199.222C226.052 199.312 225.964 199.401 225.876 199.49L225.603 199.759C221.45 203.777 215.792 206.25 209.556 206.25C196.81 206.25 186.477 195.916 186.477 183.169C186.477 177.022 188.879 171.436 192.796 167.3L193.015 167.073C193.235 166.846 193.46 166.625 193.689 166.407L194.043 166.078C194.368 165.784 194.701 165.499 195.041 165.224L199.397 161.412C203.517 157.51 209.1 154.379 215.264 154.379C228.011 154.379 238.344 164.713 238.344 177.46Z" fill="black"/>
<path d="M235.131 180.561C235.131 168.157 224.857 158.084 212.161 158.084C206.903 158.084 202.06 159.812 198.189 162.718L197.818 163.004C197.317 163.395 196.834 163.807 196.369 164.238L195.468 165.121C191.575 169.15 189.191 174.583 189.191 180.561C189.191 192.965 199.465 203.039 212.161 203.039C218.367 203.039 223.997 200.631 228.129 196.719L228.68 196.18C232.675 192.134 235.131 186.628 235.131 180.561ZM236.119 180.561C236.119 186.706 233.707 192.298 229.763 196.48L229.377 196.88C229.2 197.059 229.019 197.236 228.836 197.409L228.82 197.425L228.82 197.425L228.814 197.431C224.503 201.515 218.63 204.027 212.161 204.027C198.939 204.027 188.203 193.531 188.203 180.561C188.203 174.309 190.7 168.629 194.767 164.425L194.994 164.193C195.222 163.963 195.456 163.738 195.694 163.517L196.062 163.183C196.434 162.853 196.816 162.533 197.209 162.226L197.596 161.929C201.633 158.897 206.683 157.096 212.161 157.096C225.383 157.096 236.119 167.592 236.119 180.561Z" fill="#FF4100"/>
<path d="M233.649 181.302C233.649 169.308 223.707 159.566 211.42 159.566C206.331 159.566 201.644 161.237 197.898 164.048L197.539 164.323C197.055 164.702 196.587 165.1 196.137 165.517L195.264 166.372C191.498 170.267 189.191 175.522 189.191 181.302C189.191 193.297 199.133 203.039 211.42 203.039C217.429 203.039 222.879 200.708 226.879 196.921L227.407 196.405C231.273 192.493 233.649 187.169 233.649 181.302ZM234.637 181.302C234.637 187.253 232.299 192.669 228.478 196.718L228.103 197.106C228.014 197.196 227.924 197.286 227.833 197.374L227.558 197.639C223.38 201.594 217.689 204.027 211.42 204.027C198.608 204.027 188.203 193.863 188.203 181.302C188.203 175.247 190.623 169.746 194.564 165.675L194.784 165.451C195.006 165.228 195.232 165.01 195.462 164.796L195.819 164.472C196.179 164.152 196.55 163.843 196.93 163.546L197.305 163.258C201.218 160.322 206.112 158.578 211.42 158.578C224.232 158.578 234.637 168.742 234.637 181.302Z" fill="#FF4100"/>
<path d="M304.782 204.521C306.692 204.521 308.24 205.316 308.24 206.296C308.24 207.277 306.692 208.072 304.782 208.072C302.872 208.072 301.324 207.277 301.324 206.296C301.324 205.316 302.872 204.521 304.782 204.521Z" fill="url(#paint9_linear_370_17976)"/>
<path d="M304.782 253.922C306.692 253.922 308.24 253.128 308.24 252.147L308.24 206.296C308.24 207.277 306.692 208.072 304.782 208.072C302.872 208.072 301.324 207.277 301.324 206.296L301.324 252.147C301.324 253.128 302.872 253.922 304.782 253.922Z" fill="url(#paint10_linear_370_17976)"/>
<path d="M304.783 208.318C303.797 208.318 302.893 208.113 302.225 207.771C301.979 207.644 301.755 207.494 301.572 207.321L301.572 252.147C301.572 252.496 301.853 252.876 302.451 253.182C303.035 253.482 303.859 253.675 304.783 253.675C305.707 253.675 306.531 253.482 307.115 253.182C307.712 252.876 307.994 252.496 307.994 252.147L307.994 207.321C307.811 207.494 307.587 207.644 307.341 207.771C306.673 208.113 305.769 208.318 304.783 208.318ZM304.783 207.824C305.707 207.824 306.531 207.631 307.115 207.331C307.712 207.025 307.994 206.646 307.994 206.296C307.994 205.946 307.712 205.567 307.115 205.26C306.531 204.96 305.707 204.768 304.783 204.768C303.859 204.768 303.035 204.96 302.451 205.26C301.853 205.567 301.572 205.946 301.572 206.296C301.572 206.646 301.854 207.025 302.451 207.331C303.035 207.631 303.859 207.824 304.783 207.824ZM304.783 204.274C305.769 204.274 306.673 204.478 307.341 204.821C307.954 205.136 308.426 205.602 308.482 206.179L308.488 206.296L308.488 252.147C308.488 252.777 307.995 253.286 307.341 253.622C306.673 253.964 305.769 254.169 304.783 254.169C303.797 254.169 302.893 253.964 302.225 253.622C301.571 253.286 301.078 252.777 301.078 252.147L301.078 206.296C301.078 205.665 301.571 205.157 302.225 204.821C302.893 204.478 303.797 204.274 304.783 204.274Z" fill="black"/>
<path d="M304.784 101.766C312.423 101.766 318.616 104.977 318.616 108.938C318.616 112.899 312.423 116.111 304.784 116.111C297.146 116.111 290.953 112.899 290.953 108.938C290.953 104.977 297.146 101.766 304.784 101.766Z" fill="#FFF15E"/>
<path d="M304.784 228.233C312.423 228.233 318.616 225.022 318.616 221.061L318.616 108.938C318.616 112.899 312.423 116.111 304.784 116.111C297.146 116.111 290.953 112.899 290.953 108.938L290.953 221.061C290.953 225.022 297.146 228.233 304.784 228.233Z" fill="#FFF15E"/>
<path d="M304.781 116.358C300.931 116.358 297.432 115.549 294.887 114.229C293.175 113.341 291.866 112.204 291.197 110.905L291.197 221.061C291.197 222.902 292.642 224.631 295.115 225.913C297.576 227.19 300.993 227.986 304.781 227.986C308.569 227.986 311.987 227.19 314.448 225.913C316.921 224.631 318.366 222.902 318.366 221.061L318.366 110.905C317.697 112.204 316.388 113.341 314.675 114.229C312.131 115.549 308.632 116.358 304.781 116.358ZM304.781 115.864C308.569 115.864 311.987 115.067 314.448 113.791C316.921 112.508 318.366 110.78 318.366 108.938C318.366 107.097 316.921 105.369 314.448 104.086C311.987 102.81 308.569 102.013 304.781 102.013C300.993 102.013 297.576 102.81 295.115 104.086C292.642 105.369 291.197 107.097 291.197 108.938C291.197 110.78 292.642 112.508 295.115 113.791C297.576 115.067 300.993 115.864 304.781 115.864ZM304.781 101.519C308.632 101.519 312.131 102.328 314.675 103.648C317.129 104.92 318.756 106.703 318.855 108.74L318.86 108.938L318.86 221.061C318.86 223.181 317.208 225.039 314.675 226.352C312.131 227.672 308.632 228.48 304.781 228.48C300.931 228.48 297.432 227.672 294.887 226.352C292.355 225.039 290.703 223.181 290.703 221.061L290.703 108.938C290.703 106.819 292.355 104.961 294.887 103.648C297.432 102.328 300.931 101.519 304.781 101.519Z" fill="black"/>
<g filter="url(#filter0_i_370_17976)">
<path d="M290.952 118.555C291.745 119.345 292.734 120.039 293.84 120.619C296.691 122.114 300.562 123.009 304.784 123.009C309.005 123.009 312.876 122.114 315.727 120.619C316.834 120.039 317.822 119.345 318.615 118.555V114.267C318.615 115.88 317.352 117.565 314.798 118.905C312.286 120.222 308.747 121.067 304.784 121.067C300.821 121.067 297.282 120.222 294.77 118.905C292.215 117.565 290.952 115.88 290.952 114.267V118.555Z" fill="#FF4100"/>
<path fill-rule="evenodd" clip-rule="evenodd" d="M290.952 118.555V114.267V109.98C289.732 111.196 288.977 112.643 288.977 114.267C288.977 115.891 289.732 117.338 290.952 118.555ZM318.615 109.98V114.267V118.555C319.835 117.338 320.591 115.891 320.591 114.267C320.591 112.643 319.835 111.196 318.615 109.98Z" fill="#FF4100"/>
</g>
<g filter="url(#filter1_i_370_17976)">
<path d="M290.952 121.025C291.745 121.815 292.734 122.508 293.84 123.089C296.691 124.584 300.562 125.479 304.784 125.479C309.005 125.479 312.876 124.584 315.727 123.089C316.834 122.508 317.822 121.815 318.615 121.025V116.737C318.615 118.35 317.352 120.035 314.798 121.375C312.286 122.692 308.747 123.536 304.784 123.536C300.821 123.536 297.282 122.692 294.77 121.375C292.215 120.035 290.952 118.35 290.952 116.737V121.025Z" fill="#FF4100"/>
<path fill-rule="evenodd" clip-rule="evenodd" d="M290.952 121.025V116.737V112.449C289.732 113.666 288.977 115.113 288.977 116.737C288.977 118.361 289.732 119.808 290.952 121.025ZM318.615 112.449V116.737V121.025C319.835 119.808 320.591 118.361 320.591 116.737C320.591 115.113 319.835 113.666 318.615 112.449Z" fill="#FF4100"/>
</g>
<g filter="url(#filter2_i_370_17976)">
<path d="M290.952 123.495C291.745 124.285 292.734 124.979 293.84 125.559C296.691 127.054 300.562 127.949 304.784 127.949C309.005 127.949 312.876 127.054 315.727 125.559C316.834 124.979 317.822 124.285 318.615 123.495V119.207C318.615 120.82 317.352 122.505 314.798 123.845C312.286 125.162 308.747 126.006 304.784 126.006C300.821 126.006 297.282 125.162 294.77 123.845C292.215 122.505 290.952 120.82 290.952 119.207V123.495Z" fill="#FF4100"/>
<path fill-rule="evenodd" clip-rule="evenodd" d="M290.952 123.495V119.207V114.92C289.732 116.136 288.977 117.583 288.977 119.207C288.977 120.831 289.732 122.278 290.952 123.495ZM318.615 114.92V119.207V123.495C319.835 122.278 320.591 120.831 320.591 119.207C320.591 117.583 319.835 116.136 318.615 114.92Z" fill="#FF4100"/>
</g>
<g filter="url(#filter3_i_370_17976)">
<path d="M290.952 125.965C291.745 126.755 292.734 127.449 293.84 128.029C296.691 129.524 300.562 130.419 304.784 130.419C309.005 130.419 312.876 129.524 315.727 128.029C316.834 127.449 317.822 126.755 318.615 125.965V121.678C318.615 123.29 317.352 124.975 314.798 126.315C312.286 127.632 308.747 128.477 304.784 128.477C300.821 128.477 297.282 127.632 294.77 126.315C292.215 124.975 290.952 123.29 290.952 121.678V125.965Z" fill="#FF4100"/>
<path fill-rule="evenodd" clip-rule="evenodd" d="M290.952 125.965V121.678V117.39C289.732 118.606 288.977 120.054 288.977 121.678C288.977 123.302 289.732 124.749 290.952 125.965ZM318.615 117.39V121.678V125.965C319.835 124.749 320.591 123.302 320.591 121.678C320.591 120.054 319.835 118.606 318.615 117.39Z" fill="#FF4100"/>
</g>
<g filter="url(#filter4_i_370_17976)">
<path d="M290.952 128.435C291.745 129.225 292.734 129.919 293.84 130.499C296.691 131.994 300.562 132.889 304.784 132.889C309.005 132.889 312.876 131.994 315.727 130.499C316.834 129.919 317.822 129.225 318.615 128.435V124.147C318.615 125.76 317.352 127.445 314.798 128.785C312.286 130.102 308.747 130.946 304.784 130.946C300.821 130.946 297.282 130.102 294.77 128.785C292.215 127.445 290.952 125.76 290.952 124.147V128.435Z" fill="#FF4100"/>
<path fill-rule="evenodd" clip-rule="evenodd" d="M290.952 128.435V124.147V119.86C289.732 121.076 288.977 122.523 288.977 124.147C288.977 125.771 289.732 127.218 290.952 128.435ZM318.615 119.86V124.147V128.435C319.835 127.218 320.591 125.771 320.591 124.147C320.591 122.523 319.835 121.076 318.615 119.86Z" fill="#FF4100"/>
</g>
<g filter="url(#filter5_i_370_17976)">
<path d="M290.952 130.905C291.745 131.695 292.734 132.389 293.84 132.969C296.691 134.464 300.562 135.359 304.784 135.359C309.005 135.359 312.876 134.464 315.727 132.969C316.834 132.389 317.822 131.695 318.615 130.905V126.618C318.615 128.23 317.352 129.915 314.798 131.255C312.286 132.572 308.747 133.417 304.784 133.417C300.821 133.417 297.282 132.572 294.77 131.255C292.215 129.915 290.952 128.23 290.952 126.618V130.905Z" fill="#FF4100"/>
<path fill-rule="evenodd" clip-rule="evenodd" d="M290.952 130.905V126.618V122.33C289.732 123.546 288.977 124.994 288.977 126.618C288.977 128.241 289.732 129.688 290.952 130.905ZM318.615 122.33V126.618V130.905C319.835 129.688 320.591 128.241 320.591 126.618C320.591 124.994 319.835 123.546 318.615 122.33Z" fill="#FF4100"/>
</g>
<g filter="url(#filter6_i_370_17976)">
<path d="M290.952 133.375C291.745 134.166 292.734 134.859 293.84 135.439C296.691 136.934 300.562 137.829 304.784 137.829C309.005 137.829 312.876 136.934 315.727 135.439C316.834 134.859 317.822 134.166 318.615 133.375V129.088C318.615 130.7 317.352 132.386 314.798 133.725C312.286 135.042 308.747 135.887 304.784 135.887C300.821 135.887 297.282 135.042 294.77 133.725C292.215 132.386 290.952 130.7 290.952 129.088V133.375Z" fill="#FF4100"/>
<path fill-rule="evenodd" clip-rule="evenodd" d="M290.952 133.375V129.088V124.8C289.732 126.017 288.977 127.464 288.977 129.088C288.977 130.712 289.732 132.159 290.952 133.375ZM318.615 124.8V129.088V133.375C319.835 132.159 320.591 130.712 320.591 129.088C320.591 127.464 319.835 126.017 318.615 124.8Z" fill="#FF4100"/>
</g>
<g filter="url(#filter7_i_370_17976)">
<path d="M290.952 135.845C291.745 136.636 292.734 137.329 293.84 137.909C296.691 139.404 300.562 140.3 304.784 140.3C309.005 140.3 312.876 139.404 315.727 137.909C316.834 137.329 317.822 136.636 318.615 135.845V131.558C318.615 133.17 317.352 134.856 314.798 136.195C312.286 137.513 308.747 138.357 304.784 138.357C300.821 138.357 297.282 137.513 294.77 136.195C292.215 134.856 290.952 133.17 290.952 131.558V135.845Z" fill="#FF4100"/>
<path fill-rule="evenodd" clip-rule="evenodd" d="M290.952 135.845V131.558V127.27C289.732 128.487 288.977 129.934 288.977 131.558C288.977 133.182 289.732 134.629 290.952 135.845ZM318.615 127.27V131.558V135.845C319.835 134.629 320.591 133.182 320.591 131.558C320.591 129.934 319.835 128.487 318.615 127.27Z" fill="#FF4100"/>
</g>
<g filter="url(#filter8_i_370_17976)">
<path d="M290.952 138.315C291.745 139.105 292.734 139.799 293.84 140.379C296.691 141.874 300.562 142.769 304.784 142.769C309.005 142.769 312.876 141.874 315.727 140.379C316.834 139.799 317.822 139.105 318.615 138.315V134.028C318.615 135.64 317.352 137.326 314.798 138.665C312.286 139.982 308.747 140.827 304.784 140.827C300.821 140.827 297.282 139.982 294.77 138.665C292.215 137.326 290.952 135.64 290.952 134.028V138.315Z" fill="#FF4100"/>
<path fill-rule="evenodd" clip-rule="evenodd" d="M290.952 138.315V134.028V129.74C289.732 130.956 288.977 132.404 288.977 134.028C288.977 135.652 289.732 137.099 290.952 138.315ZM318.615 129.74V134.028V138.315C319.835 137.099 320.591 135.652 320.591 134.028C320.591 132.404 319.835 130.956 318.615 129.74Z" fill="#FF4100"/>
</g>
<g filter="url(#filter9_i_370_17976)">
<path d="M290.952 140.785C291.745 141.576 292.734 142.269 293.84 142.849C296.691 144.344 300.562 145.24 304.784 145.24C309.005 145.24 312.876 144.344 315.727 142.849C316.834 142.269 317.822 141.576 318.615 140.785V136.498C318.615 138.11 317.352 139.796 314.798 141.135C312.286 142.453 308.747 143.297 304.784 143.297C300.821 143.297 297.282 142.453 294.77 141.135C292.215 139.796 290.952 138.11 290.952 136.498V140.785Z" fill="#FF4100"/>
<path fill-rule="evenodd" clip-rule="evenodd" d="M290.952 140.785V136.498V132.21C289.732 133.427 288.977 134.874 288.977 136.498C288.977 138.122 289.732 139.569 290.952 140.785ZM318.615 132.21V136.498V140.785C319.835 139.569 320.591 138.122 320.591 136.498C320.591 134.874 319.835 133.427 318.615 132.21Z" fill="#FF4100"/>
</g>
<g filter="url(#filter10_i_370_17976)">
<path d="M290.952 143.256C291.745 144.046 292.734 144.739 293.84 145.319C296.691 146.815 300.562 147.71 304.784 147.71C309.005 147.71 312.876 146.815 315.727 145.319C316.834 144.739 317.822 144.046 318.615 143.256V138.968C318.615 140.58 317.352 142.266 314.798 143.606C312.286 144.923 308.747 145.767 304.784 145.767C300.821 145.767 297.282 144.923 294.77 143.606C292.215 142.266 290.952 140.58 290.952 138.968V143.256Z" fill="#FF4100"/>
<path fill-rule="evenodd" clip-rule="evenodd" d="M290.952 143.256V138.968V134.68C289.732 135.897 288.977 137.344 288.977 138.968C288.977 140.592 289.732 142.039 290.952 143.256ZM318.615 134.68V138.968V143.256C319.835 142.039 320.591 140.592 320.591 138.968C320.591 137.344 319.835 135.897 318.615 134.68Z" fill="#FF4100"/>
</g>
<g filter="url(#filter11_i_370_17976)">
<path d="M290.952 145.725C291.745 146.516 292.734 147.209 293.84 147.789C296.691 149.284 300.562 150.18 304.784 150.18C309.005 150.18 312.876 149.284 315.727 147.789C316.834 147.209 317.822 146.516 318.615 145.725V141.438C318.615 143.05 317.352 144.736 314.798 146.075C312.286 147.393 308.747 148.237 304.784 148.237C300.821 148.237 297.282 147.393 294.77 146.075C292.215 144.736 290.952 143.05 290.952 141.438V145.725Z" fill="#FF4100"/>
<path fill-rule="evenodd" clip-rule="evenodd" d="M290.952 145.725V141.438V137.15C289.732 138.367 288.977 139.814 288.977 141.438C288.977 143.062 289.732 144.509 290.952 145.725ZM318.615 137.15V141.438V145.725C319.835 144.509 320.591 143.062 320.591 141.438C320.591 139.814 319.835 138.367 318.615 137.15Z" fill="#FF4100"/>
</g>
<g filter="url(#filter12_i_370_17976)">
<path d="M290.952 148.195C291.745 148.986 292.734 149.679 293.84 150.259C296.691 151.754 300.562 152.65 304.784 152.65C309.005 152.65 312.876 151.754 315.727 150.259C316.834 149.679 317.822 148.986 318.615 148.195V143.908C318.615 145.52 317.352 147.206 314.798 148.545C312.286 149.863 308.747 150.707 304.784 150.707C300.821 150.707 297.282 149.863 294.77 148.545C292.215 147.206 290.952 145.52 290.952 143.908V148.195Z" fill="#FF4100"/>
<path fill-rule="evenodd" clip-rule="evenodd" d="M290.952 148.195V143.908V139.62C289.732 140.837 288.977 142.284 288.977 143.908C288.977 145.532 289.732 146.979 290.952 148.195ZM318.615 139.62V143.908V148.195C319.835 146.979 320.591 145.532 320.591 143.908C320.591 142.284 319.835 140.837 318.615 139.62Z" fill="#FF4100"/>
</g>
<g filter="url(#filter13_i_370_17976)">
<path d="M290.952 150.666C291.745 151.456 292.734 152.15 293.84 152.73C296.691 154.225 300.562 155.12 304.784 155.12C309.005 155.12 312.876 154.225 315.727 152.73C316.834 152.15 317.822 151.456 318.615 150.666V146.378C318.615 147.991 317.352 149.676 314.798 151.016C312.286 152.333 308.747 153.177 304.784 153.177C300.821 153.177 297.282 152.333 294.77 151.016C292.215 149.676 290.952 147.991 290.952 146.378V150.666Z" fill="#FF4100"/>
<path fill-rule="evenodd" clip-rule="evenodd" d="M290.952 150.666V146.378V142.091C289.732 143.307 288.977 144.754 288.977 146.378C288.977 148.002 289.732 149.449 290.952 150.666ZM318.615 142.091V146.378V150.666C319.835 149.449 320.591 148.002 320.591 146.378C320.591 144.754 319.835 143.307 318.615 142.091Z" fill="#FF4100"/>
</g>
<g filter="url(#filter14_i_370_17976)">
<path d="M290.952 153.135C291.745 153.926 292.734 154.619 293.84 155.199C296.691 156.694 300.562 157.59 304.784 157.59C309.005 157.59 312.876 156.694 315.727 155.199C316.834 154.619 317.822 153.926 318.615 153.135V148.848C318.615 150.46 317.352 152.146 314.798 153.485C312.286 154.803 308.747 155.647 304.784 155.647C300.821 155.647 297.282 154.803 294.77 153.485C292.215 152.146 290.952 150.46 290.952 148.848V153.135Z" fill="#FF4100"/>
<path fill-rule="evenodd" clip-rule="evenodd" d="M290.952 153.135V148.848V144.56C289.732 145.777 288.977 147.224 288.977 148.848C288.977 150.472 289.732 151.919 290.952 153.135ZM318.615 144.56V148.848V153.135C319.835 151.919 320.591 150.472 320.591 148.848C320.591 147.224 319.835 145.777 318.615 144.56Z" fill="#FF4100"/>
</g>
<g filter="url(#filter15_i_370_17976)">
<path d="M290.952 155.606C291.745 156.396 292.734 157.09 293.84 157.67C296.691 159.165 300.562 160.06 304.784 160.06C309.005 160.06 312.876 159.165 315.727 157.67C316.834 157.09 317.822 156.396 318.615 155.606V151.318C318.615 152.931 317.352 154.616 314.798 155.956C312.286 157.273 308.747 158.117 304.784 158.117C300.821 158.117 297.282 157.273 294.77 155.956C292.215 154.616 290.952 152.931 290.952 151.318V155.606Z" fill="#FF4100"/>
<path fill-rule="evenodd" clip-rule="evenodd" d="M290.952 155.606V151.318V147.03C289.732 148.247 288.977 149.694 288.977 151.318C288.977 152.942 289.732 154.389 290.952 155.606ZM318.615 147.03V151.318V155.606C319.835 154.389 320.591 152.942 320.591 151.318C320.591 149.694 319.835 148.247 318.615 147.03Z" fill="#FF4100"/>
</g>
<g filter="url(#filter16_i_370_17976)">
<path d="M290.952 158.076C291.745 158.866 292.734 159.56 293.84 160.14C296.691 161.635 300.562 162.53 304.784 162.53C309.005 162.53 312.876 161.635 315.727 160.14C316.834 159.56 317.822 158.866 318.615 158.076V153.788C318.615 155.401 317.352 157.086 314.798 158.426C312.286 159.743 308.747 160.588 304.784 160.588C300.821 160.588 297.282 159.743 294.77 158.426C292.215 157.086 290.952 155.401 290.952 153.788V158.076Z" fill="#FF4100"/>
<path fill-rule="evenodd" clip-rule="evenodd" d="M290.952 158.076V153.788V149.501C289.732 150.717 288.977 152.164 288.977 153.788C288.977 155.412 289.732 156.859 290.952 158.076ZM318.615 149.501V153.788V158.076C319.835 156.859 320.591 155.412 320.591 153.788C320.591 152.164 319.835 150.717 318.615 149.501Z" fill="#FF4100"/>
</g>
<g filter="url(#filter17_i_370_17976)">
<path d="M290.952 160.546C291.745 161.336 292.734 162.029 293.84 162.61C296.691 164.105 300.562 165 304.784 165C309.005 165 312.876 164.105 315.727 162.61C316.834 162.029 317.822 161.336 318.615 160.546V156.258C318.615 157.871 317.352 159.556 314.798 160.896C312.286 162.213 308.747 163.057 304.784 163.057C300.821 163.057 297.282 162.213 294.77 160.896C292.215 159.556 290.952 157.871 290.952 156.258V160.546Z" fill="#FF4100"/>
<path fill-rule="evenodd" clip-rule="evenodd" d="M290.952 160.546V156.258V151.97C289.732 153.187 288.977 154.634 288.977 156.258C288.977 157.882 289.732 159.329 290.952 160.546ZM318.615 151.97V156.258V160.546C319.835 159.329 320.591 157.882 320.591 156.258C320.591 154.634 319.835 153.187 318.615 151.97Z" fill="#FF4100"/>
</g>
<g filter="url(#filter18_i_370_17976)">
<path d="M290.952 163.016C291.745 163.806 292.734 164.5 293.84 165.08C296.691 166.575 300.562 167.47 304.784 167.47C309.005 167.47 312.876 166.575 315.727 165.08C316.834 164.5 317.822 163.806 318.615 163.016V158.728C318.615 160.341 317.352 162.026 314.798 163.366C312.286 164.683 308.747 165.527 304.784 165.527C300.821 165.527 297.282 164.683 294.77 163.366C292.215 162.026 290.952 160.341 290.952 158.728V163.016Z" fill="#FF4100"/>
<path fill-rule="evenodd" clip-rule="evenodd" d="M290.952 163.016V158.728V154.441C289.732 155.657 288.977 157.104 288.977 158.728C288.977 160.352 289.732 161.799 290.952 163.016ZM318.615 154.441V158.728V163.016C319.835 161.799 320.591 160.352 320.591 158.728C320.591 157.104 319.835 155.657 318.615 154.441Z" fill="#FF4100"/>
</g>
<g filter="url(#filter19_i_370_17976)">
<path d="M290.952 165.486C291.745 166.276 292.734 166.97 293.84 167.55C296.691 169.045 300.562 169.94 304.784 169.94C309.005 169.94 312.876 169.045 315.727 167.55C316.834 166.97 317.822 166.276 318.615 165.486V161.199C318.615 162.811 317.352 164.496 314.798 165.836C312.286 167.153 308.747 167.998 304.784 167.998C300.821 167.998 297.282 167.153 294.77 165.836C292.215 164.496 290.952 162.811 290.952 161.199V165.486Z" fill="#FF4100"/>
<path fill-rule="evenodd" clip-rule="evenodd" d="M290.952 165.486V161.199V156.911C289.732 158.127 288.977 159.575 288.977 161.199C288.977 162.823 289.732 164.27 290.952 165.486ZM318.615 156.911V161.199V165.486C319.835 164.27 320.591 162.823 320.591 161.199C320.591 159.575 319.835 158.127 318.615 156.911Z" fill="#FF4100"/>
</g>
<g filter="url(#filter20_i_370_17976)">
<path d="M290.952 167.956C291.745 168.746 292.734 169.44 293.84 170.02C296.691 171.515 300.562 172.41 304.784 172.41C309.005 172.41 312.876 171.515 315.727 170.02C316.834 169.44 317.822 168.746 318.615 167.956V163.668C318.615 165.281 317.352 166.966 314.798 168.306C312.286 169.623 308.747 170.467 304.784 170.467C300.821 170.467 297.282 169.623 294.77 168.306C292.215 166.966 290.952 165.281 290.952 163.668V167.956Z" fill="#FF4100"/>
<path fill-rule="evenodd" clip-rule="evenodd" d="M290.952 167.956V163.668V159.381C289.732 160.597 288.977 162.044 288.977 163.668C288.977 165.292 289.732 166.739 290.952 167.956ZM318.615 159.381V163.668V167.956C319.835 166.739 320.591 165.292 320.591 163.668C320.591 162.044 319.835 160.597 318.615 159.381Z" fill="#FF4100"/>
</g>
<g filter="url(#filter21_i_370_17976)">
<path d="M290.952 170.426C291.745 171.216 292.734 171.91 293.84 172.49C296.691 173.985 300.562 174.88 304.784 174.88C309.005 174.88 312.876 173.985 315.727 172.49C316.834 171.91 317.822 171.216 318.615 170.426V166.139C318.615 167.751 317.352 169.436 314.798 170.776C312.286 172.093 308.747 172.938 304.784 172.938C300.821 172.938 297.282 172.093 294.77 170.776C292.215 169.436 290.952 167.751 290.952 166.139V170.426Z" fill="#FF4100"/>
<path fill-rule="evenodd" clip-rule="evenodd" d="M290.952 170.426V166.139V161.851C289.732 163.067 288.977 164.515 288.977 166.139C288.977 167.762 289.732 169.209 290.952 170.426ZM318.615 161.851V166.139V170.426C319.835 169.209 320.591 167.762 320.591 166.139C320.591 164.515 319.835 163.067 318.615 161.851Z" fill="#FF4100"/>
</g>
<g filter="url(#filter22_i_370_17976)">
<path d="M290.952 172.896C291.745 173.687 292.734 174.38 293.84 174.96C296.691 176.455 300.562 177.35 304.784 177.35C309.005 177.35 312.876 176.455 315.727 174.96C316.834 174.38 317.822 173.687 318.615 172.896V168.609C318.615 170.221 317.352 171.907 314.798 173.246C312.286 174.563 308.747 175.408 304.784 175.408C300.821 175.408 297.282 174.563 294.77 173.246C292.215 171.907 290.952 170.221 290.952 168.609V172.896Z" fill="#FF4100"/>
<path fill-rule="evenodd" clip-rule="evenodd" d="M290.952 172.896V168.609V164.321C289.732 165.538 288.977 166.985 288.977 168.609C288.977 170.233 289.732 171.68 290.952 172.896ZM318.615 164.321V168.609V172.896C319.835 171.68 320.591 170.233 320.591 168.609C320.591 166.985 319.835 165.538 318.615 164.321Z" fill="#FF4100"/>
</g>
<g filter="url(#filter23_i_370_17976)">
<path d="M290.952 175.366C291.745 176.156 292.734 176.85 293.84 177.43C296.691 178.925 300.562 179.82 304.784 179.82C309.005 179.82 312.876 178.925 315.727 177.43C316.834 176.85 317.822 176.156 318.615 175.366V171.079C318.615 172.691 317.352 174.376 314.798 175.716C312.286 177.033 308.747 177.878 304.784 177.878C300.821 177.878 297.282 177.033 294.77 175.716C292.215 174.376 290.952 172.691 290.952 171.079V175.366Z" fill="#FF4100"/>
<path fill-rule="evenodd" clip-rule="evenodd" d="M290.952 175.366V171.079V166.791C289.732 168.007 288.977 169.455 288.977 171.079C288.977 172.702 289.732 174.149 290.952 175.366ZM318.615 166.791V171.079V175.366C319.835 174.149 320.591 172.702 320.591 171.079C320.591 169.455 319.835 168.007 318.615 166.791Z" fill="#FF4100"/>
</g>
<g filter="url(#filter24_i_370_17976)">
<path d="M290.952 177.836C291.745 178.626 292.734 179.32 293.84 179.9C296.691 181.395 300.562 182.29 304.784 182.29C309.005 182.29 312.876 181.395 315.727 179.9C316.834 179.32 317.822 178.626 318.615 177.836V173.549C318.615 175.161 317.352 176.847 314.798 178.186C312.286 179.503 308.747 180.348 304.784 180.348C300.821 180.348 297.282 179.503 294.77 178.186C292.215 176.847 290.952 175.161 290.952 173.549V177.836Z" fill="#FF4100"/>
<path fill-rule="evenodd" clip-rule="evenodd" d="M290.952 177.836V173.549V169.261C289.732 170.477 288.977 171.925 288.977 173.549C288.977 175.173 289.732 176.62 290.952 177.836ZM318.615 169.261V173.549V177.836C319.835 176.62 320.591 175.173 320.591 173.549C320.591 171.925 319.835 170.477 318.615 169.261Z" fill="#FF4100"/>
</g>
<g filter="url(#filter25_i_370_17976)">
<path d="M290.952 180.306C291.745 181.097 292.734 181.79 293.84 182.37C296.691 183.865 300.562 184.761 304.784 184.761C309.005 184.761 312.876 183.865 315.727 182.37C316.834 181.79 317.822 181.097 318.615 180.306V176.019C318.615 177.631 317.352 179.317 314.798 180.656C312.286 181.974 308.747 182.818 304.784 182.818C300.821 182.818 297.282 181.974 294.77 180.656C292.215 179.317 290.952 177.631 290.952 176.019V180.306Z" fill="#FF4100"/>
<path fill-rule="evenodd" clip-rule="evenodd" d="M290.952 180.306V176.019V171.731C289.732 172.948 288.977 174.395 288.977 176.019C288.977 177.643 289.732 179.09 290.952 180.306ZM318.615 171.731V176.019V180.306C319.835 179.09 320.591 177.643 320.591 176.019C320.591 174.395 319.835 172.948 318.615 171.731Z" fill="#FF4100"/>
</g>
<g filter="url(#filter26_i_370_17976)">
<path d="M290.952 182.777C291.745 183.567 292.734 184.26 293.84 184.84C296.691 186.336 300.562 187.231 304.784 187.231C309.005 187.231 312.876 186.336 315.727 184.84C316.834 184.26 317.822 183.567 318.615 182.777V178.489C318.615 180.101 317.352 181.787 314.798 183.127C312.286 184.444 308.747 185.288 304.784 185.288C300.821 185.288 297.282 184.444 294.77 183.127C292.215 181.787 290.952 180.101 290.952 178.489V182.777Z" fill="#FF4100"/>
<path fill-rule="evenodd" clip-rule="evenodd" d="M290.952 182.777V178.489V174.201C289.732 175.418 288.977 176.865 288.977 178.489C288.977 180.113 289.732 181.56 290.952 182.777ZM318.615 174.201V178.489V182.777C319.835 181.56 320.591 180.113 320.591 178.489C320.591 176.865 319.835 175.418 318.615 174.201Z" fill="#FF4100"/>
</g>
<g filter="url(#filter27_i_370_17976)">
<path d="M290.952 185.246C291.745 186.037 292.734 186.73 293.84 187.31C296.691 188.805 300.562 189.7 304.784 189.7C309.005 189.7 312.876 188.805 315.727 187.31C316.834 186.73 317.822 186.037 318.615 185.246V180.959C318.615 182.571 317.352 184.257 314.798 185.596C312.286 186.914 308.747 187.758 304.784 187.758C300.821 187.758 297.282 186.914 294.77 185.596C292.215 184.257 290.952 182.571 290.952 180.959V185.246Z" fill="#FF4100"/>
<path fill-rule="evenodd" clip-rule="evenodd" d="M290.952 185.246V180.959V176.671C289.732 177.888 288.977 179.335 288.977 180.959C288.977 182.583 289.732 184.03 290.952 185.246ZM318.615 176.671V180.959V185.246C319.835 184.03 320.591 182.583 320.591 180.959C320.591 179.335 319.835 177.888 318.615 176.671Z" fill="#FF4100"/>
</g>
<g filter="url(#filter28_i_370_17976)">
<path d="M290.952 187.716C291.745 188.507 292.734 189.2 293.84 189.78C296.691 191.275 300.562 192.171 304.784 192.171C309.005 192.171 312.876 191.275 315.727 189.78C316.834 189.2 317.822 188.507 318.615 187.716V183.429C318.615 185.041 317.352 186.727 314.798 188.066C312.286 189.384 308.747 190.228 304.784 190.228C300.821 190.228 297.282 189.384 294.77 188.066C292.215 186.727 290.952 185.041 290.952 183.429V187.716Z" fill="#FF4100"/>
<path fill-rule="evenodd" clip-rule="evenodd" d="M290.952 187.716V183.429V179.141C289.732 180.358 288.977 181.805 288.977 183.429C288.977 185.053 289.732 186.5 290.952 187.716ZM318.615 179.141V183.429V187.716C319.835 186.5 320.591 185.053 320.591 183.429C320.591 181.805 319.835 180.358 318.615 179.141Z" fill="#FF4100"/>
</g>
<g filter="url(#filter29_i_370_17976)">
<path d="M290.952 190.187C291.745 190.977 292.734 191.671 293.84 192.251C296.691 193.746 300.562 194.641 304.784 194.641C309.005 194.641 312.876 193.746 315.727 192.251C316.834 191.671 317.822 190.977 318.615 190.187V185.899C318.615 187.512 317.352 189.197 314.798 190.537C312.286 191.854 308.747 192.698 304.784 192.698C300.821 192.698 297.282 191.854 294.77 190.537C292.215 189.197 290.952 187.512 290.952 185.899V190.187Z" fill="#FF4100"/>
<path fill-rule="evenodd" clip-rule="evenodd" d="M290.952 190.187V185.899V181.612C289.732 182.828 288.977 184.275 288.977 185.899C288.977 187.523 289.732 188.97 290.952 190.187ZM318.615 181.612V185.899V190.187C319.835 188.97 320.591 187.523 320.591 185.899C320.591 184.275 319.835 182.828 318.615 181.612Z" fill="#FF4100"/>
</g>
<g filter="url(#filter30_i_370_17976)">
<path d="M290.952 192.656C291.745 193.447 292.734 194.14 293.84 194.72C296.691 196.215 300.562 197.111 304.784 197.111C309.005 197.111 312.876 196.215 315.727 194.72C316.834 194.14 317.822 193.447 318.615 192.656V188.369C318.615 189.981 317.352 191.667 314.798 193.006C312.286 194.324 308.747 195.168 304.784 195.168C300.821 195.168 297.282 194.324 294.77 193.006C292.215 191.667 290.952 189.981 290.952 188.369V192.656Z" fill="#FF4100"/>
<path fill-rule="evenodd" clip-rule="evenodd" d="M290.952 192.656V188.369V184.081C289.732 185.298 288.977 186.745 288.977 188.369C288.977 189.993 289.732 191.44 290.952 192.656ZM318.615 184.081V188.369V192.656C319.835 191.44 320.591 189.993 320.591 188.369C320.591 186.745 319.835 185.298 318.615 184.081Z" fill="#FF4100"/>
</g>
<g filter="url(#filter31_i_370_17976)">
<path d="M290.952 195.127C291.745 195.917 292.734 196.611 293.84 197.191C296.691 198.686 300.562 199.581 304.784 199.581C309.005 199.581 312.876 198.686 315.727 197.191C316.834 196.611 317.822 195.917 318.615 195.127V190.839C318.615 192.452 317.352 194.137 314.798 195.477C312.286 196.794 308.747 197.638 304.784 197.638C300.821 197.638 297.282 196.794 294.77 195.477C292.215 194.137 290.952 192.452 290.952 190.839V195.127Z" fill="#FF4100"/>
<path fill-rule="evenodd" clip-rule="evenodd" d="M290.952 195.127V190.839V186.551C289.732 187.768 288.977 189.215 288.977 190.839C288.977 192.463 289.732 193.91 290.952 195.127ZM318.615 186.551V190.839V195.127C319.835 193.91 320.591 192.463 320.591 190.839C320.591 189.215 319.835 187.768 318.615 186.551Z" fill="#FF4100"/>
</g>
<g filter="url(#filter32_i_370_17976)">
<path d="M290.952 197.597C291.745 198.387 292.734 199.081 293.84 199.661C296.691 201.156 300.562 202.051 304.784 202.051C309.005 202.051 312.876 201.156 315.727 199.661C316.834 199.081 317.822 198.387 318.615 197.597V193.309C318.615 194.922 317.352 196.607 314.798 197.947C312.286 199.264 308.747 200.109 304.784 200.109C300.821 200.109 297.282 199.264 294.77 197.947C292.215 196.607 290.952 194.922 290.952 193.309V197.597Z" fill="#FF4100"/>
<path fill-rule="evenodd" clip-rule="evenodd" d="M290.952 197.597V193.309V189.022C289.732 190.238 288.977 191.685 288.977 193.309C288.977 194.933 289.732 196.38 290.952 197.597ZM318.615 189.022V193.309V197.597C319.835 196.38 320.591 194.933 320.591 193.309C320.591 191.685 319.835 190.238 318.615 189.022Z" fill="#FF4100"/>
</g>
<g filter="url(#filter33_i_370_17976)">
<path d="M290.952 200.067C291.745 200.857 292.734 201.55 293.84 202.131C296.691 203.626 300.562 204.521 304.784 204.521C309.005 204.521 312.876 203.626 315.727 202.131C316.834 201.55 317.822 200.857 318.615 200.067V195.779C318.615 197.392 317.352 199.077 314.798 200.417C312.286 201.734 308.747 202.578 304.784 202.578C300.821 202.578 297.282 201.734 294.77 200.417C292.215 199.077 290.952 197.392 290.952 195.779V200.067Z" fill="#FF4100"/>
<path fill-rule="evenodd" clip-rule="evenodd" d="M290.952 200.067V195.779V191.491C289.732 192.708 288.977 194.155 288.977 195.779C288.977 197.403 289.732 198.85 290.952 200.067ZM318.615 191.491V195.779V200.067C319.835 198.85 320.591 197.403 320.591 195.779C320.591 194.155 319.835 192.708 318.615 191.491Z" fill="#FF4100"/>
</g>
<g filter="url(#filter34_i_370_17976)">
<path d="M290.952 202.537C291.745 203.327 292.734 204.021 293.84 204.601C296.691 206.096 300.562 206.991 304.784 206.991C309.005 206.991 312.876 206.096 315.727 204.601C316.834 204.021 317.822 203.327 318.615 202.537V198.249C318.615 199.862 317.352 201.547 314.798 202.887C312.286 204.204 308.747 205.048 304.784 205.048C300.821 205.048 297.282 204.204 294.77 202.887C292.215 201.547 290.952 199.862 290.952 198.249V202.537Z" fill="#FF4100"/>
<path fill-rule="evenodd" clip-rule="evenodd" d="M290.952 202.537V198.249V193.962C289.732 195.178 288.977 196.625 288.977 198.249C288.977 199.873 289.732 201.32 290.952 202.537ZM318.615 193.962V198.249V202.537C319.835 201.32 320.591 199.873 320.591 198.249C320.591 196.625 319.835 195.178 318.615 193.962Z" fill="#FF4100"/>
</g>
<g filter="url(#filter35_i_370_17976)">
<path d="M290.952 205.007C291.745 205.797 292.734 206.491 293.84 207.071C296.691 208.566 300.562 209.461 304.784 209.461C309.005 209.461 312.876 208.566 315.727 207.071C316.834 206.491 317.822 205.797 318.615 205.007V200.72C318.615 202.332 317.352 204.017 314.798 205.357C312.286 206.674 308.747 207.519 304.784 207.519C300.821 207.519 297.282 206.674 294.77 205.357C292.215 204.017 290.952 202.332 290.952 200.72V205.007Z" fill="#FF4100"/>
<path fill-rule="evenodd" clip-rule="evenodd" d="M290.952 205.007V200.72V196.432C289.732 197.648 288.977 199.096 288.977 200.72C288.977 202.344 289.732 203.791 290.952 205.007ZM318.615 196.432V200.72V205.007C319.835 203.791 320.591 202.344 320.591 200.72C320.591 199.096 319.835 197.648 318.615 196.432Z" fill="#FF4100"/>
</g>
<g filter="url(#filter36_i_370_17976)">
<path d="M290.952 207.477C291.745 208.267 292.734 208.961 293.84 209.541C296.691 211.036 300.562 211.931 304.784 211.931C309.005 211.931 312.876 211.036 315.727 209.541C316.834 208.961 317.822 208.267 318.615 207.477V203.189C318.615 204.802 317.352 206.487 314.798 207.827C312.286 209.144 308.747 209.988 304.784 209.988C300.821 209.988 297.282 209.144 294.77 207.827C292.215 206.487 290.952 204.802 290.952 203.189V207.477Z" fill="#FF4100"/>
<path fill-rule="evenodd" clip-rule="evenodd" d="M290.952 207.477V203.189V198.902C289.732 200.118 288.977 201.565 288.977 203.189C288.977 204.813 289.732 206.26 290.952 207.477ZM318.615 198.902V203.189V207.477C319.835 206.26 320.591 204.813 320.591 203.189C320.591 201.565 319.835 200.118 318.615 198.902Z" fill="#FF4100"/>
</g>
<g filter="url(#filter37_i_370_17976)">
<path d="M290.952 209.947C291.745 210.737 292.734 211.431 293.84 212.011C296.691 213.506 300.562 214.401 304.784 214.401C309.005 214.401 312.876 213.506 315.727 212.011C316.834 211.431 317.822 210.737 318.615 209.947V205.66C318.615 207.272 317.352 208.957 314.798 210.297C312.286 211.614 308.747 212.459 304.784 212.459C300.821 212.459 297.282 211.614 294.77 210.297C292.215 208.957 290.952 207.272 290.952 205.66V209.947Z" fill="#FF4100"/>
<path fill-rule="evenodd" clip-rule="evenodd" d="M290.952 209.947V205.66V201.372C289.732 202.588 288.977 204.036 288.977 205.66C288.977 207.283 289.732 208.73 290.952 209.947ZM318.615 201.372V205.66V209.947C319.835 208.73 320.591 207.283 320.591 205.66C320.591 204.036 319.835 202.588 318.615 201.372Z" fill="#FF4100"/>
</g>
<g filter="url(#filter38_i_370_17976)">
<path d="M290.952 212.417C291.745 213.208 292.734 213.901 293.84 214.481C296.691 215.976 300.562 216.871 304.784 216.871C309.005 216.871 312.876 215.976 315.727 214.481C316.834 213.901 317.822 213.208 318.615 212.417V208.13C318.615 209.742 317.352 211.428 314.798 212.767C312.286 214.084 308.747 214.929 304.784 214.929C300.821 214.929 297.282 214.084 294.77 212.767C292.215 211.428 290.952 209.742 290.952 208.13V212.417Z" fill="#FF4100"/>
<path fill-rule="evenodd" clip-rule="evenodd" d="M290.952 212.417V208.13V203.842C289.732 205.059 288.977 206.506 288.977 208.13C288.977 209.754 289.732 211.201 290.952 212.417ZM318.615 203.842V208.13V212.417C319.835 211.201 320.591 209.754 320.591 208.13C320.591 206.506 319.835 205.059 318.615 203.842Z" fill="#FF4100"/>
</g>
<g filter="url(#filter39_i_370_17976)">
<path d="M290.952 214.887C291.745 215.677 292.734 216.371 293.84 216.951C296.691 218.446 300.562 219.341 304.784 219.341C309.005 219.341 312.876 218.446 315.727 216.951C316.834 216.371 317.822 215.677 318.615 214.887V210.6C318.615 212.212 317.352 213.897 314.798 215.237C312.286 216.554 308.747 217.399 304.784 217.399C300.821 217.399 297.282 216.554 294.77 215.237C292.215 213.897 290.952 212.212 290.952 210.6V214.887Z" fill="#FF4100"/>
<path fill-rule="evenodd" clip-rule="evenodd" d="M290.952 214.887V210.6V206.312C289.732 207.528 288.977 208.976 288.977 210.6C288.977 212.223 289.732 213.67 290.952 214.887ZM318.615 206.312V210.6V214.887C319.835 213.67 320.591 212.223 320.591 210.6C320.591 208.976 319.835 207.528 318.615 206.312Z" fill="#FF4100"/>
</g>
<g filter="url(#filter40_i_370_17976)">
<path d="M290.952 217.357C291.745 218.147 292.734 218.841 293.84 219.421C296.691 220.916 300.562 221.811 304.784 221.811C309.005 221.811 312.876 220.916 315.727 219.421C316.834 218.841 317.822 218.147 318.615 217.357V213.07C318.615 214.682 317.352 216.368 314.798 217.707C312.286 219.024 308.747 219.869 304.784 219.869C300.821 219.869 297.282 219.024 294.77 217.707C292.215 216.368 290.952 214.682 290.952 213.07V217.357Z" fill="#FF4100"/>
<path fill-rule="evenodd" clip-rule="evenodd" d="M290.952 217.357V213.07V208.782C289.732 209.998 288.977 211.446 288.977 213.07C288.977 214.694 289.732 216.141 290.952 217.357ZM318.615 208.782V213.07V217.357C319.835 216.141 320.591 214.694 320.591 213.07C320.591 211.446 319.835 209.998 318.615 208.782Z" fill="#FF4100"/>
</g>
<g filter="url(#filter41_i_370_17976)">
<path d="M290.952 219.827C291.745 220.618 292.734 221.311 293.84 221.891C296.691 223.386 300.562 224.282 304.784 224.282C309.005 224.282 312.876 223.386 315.727 221.891C316.834 221.311 317.822 220.618 318.615 219.827V215.54C318.615 217.152 317.352 218.838 314.798 220.177C312.286 221.495 308.747 222.339 304.784 222.339C300.821 222.339 297.282 221.495 294.77 220.177C292.215 218.838 290.952 217.152 290.952 215.54V219.827Z" fill="#FF4100"/>
<path fill-rule="evenodd" clip-rule="evenodd" d="M290.952 219.827V215.54V211.252C289.732 212.469 288.977 213.916 288.977 215.54C288.977 217.164 289.732 218.611 290.952 219.827ZM318.615 211.252V215.54V219.827C319.835 218.611 320.591 217.164 320.591 215.54C320.591 213.916 319.835 212.469 318.615 211.252Z" fill="#FF4100"/>
</g>
<path d="M304.782 76.0777C306.692 76.0777 308.24 76.8725 308.24 77.853C308.24 78.8334 306.692 79.6283 304.782 79.6283C302.872 79.6283 301.324 78.8334 301.324 77.853C301.324 76.8725 302.872 76.0777 304.782 76.0777Z" fill="url(#paint11_linear_370_17976)"/>
<path d="M304.782 110.165C306.692 110.165 308.24 109.37 308.24 108.389L308.24 77.853C308.24 78.8334 306.692 79.6283 304.782 79.6283C302.872 79.6283 301.324 78.8334 301.324 77.853L301.324 108.389C301.324 109.37 302.872 110.165 304.782 110.165Z" fill="url(#paint12_linear_370_17976)"/>
<path d="M304.783 79.8755C303.797 79.8755 302.893 79.6705 302.225 79.3279C301.979 79.2014 301.755 79.0506 301.572 78.8778L301.572 108.389C301.572 108.739 301.853 109.118 302.451 109.425C303.035 109.725 303.859 109.918 304.783 109.918C305.707 109.918 306.531 109.725 307.115 109.425C307.712 109.118 307.994 108.739 307.994 108.389L307.994 78.8778C307.811 79.0506 307.587 79.2014 307.341 79.3279C306.673 79.6705 305.769 79.8755 304.783 79.8755ZM304.783 79.3815C305.707 79.3815 306.531 79.1884 307.115 78.8885C307.712 78.5819 307.994 78.2028 307.994 77.8531C307.994 77.5035 307.712 77.1239 307.115 76.8174C306.531 76.5175 305.707 76.3248 304.783 76.3248C303.859 76.3248 303.035 76.5175 302.451 76.8174C301.853 77.1239 301.572 77.5035 301.572 77.8531C301.572 78.2028 301.854 78.5819 302.451 78.8885C303.035 79.1884 303.859 79.3815 304.783 79.3815ZM304.783 75.8308C305.769 75.8308 306.673 76.0353 307.341 76.3779C307.954 76.6928 308.426 77.1595 308.482 77.7364L308.488 77.8531L308.488 108.389C308.488 109.02 307.995 109.529 307.341 109.865C306.673 110.207 305.769 110.412 304.783 110.412C303.797 110.412 302.893 110.207 302.225 109.865C301.571 109.529 301.078 109.02 301.078 108.389L301.078 77.8531C301.078 77.2224 301.571 76.7138 302.225 76.3779C302.893 76.0353 303.797 75.8308 304.783 75.8308Z" fill="black"/>
<path d="M236.613 179.82C236.613 167.007 226.007 156.602 212.902 156.602C207.474 156.602 202.475 158.387 198.48 161.389L198.096 161.684C197.582 162.087 197.084 162.51 196.607 162.953L196.607 162.954L195.68 163.861L195.307 164.256C191.505 168.375 189.191 173.833 189.191 179.82C189.191 192.634 199.797 203.039 212.902 203.039C219.308 203.039 225.119 200.551 229.385 196.511L229.953 195.954C234.078 191.775 236.613 186.087 236.613 179.82ZM237.601 179.82C237.601 186.159 235.114 191.928 231.049 196.241L230.651 196.654C230.468 196.839 230.282 197.021 230.093 197.2L230.076 197.217L230.076 197.216L230.07 197.222C225.626 201.435 219.571 204.027 212.902 204.027C199.271 204.027 188.203 193.199 188.203 179.82C188.203 173.371 190.777 167.511 194.97 163.174L194.979 163.165C195.286 162.848 195.602 162.539 195.925 162.239L196.305 161.894C196.688 161.553 197.082 161.223 197.487 160.906L197.886 160.6C202.048 157.472 207.255 155.614 212.902 155.614H304.781V156.602H219.902C230.128 159.559 237.601 168.828 237.601 179.82Z" fill="#FF4100"/>
<path d="M153.352 171.313C153.352 173.211 152.599 174.933 151.376 176.198C151.322 176.253 151.267 176.308 151.211 176.362C149.947 177.586 148.224 178.339 146.326 178.339C142.446 178.339 139.301 175.193 139.301 171.313C139.301 169.442 140.032 167.741 141.224 166.482C141.313 166.389 141.403 166.299 141.496 166.21C141.639 166.075 141.787 165.946 141.94 165.824C143.142 164.862 144.667 164.287 146.326 164.287C150.206 164.287 153.352 167.432 153.352 171.313Z" fill="url(#paint13_linear_370_17976)"/>
<path d="M153.106 171.313C153.106 167.569 150.071 164.534 146.327 164.534C144.826 164.534 143.44 165.021 142.317 165.847L142.096 166.017C141.949 166.134 141.807 166.256 141.671 166.385L141.672 166.385L141.4 166.657C140.252 167.871 139.549 169.51 139.549 171.313C139.549 175.057 142.584 178.091 146.327 178.091C148.159 178.091 149.82 177.365 151.04 176.185L151.202 176.023C152.381 174.803 153.105 173.143 153.106 171.313ZM153.599 171.313C153.599 173.216 152.868 174.949 151.671 176.245L151.554 176.369L151.383 176.54C150.075 177.806 148.292 178.585 146.327 178.585C142.311 178.585 139.055 175.329 139.055 171.313C139.055 169.376 139.812 167.615 141.046 166.312L141.185 166.17C141.232 166.123 141.279 166.077 141.327 166.031L141.553 165.826C141.63 165.759 141.708 165.694 141.787 165.631L142.024 165.449C143.229 164.563 144.718 164.04 146.327 164.04C150.344 164.04 153.599 167.296 153.599 171.313Z" fill="black"/>
<path d="M232.388 183.169C232.388 189.338 229.942 194.936 225.966 199.045C225.791 199.226 225.612 199.405 225.43 199.581C221.321 203.557 215.724 206.003 209.555 206.003C196.945 206.003 186.723 195.78 186.723 183.169C186.723 177.088 189.099 171.562 192.975 167.47C193.261 167.168 193.555 166.873 193.858 166.587C194.321 166.148 194.803 165.729 195.301 165.329C199.208 162.204 204.163 160.334 209.555 160.334C222.165 160.334 232.388 170.558 232.388 183.169Z" fill="url(#paint14_linear_370_17976)"/>
<path d="M232.142 183.169C232.142 170.694 222.03 160.582 209.556 160.581C204.389 160.581 199.628 162.316 195.822 165.236L195.456 165.523C194.963 165.917 194.487 166.332 194.029 166.766L193.155 167.64L192.8 168.023C189.177 172.03 186.971 177.342 186.971 183.169C186.971 195.643 197.083 205.756 209.556 205.756C215.658 205.756 221.195 203.336 225.259 199.403L225.792 198.87C229.723 194.806 232.142 189.27 232.142 183.169ZM232.636 183.169C232.636 189.21 230.315 194.709 226.517 198.823L226.145 199.217C226.056 199.308 225.966 199.399 225.876 199.49L225.603 199.758C221.45 203.777 215.792 206.25 209.556 206.25C196.81 206.25 186.477 195.916 186.477 183.169C186.477 177.022 188.879 171.436 192.796 167.3L193.015 167.073C193.235 166.846 193.46 166.624 193.689 166.407L194.043 166.078C194.402 165.753 194.77 165.439 195.148 165.137L195.521 164.844C199.41 161.861 204.277 160.087 209.556 160.087C222.303 160.088 232.636 170.422 232.636 183.169Z" fill="black"/>
<defs>
<filter id="filter0_i_370_17976" x="288.977" y="107.979" width="31.6133" height="15.0298" filterUnits="userSpaceOnUse" color-interpolation-filters="sRGB">
<feFlood flood-opacity="0" result="BackgroundImageFix"/>
<feBlend mode="normal" in="SourceGraphic" in2="BackgroundImageFix" result="shape"/>
<feColorMatrix in="SourceAlpha" type="matrix" values="0 0 0 0 0 0 0 0 0 0 0 0 0 0 0 0 0 0 127 0" result="hardAlpha"/>
<feOffset dy="-2"/>
<feGaussianBlur stdDeviation="1"/>
<feComposite in2="hardAlpha" operator="arithmetic" k2="-1" k3="1"/>
<feColorMatrix type="matrix" values="0 0 0 0 0.235577 0 0 0 0 0 0 0 0 0 0 0 0 0 1 0"/>
<feBlend mode="normal" in2="shape" result="effect1_innerShadow_370_17976"/>
</filter>
<filter id="filter1_i_370_17976" x="288.977" y="110.449" width="31.6133" height="15.0298" filterUnits="userSpaceOnUse" color-interpolation-filters="sRGB">
<feFlood flood-opacity="0" result="BackgroundImageFix"/>
<feBlend mode="normal" in="SourceGraphic" in2="BackgroundImageFix" result="shape"/>
<feColorMatrix in="SourceAlpha" type="matrix" values="0 0 0 0 0 0 0 0 0 0 0 0 0 0 0 0 0 0 127 0" result="hardAlpha"/>
<feOffset dy="-2"/>
<feGaussianBlur stdDeviation="1"/>
<feComposite in2="hardAlpha" operator="arithmetic" k2="-1" k3="1"/>
<feColorMatrix type="matrix" values="0 0 0 0 0.235577 0 0 0 0 0 0 0 0 0 0 0 0 0 1 0"/>
<feBlend mode="normal" in2="shape" result="effect1_innerShadow_370_17976"/>
</filter>
<filter id="filter2_i_370_17976" x="288.977" y="112.919" width="31.6133" height="15.0298" filterUnits="userSpaceOnUse" color-interpolation-filters="sRGB">
<feFlood flood-opacity="0" result="BackgroundImageFix"/>
<feBlend mode="normal" in="SourceGraphic" in2="BackgroundImageFix" result="shape"/>
<feColorMatrix in="SourceAlpha" type="matrix" values="0 0 0 0 0 0 0 0 0 0 0 0 0 0 0 0 0 0 127 0" result="hardAlpha"/>
<feOffset dy="-2"/>
<feGaussianBlur stdDeviation="1"/>
<feComposite in2="hardAlpha" operator="arithmetic" k2="-1" k3="1"/>
<feColorMatrix type="matrix" values="0 0 0 0 0.235577 0 0 0 0 0 0 0 0 0 0 0 0 0 1 0"/>
<feBlend mode="normal" in2="shape" result="effect1_innerShadow_370_17976"/>
</filter>
<filter id="filter3_i_370_17976" x="288.977" y="115.39" width="31.6133" height="15.0298" filterUnits="userSpaceOnUse" color-interpolation-filters="sRGB">
<feFlood flood-opacity="0" result="BackgroundImageFix"/>
<feBlend mode="normal" in="SourceGraphic" in2="BackgroundImageFix" result="shape"/>
<feColorMatrix in="SourceAlpha" type="matrix" values="0 0 0 0 0 0 0 0 0 0 0 0 0 0 0 0 0 0 127 0" result="hardAlpha"/>
<feOffset dy="-2"/>
<feGaussianBlur stdDeviation="1"/>
<feComposite in2="hardAlpha" operator="arithmetic" k2="-1" k3="1"/>
<feColorMatrix type="matrix" values="0 0 0 0 0.235577 0 0 0 0 0 0 0 0 0 0 0 0 0 1 0"/>
<feBlend mode="normal" in2="shape" result="effect1_innerShadow_370_17976"/>
</filter>
<filter id="filter4_i_370_17976" x="288.977" y="117.859" width="31.6133" height="15.0298" filterUnits="userSpaceOnUse" color-interpolation-filters="sRGB">
<feFlood flood-opacity="0" result="BackgroundImageFix"/>
<feBlend mode="normal" in="SourceGraphic" in2="BackgroundImageFix" result="shape"/>
<feColorMatrix in="SourceAlpha" type="matrix" values="0 0 0 0 0 0 0 0 0 0 0 0 0 0 0 0 0 0 127 0" result="hardAlpha"/>
<feOffset dy="-2"/>
<feGaussianBlur stdDeviation="1"/>
<feComposite in2="hardAlpha" operator="arithmetic" k2="-1" k3="1"/>
<feColorMatrix type="matrix" values="0 0 0 0 0.235577 0 0 0 0 0 0 0 0 0 0 0 0 0 1 0"/>
<feBlend mode="normal" in2="shape" result="effect1_innerShadow_370_17976"/>
</filter>
<filter id="filter5_i_370_17976" x="288.977" y="120.33" width="31.6133" height="15.0298" filterUnits="userSpaceOnUse" color-interpolation-filters="sRGB">
<feFlood flood-opacity="0" result="BackgroundImageFix"/>
<feBlend mode="normal" in="SourceGraphic" in2="BackgroundImageFix" result="shape"/>
<feColorMatrix in="SourceAlpha" type="matrix" values="0 0 0 0 0 0 0 0 0 0 0 0 0 0 0 0 0 0 127 0" result="hardAlpha"/>
<feOffset dy="-2"/>
<feGaussianBlur stdDeviation="1"/>
<feComposite in2="hardAlpha" operator="arithmetic" k2="-1" k3="1"/>
<feColorMatrix type="matrix" values="0 0 0 0 0.235577 0 0 0 0 0 0 0 0 0 0 0 0 0 1 0"/>
<feBlend mode="normal" in2="shape" result="effect1_innerShadow_370_17976"/>
</filter>
<filter id="filter6_i_370_17976" x="288.977" y="122.8" width="31.6133" height="15.0298" filterUnits="userSpaceOnUse" color-interpolation-filters="sRGB">
<feFlood flood-opacity="0" result="BackgroundImageFix"/>
<feBlend mode="normal" in="SourceGraphic" in2="BackgroundImageFix" result="shape"/>
<feColorMatrix in="SourceAlpha" type="matrix" values="0 0 0 0 0 0 0 0 0 0 0 0 0 0 0 0 0 0 127 0" result="hardAlpha"/>
<feOffset dy="-2"/>
<feGaussianBlur stdDeviation="1"/>
<feComposite in2="hardAlpha" operator="arithmetic" k2="-1" k3="1"/>
<feColorMatrix type="matrix" values="0 0 0 0 0.235577 0 0 0 0 0 0 0 0 0 0 0 0 0 1 0"/>
<feBlend mode="normal" in2="shape" result="effect1_innerShadow_370_17976"/>
</filter>
<filter id="filter7_i_370_17976" x="288.977" y="125.27" width="31.6133" height="15.0298" filterUnits="userSpaceOnUse" color-interpolation-filters="sRGB">
<feFlood flood-opacity="0" result="BackgroundImageFix"/>
<feBlend mode="normal" in="SourceGraphic" in2="BackgroundImageFix" result="shape"/>
<feColorMatrix in="SourceAlpha" type="matrix" values="0 0 0 0 0 0 0 0 0 0 0 0 0 0 0 0 0 0 127 0" result="hardAlpha"/>
<feOffset dy="-2"/>
<feGaussianBlur stdDeviation="1"/>
<feComposite in2="hardAlpha" operator="arithmetic" k2="-1" k3="1"/>
<feColorMatrix type="matrix" values="0 0 0 0 0.235577 0 0 0 0 0 0 0 0 0 0 0 0 0 1 0"/>
<feBlend mode="normal" in2="shape" result="effect1_innerShadow_370_17976"/>
</filter>
<filter id="filter8_i_370_17976" x="288.977" y="127.74" width="31.6133" height="15.0298" filterUnits="userSpaceOnUse" color-interpolation-filters="sRGB">
<feFlood flood-opacity="0" result="BackgroundImageFix"/>
<feBlend mode="normal" in="SourceGraphic" in2="BackgroundImageFix" result="shape"/>
<feColorMatrix in="SourceAlpha" type="matrix" values="0 0 0 0 0 0 0 0 0 0 0 0 0 0 0 0 0 0 127 0" result="hardAlpha"/>
<feOffset dy="-2"/>
<feGaussianBlur stdDeviation="1"/>
<feComposite in2="hardAlpha" operator="arithmetic" k2="-1" k3="1"/>
<feColorMatrix type="matrix" values="0 0 0 0 0.235577 0 0 0 0 0 0 0 0 0 0 0 0 0 1 0"/>
<feBlend mode="normal" in2="shape" result="effect1_innerShadow_370_17976"/>
</filter>
<filter id="filter9_i_370_17976" x="288.977" y="130.21" width="31.6133" height="15.0298" filterUnits="userSpaceOnUse" color-interpolation-filters="sRGB">
<feFlood flood-opacity="0" result="BackgroundImageFix"/>
<feBlend mode="normal" in="SourceGraphic" in2="BackgroundImageFix" result="shape"/>
<feColorMatrix in="SourceAlpha" type="matrix" values="0 0 0 0 0 0 0 0 0 0 0 0 0 0 0 0 0 0 127 0" result="hardAlpha"/>
<feOffset dy="-2"/>
<feGaussianBlur stdDeviation="1"/>
<feComposite in2="hardAlpha" operator="arithmetic" k2="-1" k3="1"/>
<feColorMatrix type="matrix" values="0 0 0 0 0.235577 0 0 0 0 0 0 0 0 0 0 0 0 0 1 0"/>
<feBlend mode="normal" in2="shape" result="effect1_innerShadow_370_17976"/>
</filter>
<filter id="filter10_i_370_17976" x="288.977" y="132.68" width="31.6133" height="15.0298" filterUnits="userSpaceOnUse" color-interpolation-filters="sRGB">
<feFlood flood-opacity="0" result="BackgroundImageFix"/>
<feBlend mode="normal" in="SourceGraphic" in2="BackgroundImageFix" result="shape"/>
<feColorMatrix in="SourceAlpha" type="matrix" values="0 0 0 0 0 0 0 0 0 0 0 0 0 0 0 0 0 0 127 0" result="hardAlpha"/>
<feOffset dy="-2"/>
<feGaussianBlur stdDeviation="1"/>
<feComposite in2="hardAlpha" operator="arithmetic" k2="-1" k3="1"/>
<feColorMatrix type="matrix" values="0 0 0 0 0.235577 0 0 0 0 0 0 0 0 0 0 0 0 0 1 0"/>
<feBlend mode="normal" in2="shape" result="effect1_innerShadow_370_17976"/>
</filter>
<filter id="filter11_i_370_17976" x="288.977" y="135.15" width="31.6133" height="15.0298" filterUnits="userSpaceOnUse" color-interpolation-filters="sRGB">
<feFlood flood-opacity="0" result="BackgroundImageFix"/>
<feBlend mode="normal" in="SourceGraphic" in2="BackgroundImageFix" result="shape"/>
<feColorMatrix in="SourceAlpha" type="matrix" values="0 0 0 0 0 0 0 0 0 0 0 0 0 0 0 0 0 0 127 0" result="hardAlpha"/>
<feOffset dy="-2"/>
<feGaussianBlur stdDeviation="1"/>
<feComposite in2="hardAlpha" operator="arithmetic" k2="-1" k3="1"/>
<feColorMatrix type="matrix" values="0 0 0 0 0.235577 0 0 0 0 0 0 0 0 0 0 0 0 0 1 0"/>
<feBlend mode="normal" in2="shape" result="effect1_innerShadow_370_17976"/>
</filter>
<filter id="filter12_i_370_17976" x="288.977" y="137.62" width="31.6133" height="15.0298" filterUnits="userSpaceOnUse" color-interpolation-filters="sRGB">
<feFlood flood-opacity="0" result="BackgroundImageFix"/>
<feBlend mode="normal" in="SourceGraphic" in2="BackgroundImageFix" result="shape"/>
<feColorMatrix in="SourceAlpha" type="matrix" values="0 0 0 0 0 0 0 0 0 0 0 0 0 0 0 0 0 0 127 0" result="hardAlpha"/>
<feOffset dy="-2"/>
<feGaussianBlur stdDeviation="1"/>
<feComposite in2="hardAlpha" operator="arithmetic" k2="-1" k3="1"/>
<feColorMatrix type="matrix" values="0 0 0 0 0.235577 0 0 0 0 0 0 0 0 0 0 0 0 0 1 0"/>
<feBlend mode="normal" in2="shape" result="effect1_innerShadow_370_17976"/>
</filter>
<filter id="filter13_i_370_17976" x="288.977" y="140.09" width="31.6133" height="15.0298" filterUnits="userSpaceOnUse" color-interpolation-filters="sRGB">
<feFlood flood-opacity="0" result="BackgroundImageFix"/>
<feBlend mode="normal" in="SourceGraphic" in2="BackgroundImageFix" result="shape"/>
<feColorMatrix in="SourceAlpha" type="matrix" values="0 0 0 0 0 0 0 0 0 0 0 0 0 0 0 0 0 0 127 0" result="hardAlpha"/>
<feOffset dy="-2"/>
<feGaussianBlur stdDeviation="1"/>
<feComposite in2="hardAlpha" operator="arithmetic" k2="-1" k3="1"/>
<feColorMatrix type="matrix" values="0 0 0 0 0.235577 0 0 0 0 0 0 0 0 0 0 0 0 0 1 0"/>
<feBlend mode="normal" in2="shape" result="effect1_innerShadow_370_17976"/>
</filter>
<filter id="filter14_i_370_17976" x="288.977" y="142.56" width="31.6133" height="15.0298" filterUnits="userSpaceOnUse" color-interpolation-filters="sRGB">
<feFlood flood-opacity="0" result="BackgroundImageFix"/>
<feBlend mode="normal" in="SourceGraphic" in2="BackgroundImageFix" result="shape"/>
<feColorMatrix in="SourceAlpha" type="matrix" values="0 0 0 0 0 0 0 0 0 0 0 0 0 0 0 0 0 0 127 0" result="hardAlpha"/>
<feOffset dy="-2"/>
<feGaussianBlur stdDeviation="1"/>
<feComposite in2="hardAlpha" operator="arithmetic" k2="-1" k3="1"/>
<feColorMatrix type="matrix" values="0 0 0 0 0.235577 0 0 0 0 0 0 0 0 0 0 0 0 0 1 0"/>
<feBlend mode="normal" in2="shape" result="effect1_innerShadow_370_17976"/>
</filter>
<filter id="filter15_i_370_17976" x="288.977" y="145.03" width="31.6133" height="15.0298" filterUnits="userSpaceOnUse" color-interpolation-filters="sRGB">
<feFlood flood-opacity="0" result="BackgroundImageFix"/>
<feBlend mode="normal" in="SourceGraphic" in2="BackgroundImageFix" result="shape"/>
<feColorMatrix in="SourceAlpha" type="matrix" values="0 0 0 0 0 0 0 0 0 0 0 0 0 0 0 0 0 0 127 0" result="hardAlpha"/>
<feOffset dy="-2"/>
<feGaussianBlur stdDeviation="1"/>
<feComposite in2="hardAlpha" operator="arithmetic" k2="-1" k3="1"/>
<feColorMatrix type="matrix" values="0 0 0 0 0.235577 0 0 0 0 0 0 0 0 0 0 0 0 0 1 0"/>
<feBlend mode="normal" in2="shape" result="effect1_innerShadow_370_17976"/>
</filter>
<filter id="filter16_i_370_17976" x="288.977" y="147.5" width="31.6133" height="15.0298" filterUnits="userSpaceOnUse" color-interpolation-filters="sRGB">
<feFlood flood-opacity="0" result="BackgroundImageFix"/>
<feBlend mode="normal" in="SourceGraphic" in2="BackgroundImageFix" result="shape"/>
<feColorMatrix in="SourceAlpha" type="matrix" values="0 0 0 0 0 0 0 0 0 0 0 0 0 0 0 0 0 0 127 0" result="hardAlpha"/>
<feOffset dy="-2"/>
<feGaussianBlur stdDeviation="1"/>
<feComposite in2="hardAlpha" operator="arithmetic" k2="-1" k3="1"/>
<feColorMatrix type="matrix" values="0 0 0 0 0.235577 0 0 0 0 0 0 0 0 0 0 0 0 0 1 0"/>
<feBlend mode="normal" in2="shape" result="effect1_innerShadow_370_17976"/>
</filter>
<filter id="filter17_i_370_17976" x="288.977" y="149.97" width="31.6133" height="15.0298" filterUnits="userSpaceOnUse" color-interpolation-filters="sRGB">
<feFlood flood-opacity="0" result="BackgroundImageFix"/>
<feBlend mode="normal" in="SourceGraphic" in2="BackgroundImageFix" result="shape"/>
<feColorMatrix in="SourceAlpha" type="matrix" values="0 0 0 0 0 0 0 0 0 0 0 0 0 0 0 0 0 0 127 0" result="hardAlpha"/>
<feOffset dy="-2"/>
<feGaussianBlur stdDeviation="1"/>
<feComposite in2="hardAlpha" operator="arithmetic" k2="-1" k3="1"/>
<feColorMatrix type="matrix" values="0 0 0 0 0.235577 0 0 0 0 0 0 0 0 0 0 0 0 0 1 0"/>
<feBlend mode="normal" in2="shape" result="effect1_innerShadow_370_17976"/>
</filter>
<filter id="filter18_i_370_17976" x="288.977" y="152.44" width="31.6133" height="15.0298" filterUnits="userSpaceOnUse" color-interpolation-filters="sRGB">
<feFlood flood-opacity="0" result="BackgroundImageFix"/>
<feBlend mode="normal" in="SourceGraphic" in2="BackgroundImageFix" result="shape"/>
<feColorMatrix in="SourceAlpha" type="matrix" values="0 0 0 0 0 0 0 0 0 0 0 0 0 0 0 0 0 0 127 0" result="hardAlpha"/>
<feOffset dy="-2"/>
<feGaussianBlur stdDeviation="1"/>
<feComposite in2="hardAlpha" operator="arithmetic" k2="-1" k3="1"/>
<feColorMatrix type="matrix" values="0 0 0 0 0.235577 0 0 0 0 0 0 0 0 0 0 0 0 0 1 0"/>
<feBlend mode="normal" in2="shape" result="effect1_innerShadow_370_17976"/>
</filter>
<filter id="filter19_i_370_17976" x="288.977" y="154.911" width="31.6133" height="15.0298" filterUnits="userSpaceOnUse" color-interpolation-filters="sRGB">
<feFlood flood-opacity="0" result="BackgroundImageFix"/>
<feBlend mode="normal" in="SourceGraphic" in2="BackgroundImageFix" result="shape"/>
<feColorMatrix in="SourceAlpha" type="matrix" values="0 0 0 0 0 0 0 0 0 0 0 0 0 0 0 0 0 0 127 0" result="hardAlpha"/>
<feOffset dy="-2"/>
<feGaussianBlur stdDeviation="1"/>
<feComposite in2="hardAlpha" operator="arithmetic" k2="-1" k3="1"/>
<feColorMatrix type="matrix" values="0 0 0 0 0.235577 0 0 0 0 0 0 0 0 0 0 0 0 0 1 0"/>
<feBlend mode="normal" in2="shape" result="effect1_innerShadow_370_17976"/>
</filter>
<filter id="filter20_i_370_17976" x="288.977" y="157.38" width="31.6133" height="15.0298" filterUnits="userSpaceOnUse" color-interpolation-filters="sRGB">
<feFlood flood-opacity="0" result="BackgroundImageFix"/>
<feBlend mode="normal" in="SourceGraphic" in2="BackgroundImageFix" result="shape"/>
<feColorMatrix in="SourceAlpha" type="matrix" values="0 0 0 0 0 0 0 0 0 0 0 0 0 0 0 0 0 0 127 0" result="hardAlpha"/>
<feOffset dy="-2"/>
<feGaussianBlur stdDeviation="1"/>
<feComposite in2="hardAlpha" operator="arithmetic" k2="-1" k3="1"/>
<feColorMatrix type="matrix" values="0 0 0 0 0.235577 0 0 0 0 0 0 0 0 0 0 0 0 0 1 0"/>
<feBlend mode="normal" in2="shape" result="effect1_innerShadow_370_17976"/>
</filter>
<filter id="filter21_i_370_17976" x="288.977" y="159.851" width="31.6133" height="15.0298" filterUnits="userSpaceOnUse" color-interpolation-filters="sRGB">
<feFlood flood-opacity="0" result="BackgroundImageFix"/>
<feBlend mode="normal" in="SourceGraphic" in2="BackgroundImageFix" result="shape"/>
<feColorMatrix in="SourceAlpha" type="matrix" values="0 0 0 0 0 0 0 0 0 0 0 0 0 0 0 0 0 0 127 0" result="hardAlpha"/>
<feOffset dy="-2"/>
<feGaussianBlur stdDeviation="1"/>
<feComposite in2="hardAlpha" operator="arithmetic" k2="-1" k3="1"/>
<feColorMatrix type="matrix" values="0 0 0 0 0.235577 0 0 0 0 0 0 0 0 0 0 0 0 0 1 0"/>
<feBlend mode="normal" in2="shape" result="effect1_innerShadow_370_17976"/>
</filter>
<filter id="filter22_i_370_17976" x="288.977" y="162.321" width="31.6133" height="15.0298" filterUnits="userSpaceOnUse" color-interpolation-filters="sRGB">
<feFlood flood-opacity="0" result="BackgroundImageFix"/>
<feBlend mode="normal" in="SourceGraphic" in2="BackgroundImageFix" result="shape"/>
<feColorMatrix in="SourceAlpha" type="matrix" values="0 0 0 0 0 0 0 0 0 0 0 0 0 0 0 0 0 0 127 0" result="hardAlpha"/>
<feOffset dy="-2"/>
<feGaussianBlur stdDeviation="1"/>
<feComposite in2="hardAlpha" operator="arithmetic" k2="-1" k3="1"/>
<feColorMatrix type="matrix" values="0 0 0 0 0.235577 0 0 0 0 0 0 0 0 0 0 0 0 0 1 0"/>
<feBlend mode="normal" in2="shape" result="effect1_innerShadow_370_17976"/>
</filter>
<filter id="filter23_i_370_17976" x="288.977" y="164.791" width="31.6133" height="15.0298" filterUnits="userSpaceOnUse" color-interpolation-filters="sRGB">
<feFlood flood-opacity="0" result="BackgroundImageFix"/>
<feBlend mode="normal" in="SourceGraphic" in2="BackgroundImageFix" result="shape"/>
<feColorMatrix in="SourceAlpha" type="matrix" values="0 0 0 0 0 0 0 0 0 0 0 0 0 0 0 0 0 0 127 0" result="hardAlpha"/>
<feOffset dy="-2"/>
<feGaussianBlur stdDeviation="1"/>
<feComposite in2="hardAlpha" operator="arithmetic" k2="-1" k3="1"/>
<feColorMatrix type="matrix" values="0 0 0 0 0.235577 0 0 0 0 0 0 0 0 0 0 0 0 0 1 0"/>
<feBlend mode="normal" in2="shape" result="effect1_innerShadow_370_17976"/>
</filter>
<filter id="filter24_i_370_17976" x="288.977" y="167.261" width="31.6133" height="15.0298" filterUnits="userSpaceOnUse" color-interpolation-filters="sRGB">
<feFlood flood-opacity="0" result="BackgroundImageFix"/>
<feBlend mode="normal" in="SourceGraphic" in2="BackgroundImageFix" result="shape"/>
<feColorMatrix in="SourceAlpha" type="matrix" values="0 0 0 0 0 0 0 0 0 0 0 0 0 0 0 0 0 0 127 0" result="hardAlpha"/>
<feOffset dy="-2"/>
<feGaussianBlur stdDeviation="1"/>
<feComposite in2="hardAlpha" operator="arithmetic" k2="-1" k3="1"/>
<feColorMatrix type="matrix" values="0 0 0 0 0.235577 0 0 0 0 0 0 0 0 0 0 0 0 0 1 0"/>
<feBlend mode="normal" in2="shape" result="effect1_innerShadow_370_17976"/>
</filter>
<filter id="filter25_i_370_17976" x="288.977" y="169.731" width="31.6133" height="15.0298" filterUnits="userSpaceOnUse" color-interpolation-filters="sRGB">
<feFlood flood-opacity="0" result="BackgroundImageFix"/>
<feBlend mode="normal" in="SourceGraphic" in2="BackgroundImageFix" result="shape"/>
<feColorMatrix in="SourceAlpha" type="matrix" values="0 0 0 0 0 0 0 0 0 0 0 0 0 0 0 0 0 0 127 0" result="hardAlpha"/>
<feOffset dy="-2"/>
<feGaussianBlur stdDeviation="1"/>
<feComposite in2="hardAlpha" operator="arithmetic" k2="-1" k3="1"/>
<feColorMatrix type="matrix" values="0 0 0 0 0.235577 0 0 0 0 0 0 0 0 0 0 0 0 0 1 0"/>
<feBlend mode="normal" in2="shape" result="effect1_innerShadow_370_17976"/>
</filter>
<filter id="filter26_i_370_17976" x="288.977" y="172.201" width="31.6133" height="15.0298" filterUnits="userSpaceOnUse" color-interpolation-filters="sRGB">
<feFlood flood-opacity="0" result="BackgroundImageFix"/>
<feBlend mode="normal" in="SourceGraphic" in2="BackgroundImageFix" result="shape"/>
<feColorMatrix in="SourceAlpha" type="matrix" values="0 0 0 0 0 0 0 0 0 0 0 0 0 0 0 0 0 0 127 0" result="hardAlpha"/>
<feOffset dy="-2"/>
<feGaussianBlur stdDeviation="1"/>
<feComposite in2="hardAlpha" operator="arithmetic" k2="-1" k3="1"/>
<feColorMatrix type="matrix" values="0 0 0 0 0.235577 0 0 0 0 0 0 0 0 0 0 0 0 0 1 0"/>
<feBlend mode="normal" in2="shape" result="effect1_innerShadow_370_17976"/>
</filter>
<filter id="filter27_i_370_17976" x="288.977" y="174.671" width="31.6133" height="15.0298" filterUnits="userSpaceOnUse" color-interpolation-filters="sRGB">
<feFlood flood-opacity="0" result="BackgroundImageFix"/>
<feBlend mode="normal" in="SourceGraphic" in2="BackgroundImageFix" result="shape"/>
<feColorMatrix in="SourceAlpha" type="matrix" values="0 0 0 0 0 0 0 0 0 0 0 0 0 0 0 0 0 0 127 0" result="hardAlpha"/>
<feOffset dy="-2"/>
<feGaussianBlur stdDeviation="1"/>
<feComposite in2="hardAlpha" operator="arithmetic" k2="-1" k3="1"/>
<feColorMatrix type="matrix" values="0 0 0 0 0.235577 0 0 0 0 0 0 0 0 0 0 0 0 0 1 0"/>
<feBlend mode="normal" in2="shape" result="effect1_innerShadow_370_17976"/>
</filter>
<filter id="filter28_i_370_17976" x="288.977" y="177.141" width="31.6133" height="15.0298" filterUnits="userSpaceOnUse" color-interpolation-filters="sRGB">
<feFlood flood-opacity="0" result="BackgroundImageFix"/>
<feBlend mode="normal" in="SourceGraphic" in2="BackgroundImageFix" result="shape"/>
<feColorMatrix in="SourceAlpha" type="matrix" values="0 0 0 0 0 0 0 0 0 0 0 0 0 0 0 0 0 0 127 0" result="hardAlpha"/>
<feOffset dy="-2"/>
<feGaussianBlur stdDeviation="1"/>
<feComposite in2="hardAlpha" operator="arithmetic" k2="-1" k3="1"/>
<feColorMatrix type="matrix" values="0 0 0 0 0.235577 0 0 0 0 0 0 0 0 0 0 0 0 0 1 0"/>
<feBlend mode="normal" in2="shape" result="effect1_innerShadow_370_17976"/>
</filter>
<filter id="filter29_i_370_17976" x="288.977" y="179.611" width="31.6133" height="15.0298" filterUnits="userSpaceOnUse" color-interpolation-filters="sRGB">
<feFlood flood-opacity="0" result="BackgroundImageFix"/>
<feBlend mode="normal" in="SourceGraphic" in2="BackgroundImageFix" result="shape"/>
<feColorMatrix in="SourceAlpha" type="matrix" values="0 0 0 0 0 0 0 0 0 0 0 0 0 0 0 0 0 0 127 0" result="hardAlpha"/>
<feOffset dy="-2"/>
<feGaussianBlur stdDeviation="1"/>
<feComposite in2="hardAlpha" operator="arithmetic" k2="-1" k3="1"/>
<feColorMatrix type="matrix" values="0 0 0 0 0.235577 0 0 0 0 0 0 0 0 0 0 0 0 0 1 0"/>
<feBlend mode="normal" in2="shape" result="effect1_innerShadow_370_17976"/>
</filter>
<filter id="filter30_i_370_17976" x="288.977" y="182.081" width="31.6133" height="15.0298" filterUnits="userSpaceOnUse" color-interpolation-filters="sRGB">
<feFlood flood-opacity="0" result="BackgroundImageFix"/>
<feBlend mode="normal" in="SourceGraphic" in2="BackgroundImageFix" result="shape"/>
<feColorMatrix in="SourceAlpha" type="matrix" values="0 0 0 0 0 0 0 0 0 0 0 0 0 0 0 0 0 0 127 0" result="hardAlpha"/>
<feOffset dy="-2"/>
<feGaussianBlur stdDeviation="1"/>
<feComposite in2="hardAlpha" operator="arithmetic" k2="-1" k3="1"/>
<feColorMatrix type="matrix" values="0 0 0 0 0.235577 0 0 0 0 0 0 0 0 0 0 0 0 0 1 0"/>
<feBlend mode="normal" in2="shape" result="effect1_innerShadow_370_17976"/>
</filter>
<filter id="filter31_i_370_17976" x="288.977" y="184.551" width="31.6133" height="15.0298" filterUnits="userSpaceOnUse" color-interpolation-filters="sRGB">
<feFlood flood-opacity="0" result="BackgroundImageFix"/>
<feBlend mode="normal" in="SourceGraphic" in2="BackgroundImageFix" result="shape"/>
<feColorMatrix in="SourceAlpha" type="matrix" values="0 0 0 0 0 0 0 0 0 0 0 0 0 0 0 0 0 0 127 0" result="hardAlpha"/>
<feOffset dy="-2"/>
<feGaussianBlur stdDeviation="1"/>
<feComposite in2="hardAlpha" operator="arithmetic" k2="-1" k3="1"/>
<feColorMatrix type="matrix" values="0 0 0 0 0.235577 0 0 0 0 0 0 0 0 0 0 0 0 0 1 0"/>
<feBlend mode="normal" in2="shape" result="effect1_innerShadow_370_17976"/>
</filter>
<filter id="filter32_i_370_17976" x="288.977" y="187.021" width="31.6133" height="15.0298" filterUnits="userSpaceOnUse" color-interpolation-filters="sRGB">
<feFlood flood-opacity="0" result="BackgroundImageFix"/>
<feBlend mode="normal" in="SourceGraphic" in2="BackgroundImageFix" result="shape"/>
<feColorMatrix in="SourceAlpha" type="matrix" values="0 0 0 0 0 0 0 0 0 0 0 0 0 0 0 0 0 0 127 0" result="hardAlpha"/>
<feOffset dy="-2"/>
<feGaussianBlur stdDeviation="1"/>
<feComposite in2="hardAlpha" operator="arithmetic" k2="-1" k3="1"/>
<feColorMatrix type="matrix" values="0 0 0 0 0.235577 0 0 0 0 0 0 0 0 0 0 0 0 0 1 0"/>
<feBlend mode="normal" in2="shape" result="effect1_innerShadow_370_17976"/>
</filter>
<filter id="filter33_i_370_17976" x="288.977" y="189.491" width="31.6133" height="15.0298" filterUnits="userSpaceOnUse" color-interpolation-filters="sRGB">
<feFlood flood-opacity="0" result="BackgroundImageFix"/>
<feBlend mode="normal" in="SourceGraphic" in2="BackgroundImageFix" result="shape"/>
<feColorMatrix in="SourceAlpha" type="matrix" values="0 0 0 0 0 0 0 0 0 0 0 0 0 0 0 0 0 0 127 0" result="hardAlpha"/>
<feOffset dy="-2"/>
<feGaussianBlur stdDeviation="1"/>
<feComposite in2="hardAlpha" operator="arithmetic" k2="-1" k3="1"/>
<feColorMatrix type="matrix" values="0 0 0 0 0.235577 0 0 0 0 0 0 0 0 0 0 0 0 0 1 0"/>
<feBlend mode="normal" in2="shape" result="effect1_innerShadow_370_17976"/>
</filter>
<filter id="filter34_i_370_17976" x="288.977" y="191.961" width="31.6133" height="15.0298" filterUnits="userSpaceOnUse" color-interpolation-filters="sRGB">
<feFlood flood-opacity="0" result="BackgroundImageFix"/>
<feBlend mode="normal" in="SourceGraphic" in2="BackgroundImageFix" result="shape"/>
<feColorMatrix in="SourceAlpha" type="matrix" values="0 0 0 0 0 0 0 0 0 0 0 0 0 0 0 0 0 0 127 0" result="hardAlpha"/>
<feOffset dy="-2"/>
<feGaussianBlur stdDeviation="1"/>
<feComposite in2="hardAlpha" operator="arithmetic" k2="-1" k3="1"/>
<feColorMatrix type="matrix" values="0 0 0 0 0.235577 0 0 0 0 0 0 0 0 0 0 0 0 0 1 0"/>
<feBlend mode="normal" in2="shape" result="effect1_innerShadow_370_17976"/>
</filter>
<filter id="filter35_i_370_17976" x="288.977" y="194.432" width="31.6133" height="15.0298" filterUnits="userSpaceOnUse" color-interpolation-filters="sRGB">
<feFlood flood-opacity="0" result="BackgroundImageFix"/>
<feBlend mode="normal" in="SourceGraphic" in2="BackgroundImageFix" result="shape"/>
<feColorMatrix in="SourceAlpha" type="matrix" values="0 0 0 0 0 0 0 0 0 0 0 0 0 0 0 0 0 0 127 0" result="hardAlpha"/>
<feOffset dy="-2"/>
<feGaussianBlur stdDeviation="1"/>
<feComposite in2="hardAlpha" operator="arithmetic" k2="-1" k3="1"/>
<feColorMatrix type="matrix" values="0 0 0 0 0.235577 0 0 0 0 0 0 0 0 0 0 0 0 0 1 0"/>
<feBlend mode="normal" in2="shape" result="effect1_innerShadow_370_17976"/>
</filter>
<filter id="filter36_i_370_17976" x="288.977" y="196.901" width="31.6133" height="15.0298" filterUnits="userSpaceOnUse" color-interpolation-filters="sRGB">
<feFlood flood-opacity="0" result="BackgroundImageFix"/>
<feBlend mode="normal" in="SourceGraphic" in2="BackgroundImageFix" result="shape"/>
<feColorMatrix in="SourceAlpha" type="matrix" values="0 0 0 0 0 0 0 0 0 0 0 0 0 0 0 0 0 0 127 0" result="hardAlpha"/>
<feOffset dy="-2"/>
<feGaussianBlur stdDeviation="1"/>
<feComposite in2="hardAlpha" operator="arithmetic" k2="-1" k3="1"/>
<feColorMatrix type="matrix" values="0 0 0 0 0.235577 0 0 0 0 0 0 0 0 0 0 0 0 0 1 0"/>
<feBlend mode="normal" in2="shape" result="effect1_innerShadow_370_17976"/>
</filter>
<filter id="filter37_i_370_17976" x="288.977" y="199.372" width="31.6133" height="15.0298" filterUnits="userSpaceOnUse" color-interpolation-filters="sRGB">
<feFlood flood-opacity="0" result="BackgroundImageFix"/>
<feBlend mode="normal" in="SourceGraphic" in2="BackgroundImageFix" result="shape"/>
<feColorMatrix in="SourceAlpha" type="matrix" values="0 0 0 0 0 0 0 0 0 0 0 0 0 0 0 0 0 0 127 0" result="hardAlpha"/>
<feOffset dy="-2"/>
<feGaussianBlur stdDeviation="1"/>
<feComposite in2="hardAlpha" operator="arithmetic" k2="-1" k3="1"/>
<feColorMatrix type="matrix" values="0 0 0 0 0.235577 0 0 0 0 0 0 0 0 0 0 0 0 0 1 0"/>
<feBlend mode="normal" in2="shape" result="effect1_innerShadow_370_17976"/>
</filter>
<filter id="filter38_i_370_17976" x="288.977" y="201.842" width="31.6133" height="15.0298" filterUnits="userSpaceOnUse" color-interpolation-filters="sRGB">
<feFlood flood-opacity="0" result="BackgroundImageFix"/>
<feBlend mode="normal" in="SourceGraphic" in2="BackgroundImageFix" result="shape"/>
<feColorMatrix in="SourceAlpha" type="matrix" values="0 0 0 0 0 0 0 0 0 0 0 0 0 0 0 0 0 0 127 0" result="hardAlpha"/>
<feOffset dy="-2"/>
<feGaussianBlur stdDeviation="1"/>
<feComposite in2="hardAlpha" operator="arithmetic" k2="-1" k3="1"/>
<feColorMatrix type="matrix" values="0 0 0 0 0.235577 0 0 0 0 0 0 0 0 0 0 0 0 0 1 0"/>
<feBlend mode="normal" in2="shape" result="effect1_innerShadow_370_17976"/>
</filter>
<filter id="filter39_i_370_17976" x="288.977" y="204.312" width="31.6133" height="15.0298" filterUnits="userSpaceOnUse" color-interpolation-filters="sRGB">
<feFlood flood-opacity="0" result="BackgroundImageFix"/>
<feBlend mode="normal" in="SourceGraphic" in2="BackgroundImageFix" result="shape"/>
<feColorMatrix in="SourceAlpha" type="matrix" values="0 0 0 0 0 0 0 0 0 0 0 0 0 0 0 0 0 0 127 0" result="hardAlpha"/>
<feOffset dy="-2"/>
<feGaussianBlur stdDeviation="1"/>
<feComposite in2="hardAlpha" operator="arithmetic" k2="-1" k3="1"/>
<feColorMatrix type="matrix" values="0 0 0 0 0.235577 0 0 0 0 0 0 0 0 0 0 0 0 0 1 0"/>
<feBlend mode="normal" in2="shape" result="effect1_innerShadow_370_17976"/>
</filter>
<filter id="filter40_i_370_17976" x="288.977" y="206.782" width="31.6133" height="15.0298" filterUnits="userSpaceOnUse" color-interpolation-filters="sRGB">
<feFlood flood-opacity="0" result="BackgroundImageFix"/>
<feBlend mode="normal" in="SourceGraphic" in2="BackgroundImageFix" result="shape"/>
<feColorMatrix in="SourceAlpha" type="matrix" values="0 0 0 0 0 0 0 0 0 0 0 0 0 0 0 0 0 0 127 0" result="hardAlpha"/>
<feOffset dy="-2"/>
<feGaussianBlur stdDeviation="1"/>
<feComposite in2="hardAlpha" operator="arithmetic" k2="-1" k3="1"/>
<feColorMatrix type="matrix" values="0 0 0 0 0.235577 0 0 0 0 0 0 0 0 0 0 0 0 0 1 0"/>
<feBlend mode="normal" in2="shape" result="effect1_innerShadow_370_17976"/>
</filter>
<filter id="filter41_i_370_17976" x="288.977" y="209.252" width="31.6133" height="15.0298" filterUnits="userSpaceOnUse" color-interpolation-filters="sRGB">
<feFlood flood-opacity="0" result="BackgroundImageFix"/>
<feBlend mode="normal" in="SourceGraphic" in2="BackgroundImageFix" result="shape"/>
<feColorMatrix in="SourceAlpha" type="matrix" values="0 0 0 0 0 0 0 0 0 0 0 0 0 0 0 0 0 0 127 0" result="hardAlpha"/>
<feOffset dy="-2"/>
<feGaussianBlur stdDeviation="1"/>
<feComposite in2="hardAlpha" operator="arithmetic" k2="-1" k3="1"/>
<feColorMatrix type="matrix" values="0 0 0 0 0.235577 0 0 0 0 0 0 0 0 0 0 0 0 0 1 0"/>
<feBlend mode="normal" in2="shape" result="effect1_innerShadow_370_17976"/>
</filter>
<linearGradient id="paint0_linear_370_17976" x1="55.6003" y1="174.582" x2="6.48619" y2="242.34" gradientUnits="userSpaceOnUse">
<stop stop-color="#EEEEEE"/>
<stop offset="0.334842" stop-color="#E3E3E3"/>
<stop offset="0.751797" stop-color="#737B7F"/>
<stop offset="1" stop-color="#EEEEEE"/>
</linearGradient>
<linearGradient id="paint1_linear_370_17976" x1="47.4205" y1="271.213" x2="47.4205" y2="172.41" gradientUnits="userSpaceOnUse">
<stop stop-color="#FF4100"/>
<stop offset="0.115462" stop-color="#FF6835"/>
<stop offset="0.212121" stop-color="#FF6835"/>
<stop offset="0.541622" stop-color="white"/>
<stop offset="0.890909" stop-color="white"/>
<stop offset="1" stop-color="#FF6835"/>
</linearGradient>
<linearGradient id="paint2_linear_370_17976" x1="153.352" y1="164.067" x2="140.812" y2="179.358" gradientUnits="userSpaceOnUse">
<stop stop-color="#EEEEEE"/>
<stop offset="0.334842" stop-color="#E3E3E3"/>
<stop offset="0.751797" stop-color="#737B7F"/>
<stop offset="1" stop-color="#EEEEEE"/>
</linearGradient>
<linearGradient id="paint3_linear_370_17976" x1="155.108" y1="175.537" x2="146.676" y2="162.638" gradientUnits="userSpaceOnUse">
<stop stop-color="#343030"/>
<stop offset="0.115462" stop-color="#80868D"/>
<stop offset="0.212121" stop-color="#80868D"/>
<stop offset="0.541622" stop-color="white"/>
<stop offset="0.890909" stop-color="white"/>
<stop offset="1" stop-color="#B2B2B2"/>
</linearGradient>
<linearGradient id="paint4_linear_370_17976" x1="183.211" y1="126.083" x2="158.132" y2="156.665" gradientUnits="userSpaceOnUse">
<stop stop-color="#EEEEEE"/>
<stop offset="0.334842" stop-color="#E3E3E3"/>
<stop offset="0.751797" stop-color="#737B7F"/>
<stop offset="1" stop-color="#EEEEEE"/>
</linearGradient>
<linearGradient id="paint5_linear_370_17976" x1="186.724" y1="149.023" x2="169.861" y2="123.225" gradientUnits="userSpaceOnUse">
<stop stop-color="#343030"/>
<stop offset="0.115462" stop-color="#80868D"/>
<stop offset="0.212121" stop-color="#80868D"/>
<stop offset="0.541622" stop-color="white"/>
<stop offset="0.890909" stop-color="white"/>
<stop offset="1" stop-color="#B2B2B2"/>
</linearGradient>
<linearGradient id="paint6_linear_370_17976" x1="183.211" y1="126.083" x2="158.132" y2="156.665" gradientUnits="userSpaceOnUse">
<stop stop-color="#EEEEEE"/>
<stop offset="0.334842" stop-color="#E3E3E3"/>
<stop offset="0.751797" stop-color="#737B7F"/>
<stop offset="1" stop-color="#EEEEEE"/>
</linearGradient>
<linearGradient id="paint7_linear_370_17976" x1="212.409" y1="206.003" x2="212.409" y2="154.626" gradientUnits="userSpaceOnUse">
<stop stop-color="#F79C1E"/>
<stop offset="1" stop-color="#FF4100"/>
</linearGradient>
<linearGradient id="paint8_linear_370_17976" x1="242.542" y1="198.84" x2="212.406" y2="154.628" gradientUnits="userSpaceOnUse">
<stop stop-color="#FF4100"/>
<stop offset="0.115462" stop-color="#FF6835"/>
<stop offset="0.212121" stop-color="#FF6835"/>
<stop offset="0.541622" stop-color="white"/>
<stop offset="0.890909" stop-color="white"/>
<stop offset="1" stop-color="#FF6835"/>
</linearGradient>
<linearGradient id="paint9_linear_370_17976" x1="301.476" y1="221.918" x2="308.688" y2="222.328" gradientUnits="userSpaceOnUse">
<stop stop-color="#EEEEEE"/>
<stop offset="0.334842" stop-color="#E3E3E3"/>
<stop offset="0.751797" stop-color="#737B7F"/>
<stop offset="1" stop-color="#EEEEEE"/>
</linearGradient>
<linearGradient id="paint10_linear_370_17976" x1="308.24" y1="229.222" x2="301.324" y2="229.222" gradientUnits="userSpaceOnUse">
<stop stop-color="#343030"/>
<stop offset="0.115462" stop-color="#80868D"/>
<stop offset="0.212121" stop-color="#80868D"/>
<stop offset="0.541622" stop-color="white"/>
<stop offset="0.890909" stop-color="white"/>
<stop offset="1" stop-color="#B2B2B2"/>
</linearGradient>
<linearGradient id="paint11_linear_370_17976" x1="301.476" y1="88.0814" x2="308.662" y2="88.6731" gradientUnits="userSpaceOnUse">
<stop stop-color="#EEEEEE"/>
<stop offset="0.334842" stop-color="#E3E3E3"/>
<stop offset="0.751797" stop-color="#737B7F"/>
<stop offset="1" stop-color="#EEEEEE"/>
</linearGradient>
<linearGradient id="paint12_linear_370_17976" x1="308.24" y1="93.1211" x2="301.324" y2="93.1211" gradientUnits="userSpaceOnUse">
<stop stop-color="#343030"/>
<stop offset="0.115462" stop-color="#80868D"/>
<stop offset="0.212121" stop-color="#80868D"/>
<stop offset="0.541622" stop-color="white"/>
<stop offset="0.890909" stop-color="white"/>
<stop offset="1" stop-color="#B2B2B2"/>
</linearGradient>
<linearGradient id="paint13_linear_370_17976" x1="153.352" y1="164.067" x2="140.812" y2="179.358" gradientUnits="userSpaceOnUse">
<stop stop-color="#EEEEEE"/>
<stop offset="0.334842" stop-color="#E3E3E3"/>
<stop offset="0.751797" stop-color="#737B7F"/>
<stop offset="1" stop-color="#EEEEEE"/>
</linearGradient>
<linearGradient id="paint14_linear_370_17976" x1="212.409" y1="206.003" x2="212.409" y2="154.626" gradientUnits="userSpaceOnUse">
<stop stop-color="#F79C1E"/>
<stop offset="1" stop-color="#FF4100"/>
</linearGradient>
</defs>
</svg>
