<svg width="664" height="668" viewBox="0 0 664 668" fill="none" xmlns="http://www.w3.org/2000/svg">
<rect width="664" height="668" fill="#FAFAFA"/>
<path d="M168 334C168 356.091 160.402 374 151.03 374C141.658 374 134.061 356.091 134.061 334C134.061 311.909 141.658 294 151.03 294C160.402 294 168 311.909 168 334Z" fill="url(#paint0_linear_369_11326)"/>
<path d="M96 334C96 356.091 103.598 374 112.97 374H151.03C141.658 374 134.061 356.091 134.061 334C134.061 311.909 141.658 294 151.03 294H112.97C103.598 294 96 311.909 96 334Z" fill="url(#paint1_linear_369_11326)"/>
<path d="M133.561 334C133.561 322.904 135.467 312.834 138.57 305.521C140.121 301.864 141.982 298.873 144.072 296.789C145.037 295.827 146.059 295.055 147.125 294.5H112.97C110.798 294.5 108.686 295.535 106.718 297.497C104.748 299.461 102.951 302.329 101.431 305.911C98.3918 313.074 96.5 323.005 96.5 334C96.5 344.995 98.3918 354.926 101.431 362.089C102.951 365.671 104.748 368.539 106.718 370.503C108.686 372.465 110.798 373.5 112.97 373.5H147.125C146.059 372.945 145.037 372.173 144.072 371.211C141.982 369.127 140.121 366.136 138.57 362.479C135.467 355.166 133.561 345.096 133.561 334ZM134.561 334C134.561 344.995 136.452 354.926 139.491 362.089C141.011 365.671 142.808 368.539 144.778 370.503C146.746 372.465 148.858 373.5 151.03 373.5C153.202 373.5 155.314 372.465 157.282 370.503C159.252 368.539 161.049 365.671 162.569 362.089C165.608 354.926 167.5 344.995 167.5 334C167.5 323.005 165.608 313.074 162.569 305.911C161.049 302.329 159.252 299.461 157.282 297.497C155.314 295.535 153.202 294.5 151.03 294.5C148.858 294.5 146.746 295.535 144.778 297.497C142.808 299.461 141.011 302.329 139.491 305.911C136.452 313.074 134.561 323.005 134.561 334ZM168.5 334C168.5 345.096 166.593 355.166 163.49 362.479C161.939 366.136 160.079 369.127 157.988 371.211C156.027 373.167 153.837 374.346 151.5 374.486L151.03 374.5H112.97C110.456 374.5 108.104 373.297 106.012 371.211C103.921 369.127 102.061 366.136 100.51 362.479C97.4069 355.166 95.5 345.096 95.5 334C95.5 322.904 97.4069 312.834 100.51 305.521C102.061 301.864 103.921 298.873 106.012 296.789C108.104 294.703 110.456 293.5 112.97 293.5H151.03C153.544 293.5 155.896 294.703 157.988 296.789C160.079 298.873 161.939 301.864 163.49 305.521C166.593 312.834 168.5 322.904 168.5 334Z" fill="black"/>
<path d="M132 134C132 111.909 149.909 94 172 94H492C514.091 94 532 111.909 532 134V388.49C532 404.049 522.977 418.197 508.869 424.758L360 494H304L155.131 424.759C141.023 418.197 132 404.049 132 388.49V134Z" fill="url(#paint2_linear_369_11326)"/>
<path d="M531.5 134C531.5 112.185 513.815 94.5 492 94.5H172C150.185 94.5 132.5 112.185 132.5 134V388.489C132.5 403.854 141.41 417.825 155.342 424.305L304.11 493.5H359.89L508.658 424.305C522.59 417.825 531.5 403.854 531.5 388.489V134ZM532.5 388.489C532.5 404.243 523.364 418.568 509.08 425.212L360.11 494.5H303.89L154.92 425.212C140.636 418.568 131.5 404.243 131.5 388.489V134C131.5 111.632 149.632 93.5 172 93.5H492C514.368 93.5 532.5 111.632 532.5 134V388.489Z" fill="black"/>
<g filter="url(#filter0_f_369_11326)">
<path d="M156 174C156 156.327 170.327 142 188 142H452C469.673 142 484 156.327 484 174V383.992C484 396.439 476.782 407.757 465.495 413.007L349.378 467.015C345.15 468.981 340.544 470 335.882 470H304.118C299.456 470 294.85 468.981 290.622 467.015L174.505 413.007C163.218 407.757 156 396.439 156 383.992V174Z" fill="white"/>
</g>
<path d="M80 334L70 339.773V335H16V333H70V328.227L80 334Z" fill="#FF4100"/>
<g filter="url(#filter1_f_369_11326)">
<path d="M432 314V197C432 190.373 426.627 185 420 185C413.373 185 408 190.373 408 197V354C408 369.464 395.464 382 380 382C364.536 382 352 369.464 352 354V197C352 190.373 346.627 185 340 185C333.373 185 328 190.373 328 197V354C328 369.464 315.464 382 300 382C284.536 382 272 369.464 272 354V197C272 190.373 266.627 185 260 185C253.373 185 248 190.373 248 197V354C248 369.464 235.464 382 220 382C204.536 382 192 369.464 192 354C192 347.373 186.627 342 180 342H120C115.582 342 112 338.418 112 334C112 329.582 115.582 326 120 326H180C195.464 326 208 338.536 208 354C208 360.627 213.373 366 220 366C226.627 366 232 360.627 232 354V197C232 181.536 244.536 169 260 169C275.464 169 288 181.536 288 197V354C288 360.627 293.373 366 300 366C306.627 366 312 360.627 312 354V197C312 181.536 324.536 169 340 169C355.464 169 368 181.536 368 197V354C368 360.627 373.373 366 380 366C386.627 366 392 360.627 392 354V197C392 181.536 404.536 169 420 169C435.464 169 448 181.536 448 197V314C448 320.627 453.373 326 460 326H517C521.418 326 525 329.582 525 334C525 338.418 521.418 342 517 342H460C444.536 342 432 329.464 432 314Z" fill="#FF4100"/>
</g>
<path d="M304 494H360V531.739V559.261C360 559.849 359.934 560.43 359.807 561C358.172 568.321 346.346 574 332 574C317.654 574 305.828 568.321 304.193 561C304.066 560.432 304 559.853 304 559.267L304 559.261V531.739L304 531.733V494Z" fill="url(#paint3_linear_369_11326)"/>
<path d="M303.5 493.5H360.5V559.261C360.5 559.73 360.46 560.194 360.384 560.652L360.295 561.109C359.428 564.991 355.895 568.335 350.884 570.697C345.852 573.069 339.234 574.5 332 574.5C324.766 574.5 318.148 573.069 313.116 570.697C308.262 568.409 304.794 565.199 303.794 561.472L303.705 561.109C303.57 560.506 303.501 559.891 303.5 559.268V493.5ZM304.5 559.267L304.512 559.677C304.535 560.086 304.591 560.491 304.681 560.891L304.76 561.213C305.65 564.526 308.799 567.557 313.543 569.793C318.42 572.091 324.888 573.5 332 573.5C339.112 573.5 345.58 572.091 350.457 569.793C355.354 567.485 358.551 564.329 359.319 560.891L359.397 560.488C359.465 560.084 359.5 559.674 359.5 559.261V494.5H304.5V559.267Z" fill="black"/>
<path d="M568 334C568 356.091 560.402 374 551.03 374C541.658 374 534.061 356.091 534.061 334C534.061 311.909 541.658 294 551.03 294C560.402 294 568 311.909 568 334Z" fill="url(#paint4_linear_369_11326)"/>
<path d="M496 334C496 356.091 503.598 374 512.97 374H551.03C541.658 374 534.061 356.091 534.061 334C534.061 311.909 541.658 294 551.03 294H512.97C503.598 294 496 311.909 496 334Z" fill="url(#paint5_linear_369_11326)"/>
<path d="M533.561 334C533.561 322.904 535.467 312.834 538.57 305.521C540.121 301.864 541.982 298.873 544.072 296.789C545.037 295.827 546.059 295.055 547.125 294.5H512.97C510.798 294.5 508.686 295.535 506.718 297.497C504.748 299.461 502.951 302.329 501.431 305.911C498.392 313.074 496.5 323.005 496.5 334C496.5 344.995 498.392 354.926 501.431 362.089C502.951 365.671 504.748 368.539 506.718 370.503C508.686 372.465 510.798 373.5 512.97 373.5H547.125C546.059 372.945 545.037 372.173 544.072 371.211C541.982 369.127 540.121 366.136 538.57 362.479C535.467 355.166 533.561 345.096 533.561 334ZM534.561 334C534.561 344.995 536.452 354.926 539.491 362.089C541.011 365.671 542.808 368.539 544.778 370.503C546.746 372.465 548.858 373.5 551.03 373.5C553.202 373.5 555.314 372.465 557.282 370.503C559.252 368.539 561.049 365.671 562.569 362.089C565.608 354.926 567.5 344.995 567.5 334C567.5 323.005 565.608 313.074 562.569 305.911C561.049 302.329 559.252 299.461 557.282 297.497C555.314 295.535 553.202 294.5 551.03 294.5C548.858 294.5 546.746 295.535 544.778 297.497C542.808 299.461 541.011 302.329 539.491 305.911C536.452 313.074 534.561 323.005 534.561 334ZM568.5 334C568.5 345.096 566.593 355.166 563.49 362.479C561.939 366.136 560.079 369.127 557.988 371.211C556.027 373.167 553.837 374.346 551.5 374.486L551.03 374.5H512.97C510.456 374.5 508.104 373.297 506.012 371.211C503.921 369.127 502.061 366.136 500.51 362.479C497.407 355.166 495.5 345.096 495.5 334C495.5 322.904 497.407 312.834 500.51 305.521C502.061 301.864 503.921 298.873 506.012 296.789C508.104 294.703 510.456 293.5 512.97 293.5H551.03C553.544 293.5 555.896 294.703 557.988 296.789C560.079 298.873 561.939 301.864 563.49 305.521C566.593 312.834 568.5 322.904 568.5 334Z" fill="black"/>
<path d="M531.5 134C531.5 112.185 513.815 94.5 492 94.5H172C150.185 94.5 132.5 112.185 132.5 134V388.489C132.5 403.854 141.41 417.825 155.342 424.305L304.11 493.5H359.89L508.658 424.305C522.59 417.825 531.5 403.854 531.5 388.489V134ZM532.5 388.489C532.5 404.243 523.364 418.568 509.08 425.212L360.11 494.5H303.89L154.92 425.212C140.636 418.568 131.5 404.243 131.5 388.489V134C131.5 111.632 149.632 93.5 172 93.5H492C514.368 93.5 532.5 111.632 532.5 134V388.489Z" fill="black"/>
<g filter="url(#filter2_i_369_11326)">
<path d="M432 314V197C432 190.373 426.627 185 420 185C413.373 185 408 190.373 408 197V354C408 369.464 395.464 382 380 382C364.536 382 352 369.464 352 354V197C352 190.373 346.627 185 340 185C333.373 185 328 190.373 328 197V354C328 369.464 315.464 382 300 382C284.536 382 272 369.464 272 354V197C272 190.373 266.627 185 260 185C253.373 185 248 190.373 248 197V354C248 369.464 235.464 382 220 382C204.536 382 192 369.464 192 354C192 347.373 186.627 342 180 342H120C115.582 342 112 338.418 112 334C112 329.582 115.582 326 120 326H180C195.464 326 208 338.536 208 354C208 360.627 213.373 366 220 366C226.627 366 232 360.627 232 354V197C232 181.536 244.536 169 260 169C275.464 169 288 181.536 288 197V354C288 360.627 293.373 366 300 366C306.627 366 312 360.627 312 354V197C312 181.536 324.536 169 340 169C355.464 169 368 181.536 368 197V354C368 360.627 373.373 366 380 366C386.627 366 392 360.627 392 354V197C392 181.536 404.536 169 420 169C435.464 169 448 181.536 448 197V314C448 320.627 453.373 326 460 326H517C521.418 326 525 329.582 525 334C525 338.418 521.418 342 517 342H460C444.536 342 432 329.464 432 314Z" fill="#FF4100"/>
</g>
<path d="M533.561 334C533.561 322.904 535.467 312.834 538.57 305.521C540.121 301.864 541.982 298.873 544.072 296.789C545.037 295.827 546.059 295.055 547.125 294.5H512.97C510.798 294.5 508.686 295.535 506.718 297.497C504.748 299.461 502.951 302.329 501.431 305.911C498.392 313.074 496.5 323.005 496.5 334C496.5 344.995 498.392 354.926 501.431 362.089C502.951 365.671 504.748 368.539 506.718 370.503C508.686 372.465 510.798 373.5 512.97 373.5H547.125C546.059 372.945 545.037 372.173 544.072 371.211C541.982 369.127 540.121 366.136 538.57 362.479C535.467 355.166 533.561 345.096 533.561 334ZM534.561 334C534.561 344.995 536.452 354.926 539.491 362.089C541.011 365.671 542.808 368.539 544.778 370.503C546.746 372.465 548.858 373.5 551.03 373.5C553.202 373.5 555.314 372.465 557.282 370.503C559.252 368.539 561.049 365.671 562.569 362.089C565.608 354.926 567.5 344.995 567.5 334C567.5 323.005 565.608 313.074 562.569 305.911C561.049 302.329 559.252 299.461 557.282 297.497C555.314 295.535 553.202 294.5 551.03 294.5C548.858 294.5 546.746 295.535 544.778 297.497C542.808 299.461 541.011 302.329 539.491 305.911C536.452 313.074 534.561 323.005 534.561 334ZM568.5 334C568.5 345.096 566.593 355.166 563.49 362.479C561.939 366.136 560.079 369.127 557.988 371.211C556.027 373.167 553.837 374.346 551.5 374.486L551.03 374.5H512.97C510.456 374.5 508.104 373.297 506.012 371.211C503.921 369.127 502.061 366.136 500.51 362.479C497.407 355.166 495.5 345.096 495.5 334C495.5 322.904 497.407 312.834 500.51 305.521C502.061 301.864 503.921 298.873 506.012 296.789C508.104 294.703 510.456 293.5 512.97 293.5H551.03C553.544 293.5 555.896 294.703 557.988 296.789C560.079 298.873 561.939 301.864 563.49 305.521C566.593 312.834 568.5 322.904 568.5 334Z" fill="black"/>
<path d="M617 334L607 339.773V335H553V333H607V328.227L617 334Z" fill="#FF4100"/>
<defs>
<filter id="filter0_f_369_11326" x="140" y="126" width="360" height="360" filterUnits="userSpaceOnUse" color-interpolation-filters="sRGB">
<feFlood flood-opacity="0" result="BackgroundImageFix"/>
<feBlend mode="normal" in="SourceGraphic" in2="BackgroundImageFix" result="shape"/>
<feGaussianBlur stdDeviation="8" result="effect1_foregroundBlur_369_11326"/>
</filter>
<filter id="filter1_f_369_11326" x="96" y="153" width="445" height="245" filterUnits="userSpaceOnUse" color-interpolation-filters="sRGB">
<feFlood flood-opacity="0" result="BackgroundImageFix"/>
<feBlend mode="normal" in="SourceGraphic" in2="BackgroundImageFix" result="shape"/>
<feGaussianBlur stdDeviation="8" result="effect1_foregroundBlur_369_11326"/>
</filter>
<filter id="filter2_i_369_11326" x="112" y="169" width="413" height="217" filterUnits="userSpaceOnUse" color-interpolation-filters="sRGB">
<feFlood flood-opacity="0" result="BackgroundImageFix"/>
<feBlend mode="normal" in="SourceGraphic" in2="BackgroundImageFix" result="shape"/>
<feColorMatrix in="SourceAlpha" type="matrix" values="0 0 0 0 0 0 0 0 0 0 0 0 0 0 0 0 0 0 127 0" result="hardAlpha"/>
<feOffset dy="4"/>
<feGaussianBlur stdDeviation="4"/>
<feComposite in2="hardAlpha" operator="arithmetic" k2="-1" k3="1"/>
<feColorMatrix type="matrix" values="0 0 0 0 0 0 0 0 0 0 0 0 0 0 0 0 0 0 0.48 0"/>
<feBlend mode="normal" in2="shape" result="effect1_innerShadow_369_11326"/>
</filter>
<linearGradient id="paint0_linear_369_11326" x1="142.645" y1="295.759" x2="111.282" y2="365.303" gradientUnits="userSpaceOnUse">
<stop stop-color="#EEEEEE"/>
<stop offset="0.334842" stop-color="#E3E3E3"/>
<stop offset="0.751797" stop-color="#737B7F"/>
<stop offset="1" stop-color="#EEEEEE"/>
</linearGradient>
<linearGradient id="paint1_linear_369_11326" x1="132" y1="374" x2="132" y2="294" gradientUnits="userSpaceOnUse">
<stop stop-color="#343030"/>
<stop offset="0.115462" stop-color="#80868D"/>
<stop offset="0.212121" stop-color="#80868D"/>
<stop offset="0.541622" stop-color="white"/>
<stop offset="0.890909" stop-color="white"/>
<stop offset="1" stop-color="#B2B2B2"/>
</linearGradient>
<linearGradient id="paint2_linear_369_11326" x1="532" y1="294" x2="132" y2="294" gradientUnits="userSpaceOnUse">
<stop stop-color="#343030"/>
<stop offset="0.115462" stop-color="#80868D"/>
<stop offset="0.212121" stop-color="#80868D"/>
<stop offset="0.541622" stop-color="white"/>
<stop offset="0.890909" stop-color="white"/>
<stop offset="1" stop-color="#B2B2B2"/>
</linearGradient>
<linearGradient id="paint3_linear_369_11326" x1="360" y1="534" x2="304" y2="534" gradientUnits="userSpaceOnUse">
<stop stop-color="#343030"/>
<stop offset="0.115462" stop-color="#80868D"/>
<stop offset="0.212121" stop-color="#80868D"/>
<stop offset="0.541622" stop-color="white"/>
<stop offset="0.890909" stop-color="white"/>
<stop offset="1" stop-color="#B2B2B2"/>
</linearGradient>
<linearGradient id="paint4_linear_369_11326" x1="542.645" y1="295.759" x2="511.282" y2="365.303" gradientUnits="userSpaceOnUse">
<stop stop-color="#EEEEEE"/>
<stop offset="0.334842" stop-color="#E3E3E3"/>
<stop offset="0.751797" stop-color="#737B7F"/>
<stop offset="1" stop-color="#EEEEEE"/>
</linearGradient>
<linearGradient id="paint5_linear_369_11326" x1="532" y1="374" x2="532" y2="294" gradientUnits="userSpaceOnUse">
<stop stop-color="#343030"/>
<stop offset="0.115462" stop-color="#80868D"/>
<stop offset="0.212121" stop-color="#80868D"/>
<stop offset="0.541622" stop-color="white"/>
<stop offset="0.890909" stop-color="white"/>
<stop offset="1" stop-color="#B2B2B2"/>
</linearGradient>
</defs>
</svg>
