<svg width="664" height="668" viewBox="0 0 664 668" fill="none" xmlns="http://www.w3.org/2000/svg">
<rect width="664" height="668" fill="#FAFAFA"/>
<path d="M152 449C152 504.228 140.182 549 125.603 549C111.024 549 99.2054 504.228 99.2054 449C99.2054 393.772 111.024 349 125.603 349C140.182 349 152 393.772 152 449Z" fill="url(#paint0_linear_369_11400)"/>
<path d="M40 449C40 504.228 51.8185 549 66.3973 549H125.603C111.024 549 99.2054 504.228 99.2054 449C99.2054 393.772 111.024 349 125.603 349H66.3973C51.8185 349 40 393.772 40 449Z" fill="url(#paint1_linear_369_11400)"/>
<path d="M98.7051 449C98.7051 421.356 101.662 396.311 106.453 378.162C108.848 369.091 111.708 361.714 114.903 356.594C117.005 353.227 119.292 350.776 121.731 349.5H66.3975C63.0255 349.5 59.6836 352.097 56.5469 357.123C53.4264 362.123 50.5974 369.391 48.2148 378.417C43.4517 396.461 40.5 421.416 40.5 449C40.5 476.584 43.4517 501.539 48.2148 519.583C50.5974 528.609 53.4264 535.877 56.5469 540.877C59.6836 545.903 63.0255 548.5 66.3975 548.5H121.731C119.292 547.224 117.005 544.773 114.903 541.406C111.708 536.286 108.848 528.909 106.453 519.838C101.662 501.689 98.7051 476.644 98.7051 449ZM99.7051 449C99.7051 476.584 102.658 501.539 107.421 519.583C109.803 528.609 112.632 535.877 115.752 540.877C118.889 545.903 122.231 548.5 125.603 548.5C128.975 548.5 132.316 545.903 135.453 540.877C138.574 535.877 141.403 528.609 143.785 519.583C148.548 501.539 151.5 476.584 151.5 449C151.5 421.416 148.548 396.461 143.785 378.417C141.403 369.391 138.574 362.123 135.453 357.123C132.316 352.097 128.975 349.5 125.603 349.5C122.231 349.5 118.889 352.097 115.752 357.123C112.632 362.123 109.803 369.391 107.421 378.417C102.658 396.461 99.7051 421.416 99.7051 449ZM152.5 449C152.5 476.644 149.543 501.689 144.752 519.838C142.358 528.909 139.498 536.286 136.302 541.406C133.222 546.342 129.745 549.311 125.969 549.491L125.603 549.5H66.3975C62.4801 549.5 58.8777 546.501 55.6982 541.406C52.5024 536.286 49.6425 528.909 47.248 519.838C42.4573 501.689 39.5 476.644 39.5 449C39.5 421.356 42.4573 396.311 47.248 378.162C49.6425 369.091 52.5024 361.714 55.6982 356.594C58.8777 351.499 62.4801 348.5 66.3975 348.5H125.603C129.52 348.5 133.122 351.499 136.302 356.594C139.498 361.714 142.358 369.091 144.752 378.162C149.543 396.311 152.5 421.356 152.5 449Z" fill="black"/>
<path d="M310.444 346.778C310.444 350.62 308.921 354.107 306.444 356.666C306.335 356.779 306.224 356.891 306.111 357C303.551 359.476 300.065 361 296.222 361C288.368 361 282 354.632 282 346.778C282 342.99 283.48 339.549 285.894 337C286.073 336.812 286.256 336.628 286.444 336.45C286.733 336.177 287.033 335.915 287.344 335.667C289.777 333.72 292.864 332.556 296.222 332.556C304.077 332.556 310.444 338.923 310.444 346.778Z" fill="url(#paint2_linear_369_11400)"/>
<path d="M296.222 332.556C304.077 332.556 310.444 338.923 310.444 346.778C310.444 350.62 308.921 354.107 306.444 356.666L309.666 353.889C312.339 351.303 314 347.235 314 343.222C314 335.368 307.632 329 299.778 329C295.99 329 292.549 330.925 290 333.339L286.444 336.45C286.733 336.177 287.033 335.915 287.344 335.667C289.777 333.72 292.864 332.556 296.222 332.556Z" fill="url(#paint3_linear_369_11400)"/>
<path d="M309.944 346.777C309.944 339.199 303.801 333.056 296.223 333.056C293.184 333.056 290.377 334.043 288.104 335.714L287.656 336.057C287.632 336.076 287.607 336.097 287.583 336.117L286.789 336.812L286.248 337.354C283.924 339.812 282.5 343.128 282.5 346.777C282.5 354.356 288.644 360.5 296.223 360.5C299.93 360.5 303.293 359.03 305.763 356.641L306.091 356.312C308.477 353.843 309.944 350.482 309.944 346.777ZM310.944 346.777C310.944 349.217 310.349 351.518 309.299 353.544L309.325 353.521C311.888 351.037 313.5 347.106 313.5 343.223C313.5 335.644 307.356 329.5 299.777 329.5C296.566 329.5 293.586 330.953 291.214 332.93C292.777 332.364 294.464 332.056 296.223 332.056C304.353 332.056 310.944 338.647 310.944 346.777ZM314.5 343.223C314.5 347.36 312.791 351.561 310.014 354.248L309.992 354.268L306.784 357.032L306.458 357.359C303.809 359.922 300.2 361.5 296.223 361.5C288.092 361.5 281.5 354.908 281.5 346.777C281.5 342.857 283.033 339.294 285.531 336.656L285.812 336.367C285.907 336.272 286.003 336.179 286.101 336.087L286.558 335.672C286.675 335.57 286.794 335.471 286.914 335.373L289.671 332.962C292.275 330.5 295.828 328.5 299.777 328.5C307.908 328.5 314.5 335.092 314.5 343.223Z" fill="black"/>
<path d="M370.889 284.556C370.889 292.24 367.841 299.213 362.889 304.332C362.67 304.558 362.447 304.781 362.221 305C357.102 309.952 350.129 313 342.444 313C326.735 313 314 300.265 314 284.556C314 276.981 316.961 270.097 321.788 265C322.145 264.623 322.512 264.256 322.889 263.9C323.466 263.353 324.066 262.83 324.687 262.333C329.554 258.44 335.727 256.111 342.444 256.111C358.154 256.111 370.889 268.846 370.889 284.556Z" fill="url(#paint4_linear_369_11400)"/>
<path d="M342.444 256.111C358.154 256.111 370.889 268.846 370.889 284.556C370.889 292.24 367.841 299.213 362.889 304.332L369.332 298.778C374.677 293.606 378 285.469 378 277.444C378 261.735 365.265 249 349.556 249C341.981 249 335.097 252.85 330 257.677L322.889 263.9C323.466 263.353 324.066 262.83 324.687 262.333C329.554 258.44 335.727 256.111 342.444 256.111Z" fill="url(#paint5_linear_369_11400)"/>
<path d="M370.389 284.556C370.389 269.122 357.878 256.611 342.444 256.611C336.051 256.611 330.16 258.758 325.451 262.37L325 262.724C324.956 262.759 324.913 262.794 324.869 262.829L323.232 264.262L322.151 265.344L321.712 265.818C317.229 270.775 314.5 277.346 314.5 284.556C314.5 299.989 327.011 312.5 342.444 312.5C349.994 312.5 356.844 309.506 361.873 304.641L362.535 303.979C367.398 298.95 370.389 292.103 370.389 284.556ZM371.389 284.556C371.389 290.416 369.646 295.869 366.652 300.427L368.984 298.417C374.224 293.347 377.5 285.344 377.5 277.444C377.5 262.011 364.989 249.5 349.556 249.5C342.151 249.5 335.384 253.267 330.344 258.04L330.337 258.047L329.809 258.509C333.627 256.653 337.914 255.611 342.444 255.611C358.43 255.611 371.389 268.57 371.389 284.556ZM378.5 277.444C378.5 285.594 375.129 293.864 369.68 299.137L369.67 299.147L369.658 299.156L363.226 304.702C363.121 304.81 363.017 304.917 362.911 305.022L362.568 305.359C357.36 310.398 350.264 313.5 342.444 313.5C326.459 313.5 313.5 300.541 313.5 284.556C313.5 276.848 316.514 269.843 321.426 264.656L321.435 264.646C321.795 264.267 322.165 263.896 322.545 263.536L322.99 263.124C323.393 262.759 323.806 262.405 324.229 262.062L329.671 257.301C334.824 252.425 341.818 248.5 349.556 248.5C365.541 248.5 378.5 261.459 378.5 277.444Z" fill="black"/>
<path d="M342.964 253.029C358.984 253.029 374 265.796 374 282H372C372 267.08 358.067 255.029 342.964 255.029C335.1 255.029 327.734 258.538 322.656 264.221C317.569 269.914 316.77 278.062 316.309 286.132L313.429 336.532C312.573 351.502 301.125 363.715 286.241 365.535L127.121 384.992L126.879 383.007L285.999 363.55C299.922 361.847 310.631 350.423 311.432 336.419L314.312 286.018C314.767 278.046 315.546 269.176 321.165 262.888C326.604 256.801 334.503 253.029 342.964 253.029Z" fill="#FF4100"/>
<path d="M342.964 253.029C358.984 253.029 374 265.796 374 282H372C372 267.08 358.067 255.029 342.964 255.029C335.306 255.029 328.122 258.355 323.062 263.776L322.579 264.308C317.566 269.966 316.763 278.024 316.287 286.013L313.269 336.72C312.483 349.916 303.415 361.163 290.685 364.729L120.27 412.463L119.73 410.537L290.146 362.803C302.054 359.467 310.538 348.946 311.272 336.601L314.29 285.894C314.76 278.002 315.545 269.231 321.082 262.981L321.6 262.412C327.02 256.605 334.726 253.029 342.964 253.029Z" fill="#FF4100"/>
<path d="M342.964 253.029C358.984 253.029 374 265.796 374 282H372C372 267.08 358.067 255.029 342.964 255.029C335.01 255.029 327.566 258.619 322.483 264.416C317.87 269.679 316.87 276.991 316.357 284.384L316.261 285.863L312.98 338.348C312.345 348.516 306.754 357.723 298.024 362.976L139.516 458.356L138.484 456.644L296.993 361.262C305.159 356.348 310.39 347.735 310.984 338.223L314.265 285.738L314.36 284.268C314.869 276.874 315.884 268.91 320.979 263.098C326.423 256.888 334.406 253.029 342.964 253.029Z" fill="#FF4100"/>
<path d="M342.964 253.029C358.984 253.029 374 265.796 374 282H372C372 267.08 358.067 255.029 342.964 255.029C335.252 255.029 328.02 258.403 322.954 263.893L322.471 264.431C317.562 270.038 316.752 277.969 316.257 285.843L312.886 339.442C312.305 348.682 307.625 357.178 300.126 362.606L119.586 493.31L118.414 491.69L298.953 360.986C305.968 355.908 310.346 347.96 310.89 339.316L314.261 285.718C314.75 277.939 315.544 269.307 320.966 263.113L321.483 262.537C326.91 256.657 334.667 253.029 342.964 253.029Z" fill="#FF4100"/>
<path d="M342.964 253.029C358.984 253.029 374 265.796 374 282H372C372 267.08 358.067 255.029 342.964 255.029C335.109 255.029 327.751 258.53 322.674 264.201C317.57 269.902 316.771 278.071 316.313 286.159L313.177 341.572C312.727 349.522 309.236 356.993 303.427 362.438L128.684 526.229L127.316 524.771L302.059 360.979C307.493 355.886 310.759 348.896 311.18 341.46L314.316 286.046C314.769 278.056 315.546 269.164 321.184 262.867C326.622 256.793 334.512 253.029 342.964 253.029Z" fill="#FF4100"/>
<path d="M472.999 366.5C472.999 340.788 452.822 320 427.999 320C417.712 320 408.23 323.566 400.647 329.572L399.919 330.161C398.943 330.968 397.999 331.815 397.092 332.701L397.093 332.702L395.331 334.52L394.624 335.31C387.401 343.557 382.999 354.494 382.999 366.5C382.999 392.212 403.176 413 427.999 413C440.146 413 451.173 408.027 459.274 399.934L460.343 398.83C468.176 390.464 472.999 379.068 472.999 366.5ZM474.999 366.5C474.999 379.184 470.28 390.736 462.549 399.382L461.791 400.209C461.61 400.402 461.428 400.593 461.244 400.783L460.688 401.348C452.234 409.794 440.707 415 427.999 415C402.029 415 381.027 393.284 380.999 366.553L372.005 282.105L371.999 282.053V282C371.999 267.08 358.066 255.029 342.963 255.029C335.276 255.029 328.065 258.382 323.002 263.84L322.519 264.374C317.562 270.005 316.756 277.994 316.27 285.921L313.104 337.528C312.4 348.992 305.416 359.127 294.955 363.867L124.912 440.911L124.086 439.089L294.13 362.045C303.916 357.611 310.449 348.13 311.107 337.406L314.273 285.798C314.754 277.967 315.543 269.272 321.018 263.053L321.535 262.479C326.959 256.633 334.693 253.029 342.963 253.029C358.964 253.029 373.962 265.766 373.998 281.941L381.961 356.703C383.751 347.698 387.958 339.6 393.857 333.168L394.303 332.689C394.751 332.214 395.208 331.747 395.675 331.291L396.396 330.6C397.125 329.916 397.876 329.256 398.646 328.62L399.405 328.005C407.324 321.732 417.239 318 427.999 318C453.986 318 474.999 339.745 474.999 366.5Z" fill="#FF4100"/>
<path d="M370.889 284.556C370.889 292.241 367.841 299.214 362.889 304.332C362.67 304.559 362.447 304.781 362.221 305C357.102 309.953 350.129 313 342.444 313C326.735 313 314 300.265 314 284.556C314 276.981 316.961 270.098 321.788 265C322.145 264.623 322.512 264.257 322.889 263.9C323.466 263.353 324.066 262.831 324.687 262.334C329.554 258.44 335.727 256.111 342.444 256.111C358.154 256.111 370.889 268.846 370.889 284.556Z" fill="url(#paint6_linear_369_11400)"/>
<path d="M370.389 284.556C370.389 269.122 357.878 256.611 342.444 256.611C336.051 256.611 330.16 258.758 325.451 262.37L325 262.724C324.39 263.212 323.799 263.726 323.232 264.263L322.151 265.344L321.712 265.818C317.229 270.775 314.5 277.346 314.5 284.556C314.5 299.989 327.011 312.5 342.444 312.5C349.994 312.5 356.844 309.506 361.873 304.641L362.535 303.979C367.398 298.95 370.389 292.103 370.389 284.556ZM371.389 284.556C371.389 292.131 368.478 299.028 363.715 304.187L363.248 304.68C363.137 304.795 363.024 304.909 362.911 305.022L362.568 305.359C357.36 310.398 350.264 313.5 342.444 313.5C326.459 313.5 313.5 300.541 313.5 284.556C313.5 276.848 316.514 269.843 321.426 264.656L321.435 264.646C321.795 264.267 322.165 263.897 322.545 263.537L322.99 263.124C323.439 262.716 323.901 262.323 324.375 261.943L324.843 261.576C329.72 257.835 335.823 255.611 342.444 255.611C358.43 255.611 371.389 268.57 371.389 284.556Z" fill="black"/>
<path d="M470.444 370.778C470.444 383.266 465.492 394.597 457.444 402.915C457.089 403.282 456.727 403.644 456.359 404C448.041 412.048 436.71 417 424.222 417C398.694 417 378 396.306 378 370.778C378 358.469 382.811 347.283 390.656 339C391.236 338.388 391.832 337.792 392.444 337.212C393.382 336.324 394.357 335.474 395.367 334.667C403.275 328.339 413.307 324.556 424.222 324.556C449.75 324.556 470.444 345.25 470.444 370.778Z" fill="url(#paint7_linear_369_11400)"/>
<path d="M424.222 324.556C449.75 324.556 470.444 345.25 470.444 370.778C470.444 383.266 465.492 394.597 457.444 402.915L467.915 393.889C476.6 385.485 482 372.262 482 359.222C482 333.694 461.306 313 435.778 313C423.469 313 412.283 319.256 404 327.101L392.444 337.212C393.382 336.324 394.357 335.474 395.367 334.667C403.275 328.339 413.307 324.556 424.222 324.556Z" fill="url(#paint8_linear_369_11400)"/>
<path d="M469.944 370.777C469.944 345.526 449.474 325.056 424.223 325.056C413.762 325.056 404.123 328.568 396.419 334.478L395.679 335.057C395.614 335.109 395.55 335.162 395.485 335.214L392.789 337.573L391.02 339.344L390.301 340.12C382.966 348.23 378.5 358.982 378.5 370.777C378.5 396.029 398.971 416.5 424.223 416.5C436.575 416.5 447.783 411.602 456.012 403.641L457.091 402.562C465.049 394.334 469.944 383.127 469.944 370.777ZM470.944 370.777C470.944 381.122 467.58 390.681 461.89 398.422L467.582 393.514C476.154 385.211 481.5 372.13 481.5 359.223C481.5 333.971 461.029 313.5 435.777 313.5C423.638 313.5 412.57 319.673 404.344 327.464L404.337 327.471L404.329 327.477L401.522 329.932C408.243 326.189 415.984 324.056 424.223 324.056C450.026 324.056 470.944 344.974 470.944 370.777ZM482.5 359.223C482.5 372.387 477.053 385.743 468.263 394.248L468.241 394.268L457.793 403.273C457.617 403.456 457.439 403.636 457.26 403.815L456.707 404.359C448.3 412.494 436.845 417.5 424.223 417.5C398.419 417.5 377.5 396.581 377.5 370.777C377.5 358.336 382.364 347.029 390.293 338.656L390.735 338.195C391.181 337.737 391.636 337.288 392.101 336.849L392.818 336.183C393.474 335.587 394.149 335.01 394.838 334.452L403.656 326.737C411.997 318.839 423.299 312.5 435.777 312.5C461.581 312.5 482.5 333.419 482.5 359.223Z" fill="black"/>
<path d="M476 365.5C476 340.391 455.201 320 429.5 320C418.856 320 409.051 323.498 401.216 329.382L400.464 329.959C399.451 330.752 398.472 331.586 397.531 332.458L395.706 334.246C387.827 342.4 383 353.399 383 365.5C383 390.609 403.799 411 429.5 411C442.064 411 453.46 406.126 461.826 398.207L462.941 397.115C471.029 388.926 476 377.78 476 365.5ZM478 365.5C478 377.938 473.117 389.258 465.134 397.723L464.352 398.533C463.993 398.896 463.627 399.253 463.257 399.604L463.225 399.637L463.224 399.636L463.213 399.647C454.485 407.914 442.596 413 429.5 413C402.734 413 381 391.753 381 365.5C381 352.844 386.054 341.346 394.287 332.836L394.747 332.367C395.21 331.902 395.682 331.446 396.164 330.999L396.909 330.322C397.662 329.653 398.436 329.007 399.23 328.385L400.015 327.783C408.187 321.646 418.411 318 429.5 318C456.266 318 478 339.247 478 365.5Z" fill="#FF4100"/>
<path d="M473 367C473 342.72 452.874 323 428 323C417.698 323 408.209 326.383 400.627 332.073L399.899 332.631C398.919 333.398 397.972 334.204 397.062 335.047L395.295 336.777C387.67 344.663 383 355.299 383 367C383 391.28 403.126 411 428 411C440.165 411 451.198 406.281 459.295 398.617L460.363 397.572C468.19 389.653 473 378.875 473 367ZM475 367C475 379.046 470.268 390.009 462.531 398.206L461.773 398.99C461.593 399.173 461.41 399.354 461.227 399.534L460.67 400.07C452.212 408.076 440.691 413 428 413C402.063 413 381 392.426 381 367C381 354.744 385.899 343.608 393.877 335.367L394.322 334.913C394.771 334.462 395.228 334.02 395.695 333.588L396.418 332.933C397.147 332.285 397.897 331.659 398.667 331.057L399.427 330.474C407.346 324.531 417.254 321 428 321C453.937 321 475 341.574 475 367Z" fill="#FF4100"/>
<path d="M617 414C620.866 414 624 415.609 624 417.594C624 419.578 620.866 421.187 617 421.187C613.134 421.187 610 419.578 610 417.594C610 415.609 613.134 414 617 414Z" fill="url(#paint9_linear_369_11400)"/>
<path d="M617 514C620.866 514 624 512.391 624 510.406L624 417.594C624 419.578 620.866 421.187 617 421.187C613.134 421.187 610 419.578 610 417.594L610 510.406C610 512.391 613.134 514 617 514Z" fill="url(#paint10_linear_369_11400)"/>
<path d="M617 421.687C615.004 421.687 613.173 421.273 611.822 420.579C611.323 420.323 610.87 420.018 610.5 419.668L610.5 510.406C610.5 511.114 611.07 511.882 612.278 512.503C613.461 513.11 615.13 513.5 617 513.5C618.87 513.5 620.539 513.11 621.722 512.503C622.93 511.882 623.5 511.114 623.5 510.406L623.5 419.668C623.13 420.018 622.677 420.323 622.178 420.579C620.827 421.273 618.996 421.687 617 421.687ZM617 420.687C618.87 420.687 620.539 420.297 621.722 419.689C622.93 419.069 623.5 418.301 623.5 417.594C623.5 416.886 622.93 416.118 621.722 415.497C620.539 414.89 618.87 414.5 617 414.5C615.13 414.5 613.461 414.89 612.278 415.497C611.07 416.118 610.5 416.886 610.5 417.594C610.5 418.301 611.07 419.069 612.278 419.689C613.461 420.297 615.13 420.687 617 420.687ZM617 413.5C618.995 413.5 620.827 413.914 622.178 414.607C623.42 415.245 624.374 416.19 624.488 417.357L624.5 417.594L624.5 510.406C624.5 511.683 623.502 512.713 622.178 513.393C620.827 514.086 618.995 514.5 617 514.5C615.005 514.5 613.173 514.086 611.822 513.393C610.498 512.713 609.5 511.683 609.5 510.406L609.5 417.594C609.5 416.317 610.498 415.287 611.822 414.607C613.173 413.914 615.005 413.5 617 413.5Z" fill="black"/>
<path d="M617 206C632.464 206 645 212.5 645 220.518C645 228.536 632.464 235.036 617 235.036C601.536 235.036 589 228.536 589 220.518C589 212.5 601.536 206 617 206Z" fill="#FFF15E"/>
<path d="M617 462C632.464 462 645 455.5 645 447.482L645 220.518C645 228.536 632.464 235.036 617 235.036C601.536 235.036 589 228.536 589 220.518L589 447.482C589 455.5 601.536 462 617 462Z" fill="#FFF15E"/>
<path d="M617 235.536C609.205 235.536 602.122 233.899 596.971 231.228C593.504 229.43 590.854 227.128 589.5 224.499L589.5 447.481C589.5 451.209 592.424 454.707 597.432 457.304C602.414 459.887 609.332 461.5 617 461.5C624.668 461.5 631.586 459.887 636.568 457.304C641.576 454.707 644.5 451.209 644.5 447.481L644.5 224.499C643.146 227.128 640.496 229.43 637.029 231.228C631.878 233.899 624.795 235.536 617 235.536ZM617 234.536C624.668 234.536 631.586 232.923 636.568 230.34C641.576 227.743 644.5 224.245 644.5 220.518C644.5 216.791 641.576 213.293 636.568 210.696C631.586 208.113 624.668 206.5 617 206.5C609.332 206.5 602.414 208.113 597.432 210.696C592.424 213.293 589.5 216.791 589.5 220.518C589.5 224.245 592.424 227.743 597.432 230.34C602.414 232.923 609.332 234.536 617 234.536ZM617 205.5C624.795 205.5 631.878 207.137 637.029 209.809C641.996 212.384 645.289 215.993 645.49 220.117L645.5 220.518L645.5 447.481C645.5 451.772 642.156 455.533 637.029 458.191C631.878 460.863 624.795 462.5 617 462.5C609.205 462.5 602.122 460.863 596.971 458.191C591.844 455.533 588.5 451.772 588.5 447.481L588.5 220.518C588.5 216.227 591.844 212.467 596.971 209.809C602.122 207.137 609.205 205.5 617 205.5Z" fill="black"/>
<g filter="url(#filter0_i_369_11400)">
<path d="M589 239.983C590.605 241.583 592.606 242.987 594.846 244.161C600.618 247.188 608.454 249 617 249C625.546 249 633.382 247.188 639.154 244.161C641.394 242.987 643.395 241.583 645 239.983V231.305C645 234.569 642.444 237.98 637.272 240.692C632.187 243.358 625.022 245.068 617 245.068C608.978 245.068 601.813 243.358 596.728 240.692C591.556 237.98 589 234.569 589 231.305V239.983Z" fill="#FF4100"/>
<path fill-rule="evenodd" clip-rule="evenodd" d="M589 239.983V231.305V222.625C586.53 225.088 585 228.018 585 231.305C585 234.592 586.53 237.521 589 239.983ZM645 222.625V231.305V239.983C647.47 237.521 649 234.592 649 231.305C649 228.018 647.47 225.088 645 222.625Z" fill="#FF4100"/>
</g>
<g filter="url(#filter1_i_369_11400)">
<path d="M589 244.983C590.605 246.583 592.606 247.987 594.846 249.161C600.618 252.188 608.454 254 617 254C625.546 254 633.382 252.188 639.154 249.161C641.394 247.987 643.395 246.583 645 244.983V236.305C645 239.569 642.444 242.98 637.272 245.692C632.187 248.358 625.022 250.068 617 250.068C608.978 250.068 601.813 248.358 596.728 245.692C591.556 242.98 589 239.569 589 236.305V244.983Z" fill="#FF4100"/>
<path fill-rule="evenodd" clip-rule="evenodd" d="M589 244.983V236.305V227.625C586.53 230.088 585 233.018 585 236.305C585 239.592 586.53 242.521 589 244.983ZM645 227.625V236.305V244.983C647.47 242.521 649 239.592 649 236.305C649 233.018 647.47 230.088 645 227.625Z" fill="#FF4100"/>
</g>
<g filter="url(#filter2_i_369_11400)">
<path d="M589 249.983C590.605 251.583 592.606 252.987 594.846 254.161C600.618 257.188 608.454 259 617 259C625.546 259 633.382 257.188 639.154 254.161C641.394 252.987 643.395 251.583 645 249.983V241.305C645 244.569 642.444 247.98 637.272 250.692C632.187 253.358 625.022 255.068 617 255.068C608.978 255.068 601.813 253.358 596.728 250.692C591.556 247.98 589 244.569 589 241.305V249.983Z" fill="#FF4100"/>
<path fill-rule="evenodd" clip-rule="evenodd" d="M589 249.983V241.305V232.625C586.53 235.088 585 238.018 585 241.305C585 244.592 586.53 247.521 589 249.983ZM645 232.625V241.305V249.983C647.47 247.521 649 244.592 649 241.305C649 238.018 647.47 235.088 645 232.625Z" fill="#FF4100"/>
</g>
<g filter="url(#filter3_i_369_11400)">
<path d="M589 254.983C590.605 256.583 592.606 257.987 594.846 259.161C600.618 262.188 608.454 264 617 264C625.546 264 633.382 262.188 639.154 259.161C641.394 257.987 643.395 256.583 645 254.983V246.305C645 249.569 642.444 252.98 637.272 255.692C632.187 258.358 625.022 260.068 617 260.068C608.978 260.068 601.813 258.358 596.728 255.692C591.556 252.98 589 249.569 589 246.305V254.983Z" fill="#FF4100"/>
<path fill-rule="evenodd" clip-rule="evenodd" d="M589 254.983V246.305V237.625C586.53 240.088 585 243.018 585 246.305C585 249.592 586.53 252.521 589 254.983ZM645 237.625V246.305V254.983C647.47 252.521 649 249.592 649 246.305C649 243.018 647.47 240.088 645 237.625Z" fill="#FF4100"/>
</g>
<g filter="url(#filter4_i_369_11400)">
<path d="M589 259.983C590.605 261.583 592.606 262.987 594.846 264.161C600.618 267.188 608.454 269 617 269C625.546 269 633.382 267.188 639.154 264.161C641.394 262.987 643.395 261.583 645 259.983V251.305C645 254.569 642.444 257.98 637.272 260.692C632.187 263.358 625.022 265.068 617 265.068C608.978 265.068 601.813 263.358 596.728 260.692C591.556 257.98 589 254.569 589 251.305V259.983Z" fill="#FF4100"/>
<path fill-rule="evenodd" clip-rule="evenodd" d="M589 259.983V251.305V242.625C586.53 245.088 585 248.018 585 251.305C585 254.592 586.53 257.521 589 259.983ZM645 242.625V251.305V259.983C647.47 257.521 649 254.592 649 251.305C649 248.018 647.47 245.088 645 242.625Z" fill="#FF4100"/>
</g>
<g filter="url(#filter5_i_369_11400)">
<path d="M589 264.983C590.605 266.583 592.606 267.987 594.846 269.161C600.618 272.188 608.454 274 617 274C625.546 274 633.382 272.188 639.154 269.161C641.394 267.987 643.395 266.583 645 264.983V256.305C645 259.569 642.444 262.98 637.272 265.692C632.187 268.358 625.022 270.068 617 270.068C608.978 270.068 601.813 268.358 596.728 265.692C591.556 262.98 589 259.569 589 256.305V264.983Z" fill="#FF4100"/>
<path fill-rule="evenodd" clip-rule="evenodd" d="M589 264.983V256.305V247.625C586.53 250.088 585 253.018 585 256.305C585 259.592 586.53 262.521 589 264.983ZM645 247.625V256.305V264.983C647.47 262.521 649 259.592 649 256.305C649 253.018 647.47 250.088 645 247.625Z" fill="#FF4100"/>
</g>
<g filter="url(#filter6_i_369_11400)">
<path d="M589 269.983C590.605 271.583 592.606 272.987 594.846 274.161C600.618 277.188 608.454 279 617 279C625.546 279 633.382 277.188 639.154 274.161C641.394 272.987 643.395 271.583 645 269.983V261.305C645 264.569 642.444 267.98 637.272 270.692C632.187 273.358 625.022 275.068 617 275.068C608.978 275.068 601.813 273.358 596.728 270.692C591.556 267.98 589 264.569 589 261.305V269.983Z" fill="#FF4100"/>
<path fill-rule="evenodd" clip-rule="evenodd" d="M589 269.983V261.305V252.625C586.53 255.088 585 258.018 585 261.305C585 264.592 586.53 267.521 589 269.983ZM645 252.625V261.305V269.983C647.47 267.521 649 264.592 649 261.305C649 258.018 647.47 255.088 645 252.625Z" fill="#FF4100"/>
</g>
<g filter="url(#filter7_i_369_11400)">
<path d="M589 274.983C590.605 276.583 592.606 277.987 594.846 279.161C600.618 282.188 608.454 284 617 284C625.546 284 633.382 282.188 639.154 279.161C641.394 277.987 643.395 276.583 645 274.983V266.305C645 269.569 642.444 272.98 637.272 275.692C632.187 278.358 625.022 280.068 617 280.068C608.978 280.068 601.813 278.358 596.728 275.692C591.556 272.98 589 269.569 589 266.305V274.983Z" fill="#FF4100"/>
<path fill-rule="evenodd" clip-rule="evenodd" d="M589 274.983V266.305V257.625C586.53 260.088 585 263.018 585 266.305C585 269.592 586.53 272.521 589 274.983ZM645 257.625V266.305V274.983C647.47 272.521 649 269.592 649 266.305C649 263.018 647.47 260.088 645 257.625Z" fill="#FF4100"/>
</g>
<g filter="url(#filter8_i_369_11400)">
<path d="M589 279.983C590.605 281.583 592.606 282.987 594.846 284.161C600.618 287.188 608.454 289 617 289C625.546 289 633.382 287.188 639.154 284.161C641.394 282.987 643.395 281.583 645 279.983V271.305C645 274.569 642.444 277.98 637.272 280.692C632.187 283.358 625.022 285.068 617 285.068C608.978 285.068 601.813 283.358 596.728 280.692C591.556 277.98 589 274.569 589 271.305V279.983Z" fill="#FF4100"/>
<path fill-rule="evenodd" clip-rule="evenodd" d="M589 279.983V271.305V262.625C586.53 265.088 585 268.018 585 271.305C585 274.592 586.53 277.521 589 279.983ZM645 262.625V271.305V279.983C647.47 277.521 649 274.592 649 271.305C649 268.018 647.47 265.088 645 262.625Z" fill="#FF4100"/>
</g>
<g filter="url(#filter9_i_369_11400)">
<path d="M589 284.983C590.605 286.583 592.606 287.987 594.846 289.161C600.618 292.188 608.454 294 617 294C625.546 294 633.382 292.188 639.154 289.161C641.394 287.987 643.395 286.583 645 284.983V276.305C645 279.569 642.444 282.98 637.272 285.692C632.187 288.358 625.022 290.068 617 290.068C608.978 290.068 601.813 288.358 596.728 285.692C591.556 282.98 589 279.569 589 276.305V284.983Z" fill="#FF4100"/>
<path fill-rule="evenodd" clip-rule="evenodd" d="M589 284.983V276.305V267.625C586.53 270.088 585 273.018 585 276.305C585 279.592 586.53 282.521 589 284.983ZM645 267.625V276.305V284.983C647.47 282.521 649 279.592 649 276.305C649 273.018 647.47 270.088 645 267.625Z" fill="#FF4100"/>
</g>
<g filter="url(#filter10_i_369_11400)">
<path d="M589 289.983C590.605 291.583 592.606 292.987 594.846 294.161C600.618 297.188 608.454 299 617 299C625.546 299 633.382 297.188 639.154 294.161C641.394 292.987 643.395 291.583 645 289.983V281.305C645 284.569 642.444 287.98 637.272 290.692C632.187 293.358 625.022 295.068 617 295.068C608.978 295.068 601.813 293.358 596.728 290.692C591.556 287.98 589 284.569 589 281.305V289.983Z" fill="#FF4100"/>
<path fill-rule="evenodd" clip-rule="evenodd" d="M589 289.983V281.305V272.625C586.53 275.088 585 278.018 585 281.305C585 284.592 586.53 287.521 589 289.983ZM645 272.625V281.305V289.983C647.47 287.521 649 284.592 649 281.305C649 278.018 647.47 275.088 645 272.625Z" fill="#FF4100"/>
</g>
<g filter="url(#filter11_i_369_11400)">
<path d="M589 294.983C590.605 296.583 592.606 297.987 594.846 299.161C600.618 302.188 608.454 304 617 304C625.546 304 633.382 302.188 639.154 299.161C641.394 297.987 643.395 296.583 645 294.983V286.305C645 289.569 642.444 292.98 637.272 295.692C632.187 298.358 625.022 300.068 617 300.068C608.978 300.068 601.813 298.358 596.728 295.692C591.556 292.98 589 289.569 589 286.305V294.983Z" fill="#FF4100"/>
<path fill-rule="evenodd" clip-rule="evenodd" d="M589 294.983V286.305V277.625C586.53 280.088 585 283.018 585 286.305C585 289.592 586.53 292.521 589 294.983ZM645 277.625V286.305V294.983C647.47 292.521 649 289.592 649 286.305C649 283.018 647.47 280.088 645 277.625Z" fill="#FF4100"/>
</g>
<g filter="url(#filter12_i_369_11400)">
<path d="M589 299.983C590.605 301.583 592.606 302.987 594.846 304.161C600.618 307.188 608.454 309 617 309C625.546 309 633.382 307.188 639.154 304.161C641.394 302.987 643.395 301.583 645 299.983V291.305C645 294.569 642.444 297.98 637.272 300.692C632.187 303.358 625.022 305.068 617 305.068C608.978 305.068 601.813 303.358 596.728 300.692C591.556 297.98 589 294.569 589 291.305V299.983Z" fill="#FF4100"/>
<path fill-rule="evenodd" clip-rule="evenodd" d="M589 299.983V291.305V282.625C586.53 285.088 585 288.018 585 291.305C585 294.592 586.53 297.521 589 299.983ZM645 282.625V291.305V299.983C647.47 297.521 649 294.592 649 291.305C649 288.018 647.47 285.088 645 282.625Z" fill="#FF4100"/>
</g>
<g filter="url(#filter13_i_369_11400)">
<path d="M589 304.983C590.605 306.583 592.606 307.987 594.846 309.161C600.618 312.188 608.454 314 617 314C625.546 314 633.382 312.188 639.154 309.161C641.394 307.987 643.395 306.583 645 304.983V296.305C645 299.569 642.444 302.98 637.272 305.692C632.187 308.358 625.022 310.068 617 310.068C608.978 310.068 601.813 308.358 596.728 305.692C591.556 302.98 589 299.569 589 296.305V304.983Z" fill="#FF4100"/>
<path fill-rule="evenodd" clip-rule="evenodd" d="M589 304.983V296.305V287.625C586.53 290.088 585 293.018 585 296.305C585 299.592 586.53 302.521 589 304.983ZM645 287.625V296.305V304.983C647.47 302.521 649 299.592 649 296.305C649 293.018 647.47 290.088 645 287.625Z" fill="#FF4100"/>
</g>
<g filter="url(#filter14_i_369_11400)">
<path d="M589 309.983C590.605 311.583 592.606 312.987 594.846 314.161C600.618 317.188 608.454 319 617 319C625.546 319 633.382 317.188 639.154 314.161C641.394 312.987 643.395 311.583 645 309.983V301.305C645 304.569 642.444 307.98 637.272 310.692C632.187 313.358 625.022 315.068 617 315.068C608.978 315.068 601.813 313.358 596.728 310.692C591.556 307.98 589 304.569 589 301.305V309.983Z" fill="#FF4100"/>
<path fill-rule="evenodd" clip-rule="evenodd" d="M589 309.983V301.305V292.625C586.53 295.088 585 298.018 585 301.305C585 304.592 586.53 307.521 589 309.983ZM645 292.625V301.305V309.983C647.47 307.521 649 304.592 649 301.305C649 298.018 647.47 295.088 645 292.625Z" fill="#FF4100"/>
</g>
<g filter="url(#filter15_i_369_11400)">
<path d="M589 314.983C590.605 316.583 592.606 317.987 594.846 319.161C600.618 322.188 608.454 324 617 324C625.546 324 633.382 322.188 639.154 319.161C641.394 317.987 643.395 316.583 645 314.983V306.305C645 309.569 642.444 312.98 637.272 315.692C632.187 318.358 625.022 320.068 617 320.068C608.978 320.068 601.813 318.358 596.728 315.692C591.556 312.98 589 309.569 589 306.305V314.983Z" fill="#FF4100"/>
<path fill-rule="evenodd" clip-rule="evenodd" d="M589 314.983V306.305V297.625C586.53 300.088 585 303.018 585 306.305C585 309.592 586.53 312.521 589 314.983ZM645 297.625V306.305V314.983C647.47 312.521 649 309.592 649 306.305C649 303.018 647.47 300.088 645 297.625Z" fill="#FF4100"/>
</g>
<g filter="url(#filter16_i_369_11400)">
<path d="M589 319.983C590.605 321.583 592.606 322.987 594.846 324.161C600.618 327.188 608.454 329 617 329C625.546 329 633.382 327.188 639.154 324.161C641.394 322.987 643.395 321.583 645 319.983V311.305C645 314.569 642.444 317.98 637.272 320.692C632.187 323.358 625.022 325.068 617 325.068C608.978 325.068 601.813 323.358 596.728 320.692C591.556 317.98 589 314.569 589 311.305V319.983Z" fill="#FF4100"/>
<path fill-rule="evenodd" clip-rule="evenodd" d="M589 319.983V311.305V302.625C586.53 305.088 585 308.018 585 311.305C585 314.592 586.53 317.521 589 319.983ZM645 302.625V311.305V319.983C647.47 317.521 649 314.592 649 311.305C649 308.018 647.47 305.088 645 302.625Z" fill="#FF4100"/>
</g>
<g filter="url(#filter17_i_369_11400)">
<path d="M589 324.983C590.605 326.583 592.606 327.987 594.846 329.161C600.618 332.188 608.454 334 617 334C625.546 334 633.382 332.188 639.154 329.161C641.394 327.987 643.395 326.583 645 324.983V316.305C645 319.569 642.444 322.98 637.272 325.692C632.187 328.358 625.022 330.068 617 330.068C608.978 330.068 601.813 328.358 596.728 325.692C591.556 322.98 589 319.569 589 316.305V324.983Z" fill="#FF4100"/>
<path fill-rule="evenodd" clip-rule="evenodd" d="M589 324.983V316.305V307.625C586.53 310.088 585 313.018 585 316.305C585 319.592 586.53 322.521 589 324.983ZM645 307.625V316.305V324.983C647.47 322.521 649 319.592 649 316.305C649 313.018 647.47 310.088 645 307.625Z" fill="#FF4100"/>
</g>
<g filter="url(#filter18_i_369_11400)">
<path d="M589 329.983C590.605 331.583 592.606 332.987 594.846 334.161C600.618 337.188 608.454 339 617 339C625.546 339 633.382 337.188 639.154 334.161C641.394 332.987 643.395 331.583 645 329.983V321.305C645 324.569 642.444 327.98 637.272 330.692C632.187 333.358 625.022 335.068 617 335.068C608.978 335.068 601.813 333.358 596.728 330.692C591.556 327.98 589 324.569 589 321.305V329.983Z" fill="#FF4100"/>
<path fill-rule="evenodd" clip-rule="evenodd" d="M589 329.983V321.305V312.625C586.53 315.088 585 318.018 585 321.305C585 324.592 586.53 327.521 589 329.983ZM645 312.625V321.305V329.983C647.47 327.521 649 324.592 649 321.305C649 318.018 647.47 315.088 645 312.625Z" fill="#FF4100"/>
</g>
<g filter="url(#filter19_i_369_11400)">
<path d="M589 334.983C590.605 336.583 592.606 337.987 594.846 339.161C600.618 342.188 608.454 344 617 344C625.546 344 633.382 342.188 639.154 339.161C641.394 337.987 643.395 336.583 645 334.983V326.305C645 329.569 642.444 332.98 637.272 335.692C632.187 338.358 625.022 340.068 617 340.068C608.978 340.068 601.813 338.358 596.728 335.692C591.556 332.98 589 329.569 589 326.305V334.983Z" fill="#FF4100"/>
<path fill-rule="evenodd" clip-rule="evenodd" d="M589 334.983V326.305V317.625C586.53 320.088 585 323.018 585 326.305C585 329.592 586.53 332.521 589 334.983ZM645 317.625V326.305V334.983C647.47 332.521 649 329.592 649 326.305C649 323.018 647.47 320.088 645 317.625Z" fill="#FF4100"/>
</g>
<g filter="url(#filter20_i_369_11400)">
<path d="M589 339.983C590.605 341.583 592.606 342.987 594.846 344.161C600.618 347.188 608.454 349 617 349C625.546 349 633.382 347.188 639.154 344.161C641.394 342.987 643.395 341.583 645 339.983V331.305C645 334.569 642.444 337.98 637.272 340.692C632.187 343.358 625.022 345.068 617 345.068C608.978 345.068 601.813 343.358 596.728 340.692C591.556 337.98 589 334.569 589 331.305V339.983Z" fill="#FF4100"/>
<path fill-rule="evenodd" clip-rule="evenodd" d="M589 339.983V331.305V322.625C586.53 325.088 585 328.018 585 331.305C585 334.592 586.53 337.521 589 339.983ZM645 322.625V331.305V339.983C647.47 337.521 649 334.592 649 331.305C649 328.018 647.47 325.088 645 322.625Z" fill="#FF4100"/>
</g>
<g filter="url(#filter21_i_369_11400)">
<path d="M589 344.983C590.605 346.583 592.606 347.987 594.846 349.161C600.618 352.188 608.454 354 617 354C625.546 354 633.382 352.188 639.154 349.161C641.394 347.987 643.395 346.583 645 344.983V336.305C645 339.569 642.444 342.98 637.272 345.692C632.187 348.358 625.022 350.068 617 350.068C608.978 350.068 601.813 348.358 596.728 345.692C591.556 342.98 589 339.569 589 336.305V344.983Z" fill="#FF4100"/>
<path fill-rule="evenodd" clip-rule="evenodd" d="M589 344.983V336.305V327.625C586.53 330.088 585 333.018 585 336.305C585 339.592 586.53 342.521 589 344.983ZM645 327.625V336.305V344.983C647.47 342.521 649 339.592 649 336.305C649 333.018 647.47 330.088 645 327.625Z" fill="#FF4100"/>
</g>
<g filter="url(#filter22_i_369_11400)">
<path d="M589 349.983C590.605 351.583 592.606 352.987 594.846 354.161C600.618 357.188 608.454 359 617 359C625.546 359 633.382 357.188 639.154 354.161C641.394 352.987 643.395 351.583 645 349.983V341.305C645 344.569 642.444 347.98 637.272 350.692C632.187 353.358 625.022 355.068 617 355.068C608.978 355.068 601.813 353.358 596.728 350.692C591.556 347.98 589 344.569 589 341.305V349.983Z" fill="#FF4100"/>
<path fill-rule="evenodd" clip-rule="evenodd" d="M589 349.983V341.305V332.625C586.53 335.088 585 338.018 585 341.305C585 344.592 586.53 347.521 589 349.983ZM645 332.625V341.305V349.983C647.47 347.521 649 344.592 649 341.305C649 338.018 647.47 335.088 645 332.625Z" fill="#FF4100"/>
</g>
<g filter="url(#filter23_i_369_11400)">
<path d="M589 354.983C590.605 356.583 592.606 357.987 594.846 359.161C600.618 362.188 608.454 364 617 364C625.546 364 633.382 362.188 639.154 359.161C641.394 357.987 643.395 356.583 645 354.983V346.305C645 349.569 642.444 352.98 637.272 355.692C632.187 358.358 625.022 360.068 617 360.068C608.978 360.068 601.813 358.358 596.728 355.692C591.556 352.98 589 349.569 589 346.305V354.983Z" fill="#FF4100"/>
<path fill-rule="evenodd" clip-rule="evenodd" d="M589 354.983V346.305V337.625C586.53 340.088 585 343.018 585 346.305C585 349.592 586.53 352.521 589 354.983ZM645 337.625V346.305V354.983C647.47 352.521 649 349.592 649 346.305C649 343.018 647.47 340.088 645 337.625Z" fill="#FF4100"/>
</g>
<g filter="url(#filter24_i_369_11400)">
<path d="M589 359.983C590.605 361.583 592.606 362.987 594.846 364.161C600.618 367.188 608.454 369 617 369C625.546 369 633.382 367.188 639.154 364.161C641.394 362.987 643.395 361.583 645 359.983V351.305C645 354.569 642.444 357.98 637.272 360.692C632.187 363.358 625.022 365.068 617 365.068C608.978 365.068 601.813 363.358 596.728 360.692C591.556 357.98 589 354.569 589 351.305V359.983Z" fill="#FF4100"/>
<path fill-rule="evenodd" clip-rule="evenodd" d="M589 359.983V351.305V342.625C586.53 345.088 585 348.018 585 351.305C585 354.592 586.53 357.521 589 359.983ZM645 342.625V351.305V359.983C647.47 357.521 649 354.592 649 351.305C649 348.018 647.47 345.088 645 342.625Z" fill="#FF4100"/>
</g>
<g filter="url(#filter25_i_369_11400)">
<path d="M589 364.983C590.605 366.583 592.606 367.987 594.846 369.161C600.618 372.188 608.454 374 617 374C625.546 374 633.382 372.188 639.154 369.161C641.394 367.987 643.395 366.583 645 364.983V356.305C645 359.569 642.444 362.98 637.272 365.692C632.187 368.358 625.022 370.068 617 370.068C608.978 370.068 601.813 368.358 596.728 365.692C591.556 362.98 589 359.569 589 356.305V364.983Z" fill="#FF4100"/>
<path fill-rule="evenodd" clip-rule="evenodd" d="M589 364.983V356.305V347.625C586.53 350.088 585 353.018 585 356.305C585 359.592 586.53 362.521 589 364.983ZM645 347.625V356.305V364.983C647.47 362.521 649 359.592 649 356.305C649 353.018 647.47 350.088 645 347.625Z" fill="#FF4100"/>
</g>
<g filter="url(#filter26_i_369_11400)">
<path d="M589 369.983C590.605 371.583 592.606 372.987 594.846 374.161C600.618 377.188 608.454 379 617 379C625.546 379 633.382 377.188 639.154 374.161C641.394 372.987 643.395 371.583 645 369.983V361.305C645 364.569 642.444 367.98 637.272 370.692C632.187 373.358 625.022 375.068 617 375.068C608.978 375.068 601.813 373.358 596.728 370.692C591.556 367.98 589 364.569 589 361.305V369.983Z" fill="#FF4100"/>
<path fill-rule="evenodd" clip-rule="evenodd" d="M589 369.983V361.305V352.625C586.53 355.088 585 358.018 585 361.305C585 364.592 586.53 367.521 589 369.983ZM645 352.625V361.305V369.983C647.47 367.521 649 364.592 649 361.305C649 358.018 647.47 355.088 645 352.625Z" fill="#FF4100"/>
</g>
<g filter="url(#filter27_i_369_11400)">
<path d="M589 374.983C590.605 376.583 592.606 377.987 594.846 379.161C600.618 382.188 608.454 384 617 384C625.546 384 633.382 382.188 639.154 379.161C641.394 377.987 643.395 376.583 645 374.983V366.305C645 369.569 642.444 372.98 637.272 375.692C632.187 378.358 625.022 380.068 617 380.068C608.978 380.068 601.813 378.358 596.728 375.692C591.556 372.98 589 369.569 589 366.305V374.983Z" fill="#FF4100"/>
<path fill-rule="evenodd" clip-rule="evenodd" d="M589 374.983V366.305V357.625C586.53 360.088 585 363.018 585 366.305C585 369.592 586.53 372.521 589 374.983ZM645 357.625V366.305V374.983C647.47 372.521 649 369.592 649 366.305C649 363.018 647.47 360.088 645 357.625Z" fill="#FF4100"/>
</g>
<g filter="url(#filter28_i_369_11400)">
<path d="M589 379.983C590.605 381.583 592.606 382.987 594.846 384.161C600.618 387.188 608.454 389 617 389C625.546 389 633.382 387.188 639.154 384.161C641.394 382.987 643.395 381.583 645 379.983V371.305C645 374.569 642.444 377.98 637.272 380.692C632.187 383.358 625.022 385.068 617 385.068C608.978 385.068 601.813 383.358 596.728 380.692C591.556 377.98 589 374.569 589 371.305V379.983Z" fill="#FF4100"/>
<path fill-rule="evenodd" clip-rule="evenodd" d="M589 379.983V371.305V362.625C586.53 365.088 585 368.018 585 371.305C585 374.592 586.53 377.521 589 379.983ZM645 362.625V371.305V379.983C647.47 377.521 649 374.592 649 371.305C649 368.018 647.47 365.088 645 362.625Z" fill="#FF4100"/>
</g>
<g filter="url(#filter29_i_369_11400)">
<path d="M589 384.983C590.605 386.583 592.606 387.987 594.846 389.161C600.618 392.188 608.454 394 617 394C625.546 394 633.382 392.188 639.154 389.161C641.394 387.987 643.395 386.583 645 384.983V376.305C645 379.569 642.444 382.98 637.272 385.692C632.187 388.358 625.022 390.068 617 390.068C608.978 390.068 601.813 388.358 596.728 385.692C591.556 382.98 589 379.569 589 376.305V384.983Z" fill="#FF4100"/>
<path fill-rule="evenodd" clip-rule="evenodd" d="M589 384.983V376.305V367.625C586.53 370.088 585 373.018 585 376.305C585 379.592 586.53 382.521 589 384.983ZM645 367.625V376.305V384.983C647.47 382.521 649 379.592 649 376.305C649 373.018 647.47 370.088 645 367.625Z" fill="#FF4100"/>
</g>
<g filter="url(#filter30_i_369_11400)">
<path d="M589 389.983C590.605 391.583 592.606 392.987 594.846 394.161C600.618 397.188 608.454 399 617 399C625.546 399 633.382 397.188 639.154 394.161C641.394 392.987 643.395 391.583 645 389.983V381.305C645 384.569 642.444 387.98 637.272 390.692C632.187 393.358 625.022 395.068 617 395.068C608.978 395.068 601.813 393.358 596.728 390.692C591.556 387.98 589 384.569 589 381.305V389.983Z" fill="#FF4100"/>
<path fill-rule="evenodd" clip-rule="evenodd" d="M589 389.983V381.305V372.625C586.53 375.088 585 378.018 585 381.305C585 384.592 586.53 387.521 589 389.983ZM645 372.625V381.305V389.983C647.47 387.521 649 384.592 649 381.305C649 378.018 647.47 375.088 645 372.625Z" fill="#FF4100"/>
</g>
<g filter="url(#filter31_i_369_11400)">
<path d="M589 394.983C590.605 396.583 592.606 397.987 594.846 399.161C600.618 402.188 608.454 404 617 404C625.546 404 633.382 402.188 639.154 399.161C641.394 397.987 643.395 396.583 645 394.983V386.305C645 389.569 642.444 392.98 637.272 395.692C632.187 398.358 625.022 400.068 617 400.068C608.978 400.068 601.813 398.358 596.728 395.692C591.556 392.98 589 389.569 589 386.305V394.983Z" fill="#FF4100"/>
<path fill-rule="evenodd" clip-rule="evenodd" d="M589 394.983V386.305V377.625C586.53 380.088 585 383.018 585 386.305C585 389.592 586.53 392.521 589 394.983ZM645 377.625V386.305V394.983C647.47 392.521 649 389.592 649 386.305C649 383.018 647.47 380.088 645 377.625Z" fill="#FF4100"/>
</g>
<g filter="url(#filter32_i_369_11400)">
<path d="M589 399.983C590.605 401.583 592.606 402.987 594.846 404.161C600.618 407.188 608.454 409 617 409C625.546 409 633.382 407.188 639.154 404.161C641.394 402.987 643.395 401.583 645 399.983V391.305C645 394.569 642.444 397.98 637.272 400.692C632.187 403.358 625.022 405.068 617 405.068C608.978 405.068 601.813 403.358 596.728 400.692C591.556 397.98 589 394.569 589 391.305V399.983Z" fill="#FF4100"/>
<path fill-rule="evenodd" clip-rule="evenodd" d="M589 399.983V391.305V382.625C586.53 385.088 585 388.018 585 391.305C585 394.592 586.53 397.521 589 399.983ZM645 382.625V391.305V399.983C647.47 397.521 649 394.592 649 391.305C649 388.018 647.47 385.088 645 382.625Z" fill="#FF4100"/>
</g>
<g filter="url(#filter33_i_369_11400)">
<path d="M589 404.983C590.605 406.583 592.606 407.987 594.846 409.161C600.618 412.188 608.454 414 617 414C625.546 414 633.382 412.188 639.154 409.161C641.394 407.987 643.395 406.583 645 404.983V396.305C645 399.569 642.444 402.98 637.272 405.692C632.187 408.358 625.022 410.068 617 410.068C608.978 410.068 601.813 408.358 596.728 405.692C591.556 402.98 589 399.569 589 396.305V404.983Z" fill="#FF4100"/>
<path fill-rule="evenodd" clip-rule="evenodd" d="M589 404.983V396.305V387.625C586.53 390.088 585 393.018 585 396.305C585 399.592 586.53 402.521 589 404.983ZM645 387.625V396.305V404.983C647.47 402.521 649 399.592 649 396.305C649 393.018 647.47 390.088 645 387.625Z" fill="#FF4100"/>
</g>
<g filter="url(#filter34_i_369_11400)">
<path d="M589 409.983C590.605 411.583 592.606 412.987 594.846 414.161C600.618 417.188 608.454 419 617 419C625.546 419 633.382 417.188 639.154 414.161C641.394 412.987 643.395 411.583 645 409.983V401.305C645 404.569 642.444 407.98 637.272 410.692C632.187 413.358 625.022 415.068 617 415.068C608.978 415.068 601.813 413.358 596.728 410.692C591.556 407.98 589 404.569 589 401.305V409.983Z" fill="#FF4100"/>
<path fill-rule="evenodd" clip-rule="evenodd" d="M589 409.983V401.305V392.625C586.53 395.088 585 398.018 585 401.305C585 404.592 586.53 407.521 589 409.983ZM645 392.625V401.305V409.983C647.47 407.521 649 404.592 649 401.305C649 398.018 647.47 395.088 645 392.625Z" fill="#FF4100"/>
</g>
<g filter="url(#filter35_i_369_11400)">
<path d="M589 414.983C590.605 416.583 592.606 417.987 594.846 419.161C600.618 422.188 608.454 424 617 424C625.546 424 633.382 422.188 639.154 419.161C641.394 417.987 643.395 416.583 645 414.983V406.305C645 409.569 642.444 412.98 637.272 415.692C632.187 418.358 625.022 420.068 617 420.068C608.978 420.068 601.813 418.358 596.728 415.692C591.556 412.98 589 409.569 589 406.305V414.983Z" fill="#FF4100"/>
<path fill-rule="evenodd" clip-rule="evenodd" d="M589 414.983V406.305V397.625C586.53 400.088 585 403.018 585 406.305C585 409.592 586.53 412.521 589 414.983ZM645 397.625V406.305V414.983C647.47 412.521 649 409.592 649 406.305C649 403.018 647.47 400.088 645 397.625Z" fill="#FF4100"/>
</g>
<g filter="url(#filter36_i_369_11400)">
<path d="M589 419.983C590.605 421.583 592.606 422.987 594.846 424.161C600.618 427.188 608.454 429 617 429C625.546 429 633.382 427.188 639.154 424.161C641.394 422.987 643.395 421.583 645 419.983V411.305C645 414.569 642.444 417.98 637.272 420.692C632.187 423.358 625.022 425.068 617 425.068C608.978 425.068 601.813 423.358 596.728 420.692C591.556 417.98 589 414.569 589 411.305V419.983Z" fill="#FF4100"/>
<path fill-rule="evenodd" clip-rule="evenodd" d="M589 419.983V411.305V402.625C586.53 405.088 585 408.018 585 411.305C585 414.592 586.53 417.521 589 419.983ZM645 402.625V411.305V419.983C647.47 417.521 649 414.592 649 411.305C649 408.018 647.47 405.088 645 402.625Z" fill="#FF4100"/>
</g>
<g filter="url(#filter37_i_369_11400)">
<path d="M589 424.983C590.605 426.583 592.606 427.987 594.846 429.161C600.618 432.188 608.454 434 617 434C625.546 434 633.382 432.188 639.154 429.161C641.394 427.987 643.395 426.583 645 424.983V416.305C645 419.569 642.444 422.98 637.272 425.692C632.187 428.358 625.022 430.068 617 430.068C608.978 430.068 601.813 428.358 596.728 425.692C591.556 422.98 589 419.569 589 416.305V424.983Z" fill="#FF4100"/>
<path fill-rule="evenodd" clip-rule="evenodd" d="M589 424.983V416.305V407.625C586.53 410.088 585 413.018 585 416.305C585 419.592 586.53 422.521 589 424.983ZM645 407.625V416.305V424.983C647.47 422.521 649 419.592 649 416.305C649 413.018 647.47 410.088 645 407.625Z" fill="#FF4100"/>
</g>
<g filter="url(#filter38_i_369_11400)">
<path d="M589 429.983C590.605 431.583 592.606 432.987 594.846 434.161C600.618 437.188 608.454 439 617 439C625.546 439 633.382 437.188 639.154 434.161C641.394 432.987 643.395 431.583 645 429.983V421.305C645 424.569 642.444 427.98 637.272 430.692C632.187 433.358 625.022 435.068 617 435.068C608.978 435.068 601.813 433.358 596.728 430.692C591.556 427.98 589 424.569 589 421.305V429.983Z" fill="#FF4100"/>
<path fill-rule="evenodd" clip-rule="evenodd" d="M589 429.983V421.305V412.625C586.53 415.088 585 418.018 585 421.305C585 424.592 586.53 427.521 589 429.983ZM645 412.625V421.305V429.983C647.47 427.521 649 424.592 649 421.305C649 418.018 647.47 415.088 645 412.625Z" fill="#FF4100"/>
</g>
<g filter="url(#filter39_i_369_11400)">
<path d="M589 434.983C590.605 436.583 592.606 437.987 594.846 439.161C600.618 442.188 608.454 444 617 444C625.546 444 633.382 442.188 639.154 439.161C641.394 437.987 643.395 436.583 645 434.983V426.305C645 429.569 642.444 432.98 637.272 435.692C632.187 438.358 625.022 440.068 617 440.068C608.978 440.068 601.813 438.358 596.728 435.692C591.556 432.98 589 429.569 589 426.305V434.983Z" fill="#FF4100"/>
<path fill-rule="evenodd" clip-rule="evenodd" d="M589 434.983V426.305V417.625C586.53 420.088 585 423.018 585 426.305C585 429.592 586.53 432.521 589 434.983ZM645 417.625V426.305V434.983C647.47 432.521 649 429.592 649 426.305C649 423.018 647.47 420.088 645 417.625Z" fill="#FF4100"/>
</g>
<g filter="url(#filter40_i_369_11400)">
<path d="M589 439.983C590.605 441.583 592.606 442.987 594.846 444.161C600.618 447.188 608.454 449 617 449C625.546 449 633.382 447.188 639.154 444.161C641.394 442.987 643.395 441.583 645 439.983V431.305C645 434.569 642.444 437.98 637.272 440.692C632.187 443.358 625.022 445.068 617 445.068C608.978 445.068 601.813 443.358 596.728 440.692C591.556 437.98 589 434.569 589 431.305V439.983Z" fill="#FF4100"/>
<path fill-rule="evenodd" clip-rule="evenodd" d="M589 439.983V431.305V422.625C586.53 425.088 585 428.018 585 431.305C585 434.592 586.53 437.521 589 439.983ZM645 422.625V431.305V439.983C647.47 437.521 649 434.592 649 431.305C649 428.018 647.47 425.088 645 422.625Z" fill="#FF4100"/>
</g>
<g filter="url(#filter41_i_369_11400)">
<path d="M589 444.983C590.605 446.583 592.606 447.987 594.846 449.161C600.618 452.188 608.454 454 617 454C625.546 454 633.382 452.188 639.154 449.161C641.394 447.987 643.395 446.583 645 444.983V436.305C645 439.569 642.444 442.98 637.272 445.692C632.187 448.358 625.022 450.068 617 450.068C608.978 450.068 601.813 448.358 596.728 445.692C591.556 442.98 589 439.569 589 436.305V444.983Z" fill="#FF4100"/>
<path fill-rule="evenodd" clip-rule="evenodd" d="M589 444.983V436.305V427.625C586.53 430.088 585 433.018 585 436.305C585 439.592 586.53 442.521 589 444.983ZM645 427.625V436.305V444.983C647.47 442.521 649 439.592 649 436.305C649 433.018 647.47 430.088 645 427.625Z" fill="#FF4100"/>
</g>
<path d="M617 154C620.866 154 624 155.609 624 157.594C624 159.578 620.866 161.187 617 161.187C613.134 161.187 610 159.578 610 157.594C610 155.609 613.134 154 617 154Z" fill="url(#paint11_linear_369_11400)"/>
<path d="M617 223C620.866 223 624 221.391 624 219.406L624 157.594C624 159.578 620.866 161.187 617 161.187C613.134 161.187 610 159.578 610 157.594L610 219.406C610 221.391 613.134 223 617 223Z" fill="url(#paint12_linear_369_11400)"/>
<path d="M617 161.687C615.004 161.687 613.173 161.273 611.822 160.579C611.323 160.323 610.87 160.018 610.5 159.668L610.5 219.406C610.5 220.114 611.07 220.882 612.278 221.503C613.461 222.11 615.13 222.5 617 222.5C618.87 222.5 620.539 222.11 621.722 221.503C622.93 220.882 623.5 220.114 623.5 219.406L623.5 159.668C623.13 160.018 622.677 160.323 622.178 160.579C620.827 161.273 618.996 161.687 617 161.687ZM617 160.687C618.87 160.687 620.539 160.297 621.722 159.689C622.93 159.069 623.5 158.301 623.5 157.594C623.5 156.886 622.93 156.118 621.722 155.497C620.539 154.89 618.87 154.5 617 154.5C615.13 154.5 613.461 154.89 612.278 155.497C611.07 156.118 610.5 156.886 610.5 157.594C610.5 158.301 611.07 159.069 612.278 159.689C613.461 160.297 615.13 160.687 617 160.687ZM617 153.5C618.995 153.5 620.827 153.914 622.178 154.607C623.42 155.245 624.374 156.19 624.488 157.357L624.5 157.594L624.5 219.406C624.5 220.683 623.502 221.713 622.178 222.393C620.827 223.086 618.995 223.5 617 223.5C615.005 223.5 613.173 223.086 611.822 222.393C610.498 221.713 609.5 220.683 609.5 219.406L609.5 157.594C609.5 156.317 610.498 155.287 611.822 154.607C613.173 153.914 615.005 153.5 617 153.5Z" fill="black"/>
<path d="M479 364C479 338.062 457.529 317 431 317C420.013 317 409.892 320.614 401.804 326.691L401.027 327.287C399.986 328.103 398.979 328.96 398.012 329.856L398.013 329.857L396.136 331.695L395.382 332.493C387.684 340.832 383 351.881 383 364C383 389.938 404.471 411 431 411C443.969 411 455.732 405.965 464.368 397.785L465.519 396.658C473.868 388.199 479 376.686 479 364ZM481 364C481 376.831 475.967 388.509 467.736 397.24L466.931 398.075C466.561 398.45 466.184 398.818 465.802 399.181L465.768 399.215L465.767 399.214L465.756 399.226C456.758 407.754 444.502 413 431 413C403.405 413 381 391.081 381 364C381 350.945 386.211 339.084 394.698 330.305L394.717 330.285C395.338 329.643 395.977 329.018 396.633 328.41L397.4 327.712C398.176 327.022 398.975 326.355 399.794 325.713L400.603 325.093C409.028 318.762 419.568 315 431 315H617V317H445.171C465.873 322.986 481 341.749 481 364Z" fill="#FF4100"/>
<path d="M310.444 346.778C310.444 350.62 308.921 354.107 306.444 356.666C306.335 356.779 306.224 356.891 306.111 357C303.551 359.476 300.065 361 296.222 361C288.368 361 282 354.633 282 346.778C282 342.99 283.48 339.549 285.894 337C286.073 336.812 286.256 336.628 286.444 336.45C286.733 336.177 287.033 335.915 287.344 335.667C289.777 333.72 292.864 332.556 296.222 332.556C304.077 332.556 310.444 338.923 310.444 346.778Z" fill="url(#paint13_linear_369_11400)"/>
<path d="M309.944 346.778C309.944 339.2 303.801 333.056 296.223 333.056C293.184 333.056 290.377 334.043 288.104 335.714L287.656 336.058C287.36 336.295 287.072 336.542 286.797 336.803L286.798 336.804L286.248 337.354C283.924 339.812 282.5 343.129 282.5 346.778C282.5 354.357 288.644 360.5 296.223 360.5C299.93 360.5 303.293 359.03 305.763 356.641L306.091 356.312C308.477 353.843 309.944 350.483 309.944 346.778ZM310.944 346.778C310.944 350.631 309.463 354.139 307.041 356.763L306.804 357.014L306.458 357.359C303.809 359.922 300.2 361.5 296.223 361.5C288.092 361.5 281.5 354.909 281.5 346.778C281.5 342.858 283.033 339.294 285.531 336.656L285.812 336.368C285.907 336.273 286.003 336.179 286.101 336.087L286.558 335.672C286.713 335.537 286.871 335.405 287.031 335.276L287.512 334.908C289.951 333.115 292.964 332.056 296.223 332.056C304.353 332.056 310.944 338.648 310.944 346.778Z" fill="black"/>
<path d="M470.444 370.778C470.444 383.266 465.492 394.597 457.444 402.915C457.089 403.283 456.727 403.644 456.359 404C448.041 412.048 436.71 417 424.222 417C398.694 417 378 396.306 378 370.778C378 358.469 382.811 347.284 390.656 339C391.236 338.388 391.832 337.792 392.444 337.212C393.382 336.324 394.357 335.475 395.367 334.667C403.275 328.339 413.307 324.556 424.222 324.556C449.75 324.556 470.444 345.25 470.444 370.778Z" fill="url(#paint14_linear_369_11400)"/>
<path d="M469.944 370.778C469.944 345.527 449.474 325.056 424.223 325.056C413.762 325.056 404.123 328.568 396.419 334.478L395.679 335.058C394.68 335.857 393.716 336.697 392.788 337.575L391.02 339.344L390.301 340.12C382.966 348.23 378.5 358.983 378.5 370.778C378.5 396.03 398.971 416.5 424.223 416.5C436.575 416.5 447.783 411.602 456.012 403.641L457.091 402.562C465.049 394.334 469.944 383.128 469.944 370.778ZM470.944 370.778C470.944 383.006 466.246 394.139 458.558 402.466L457.804 403.263C457.624 403.448 457.443 403.633 457.26 403.815L456.707 404.359C448.3 412.494 436.845 417.5 424.223 417.5C398.419 417.5 377.5 396.582 377.5 370.778C377.5 358.336 382.364 347.029 390.293 338.656L390.735 338.195C391.181 337.737 391.636 337.288 392.101 336.849L392.818 336.183C393.543 335.524 394.289 334.889 395.055 334.276L395.81 333.685C403.682 327.645 413.534 324.056 424.223 324.056C450.026 324.056 470.944 344.974 470.944 370.778Z" fill="black"/>
<defs>
<filter id="filter0_i_369_11400" x="585" y="220.625" width="64" height="28.3748" filterUnits="userSpaceOnUse" color-interpolation-filters="sRGB">
<feFlood flood-opacity="0" result="BackgroundImageFix"/>
<feBlend mode="normal" in="SourceGraphic" in2="BackgroundImageFix" result="shape"/>
<feColorMatrix in="SourceAlpha" type="matrix" values="0 0 0 0 0 0 0 0 0 0 0 0 0 0 0 0 0 0 127 0" result="hardAlpha"/>
<feOffset dy="-2"/>
<feGaussianBlur stdDeviation="1"/>
<feComposite in2="hardAlpha" operator="arithmetic" k2="-1" k3="1"/>
<feColorMatrix type="matrix" values="0 0 0 0 0.235577 0 0 0 0 0 0 0 0 0 0 0 0 0 1 0"/>
<feBlend mode="normal" in2="shape" result="effect1_innerShadow_369_11400"/>
</filter>
<filter id="filter1_i_369_11400" x="585" y="225.625" width="64" height="28.3748" filterUnits="userSpaceOnUse" color-interpolation-filters="sRGB">
<feFlood flood-opacity="0" result="BackgroundImageFix"/>
<feBlend mode="normal" in="SourceGraphic" in2="BackgroundImageFix" result="shape"/>
<feColorMatrix in="SourceAlpha" type="matrix" values="0 0 0 0 0 0 0 0 0 0 0 0 0 0 0 0 0 0 127 0" result="hardAlpha"/>
<feOffset dy="-2"/>
<feGaussianBlur stdDeviation="1"/>
<feComposite in2="hardAlpha" operator="arithmetic" k2="-1" k3="1"/>
<feColorMatrix type="matrix" values="0 0 0 0 0.235577 0 0 0 0 0 0 0 0 0 0 0 0 0 1 0"/>
<feBlend mode="normal" in2="shape" result="effect1_innerShadow_369_11400"/>
</filter>
<filter id="filter2_i_369_11400" x="585" y="230.625" width="64" height="28.3748" filterUnits="userSpaceOnUse" color-interpolation-filters="sRGB">
<feFlood flood-opacity="0" result="BackgroundImageFix"/>
<feBlend mode="normal" in="SourceGraphic" in2="BackgroundImageFix" result="shape"/>
<feColorMatrix in="SourceAlpha" type="matrix" values="0 0 0 0 0 0 0 0 0 0 0 0 0 0 0 0 0 0 127 0" result="hardAlpha"/>
<feOffset dy="-2"/>
<feGaussianBlur stdDeviation="1"/>
<feComposite in2="hardAlpha" operator="arithmetic" k2="-1" k3="1"/>
<feColorMatrix type="matrix" values="0 0 0 0 0.235577 0 0 0 0 0 0 0 0 0 0 0 0 0 1 0"/>
<feBlend mode="normal" in2="shape" result="effect1_innerShadow_369_11400"/>
</filter>
<filter id="filter3_i_369_11400" x="585" y="235.625" width="64" height="28.3748" filterUnits="userSpaceOnUse" color-interpolation-filters="sRGB">
<feFlood flood-opacity="0" result="BackgroundImageFix"/>
<feBlend mode="normal" in="SourceGraphic" in2="BackgroundImageFix" result="shape"/>
<feColorMatrix in="SourceAlpha" type="matrix" values="0 0 0 0 0 0 0 0 0 0 0 0 0 0 0 0 0 0 127 0" result="hardAlpha"/>
<feOffset dy="-2"/>
<feGaussianBlur stdDeviation="1"/>
<feComposite in2="hardAlpha" operator="arithmetic" k2="-1" k3="1"/>
<feColorMatrix type="matrix" values="0 0 0 0 0.235577 0 0 0 0 0 0 0 0 0 0 0 0 0 1 0"/>
<feBlend mode="normal" in2="shape" result="effect1_innerShadow_369_11400"/>
</filter>
<filter id="filter4_i_369_11400" x="585" y="240.625" width="64" height="28.3748" filterUnits="userSpaceOnUse" color-interpolation-filters="sRGB">
<feFlood flood-opacity="0" result="BackgroundImageFix"/>
<feBlend mode="normal" in="SourceGraphic" in2="BackgroundImageFix" result="shape"/>
<feColorMatrix in="SourceAlpha" type="matrix" values="0 0 0 0 0 0 0 0 0 0 0 0 0 0 0 0 0 0 127 0" result="hardAlpha"/>
<feOffset dy="-2"/>
<feGaussianBlur stdDeviation="1"/>
<feComposite in2="hardAlpha" operator="arithmetic" k2="-1" k3="1"/>
<feColorMatrix type="matrix" values="0 0 0 0 0.235577 0 0 0 0 0 0 0 0 0 0 0 0 0 1 0"/>
<feBlend mode="normal" in2="shape" result="effect1_innerShadow_369_11400"/>
</filter>
<filter id="filter5_i_369_11400" x="585" y="245.625" width="64" height="28.3748" filterUnits="userSpaceOnUse" color-interpolation-filters="sRGB">
<feFlood flood-opacity="0" result="BackgroundImageFix"/>
<feBlend mode="normal" in="SourceGraphic" in2="BackgroundImageFix" result="shape"/>
<feColorMatrix in="SourceAlpha" type="matrix" values="0 0 0 0 0 0 0 0 0 0 0 0 0 0 0 0 0 0 127 0" result="hardAlpha"/>
<feOffset dy="-2"/>
<feGaussianBlur stdDeviation="1"/>
<feComposite in2="hardAlpha" operator="arithmetic" k2="-1" k3="1"/>
<feColorMatrix type="matrix" values="0 0 0 0 0.235577 0 0 0 0 0 0 0 0 0 0 0 0 0 1 0"/>
<feBlend mode="normal" in2="shape" result="effect1_innerShadow_369_11400"/>
</filter>
<filter id="filter6_i_369_11400" x="585" y="250.625" width="64" height="28.3748" filterUnits="userSpaceOnUse" color-interpolation-filters="sRGB">
<feFlood flood-opacity="0" result="BackgroundImageFix"/>
<feBlend mode="normal" in="SourceGraphic" in2="BackgroundImageFix" result="shape"/>
<feColorMatrix in="SourceAlpha" type="matrix" values="0 0 0 0 0 0 0 0 0 0 0 0 0 0 0 0 0 0 127 0" result="hardAlpha"/>
<feOffset dy="-2"/>
<feGaussianBlur stdDeviation="1"/>
<feComposite in2="hardAlpha" operator="arithmetic" k2="-1" k3="1"/>
<feColorMatrix type="matrix" values="0 0 0 0 0.235577 0 0 0 0 0 0 0 0 0 0 0 0 0 1 0"/>
<feBlend mode="normal" in2="shape" result="effect1_innerShadow_369_11400"/>
</filter>
<filter id="filter7_i_369_11400" x="585" y="255.625" width="64" height="28.3748" filterUnits="userSpaceOnUse" color-interpolation-filters="sRGB">
<feFlood flood-opacity="0" result="BackgroundImageFix"/>
<feBlend mode="normal" in="SourceGraphic" in2="BackgroundImageFix" result="shape"/>
<feColorMatrix in="SourceAlpha" type="matrix" values="0 0 0 0 0 0 0 0 0 0 0 0 0 0 0 0 0 0 127 0" result="hardAlpha"/>
<feOffset dy="-2"/>
<feGaussianBlur stdDeviation="1"/>
<feComposite in2="hardAlpha" operator="arithmetic" k2="-1" k3="1"/>
<feColorMatrix type="matrix" values="0 0 0 0 0.235577 0 0 0 0 0 0 0 0 0 0 0 0 0 1 0"/>
<feBlend mode="normal" in2="shape" result="effect1_innerShadow_369_11400"/>
</filter>
<filter id="filter8_i_369_11400" x="585" y="260.625" width="64" height="28.3748" filterUnits="userSpaceOnUse" color-interpolation-filters="sRGB">
<feFlood flood-opacity="0" result="BackgroundImageFix"/>
<feBlend mode="normal" in="SourceGraphic" in2="BackgroundImageFix" result="shape"/>
<feColorMatrix in="SourceAlpha" type="matrix" values="0 0 0 0 0 0 0 0 0 0 0 0 0 0 0 0 0 0 127 0" result="hardAlpha"/>
<feOffset dy="-2"/>
<feGaussianBlur stdDeviation="1"/>
<feComposite in2="hardAlpha" operator="arithmetic" k2="-1" k3="1"/>
<feColorMatrix type="matrix" values="0 0 0 0 0.235577 0 0 0 0 0 0 0 0 0 0 0 0 0 1 0"/>
<feBlend mode="normal" in2="shape" result="effect1_innerShadow_369_11400"/>
</filter>
<filter id="filter9_i_369_11400" x="585" y="265.625" width="64" height="28.3748" filterUnits="userSpaceOnUse" color-interpolation-filters="sRGB">
<feFlood flood-opacity="0" result="BackgroundImageFix"/>
<feBlend mode="normal" in="SourceGraphic" in2="BackgroundImageFix" result="shape"/>
<feColorMatrix in="SourceAlpha" type="matrix" values="0 0 0 0 0 0 0 0 0 0 0 0 0 0 0 0 0 0 127 0" result="hardAlpha"/>
<feOffset dy="-2"/>
<feGaussianBlur stdDeviation="1"/>
<feComposite in2="hardAlpha" operator="arithmetic" k2="-1" k3="1"/>
<feColorMatrix type="matrix" values="0 0 0 0 0.235577 0 0 0 0 0 0 0 0 0 0 0 0 0 1 0"/>
<feBlend mode="normal" in2="shape" result="effect1_innerShadow_369_11400"/>
</filter>
<filter id="filter10_i_369_11400" x="585" y="270.625" width="64" height="28.3748" filterUnits="userSpaceOnUse" color-interpolation-filters="sRGB">
<feFlood flood-opacity="0" result="BackgroundImageFix"/>
<feBlend mode="normal" in="SourceGraphic" in2="BackgroundImageFix" result="shape"/>
<feColorMatrix in="SourceAlpha" type="matrix" values="0 0 0 0 0 0 0 0 0 0 0 0 0 0 0 0 0 0 127 0" result="hardAlpha"/>
<feOffset dy="-2"/>
<feGaussianBlur stdDeviation="1"/>
<feComposite in2="hardAlpha" operator="arithmetic" k2="-1" k3="1"/>
<feColorMatrix type="matrix" values="0 0 0 0 0.235577 0 0 0 0 0 0 0 0 0 0 0 0 0 1 0"/>
<feBlend mode="normal" in2="shape" result="effect1_innerShadow_369_11400"/>
</filter>
<filter id="filter11_i_369_11400" x="585" y="275.625" width="64" height="28.3748" filterUnits="userSpaceOnUse" color-interpolation-filters="sRGB">
<feFlood flood-opacity="0" result="BackgroundImageFix"/>
<feBlend mode="normal" in="SourceGraphic" in2="BackgroundImageFix" result="shape"/>
<feColorMatrix in="SourceAlpha" type="matrix" values="0 0 0 0 0 0 0 0 0 0 0 0 0 0 0 0 0 0 127 0" result="hardAlpha"/>
<feOffset dy="-2"/>
<feGaussianBlur stdDeviation="1"/>
<feComposite in2="hardAlpha" operator="arithmetic" k2="-1" k3="1"/>
<feColorMatrix type="matrix" values="0 0 0 0 0.235577 0 0 0 0 0 0 0 0 0 0 0 0 0 1 0"/>
<feBlend mode="normal" in2="shape" result="effect1_innerShadow_369_11400"/>
</filter>
<filter id="filter12_i_369_11400" x="585" y="280.625" width="64" height="28.3748" filterUnits="userSpaceOnUse" color-interpolation-filters="sRGB">
<feFlood flood-opacity="0" result="BackgroundImageFix"/>
<feBlend mode="normal" in="SourceGraphic" in2="BackgroundImageFix" result="shape"/>
<feColorMatrix in="SourceAlpha" type="matrix" values="0 0 0 0 0 0 0 0 0 0 0 0 0 0 0 0 0 0 127 0" result="hardAlpha"/>
<feOffset dy="-2"/>
<feGaussianBlur stdDeviation="1"/>
<feComposite in2="hardAlpha" operator="arithmetic" k2="-1" k3="1"/>
<feColorMatrix type="matrix" values="0 0 0 0 0.235577 0 0 0 0 0 0 0 0 0 0 0 0 0 1 0"/>
<feBlend mode="normal" in2="shape" result="effect1_innerShadow_369_11400"/>
</filter>
<filter id="filter13_i_369_11400" x="585" y="285.625" width="64" height="28.3748" filterUnits="userSpaceOnUse" color-interpolation-filters="sRGB">
<feFlood flood-opacity="0" result="BackgroundImageFix"/>
<feBlend mode="normal" in="SourceGraphic" in2="BackgroundImageFix" result="shape"/>
<feColorMatrix in="SourceAlpha" type="matrix" values="0 0 0 0 0 0 0 0 0 0 0 0 0 0 0 0 0 0 127 0" result="hardAlpha"/>
<feOffset dy="-2"/>
<feGaussianBlur stdDeviation="1"/>
<feComposite in2="hardAlpha" operator="arithmetic" k2="-1" k3="1"/>
<feColorMatrix type="matrix" values="0 0 0 0 0.235577 0 0 0 0 0 0 0 0 0 0 0 0 0 1 0"/>
<feBlend mode="normal" in2="shape" result="effect1_innerShadow_369_11400"/>
</filter>
<filter id="filter14_i_369_11400" x="585" y="290.625" width="64" height="28.3748" filterUnits="userSpaceOnUse" color-interpolation-filters="sRGB">
<feFlood flood-opacity="0" result="BackgroundImageFix"/>
<feBlend mode="normal" in="SourceGraphic" in2="BackgroundImageFix" result="shape"/>
<feColorMatrix in="SourceAlpha" type="matrix" values="0 0 0 0 0 0 0 0 0 0 0 0 0 0 0 0 0 0 127 0" result="hardAlpha"/>
<feOffset dy="-2"/>
<feGaussianBlur stdDeviation="1"/>
<feComposite in2="hardAlpha" operator="arithmetic" k2="-1" k3="1"/>
<feColorMatrix type="matrix" values="0 0 0 0 0.235577 0 0 0 0 0 0 0 0 0 0 0 0 0 1 0"/>
<feBlend mode="normal" in2="shape" result="effect1_innerShadow_369_11400"/>
</filter>
<filter id="filter15_i_369_11400" x="585" y="295.625" width="64" height="28.3748" filterUnits="userSpaceOnUse" color-interpolation-filters="sRGB">
<feFlood flood-opacity="0" result="BackgroundImageFix"/>
<feBlend mode="normal" in="SourceGraphic" in2="BackgroundImageFix" result="shape"/>
<feColorMatrix in="SourceAlpha" type="matrix" values="0 0 0 0 0 0 0 0 0 0 0 0 0 0 0 0 0 0 127 0" result="hardAlpha"/>
<feOffset dy="-2"/>
<feGaussianBlur stdDeviation="1"/>
<feComposite in2="hardAlpha" operator="arithmetic" k2="-1" k3="1"/>
<feColorMatrix type="matrix" values="0 0 0 0 0.235577 0 0 0 0 0 0 0 0 0 0 0 0 0 1 0"/>
<feBlend mode="normal" in2="shape" result="effect1_innerShadow_369_11400"/>
</filter>
<filter id="filter16_i_369_11400" x="585" y="300.625" width="64" height="28.3748" filterUnits="userSpaceOnUse" color-interpolation-filters="sRGB">
<feFlood flood-opacity="0" result="BackgroundImageFix"/>
<feBlend mode="normal" in="SourceGraphic" in2="BackgroundImageFix" result="shape"/>
<feColorMatrix in="SourceAlpha" type="matrix" values="0 0 0 0 0 0 0 0 0 0 0 0 0 0 0 0 0 0 127 0" result="hardAlpha"/>
<feOffset dy="-2"/>
<feGaussianBlur stdDeviation="1"/>
<feComposite in2="hardAlpha" operator="arithmetic" k2="-1" k3="1"/>
<feColorMatrix type="matrix" values="0 0 0 0 0.235577 0 0 0 0 0 0 0 0 0 0 0 0 0 1 0"/>
<feBlend mode="normal" in2="shape" result="effect1_innerShadow_369_11400"/>
</filter>
<filter id="filter17_i_369_11400" x="585" y="305.625" width="64" height="28.3748" filterUnits="userSpaceOnUse" color-interpolation-filters="sRGB">
<feFlood flood-opacity="0" result="BackgroundImageFix"/>
<feBlend mode="normal" in="SourceGraphic" in2="BackgroundImageFix" result="shape"/>
<feColorMatrix in="SourceAlpha" type="matrix" values="0 0 0 0 0 0 0 0 0 0 0 0 0 0 0 0 0 0 127 0" result="hardAlpha"/>
<feOffset dy="-2"/>
<feGaussianBlur stdDeviation="1"/>
<feComposite in2="hardAlpha" operator="arithmetic" k2="-1" k3="1"/>
<feColorMatrix type="matrix" values="0 0 0 0 0.235577 0 0 0 0 0 0 0 0 0 0 0 0 0 1 0"/>
<feBlend mode="normal" in2="shape" result="effect1_innerShadow_369_11400"/>
</filter>
<filter id="filter18_i_369_11400" x="585" y="310.625" width="64" height="28.3748" filterUnits="userSpaceOnUse" color-interpolation-filters="sRGB">
<feFlood flood-opacity="0" result="BackgroundImageFix"/>
<feBlend mode="normal" in="SourceGraphic" in2="BackgroundImageFix" result="shape"/>
<feColorMatrix in="SourceAlpha" type="matrix" values="0 0 0 0 0 0 0 0 0 0 0 0 0 0 0 0 0 0 127 0" result="hardAlpha"/>
<feOffset dy="-2"/>
<feGaussianBlur stdDeviation="1"/>
<feComposite in2="hardAlpha" operator="arithmetic" k2="-1" k3="1"/>
<feColorMatrix type="matrix" values="0 0 0 0 0.235577 0 0 0 0 0 0 0 0 0 0 0 0 0 1 0"/>
<feBlend mode="normal" in2="shape" result="effect1_innerShadow_369_11400"/>
</filter>
<filter id="filter19_i_369_11400" x="585" y="315.625" width="64" height="28.3748" filterUnits="userSpaceOnUse" color-interpolation-filters="sRGB">
<feFlood flood-opacity="0" result="BackgroundImageFix"/>
<feBlend mode="normal" in="SourceGraphic" in2="BackgroundImageFix" result="shape"/>
<feColorMatrix in="SourceAlpha" type="matrix" values="0 0 0 0 0 0 0 0 0 0 0 0 0 0 0 0 0 0 127 0" result="hardAlpha"/>
<feOffset dy="-2"/>
<feGaussianBlur stdDeviation="1"/>
<feComposite in2="hardAlpha" operator="arithmetic" k2="-1" k3="1"/>
<feColorMatrix type="matrix" values="0 0 0 0 0.235577 0 0 0 0 0 0 0 0 0 0 0 0 0 1 0"/>
<feBlend mode="normal" in2="shape" result="effect1_innerShadow_369_11400"/>
</filter>
<filter id="filter20_i_369_11400" x="585" y="320.625" width="64" height="28.3748" filterUnits="userSpaceOnUse" color-interpolation-filters="sRGB">
<feFlood flood-opacity="0" result="BackgroundImageFix"/>
<feBlend mode="normal" in="SourceGraphic" in2="BackgroundImageFix" result="shape"/>
<feColorMatrix in="SourceAlpha" type="matrix" values="0 0 0 0 0 0 0 0 0 0 0 0 0 0 0 0 0 0 127 0" result="hardAlpha"/>
<feOffset dy="-2"/>
<feGaussianBlur stdDeviation="1"/>
<feComposite in2="hardAlpha" operator="arithmetic" k2="-1" k3="1"/>
<feColorMatrix type="matrix" values="0 0 0 0 0.235577 0 0 0 0 0 0 0 0 0 0 0 0 0 1 0"/>
<feBlend mode="normal" in2="shape" result="effect1_innerShadow_369_11400"/>
</filter>
<filter id="filter21_i_369_11400" x="585" y="325.625" width="64" height="28.3748" filterUnits="userSpaceOnUse" color-interpolation-filters="sRGB">
<feFlood flood-opacity="0" result="BackgroundImageFix"/>
<feBlend mode="normal" in="SourceGraphic" in2="BackgroundImageFix" result="shape"/>
<feColorMatrix in="SourceAlpha" type="matrix" values="0 0 0 0 0 0 0 0 0 0 0 0 0 0 0 0 0 0 127 0" result="hardAlpha"/>
<feOffset dy="-2"/>
<feGaussianBlur stdDeviation="1"/>
<feComposite in2="hardAlpha" operator="arithmetic" k2="-1" k3="1"/>
<feColorMatrix type="matrix" values="0 0 0 0 0.235577 0 0 0 0 0 0 0 0 0 0 0 0 0 1 0"/>
<feBlend mode="normal" in2="shape" result="effect1_innerShadow_369_11400"/>
</filter>
<filter id="filter22_i_369_11400" x="585" y="330.625" width="64" height="28.3748" filterUnits="userSpaceOnUse" color-interpolation-filters="sRGB">
<feFlood flood-opacity="0" result="BackgroundImageFix"/>
<feBlend mode="normal" in="SourceGraphic" in2="BackgroundImageFix" result="shape"/>
<feColorMatrix in="SourceAlpha" type="matrix" values="0 0 0 0 0 0 0 0 0 0 0 0 0 0 0 0 0 0 127 0" result="hardAlpha"/>
<feOffset dy="-2"/>
<feGaussianBlur stdDeviation="1"/>
<feComposite in2="hardAlpha" operator="arithmetic" k2="-1" k3="1"/>
<feColorMatrix type="matrix" values="0 0 0 0 0.235577 0 0 0 0 0 0 0 0 0 0 0 0 0 1 0"/>
<feBlend mode="normal" in2="shape" result="effect1_innerShadow_369_11400"/>
</filter>
<filter id="filter23_i_369_11400" x="585" y="335.625" width="64" height="28.3748" filterUnits="userSpaceOnUse" color-interpolation-filters="sRGB">
<feFlood flood-opacity="0" result="BackgroundImageFix"/>
<feBlend mode="normal" in="SourceGraphic" in2="BackgroundImageFix" result="shape"/>
<feColorMatrix in="SourceAlpha" type="matrix" values="0 0 0 0 0 0 0 0 0 0 0 0 0 0 0 0 0 0 127 0" result="hardAlpha"/>
<feOffset dy="-2"/>
<feGaussianBlur stdDeviation="1"/>
<feComposite in2="hardAlpha" operator="arithmetic" k2="-1" k3="1"/>
<feColorMatrix type="matrix" values="0 0 0 0 0.235577 0 0 0 0 0 0 0 0 0 0 0 0 0 1 0"/>
<feBlend mode="normal" in2="shape" result="effect1_innerShadow_369_11400"/>
</filter>
<filter id="filter24_i_369_11400" x="585" y="340.625" width="64" height="28.3748" filterUnits="userSpaceOnUse" color-interpolation-filters="sRGB">
<feFlood flood-opacity="0" result="BackgroundImageFix"/>
<feBlend mode="normal" in="SourceGraphic" in2="BackgroundImageFix" result="shape"/>
<feColorMatrix in="SourceAlpha" type="matrix" values="0 0 0 0 0 0 0 0 0 0 0 0 0 0 0 0 0 0 127 0" result="hardAlpha"/>
<feOffset dy="-2"/>
<feGaussianBlur stdDeviation="1"/>
<feComposite in2="hardAlpha" operator="arithmetic" k2="-1" k3="1"/>
<feColorMatrix type="matrix" values="0 0 0 0 0.235577 0 0 0 0 0 0 0 0 0 0 0 0 0 1 0"/>
<feBlend mode="normal" in2="shape" result="effect1_innerShadow_369_11400"/>
</filter>
<filter id="filter25_i_369_11400" x="585" y="345.625" width="64" height="28.3748" filterUnits="userSpaceOnUse" color-interpolation-filters="sRGB">
<feFlood flood-opacity="0" result="BackgroundImageFix"/>
<feBlend mode="normal" in="SourceGraphic" in2="BackgroundImageFix" result="shape"/>
<feColorMatrix in="SourceAlpha" type="matrix" values="0 0 0 0 0 0 0 0 0 0 0 0 0 0 0 0 0 0 127 0" result="hardAlpha"/>
<feOffset dy="-2"/>
<feGaussianBlur stdDeviation="1"/>
<feComposite in2="hardAlpha" operator="arithmetic" k2="-1" k3="1"/>
<feColorMatrix type="matrix" values="0 0 0 0 0.235577 0 0 0 0 0 0 0 0 0 0 0 0 0 1 0"/>
<feBlend mode="normal" in2="shape" result="effect1_innerShadow_369_11400"/>
</filter>
<filter id="filter26_i_369_11400" x="585" y="350.625" width="64" height="28.3748" filterUnits="userSpaceOnUse" color-interpolation-filters="sRGB">
<feFlood flood-opacity="0" result="BackgroundImageFix"/>
<feBlend mode="normal" in="SourceGraphic" in2="BackgroundImageFix" result="shape"/>
<feColorMatrix in="SourceAlpha" type="matrix" values="0 0 0 0 0 0 0 0 0 0 0 0 0 0 0 0 0 0 127 0" result="hardAlpha"/>
<feOffset dy="-2"/>
<feGaussianBlur stdDeviation="1"/>
<feComposite in2="hardAlpha" operator="arithmetic" k2="-1" k3="1"/>
<feColorMatrix type="matrix" values="0 0 0 0 0.235577 0 0 0 0 0 0 0 0 0 0 0 0 0 1 0"/>
<feBlend mode="normal" in2="shape" result="effect1_innerShadow_369_11400"/>
</filter>
<filter id="filter27_i_369_11400" x="585" y="355.625" width="64" height="28.3748" filterUnits="userSpaceOnUse" color-interpolation-filters="sRGB">
<feFlood flood-opacity="0" result="BackgroundImageFix"/>
<feBlend mode="normal" in="SourceGraphic" in2="BackgroundImageFix" result="shape"/>
<feColorMatrix in="SourceAlpha" type="matrix" values="0 0 0 0 0 0 0 0 0 0 0 0 0 0 0 0 0 0 127 0" result="hardAlpha"/>
<feOffset dy="-2"/>
<feGaussianBlur stdDeviation="1"/>
<feComposite in2="hardAlpha" operator="arithmetic" k2="-1" k3="1"/>
<feColorMatrix type="matrix" values="0 0 0 0 0.235577 0 0 0 0 0 0 0 0 0 0 0 0 0 1 0"/>
<feBlend mode="normal" in2="shape" result="effect1_innerShadow_369_11400"/>
</filter>
<filter id="filter28_i_369_11400" x="585" y="360.625" width="64" height="28.3748" filterUnits="userSpaceOnUse" color-interpolation-filters="sRGB">
<feFlood flood-opacity="0" result="BackgroundImageFix"/>
<feBlend mode="normal" in="SourceGraphic" in2="BackgroundImageFix" result="shape"/>
<feColorMatrix in="SourceAlpha" type="matrix" values="0 0 0 0 0 0 0 0 0 0 0 0 0 0 0 0 0 0 127 0" result="hardAlpha"/>
<feOffset dy="-2"/>
<feGaussianBlur stdDeviation="1"/>
<feComposite in2="hardAlpha" operator="arithmetic" k2="-1" k3="1"/>
<feColorMatrix type="matrix" values="0 0 0 0 0.235577 0 0 0 0 0 0 0 0 0 0 0 0 0 1 0"/>
<feBlend mode="normal" in2="shape" result="effect1_innerShadow_369_11400"/>
</filter>
<filter id="filter29_i_369_11400" x="585" y="365.625" width="64" height="28.3748" filterUnits="userSpaceOnUse" color-interpolation-filters="sRGB">
<feFlood flood-opacity="0" result="BackgroundImageFix"/>
<feBlend mode="normal" in="SourceGraphic" in2="BackgroundImageFix" result="shape"/>
<feColorMatrix in="SourceAlpha" type="matrix" values="0 0 0 0 0 0 0 0 0 0 0 0 0 0 0 0 0 0 127 0" result="hardAlpha"/>
<feOffset dy="-2"/>
<feGaussianBlur stdDeviation="1"/>
<feComposite in2="hardAlpha" operator="arithmetic" k2="-1" k3="1"/>
<feColorMatrix type="matrix" values="0 0 0 0 0.235577 0 0 0 0 0 0 0 0 0 0 0 0 0 1 0"/>
<feBlend mode="normal" in2="shape" result="effect1_innerShadow_369_11400"/>
</filter>
<filter id="filter30_i_369_11400" x="585" y="370.625" width="64" height="28.3748" filterUnits="userSpaceOnUse" color-interpolation-filters="sRGB">
<feFlood flood-opacity="0" result="BackgroundImageFix"/>
<feBlend mode="normal" in="SourceGraphic" in2="BackgroundImageFix" result="shape"/>
<feColorMatrix in="SourceAlpha" type="matrix" values="0 0 0 0 0 0 0 0 0 0 0 0 0 0 0 0 0 0 127 0" result="hardAlpha"/>
<feOffset dy="-2"/>
<feGaussianBlur stdDeviation="1"/>
<feComposite in2="hardAlpha" operator="arithmetic" k2="-1" k3="1"/>
<feColorMatrix type="matrix" values="0 0 0 0 0.235577 0 0 0 0 0 0 0 0 0 0 0 0 0 1 0"/>
<feBlend mode="normal" in2="shape" result="effect1_innerShadow_369_11400"/>
</filter>
<filter id="filter31_i_369_11400" x="585" y="375.625" width="64" height="28.3748" filterUnits="userSpaceOnUse" color-interpolation-filters="sRGB">
<feFlood flood-opacity="0" result="BackgroundImageFix"/>
<feBlend mode="normal" in="SourceGraphic" in2="BackgroundImageFix" result="shape"/>
<feColorMatrix in="SourceAlpha" type="matrix" values="0 0 0 0 0 0 0 0 0 0 0 0 0 0 0 0 0 0 127 0" result="hardAlpha"/>
<feOffset dy="-2"/>
<feGaussianBlur stdDeviation="1"/>
<feComposite in2="hardAlpha" operator="arithmetic" k2="-1" k3="1"/>
<feColorMatrix type="matrix" values="0 0 0 0 0.235577 0 0 0 0 0 0 0 0 0 0 0 0 0 1 0"/>
<feBlend mode="normal" in2="shape" result="effect1_innerShadow_369_11400"/>
</filter>
<filter id="filter32_i_369_11400" x="585" y="380.625" width="64" height="28.3748" filterUnits="userSpaceOnUse" color-interpolation-filters="sRGB">
<feFlood flood-opacity="0" result="BackgroundImageFix"/>
<feBlend mode="normal" in="SourceGraphic" in2="BackgroundImageFix" result="shape"/>
<feColorMatrix in="SourceAlpha" type="matrix" values="0 0 0 0 0 0 0 0 0 0 0 0 0 0 0 0 0 0 127 0" result="hardAlpha"/>
<feOffset dy="-2"/>
<feGaussianBlur stdDeviation="1"/>
<feComposite in2="hardAlpha" operator="arithmetic" k2="-1" k3="1"/>
<feColorMatrix type="matrix" values="0 0 0 0 0.235577 0 0 0 0 0 0 0 0 0 0 0 0 0 1 0"/>
<feBlend mode="normal" in2="shape" result="effect1_innerShadow_369_11400"/>
</filter>
<filter id="filter33_i_369_11400" x="585" y="385.625" width="64" height="28.3748" filterUnits="userSpaceOnUse" color-interpolation-filters="sRGB">
<feFlood flood-opacity="0" result="BackgroundImageFix"/>
<feBlend mode="normal" in="SourceGraphic" in2="BackgroundImageFix" result="shape"/>
<feColorMatrix in="SourceAlpha" type="matrix" values="0 0 0 0 0 0 0 0 0 0 0 0 0 0 0 0 0 0 127 0" result="hardAlpha"/>
<feOffset dy="-2"/>
<feGaussianBlur stdDeviation="1"/>
<feComposite in2="hardAlpha" operator="arithmetic" k2="-1" k3="1"/>
<feColorMatrix type="matrix" values="0 0 0 0 0.235577 0 0 0 0 0 0 0 0 0 0 0 0 0 1 0"/>
<feBlend mode="normal" in2="shape" result="effect1_innerShadow_369_11400"/>
</filter>
<filter id="filter34_i_369_11400" x="585" y="390.625" width="64" height="28.3748" filterUnits="userSpaceOnUse" color-interpolation-filters="sRGB">
<feFlood flood-opacity="0" result="BackgroundImageFix"/>
<feBlend mode="normal" in="SourceGraphic" in2="BackgroundImageFix" result="shape"/>
<feColorMatrix in="SourceAlpha" type="matrix" values="0 0 0 0 0 0 0 0 0 0 0 0 0 0 0 0 0 0 127 0" result="hardAlpha"/>
<feOffset dy="-2"/>
<feGaussianBlur stdDeviation="1"/>
<feComposite in2="hardAlpha" operator="arithmetic" k2="-1" k3="1"/>
<feColorMatrix type="matrix" values="0 0 0 0 0.235577 0 0 0 0 0 0 0 0 0 0 0 0 0 1 0"/>
<feBlend mode="normal" in2="shape" result="effect1_innerShadow_369_11400"/>
</filter>
<filter id="filter35_i_369_11400" x="585" y="395.625" width="64" height="28.3748" filterUnits="userSpaceOnUse" color-interpolation-filters="sRGB">
<feFlood flood-opacity="0" result="BackgroundImageFix"/>
<feBlend mode="normal" in="SourceGraphic" in2="BackgroundImageFix" result="shape"/>
<feColorMatrix in="SourceAlpha" type="matrix" values="0 0 0 0 0 0 0 0 0 0 0 0 0 0 0 0 0 0 127 0" result="hardAlpha"/>
<feOffset dy="-2"/>
<feGaussianBlur stdDeviation="1"/>
<feComposite in2="hardAlpha" operator="arithmetic" k2="-1" k3="1"/>
<feColorMatrix type="matrix" values="0 0 0 0 0.235577 0 0 0 0 0 0 0 0 0 0 0 0 0 1 0"/>
<feBlend mode="normal" in2="shape" result="effect1_innerShadow_369_11400"/>
</filter>
<filter id="filter36_i_369_11400" x="585" y="400.625" width="64" height="28.3748" filterUnits="userSpaceOnUse" color-interpolation-filters="sRGB">
<feFlood flood-opacity="0" result="BackgroundImageFix"/>
<feBlend mode="normal" in="SourceGraphic" in2="BackgroundImageFix" result="shape"/>
<feColorMatrix in="SourceAlpha" type="matrix" values="0 0 0 0 0 0 0 0 0 0 0 0 0 0 0 0 0 0 127 0" result="hardAlpha"/>
<feOffset dy="-2"/>
<feGaussianBlur stdDeviation="1"/>
<feComposite in2="hardAlpha" operator="arithmetic" k2="-1" k3="1"/>
<feColorMatrix type="matrix" values="0 0 0 0 0.235577 0 0 0 0 0 0 0 0 0 0 0 0 0 1 0"/>
<feBlend mode="normal" in2="shape" result="effect1_innerShadow_369_11400"/>
</filter>
<filter id="filter37_i_369_11400" x="585" y="405.625" width="64" height="28.3748" filterUnits="userSpaceOnUse" color-interpolation-filters="sRGB">
<feFlood flood-opacity="0" result="BackgroundImageFix"/>
<feBlend mode="normal" in="SourceGraphic" in2="BackgroundImageFix" result="shape"/>
<feColorMatrix in="SourceAlpha" type="matrix" values="0 0 0 0 0 0 0 0 0 0 0 0 0 0 0 0 0 0 127 0" result="hardAlpha"/>
<feOffset dy="-2"/>
<feGaussianBlur stdDeviation="1"/>
<feComposite in2="hardAlpha" operator="arithmetic" k2="-1" k3="1"/>
<feColorMatrix type="matrix" values="0 0 0 0 0.235577 0 0 0 0 0 0 0 0 0 0 0 0 0 1 0"/>
<feBlend mode="normal" in2="shape" result="effect1_innerShadow_369_11400"/>
</filter>
<filter id="filter38_i_369_11400" x="585" y="410.625" width="64" height="28.3748" filterUnits="userSpaceOnUse" color-interpolation-filters="sRGB">
<feFlood flood-opacity="0" result="BackgroundImageFix"/>
<feBlend mode="normal" in="SourceGraphic" in2="BackgroundImageFix" result="shape"/>
<feColorMatrix in="SourceAlpha" type="matrix" values="0 0 0 0 0 0 0 0 0 0 0 0 0 0 0 0 0 0 127 0" result="hardAlpha"/>
<feOffset dy="-2"/>
<feGaussianBlur stdDeviation="1"/>
<feComposite in2="hardAlpha" operator="arithmetic" k2="-1" k3="1"/>
<feColorMatrix type="matrix" values="0 0 0 0 0.235577 0 0 0 0 0 0 0 0 0 0 0 0 0 1 0"/>
<feBlend mode="normal" in2="shape" result="effect1_innerShadow_369_11400"/>
</filter>
<filter id="filter39_i_369_11400" x="585" y="415.625" width="64" height="28.3748" filterUnits="userSpaceOnUse" color-interpolation-filters="sRGB">
<feFlood flood-opacity="0" result="BackgroundImageFix"/>
<feBlend mode="normal" in="SourceGraphic" in2="BackgroundImageFix" result="shape"/>
<feColorMatrix in="SourceAlpha" type="matrix" values="0 0 0 0 0 0 0 0 0 0 0 0 0 0 0 0 0 0 127 0" result="hardAlpha"/>
<feOffset dy="-2"/>
<feGaussianBlur stdDeviation="1"/>
<feComposite in2="hardAlpha" operator="arithmetic" k2="-1" k3="1"/>
<feColorMatrix type="matrix" values="0 0 0 0 0.235577 0 0 0 0 0 0 0 0 0 0 0 0 0 1 0"/>
<feBlend mode="normal" in2="shape" result="effect1_innerShadow_369_11400"/>
</filter>
<filter id="filter40_i_369_11400" x="585" y="420.625" width="64" height="28.3748" filterUnits="userSpaceOnUse" color-interpolation-filters="sRGB">
<feFlood flood-opacity="0" result="BackgroundImageFix"/>
<feBlend mode="normal" in="SourceGraphic" in2="BackgroundImageFix" result="shape"/>
<feColorMatrix in="SourceAlpha" type="matrix" values="0 0 0 0 0 0 0 0 0 0 0 0 0 0 0 0 0 0 127 0" result="hardAlpha"/>
<feOffset dy="-2"/>
<feGaussianBlur stdDeviation="1"/>
<feComposite in2="hardAlpha" operator="arithmetic" k2="-1" k3="1"/>
<feColorMatrix type="matrix" values="0 0 0 0 0.235577 0 0 0 0 0 0 0 0 0 0 0 0 0 1 0"/>
<feBlend mode="normal" in2="shape" result="effect1_innerShadow_369_11400"/>
</filter>
<filter id="filter41_i_369_11400" x="585" y="425.625" width="64" height="28.3748" filterUnits="userSpaceOnUse" color-interpolation-filters="sRGB">
<feFlood flood-opacity="0" result="BackgroundImageFix"/>
<feBlend mode="normal" in="SourceGraphic" in2="BackgroundImageFix" result="shape"/>
<feColorMatrix in="SourceAlpha" type="matrix" values="0 0 0 0 0 0 0 0 0 0 0 0 0 0 0 0 0 0 127 0" result="hardAlpha"/>
<feOffset dy="-2"/>
<feGaussianBlur stdDeviation="1"/>
<feComposite in2="hardAlpha" operator="arithmetic" k2="-1" k3="1"/>
<feColorMatrix type="matrix" values="0 0 0 0 0.235577 0 0 0 0 0 0 0 0 0 0 0 0 0 1 0"/>
<feBlend mode="normal" in2="shape" result="effect1_innerShadow_369_11400"/>
</filter>
<linearGradient id="paint0_linear_369_11400" x1="112.559" y1="353.397" x2="13.1426" y2="490.562" gradientUnits="userSpaceOnUse">
<stop stop-color="#EEEEEE"/>
<stop offset="0.334842" stop-color="#E3E3E3"/>
<stop offset="0.751797" stop-color="#737B7F"/>
<stop offset="1" stop-color="#EEEEEE"/>
</linearGradient>
<linearGradient id="paint1_linear_369_11400" x1="96" y1="549" x2="96.0001" y2="349" gradientUnits="userSpaceOnUse">
<stop stop-color="#FF4100"/>
<stop offset="0.115462" stop-color="#FF6835"/>
<stop offset="0.212121" stop-color="#FF6835"/>
<stop offset="0.541622" stop-color="white"/>
<stop offset="0.890909" stop-color="white"/>
<stop offset="1" stop-color="#FF6835"/>
</linearGradient>
<linearGradient id="paint2_linear_369_11400" x1="310.444" y1="332.111" x2="285.062" y2="363.066" gradientUnits="userSpaceOnUse">
<stop stop-color="#EEEEEE"/>
<stop offset="0.334842" stop-color="#E3E3E3"/>
<stop offset="0.751797" stop-color="#737B7F"/>
<stop offset="1" stop-color="#EEEEEE"/>
</linearGradient>
<linearGradient id="paint3_linear_369_11400" x1="314" y1="355.329" x2="296.933" y2="329.217" gradientUnits="userSpaceOnUse">
<stop stop-color="#343030"/>
<stop offset="0.115462" stop-color="#80868D"/>
<stop offset="0.212121" stop-color="#80868D"/>
<stop offset="0.541622" stop-color="white"/>
<stop offset="0.890909" stop-color="white"/>
<stop offset="1" stop-color="#B2B2B2"/>
</linearGradient>
<linearGradient id="paint4_linear_369_11400" x1="370.889" y1="255.222" x2="320.123" y2="317.132" gradientUnits="userSpaceOnUse">
<stop stop-color="#EEEEEE"/>
<stop offset="0.334842" stop-color="#E3E3E3"/>
<stop offset="0.751797" stop-color="#737B7F"/>
<stop offset="1" stop-color="#EEEEEE"/>
</linearGradient>
<linearGradient id="paint5_linear_369_11400" x1="378" y1="301.659" x2="343.866" y2="249.435" gradientUnits="userSpaceOnUse">
<stop stop-color="#343030"/>
<stop offset="0.115462" stop-color="#80868D"/>
<stop offset="0.212121" stop-color="#80868D"/>
<stop offset="0.541622" stop-color="white"/>
<stop offset="0.890909" stop-color="white"/>
<stop offset="1" stop-color="#B2B2B2"/>
</linearGradient>
<linearGradient id="paint6_linear_369_11400" x1="370.889" y1="255.222" x2="320.123" y2="317.132" gradientUnits="userSpaceOnUse">
<stop stop-color="#EEEEEE"/>
<stop offset="0.334842" stop-color="#E3E3E3"/>
<stop offset="0.751797" stop-color="#737B7F"/>
<stop offset="1" stop-color="#EEEEEE"/>
</linearGradient>
<linearGradient id="paint7_linear_369_11400" x1="430" y1="417" x2="430" y2="313" gradientUnits="userSpaceOnUse">
<stop stop-color="#F79C1E"/>
<stop offset="1" stop-color="#FF4100"/>
</linearGradient>
<linearGradient id="paint8_linear_369_11400" x1="491" y1="402.5" x2="430" y2="313" gradientUnits="userSpaceOnUse">
<stop stop-color="#FF4100"/>
<stop offset="0.115462" stop-color="#FF6835"/>
<stop offset="0.212121" stop-color="#FF6835"/>
<stop offset="0.541622" stop-color="white"/>
<stop offset="0.890909" stop-color="white"/>
<stop offset="1" stop-color="#FF6835"/>
</linearGradient>
<linearGradient id="paint9_linear_369_11400" x1="610.308" y1="449.215" x2="624.906" y2="450.045" gradientUnits="userSpaceOnUse">
<stop stop-color="#EEEEEE"/>
<stop offset="0.334842" stop-color="#E3E3E3"/>
<stop offset="0.751797" stop-color="#737B7F"/>
<stop offset="1" stop-color="#EEEEEE"/>
</linearGradient>
<linearGradient id="paint10_linear_369_11400" x1="624" y1="464" x2="610" y2="464" gradientUnits="userSpaceOnUse">
<stop stop-color="#343030"/>
<stop offset="0.115462" stop-color="#80868D"/>
<stop offset="0.212121" stop-color="#80868D"/>
<stop offset="0.541622" stop-color="white"/>
<stop offset="0.890909" stop-color="white"/>
<stop offset="1" stop-color="#B2B2B2"/>
</linearGradient>
<linearGradient id="paint11_linear_369_11400" x1="610.308" y1="178.298" x2="624.855" y2="179.496" gradientUnits="userSpaceOnUse">
<stop stop-color="#EEEEEE"/>
<stop offset="0.334842" stop-color="#E3E3E3"/>
<stop offset="0.751797" stop-color="#737B7F"/>
<stop offset="1" stop-color="#EEEEEE"/>
</linearGradient>
<linearGradient id="paint12_linear_369_11400" x1="624" y1="188.5" x2="610" y2="188.5" gradientUnits="userSpaceOnUse">
<stop stop-color="#343030"/>
<stop offset="0.115462" stop-color="#80868D"/>
<stop offset="0.212121" stop-color="#80868D"/>
<stop offset="0.541622" stop-color="white"/>
<stop offset="0.890909" stop-color="white"/>
<stop offset="1" stop-color="#B2B2B2"/>
</linearGradient>
<linearGradient id="paint13_linear_369_11400" x1="310.444" y1="332.111" x2="285.062" y2="363.066" gradientUnits="userSpaceOnUse">
<stop stop-color="#EEEEEE"/>
<stop offset="0.334842" stop-color="#E3E3E3"/>
<stop offset="0.751797" stop-color="#737B7F"/>
<stop offset="1" stop-color="#EEEEEE"/>
</linearGradient>
<linearGradient id="paint14_linear_369_11400" x1="430" y1="417" x2="430" y2="313" gradientUnits="userSpaceOnUse">
<stop stop-color="#F79C1E"/>
<stop offset="1" stop-color="#FF4100"/>
</linearGradient>
</defs>
</svg>
