<svg width="33" height="48" viewBox="0 0 33 48" fill="none" xmlns="http://www.w3.org/2000/svg">
<g clip-path="url(#clip0_2001_68)">
<path d="M19.0356 30.0768L19.6073 30.5625L19.7488 30.6844L19.8508 30.7723C21.6173 32.3164 23.1161 34.1104 24.3135 36.0798C25.4351 39.9312 26.0135 43.944 26.0135 48H22.4459C22.4459 43.8703 21.7905 39.7896 20.5241 35.907C20.5241 35.9065 20.524 35.906 20.524 35.9055C20.513 35.8719 20.5017 35.8382 20.4906 35.8046C20.4687 35.738 20.4467 35.6714 20.4244 35.6049C20.4113 35.5659 20.398 35.527 20.3848 35.488C20.3609 35.4177 20.3371 35.3474 20.3129 35.2772C20.2924 35.2178 20.2716 35.1585 20.2508 35.0991C20.2368 35.0594 20.223 35.0197 20.209 34.98C20.1848 34.9119 20.1603 34.8439 20.1358 34.7758C20.1216 34.7365 20.1074 34.6971 20.0931 34.6578C20.0706 34.5959 20.0479 34.5342 20.025 34.4725C20.0071 34.4239 19.9891 34.3752 19.9709 34.3267C19.9466 34.2618 19.922 34.197 19.8973 34.1322C19.8801 34.0871 19.8631 34.042 19.8458 33.997C19.8243 33.9413 19.8027 33.8858 19.781 33.8303C19.7591 33.7741 19.7371 33.7179 19.715 33.6618C19.6997 33.6232 19.6842 33.5846 19.6688 33.5459C19.6415 33.4775 19.6139 33.4091 19.5862 33.3407C19.5812 33.3285 19.5765 33.3162 19.5715 33.304C18.9154 31.6919 18.1502 30.1218 17.2792 28.6053L17.283 28.5875L19.0356 30.0768ZM23.0574 26.4346C29.3614 31.7915 33 39.6836 33 48H28.2432C28.2432 41.2073 25.3177 34.7558 20.237 30.3161L19.9934 30.1062L19.5813 29.756L18.8601 29.1432L17.4222 27.9214C17.4904 27.6007 17.5604 27.2803 17.6318 26.9603L18.2908 26.4003L18.8029 25.9651L20.6537 24.3921L23.0574 26.4346ZM17.0998 29.5018C18.2508 31.5918 19.2008 33.7803 19.9408 36.0372C19.9534 36.1409 19.9658 36.2446 19.978 36.3483C20.1301 37.6395 20.257 38.9337 20.3585 40.2302C20.3746 40.4361 20.3901 40.642 20.4049 40.848C20.4351 41.2666 20.4625 41.6854 20.4874 42.1044C20.4998 42.3146 20.5117 42.5247 20.5228 42.7349C20.5506 43.2607 20.5743 43.7867 20.5938 44.313C20.6016 44.5229 20.6087 44.7328 20.6151 44.9427C20.6464 45.9611 20.6622 46.9803 20.6622 48H18.2838C18.2838 47.8418 18.2833 47.6836 18.2825 47.5254C18.2822 47.4757 18.2819 47.4261 18.2816 47.3764C18.2796 47.0661 18.2763 46.7558 18.2713 46.4455C18.2706 46.3999 18.2696 46.3542 18.2688 46.3085C18.267 46.2019 18.2649 46.0954 18.2627 45.9888C18.2615 45.9314 18.2604 45.8741 18.2591 45.8168C18.2558 45.6694 18.2522 45.5221 18.2482 45.3747C18.2464 45.3087 18.2445 45.2428 18.2426 45.1768C18.24 45.0892 18.2374 45.0015 18.2346 44.9139C18.2325 44.8472 18.2303 44.7805 18.228 44.7138C18.2173 44.3972 18.2051 44.0807 18.1913 43.7643C18.1904 43.7439 18.1895 43.7236 18.1886 43.7033C18.1743 43.3805 18.1583 43.0577 18.1408 42.7351C18.1388 42.6985 18.1369 42.6619 18.1348 42.6253C18.127 42.4831 18.1188 42.3409 18.1103 42.1988C18.1091 42.1785 18.1079 42.1582 18.1067 42.1378C18.0969 41.9756 18.0867 41.8133 18.0761 41.6511C18.0724 41.5949 18.0685 41.5388 18.0647 41.4826C18.0578 41.3797 18.0508 41.2768 18.0435 41.174C18.0405 41.1315 18.0376 41.0891 18.0345 41.0467C18.0119 40.7318 17.9878 40.4171 17.9621 40.1026C17.9589 40.0632 17.9556 40.0239 17.9524 39.9845C17.9269 39.6766 17.8998 39.3689 17.8714 39.0612C17.8668 39.0116 17.8622 38.962 17.8576 38.9124C17.8288 38.6061 17.7987 38.2998 17.767 37.9938C17.7608 37.9339 17.7544 37.874 17.7481 37.8141C17.7372 37.7106 17.7261 37.6072 17.7149 37.5038C17.7089 37.4491 17.7031 37.3944 17.697 37.3397C17.6802 37.1878 17.6631 37.0358 17.6456 36.8839C17.6425 36.8566 17.6392 36.8293 17.6361 36.802C17.6191 36.6562 17.602 36.5105 17.5844 36.3647C17.5815 36.3412 17.5787 36.3176 17.5758 36.294C17.5382 35.984 17.499 35.6742 17.4584 35.3646C17.452 35.3157 17.4456 35.2669 17.4391 35.2181C17.4228 35.0956 17.4063 34.9732 17.3896 34.8508C17.3771 34.7595 17.3644 34.6681 17.3517 34.5768C17.3396 34.4901 17.3274 34.4034 17.3151 34.3167C17.3083 34.2689 17.3014 34.2211 17.2945 34.1733C17.2735 34.0273 17.2523 33.8812 17.2306 33.7352C17.228 33.7175 17.2254 33.6999 17.2228 33.6822C17.201 33.5359 17.1788 33.3898 17.1563 33.2436C17.1463 33.1783 17.1361 33.113 17.1259 33.0478C17.1094 32.9413 17.0927 32.8349 17.0757 32.7286C17.0701 32.6935 17.0646 32.6584 17.059 32.6234C17.0347 32.4719 17.01 32.3204 16.985 32.169C16.9795 32.1357 16.974 32.1024 16.9684 32.0691C16.946 31.9342 16.9232 31.7993 16.9002 31.6645C16.894 31.6282 16.8877 31.5918 16.8815 31.5555C16.8562 31.4086 16.8309 31.2616 16.805 31.1147C16.804 31.1092 16.8031 31.1036 16.8021 31.098C16.8969 30.5652 16.9961 30.0331 17.0998 29.5018ZM16.7664 28.1484C16.6745 28.5884 16.5857 29.029 16.5 29.4702C16.498 29.4807 16.4959 29.4913 16.4939 29.5018C16.477 29.5889 16.4603 29.676 16.4437 29.7631C16.4308 29.8305 16.4179 29.8979 16.4052 29.9653C16.3972 30.0076 16.3893 30.0499 16.3814 30.0921C16.3684 30.1612 16.3555 30.2303 16.3426 30.2994C16.3262 30.388 16.31 30.4765 16.2939 30.5651C16.2836 30.6213 16.2732 30.6775 16.2631 30.7337C16.2138 31.0067 16.1656 31.2798 16.1187 31.5532C16.1108 31.599 16.1031 31.6449 16.0953 31.6907C16.0407 32.0114 15.9874 32.3324 15.936 32.6536C15.9332 32.6713 15.9306 32.6891 15.9278 32.7069C15.9096 32.8205 15.8918 32.9341 15.8741 33.0478C15.8638 33.1136 15.8535 33.1795 15.8434 33.2454C15.821 33.3909 15.7989 33.5365 15.7772 33.6822C15.7746 33.6999 15.772 33.7175 15.7694 33.7352C15.7481 33.8789 15.7269 34.0226 15.7062 34.1663C15.699 34.2164 15.692 34.2666 15.6849 34.3167C15.6407 34.6273 15.598 34.938 15.5569 35.249C15.5534 35.2753 15.5499 35.3017 15.5464 35.3281C15.5041 35.6498 15.4633 35.9718 15.4242 36.294C15.4213 36.3176 15.4185 36.3412 15.4156 36.3647C15.4004 36.4906 15.3856 36.6166 15.3709 36.7425C15.3654 36.7897 15.3598 36.8368 15.3544 36.8839C15.3369 37.0358 15.3198 37.1878 15.303 37.3397C15.2969 37.3949 15.291 37.45 15.285 37.5051C15.2738 37.6081 15.2627 37.7111 15.2519 37.8141C15.2456 37.874 15.2392 37.9339 15.233 37.9938C15.2015 38.2982 15.1714 38.6028 15.1427 38.9076C15.1378 38.9602 15.1329 39.0128 15.128 39.0655C15.0998 39.3717 15.0729 39.678 15.0475 39.9845C15.0442 40.0239 15.0411 40.0632 15.0379 40.1026C15.0122 40.4171 14.9881 40.7318 14.9655 41.0467C14.9624 41.0891 14.9595 41.1315 14.9565 41.174C14.9492 41.2768 14.9422 41.3797 14.9353 41.4826C14.9315 41.5388 14.9276 41.5949 14.9239 41.6511C14.9134 41.8126 14.9031 41.9741 14.8933 42.1356C14.892 42.1567 14.8909 42.1777 14.8897 42.1988C14.8812 42.3409 14.873 42.4831 14.8652 42.6253C14.8631 42.6619 14.861 42.6985 14.8591 42.7351C14.8415 43.0577 14.8257 43.3805 14.8114 43.7033C14.8105 43.7236 14.8096 43.7439 14.8087 43.7643C14.7949 44.0807 14.7827 44.3972 14.772 44.7138C14.7697 44.7805 14.7675 44.8472 14.7654 44.9139C14.7626 45.0015 14.76 45.0892 14.7574 45.1768C14.7555 45.2428 14.7536 45.3087 14.7518 45.3747C14.7478 45.5221 14.7441 45.6694 14.7407 45.8168C14.7395 45.8741 14.7385 45.9314 14.7373 45.9888C14.7351 46.0954 14.7329 46.2019 14.731 46.3085C14.7302 46.3542 14.7294 46.3999 14.7287 46.4455C14.7237 46.7558 14.7204 47.0661 14.7184 47.3764C14.7181 47.4261 14.7178 47.4757 14.7175 47.5254C14.7168 47.6836 14.7162 47.8418 14.7162 48H12.3378C12.3378 47.8027 12.3386 47.6054 12.3397 47.4082C12.3446 46.586 12.3596 45.7641 12.3849 44.9427C12.3913 44.7328 12.3984 44.5229 12.4062 44.313C12.4257 43.7867 12.4492 43.2607 12.4771 42.7349C12.4882 42.5247 12.5002 42.3146 12.5126 42.1044C12.5375 41.6854 12.5648 41.2666 12.5949 40.848C12.6198 40.5025 12.6467 40.1572 12.6752 39.812C12.7706 38.6553 12.8862 37.5006 13.022 36.3483C13.0342 36.2446 13.0466 36.1409 13.0592 36.0372C13.7992 33.7803 14.7491 31.5916 15.9002 29.5017C16.0465 29.2359 16.1962 28.9718 16.349 28.7093C16.4677 28.5056 16.5883 28.3028 16.7108 28.1011L16.7664 28.1484ZM15.7208 28.6053C14.8498 30.1218 14.0845 31.692 13.4283 33.3041C13.4223 33.319 13.4162 33.3339 13.4102 33.3488C13.3896 33.3994 13.3695 33.4502 13.3492 33.501C13.3252 33.5608 13.3012 33.6206 13.2775 33.6806C13.2598 33.7254 13.2423 33.7703 13.2248 33.8152C13.1988 33.8818 13.1728 33.9485 13.1471 34.0153C13.1343 34.0487 13.1217 34.0823 13.109 34.1158C13.0831 34.1836 13.0572 34.2513 13.0317 34.3192C13.0092 34.3793 12.987 34.4395 12.9648 34.4997C12.9473 34.5472 12.9297 34.5947 12.9124 34.6422C12.8924 34.6971 12.8728 34.752 12.853 34.8069C12.8334 34.8615 12.8138 34.916 12.7944 34.9707C12.7743 35.0273 12.7545 35.084 12.7347 35.1407C12.7188 35.1862 12.7028 35.2317 12.6871 35.2772C12.6627 35.3481 12.6386 35.419 12.6145 35.4899C12.6004 35.5315 12.5864 35.5731 12.5724 35.6147C12.5531 35.6724 12.5341 35.73 12.5151 35.7877C12.5021 35.8271 12.4889 35.8663 12.476 35.9057C12.4719 35.9182 12.4681 35.9308 12.464 35.9433C12.4414 36.0127 12.4192 36.0822 12.3971 36.1518C12.3814 36.201 12.3654 36.2501 12.3499 36.2994C12.3267 36.3732 12.304 36.4472 12.2812 36.5212C12.2682 36.5635 12.2549 36.6058 12.242 36.6482C12.2196 36.7218 12.1978 36.7955 12.1758 36.8692C12.1623 36.9146 12.1485 36.9599 12.1352 37.0053C12.0666 37.2389 12.0003 37.4732 11.936 37.708C11.9241 37.7517 11.9124 37.7954 11.9006 37.8391C11.8807 37.9129 11.8609 37.9868 11.8414 38.0607C11.8307 38.1014 11.8202 38.1422 11.8096 38.1829C11.7899 38.2587 11.7702 38.3346 11.7509 38.4105C11.7384 38.4601 11.726 38.5098 11.7136 38.5594C11.695 38.6339 11.6766 38.7084 11.6585 38.7831C11.6476 38.8278 11.6368 38.8726 11.6261 38.9174C11.609 38.9888 11.5921 39.0603 11.5754 39.1318C11.5642 39.18 11.5528 39.2282 11.5418 39.2764C11.5264 39.3435 11.5114 39.4107 11.4963 39.4778C11.4831 39.5368 11.4698 39.5957 11.4568 39.6548C11.4454 39.7071 11.4344 39.7596 11.4232 39.812C11.4103 39.872 11.3971 39.9319 11.3845 39.992C11.3679 40.0713 11.3519 40.1508 11.3358 40.2302C11.327 40.2733 11.3178 40.3164 11.3092 40.3595C11.262 40.5959 11.2172 40.8328 11.1743 41.0701C11.1663 41.1147 11.1586 41.1593 11.1507 41.2039C11.136 41.2871 11.1213 41.3704 11.1071 41.4538C11.1011 41.4894 11.0952 41.5252 11.0893 41.5608C11.0756 41.6424 11.0621 41.7241 11.0489 41.8058C11.0408 41.8563 11.0329 41.9069 11.025 41.9575C11.0144 42.0248 11.004 42.0922 10.9938 42.1595C10.9855 42.2141 10.9773 42.2688 10.9692 42.3234C10.959 42.3929 10.9492 42.4624 10.9393 42.5319C10.9323 42.5818 10.9251 42.6318 10.9183 42.6817C10.9083 42.7544 10.8987 42.827 10.8891 42.8997C10.8827 42.9482 10.8763 42.9968 10.8701 43.0453C10.8623 43.1064 10.8547 43.1676 10.8471 43.2287C10.8392 43.2935 10.8311 43.3583 10.8235 43.4231C10.8139 43.5039 10.8048 43.5847 10.7958 43.6655C10.7913 43.705 10.7867 43.7445 10.7824 43.784C10.7654 43.9404 10.7497 44.0969 10.7346 44.2535C10.7227 44.3774 10.7113 44.5013 10.7005 44.6253C10.6928 44.7149 10.685 44.8044 10.6779 44.8941C10.6753 44.9267 10.6729 44.9593 10.6703 44.9919C10.6636 45.0789 10.6572 45.1659 10.651 45.253C10.6482 45.2935 10.6455 45.3341 10.6427 45.3747C10.637 45.4599 10.6314 45.5452 10.6262 45.6305C10.6235 45.6756 10.6209 45.7207 10.6184 45.7658C10.6143 45.8365 10.6104 45.9071 10.6067 45.9778C10.6038 46.0347 10.6009 46.0915 10.5982 46.1484C10.5946 46.2234 10.5913 46.2983 10.5882 46.3733C10.5862 46.4196 10.5844 46.4659 10.5827 46.5122C10.5796 46.5931 10.5768 46.6741 10.5742 46.7552C10.5731 46.792 10.5718 46.8288 10.5707 46.8656C10.568 46.9615 10.5656 47.0574 10.5635 47.1533C10.5628 47.1854 10.5621 47.2176 10.5615 47.2497C10.5601 47.3218 10.5591 47.3938 10.5581 47.4659C10.5573 47.5225 10.5563 47.5791 10.5558 47.6357C10.5547 47.7571 10.5541 47.8785 10.5541 48H6.98649C6.98649 47.5034 6.9952 47.0074 7.01247 46.5123C7.01348 46.4833 7.0146 46.4544 7.01566 46.4254C7.1456 42.9064 7.71021 39.4316 8.68651 36.0793C9.90685 34.0721 11.4406 32.2474 13.2514 30.6835C13.2972 30.6439 13.3433 30.6044 13.3896 30.5651L13.9644 30.0766L15.717 28.5873L15.7208 28.6053ZM33 0C33 8.31639 29.3614 16.2085 23.0574 21.5654L20.1923 24L18.6525 25.3085L18.3016 25.6066L18.1421 25.7423L17.8545 25.9866L17.0959 26.6313L16.7352 26.9379L16.5 27.1377L16.4302 27.1969L16.0924 27.484L16.0385 27.5298L15.9713 27.5868L15.5778 27.9212L14.1399 29.1432L13.4187 29.756L13.0066 30.1062C11.6235 31.2815 10.395 32.6039 9.33612 34.0409L9.33627 34.0408C9.31208 34.0736 9.28828 34.1067 9.26427 34.1396C9.23066 34.1858 9.19707 34.2319 9.16381 34.2782C9.14103 34.31 9.11849 34.3419 9.09587 34.3737C9.05755 34.4277 9.01934 34.4818 8.98149 34.536C8.96055 34.5661 8.93971 34.5962 8.91892 34.6263C8.88654 34.6732 8.85441 34.7202 8.82238 34.7673C8.79497 34.8077 8.76752 34.848 8.74037 34.8885C8.71996 34.9189 8.6998 34.9495 8.67954 34.98C8.64668 35.0295 8.61374 35.079 8.58127 35.1287C8.47634 35.2894 8.37338 35.4513 8.2725 35.6145C8.25375 35.6448 8.23537 35.6753 8.21676 35.7057C8.19044 35.7487 8.16397 35.7916 8.13793 35.8348C8.13065 35.8468 8.12356 35.859 8.1163 35.8711C8.10407 35.8915 8.09175 35.9118 8.07958 35.9322C7.9816 36.0964 7.88561 36.2617 7.79172 36.4282C7.78509 36.4399 7.77858 36.4517 7.77197 36.4635C7.72654 36.5443 7.68143 36.6254 7.63697 36.7068C7.62715 36.7248 7.61756 36.7428 7.60779 36.7608C7.57042 36.8297 7.53342 36.8988 7.49674 36.968C7.49057 36.9796 7.48431 36.9912 7.47816 37.0028C7.43365 37.0872 7.38953 37.1717 7.34606 37.2565C7.33528 37.2776 7.3247 37.2987 7.31398 37.3198C7.27918 37.3883 7.24475 37.4569 7.21062 37.5256C7.20307 37.5408 7.19534 37.556 7.18783 37.5712C7.14801 37.6519 7.10885 37.7329 7.06996 37.8141C7.062 37.8307 7.05406 37.8473 7.04615 37.8639C7.00545 37.9493 6.96504 38.0349 6.92537 38.1208C6.91916 38.1343 6.91312 38.1478 6.90694 38.1612C6.82573 38.338 6.7467 38.5158 6.66988 38.6946C6.66525 38.7054 6.66071 38.7162 6.65609 38.727C6.62416 38.8016 6.59261 38.8764 6.56144 38.9514C6.55243 38.973 6.54339 38.9947 6.53444 39.0164C6.49907 39.1022 6.46415 39.1883 6.42978 39.2745C6.4269 39.2817 6.42408 39.289 6.42122 39.2962C6.34936 39.4771 6.2797 39.6589 6.21232 39.8416C6.20401 39.8641 6.19575 39.8867 6.1875 39.9092C6.15664 39.9937 6.12624 40.0784 6.09634 40.1632C6.09102 40.1783 6.0858 40.1934 6.08051 40.2085C6.01716 40.3895 5.95599 40.5713 5.89703 40.7539C5.89349 40.7648 5.88994 40.7757 5.88643 40.7867C5.82799 40.9686 5.77179 41.1512 5.71775 41.3347C5.70991 41.3613 5.70212 41.3879 5.69438 41.4145C5.66991 41.4986 5.64576 41.5829 5.62223 41.6673C5.61667 41.6873 5.61119 41.7073 5.60568 41.7272C5.55534 41.9097 5.50722 42.0929 5.46124 42.2767C5.45773 42.2908 5.45428 42.3048 5.45079 42.3189C5.42823 42.4098 5.40608 42.5009 5.38459 42.5921C5.38385 42.5953 5.38316 42.5984 5.38242 42.6016C5.3605 42.6948 5.33933 42.7883 5.31854 42.8818C5.31459 42.8996 5.31055 42.9174 5.30664 42.9352C5.26642 43.1182 5.22829 43.3018 5.1924 43.4859C5.18692 43.514 5.18151 43.5422 5.17614 43.5703C5.15958 43.657 5.14354 43.7437 5.12794 43.8306C5.12523 43.8458 5.1225 43.8609 5.11981 43.876C5.10419 43.964 5.08901 44.0522 5.07438 44.1404C5.07229 44.153 5.07006 44.1656 5.06799 44.1782C5.05323 44.2682 5.03918 44.3583 5.02546 44.4485C5.02247 44.4681 5.01954 44.4877 5.0166 44.5074C5.00311 44.5975 4.99001 44.6878 4.97755 44.7782C4.97474 44.7986 4.97218 44.819 4.96942 44.8395C4.95958 44.9123 4.95 44.9853 4.94083 45.0583C4.93736 45.0859 4.93375 45.1136 4.93037 45.1412C4.91962 45.2293 4.90951 45.3176 4.89974 45.4059C4.89738 45.4273 4.89508 45.4487 4.89278 45.4701C4.88435 45.5483 4.87633 45.6265 4.86868 45.7049C4.8668 45.7241 4.8647 45.7433 4.86287 45.7625C4.85428 45.8528 4.84648 45.9432 4.83892 46.0337C4.83715 46.0549 4.83526 46.076 4.83355 46.0972C4.82594 46.1914 4.81884 46.2856 4.81236 46.38C4.8116 46.3911 4.81092 46.4021 4.81018 46.4131C4.80468 46.4948 4.79973 46.5765 4.79508 46.6582C4.79346 46.6867 4.79181 46.7151 4.79029 46.7436C4.78536 46.8363 4.78093 46.9291 4.77708 47.0219C4.77668 47.0315 4.77645 47.0412 4.77606 47.0508C4.77234 47.1433 4.76912 47.236 4.76648 47.3287C4.76616 47.3401 4.76563 47.3516 4.76532 47.3631C4.76278 47.4575 4.76093 47.5521 4.75951 47.6467C4.75917 47.6695 4.75892 47.6924 4.75864 47.7152C4.7575 47.8101 4.75676 47.905 4.75676 48H0C0 39.6836 3.63863 31.7915 9.94262 26.4346L12.3461 24.3921L12.8076 24L14.3475 22.6915L14.6985 22.3932L14.8579 22.2577L15.1455 22.0134L15.9041 21.3687L16.2651 21.062L16.5 20.8623L16.5698 20.803L16.9076 20.516L16.9615 20.4702L17.0287 20.413L17.4222 20.0786L18.8601 18.8568L19.5813 18.244L19.9934 17.8938L20.237 17.6839C21.5212 16.5617 22.6677 15.3108 23.6642 13.9585C23.7076 13.8996 23.7505 13.8404 23.7934 13.7811C23.8018 13.7694 23.8105 13.7577 23.8189 13.7459C23.8756 13.6671 23.9318 13.588 23.9874 13.5085C24.0073 13.4802 24.0269 13.4517 24.0467 13.4232C24.0829 13.371 24.119 13.3187 24.1548 13.2662C24.178 13.2322 24.2011 13.1981 24.2241 13.164C24.2543 13.1191 24.2844 13.0741 24.3144 13.0291C24.3389 12.9921 24.3634 12.9552 24.3877 12.9182C24.4182 12.8717 24.4484 12.8251 24.4785 12.7784C24.5032 12.7403 24.5279 12.7022 24.5523 12.6639C24.5816 12.6179 24.6107 12.5718 24.6397 12.5256C24.6592 12.4946 24.6788 12.4637 24.6982 12.4326C24.7325 12.3773 24.7664 12.3218 24.8002 12.2663C24.819 12.2356 24.8379 12.205 24.8566 12.1742C24.8584 12.1712 24.8603 12.1682 24.8621 12.1652C24.9026 12.098 24.9428 12.0304 24.9827 11.9628C24.9988 11.9354 25.0149 11.9079 25.0309 11.8805C25.1243 11.7206 25.2157 11.5597 25.3053 11.3978C25.3084 11.392 25.3117 11.3863 25.3148 11.3805C25.4073 11.2129 25.4977 11.0441 25.586 10.8743C25.5961 10.8548 25.6063 10.8354 25.6163 10.816C25.6576 10.736 25.6985 10.6558 25.7389 10.5754C25.745 10.5632 25.7511 10.551 25.7572 10.5388C25.8437 10.3658 25.9281 10.1917 26.0103 10.0166C26.0148 10.007 26.0193 9.99736 26.0238 9.98774C26.1049 9.81442 26.1839 9.64008 26.2607 9.4648C26.2682 9.44772 26.2756 9.43062 26.2831 9.41353C26.3194 9.33006 26.3556 9.24649 26.3909 9.1626C26.3977 9.14657 26.4042 9.13045 26.411 9.1144C26.443 9.03805 26.4747 8.96157 26.5059 8.88486C26.5128 8.86793 26.5197 8.85099 26.5265 8.83403C26.5597 8.75189 26.5925 8.66959 26.6248 8.58706C26.6285 8.5777 26.632 8.5683 26.6357 8.55894C26.6653 8.48284 26.6945 8.40655 26.7234 8.33013C26.7316 8.30821 26.74 8.2863 26.7482 8.26436C26.7783 8.18392 26.8079 8.1033 26.8372 8.02251C26.845 8.00099 26.8527 7.97945 26.8604 7.95791C26.8872 7.8831 26.9137 7.80816 26.9398 7.73306C26.9445 7.71949 26.9492 7.70591 26.9539 7.69233C26.9832 7.6073 27.0122 7.52211 27.0406 7.43672C27.0477 7.41536 27.0546 7.39394 27.0616 7.37256C27.1194 7.19683 27.1753 7.02036 27.229 6.84316C27.236 6.82012 27.243 6.79709 27.2499 6.77402C27.274 6.6936 27.2977 6.61304 27.321 6.53232C27.3264 6.5136 27.3316 6.49482 27.337 6.47607C27.3579 6.40288 27.3786 6.32963 27.3988 6.2562C27.4047 6.23484 27.4104 6.21343 27.4162 6.19204C27.4402 6.10406 27.4637 6.01594 27.4866 5.92764C27.4901 5.91452 27.4933 5.90136 27.4967 5.88823C27.5182 5.80481 27.5394 5.72129 27.56 5.6376C27.5633 5.62413 27.5665 5.61065 27.5698 5.59717C27.5903 5.51352 27.6101 5.42971 27.6296 5.3458C27.6366 5.31588 27.6435 5.28596 27.6504 5.25601C27.6905 5.08064 27.7285 4.9047 27.7646 4.72822C27.7688 4.70782 27.773 4.68741 27.7771 4.66699C27.814 4.48406 27.8487 4.30055 27.8813 4.1165C27.8845 4.09883 27.8877 4.08116 27.8908 4.06348C27.9068 3.97201 27.9222 3.8804 27.9371 3.78867C27.9394 3.77422 27.9417 3.75977 27.9441 3.74531C27.9584 3.65611 27.9724 3.56683 27.9857 3.47739C27.9872 3.46753 27.9886 3.45767 27.9901 3.4478C28.0033 3.35832 28.0159 3.26871 28.0281 3.179C28.031 3.15739 28.0338 3.13574 28.0367 3.11411C28.0609 2.93241 28.0832 2.75029 28.1032 2.56772C28.106 2.54181 28.1087 2.51587 28.1114 2.48994C28.1209 2.40102 28.13 2.31202 28.1384 2.2229C28.1404 2.20255 28.1421 2.18218 28.144 2.16182C28.151 2.08464 28.1578 2.00739 28.1641 1.93008C28.1656 1.91153 28.1672 1.89297 28.1686 1.87441C28.1757 1.78509 28.1824 1.69569 28.1885 1.6062C28.19 1.58438 28.1913 1.56255 28.1927 1.54072C28.1979 1.46193 28.2026 1.38307 28.207 1.30415C28.2082 1.28159 28.2095 1.25904 28.2107 1.23647C28.2152 1.15095 28.2192 1.06535 28.2228 0.979688C28.2237 0.956355 28.2245 0.933011 28.2254 0.909668C28.2286 0.8255 28.2316 0.741276 28.234 0.656982C28.2342 0.647462 28.2344 0.63794 28.2347 0.628418C28.2372 0.532937 28.2391 0.43738 28.2405 0.341748C28.2407 0.324367 28.241 0.306985 28.2412 0.2896C28.2424 0.193138 28.2432 0.0966049 28.2432 0H33ZM4.75676 0C4.75676 5.07559 6.39022 9.9607 9.33569 13.9584L9.33583 13.9585C10.3948 15.3958 11.6234 16.7184 13.0066 17.8938L13.4187 18.244L14.1399 18.8568L15.5778 20.0788L15.9713 20.4132L16.0385 20.4702L15.3683 21.0396L14.7092 21.5997L14.1971 22.0349L12.3461 23.6077L9.94262 21.5654C3.63863 16.2085 0 8.31639 0 0H4.75676ZM19.9405 11.9634C19.2005 14.22 18.2507 16.4084 17.0998 18.4982C16.99 18.6975 16.8785 18.896 16.7651 19.0935L16.651 19.2907L16.5 19.5478C16.4304 19.6651 16.3601 19.7822 16.2892 19.8989L16.2336 19.8516L16.349 19.2907C16.4004 19.0373 16.4507 18.7836 16.5 18.5298C16.4927 18.4924 16.4856 18.455 16.4784 18.4176C16.4856 18.4548 16.4928 18.492 16.5 18.5292C17.6856 12.4293 18.2838 6.22393 18.2838 0H20.6622C20.6622 4.00262 20.4205 7.99772 19.9405 11.9634ZM10.5541 0C10.5541 5.06339 11.5391 10.0531 13.428 14.6944C13.4281 14.6949 13.4282 14.6954 13.4283 14.6959C14.0845 16.308 14.8498 17.8782 15.7208 19.3947L15.7446 19.4361L15.717 19.4127L13.9644 17.9234L13.3896 17.4349C13.3433 17.3956 13.2972 17.3561 13.2514 17.3165C11.4406 15.7526 9.90698 13.928 8.68666 11.9209C7.56496 8.06931 6.98649 4.05628 6.98649 0H10.5541ZM19.572 14.6924C19.5718 14.6933 19.5718 14.6941 19.5717 14.695C21.4607 10.0535 22.4459 5.06359 22.4459 0H26.0135C26.0135 4.05592 25.4351 8.06859 24.3136 11.9199C23.1162 13.8895 21.6174 15.6835 19.8508 17.2277L19.6073 17.4375L17.2556 19.4358C17.2635 19.4221 17.2714 19.4084 17.2792 19.3947C18.1502 17.8782 18.9154 16.3081 19.5715 14.696C19.5717 14.6948 19.5718 14.6936 19.572 14.6924ZM13.0592 11.9628C12.5792 7.99733 12.3378 4.00242 12.3378 0H14.7162C14.7162 5.67135 15.2129 11.3273 16.1981 16.9021C16.1055 17.4226 16.0086 17.9423 15.9074 18.4613L15.9002 18.4983C14.7491 16.4084 13.7992 14.2197 13.0592 11.9628Z" fill="url(#paint0_linear_2001_68)"/>
</g>
<defs>
<linearGradient id="paint0_linear_2001_68" x1="33" y1="48" x2="-0.404493" y2="0.283168" gradientUnits="userSpaceOnUse">
<stop stop-color="#5C6468"/>
<stop offset="0.05" stop-color="#5C6468"/>
<stop offset="0.16" stop-color="#92989A"/>
<stop offset="0.26" stop-color="#C1C4C6"/>
<stop offset="0.35" stop-color="#E3E4E5"/>
<stop offset="0.43" stop-color="#F8F8F8"/>
<stop offset="0.48" stop-color="white"/>
<stop offset="0.56" stop-color="#F0F1F1"/>
<stop offset="0.72" stop-color="#C7CBCC"/>
<stop offset="0.94" stop-color="#878E91"/>
<stop offset="1" stop-color="#737B7F"/>
</linearGradient>
<clipPath id="clip0_2001_68">
<rect width="33" height="48" fill="white"/>
</clipPath>
</defs>
</svg>
