<svg width="48" height="48" viewBox="0 0 48 48" fill="none" xmlns="http://www.w3.org/2000/svg">
<g clip-path="url(#clip0_2001_37)">
<path d="M10.5256 40.0198L-4.88758e-05 50.5456L-2.54565 48L7.97998 37.4742L10.5256 40.0198ZM13.4956 37.05L10.95 39.5956L8.40435 37.05L10.95 34.5044L13.4956 37.05ZM14.8756 35.6698L13.9198 36.6256L11.3742 34.08L12.33 33.1242L14.8756 35.6698ZM17.8456 32.7L15.2999 35.2456L12.7543 32.7L15.2999 30.1544L17.8456 32.7ZM19.2256 31.3198L18.2698 32.2756L15.7242 29.73L16.68 28.7742L19.2256 31.3198ZM22.1956 28.35L19.65 30.8956L17.1043 28.35L19.65 25.8044L22.1956 28.35ZM23.5756 26.9698L22.6198 27.9256L20.0742 25.38L21.03 24.4242L23.5756 26.9698ZM26.5456 24L24 26.5456L21.4543 24L24 21.4544L26.5456 24ZM27.9256 22.6198L26.9698 23.5756L24.4242 21.03L25.38 20.0742L27.9256 22.6198ZM30.8956 19.65L28.3499 22.1956L25.8043 19.65L28.3499 17.1044L30.8956 19.65ZM32.2756 18.2698L31.3198 19.2256L28.7742 16.68L29.73 15.7242L32.2756 18.2698ZM35.2456 15.3L32.6999 17.8456L30.1543 15.3L32.6999 12.7544L35.2456 15.3ZM36.6256 13.9198L35.6698 14.8756L33.1242 12.33L34.08 11.3742L36.6256 13.9198ZM39.5956 10.95L37.0499 13.4956L34.5043 10.95L37.0499 8.40441L39.5956 10.95ZM50.5456 1.21593e-05L40.0198 10.5256L37.4742 7.98004L47.9999 -2.54559L50.5456 1.21593e-05Z" fill="url(#paint0_linear_2001_37)"/>
<path d="M6.17559 35.6698L-4.88758e-05 41.8456L-2.54565 39.3L3.62998 33.1242L6.17559 35.6698ZM9.14556 32.7L6.59995 35.2456L4.05435 32.7L6.59995 30.1544L9.14556 32.7ZM10.5256 31.3198L9.56977 32.2756L7.02417 29.73L7.97998 28.7742L10.5256 31.3198ZM13.4956 28.35L10.95 30.8956L8.40435 28.35L10.95 25.8044L13.4956 28.35ZM14.8756 26.9698L13.9198 27.9256L11.3742 25.38L12.33 24.4242L14.8756 26.9698ZM17.8456 24L15.2999 26.5456L12.7543 24L15.2999 21.4544L17.8456 24ZM19.2256 22.6198L18.2698 23.5756L15.7242 21.03L16.68 20.0742L19.2256 22.6198ZM22.1956 19.65L19.65 22.1956L17.1043 19.65L19.65 17.1044L22.1956 19.65ZM23.5756 18.2698L22.6198 19.2256L20.0742 16.68L21.03 15.7242L23.5756 18.2698ZM26.5456 15.3L24 17.8456L21.4543 15.3L24 12.7544L26.5456 15.3ZM27.9256 13.9198L26.9698 14.8756L24.4242 12.33L25.38 11.3742L27.9256 13.9198ZM30.8956 10.95L28.3499 13.4956L25.8043 10.95L28.3499 8.40441L30.8956 10.95ZM32.2756 9.56984L31.3198 10.5256L28.7742 7.98004L29.73 7.02423L32.2756 9.56984ZM35.2456 6.60001L32.6999 9.14562L30.1543 6.60001L32.6999 4.05441L35.2456 6.60001ZM41.8456 1.21593e-05L35.6698 6.17565L33.1242 3.63004L39.2999 -2.54559L41.8456 1.21593e-05Z" fill="url(#paint1_linear_2001_37)"/>
<path d="M14.8757 44.3698L8.70002 50.5456L6.15442 48L12.3301 41.8242L14.8757 44.3698ZM17.8456 41.4L15.3 43.9456L12.7544 41.4L15.3 38.8544L17.8456 41.4ZM19.2257 40.0198L18.2698 40.9756L15.7242 38.43L16.6801 37.4742L19.2257 40.0198ZM22.1956 37.05L19.65 39.5956L17.1044 37.05L19.65 34.5044L22.1956 37.05ZM23.5757 35.6698L22.6198 36.6256L20.0742 34.08L21.0301 33.1242L23.5757 35.6698ZM26.5456 32.7L24 35.2456L21.4544 32.7L24 30.1544L26.5456 32.7ZM27.9257 31.3198L26.9698 32.2756L24.4242 29.73L25.3801 28.7742L27.9257 31.3198ZM30.8956 28.35L28.35 30.8956L25.8044 28.35L28.35 25.8044L30.8956 28.35ZM32.2757 26.9698L31.3198 27.9256L28.7742 25.38L29.7301 24.4242L32.2757 26.9698ZM35.2456 24L32.7 26.5456L30.1544 24L32.7 21.4544L35.2456 24ZM36.6257 22.6198L35.6698 23.5756L33.1242 21.03L34.0801 20.0742L36.6257 22.6198ZM39.5956 19.65L37.05 22.1956L34.5044 19.65L37.05 17.1044L39.5956 19.65ZM40.9757 18.2698L40.0198 19.2256L37.4742 16.68L38.43 15.7242L40.9757 18.2698ZM43.9456 15.3L41.4 17.8456L38.8544 15.3L41.4 12.7544L43.9456 15.3ZM50.5456 8.69999L44.3698 14.8756L41.8242 12.33L48 6.15439L50.5456 8.69999Z" fill="url(#paint2_linear_2001_37)"/>
<path d="M19.2256 48.7198L17.4 50.5456L14.8544 48L16.68 46.1742L19.2256 48.7198ZM22.1956 45.75L19.65 48.2956L17.1044 45.75L19.65 43.2044L22.1956 45.75ZM23.5756 44.3698L22.6198 45.3256L20.0742 42.78L21.03 41.8242L23.5756 44.3698ZM26.5456 41.4L24 43.9456L21.4544 41.4L24 38.8544L26.5456 41.4ZM27.9256 40.0198L26.9698 40.9756L24.4242 38.43L25.38 37.4742L27.9256 40.0198ZM30.8956 37.05L28.35 39.5956L25.8044 37.05L28.35 34.5044L30.8956 37.05ZM32.2756 35.6698L31.3198 36.6256L28.7742 34.08L29.73 33.1242L32.2756 35.6698ZM35.2456 32.7L32.7 35.2456L30.1544 32.7L32.7 30.1544L35.2456 32.7ZM36.6256 31.3198L35.6698 32.2756L33.1242 29.73L34.08 28.7742L36.6256 31.3198ZM39.5956 28.35L37.05 30.8956L34.5044 28.35L37.05 25.8044L39.5956 28.35ZM40.9756 26.9698L40.0198 27.9256L37.4742 25.38L38.43 24.4242L40.9756 26.9698ZM43.9456 24L41.4 26.5456L38.8544 24L41.4 21.4544L43.9456 24ZM45.3256 22.6198L44.3698 23.5756L41.8242 21.03L42.78 20.0742L45.3256 22.6198ZM48.2956 19.65L45.75 22.1956L43.2044 19.65L45.75 17.1044L48.2956 19.65ZM50.5456 17.4L48.7198 19.2256L46.1742 16.68L48 14.8544L50.5456 17.4Z" fill="url(#paint3_linear_2001_37)"/>
<path d="M27.9257 48.7198L26.1 50.5456L24.4243 48.8698L25.2942 48L24.4243 47.13L25.3801 46.1742L27.9257 48.7198ZM24.4457 48L24 48.4456L23.5544 48L24 47.5544L24.4457 48ZM30.8957 45.75L28.35 48.2956L25.8044 45.75L28.35 43.2044L30.8957 45.75ZM32.2757 44.3698L31.3199 45.3256L28.7743 42.78L29.7301 41.8242L32.2757 44.3698ZM35.2457 41.4L32.7 43.9456L30.1544 41.4L32.7 38.8544L35.2457 41.4ZM36.6257 40.0198L35.6699 40.9756L33.1243 38.43L34.0801 37.4742L36.6257 40.0198ZM39.5957 37.05L37.05 39.5956L34.5044 37.05L37.05 34.5044L39.5957 37.05ZM40.9757 35.6698L40.0199 36.6256L37.4743 34.08L38.4301 33.1242L40.9757 35.6698ZM43.9457 32.7L41.4 35.2456L38.8544 32.7L41.4 30.1544L43.9457 32.7ZM45.3257 31.3198L44.3699 32.2756L41.8243 29.73L42.7801 28.7742L45.3257 31.3198ZM48.2957 28.35L45.75 30.8956L43.2044 28.35L45.75 25.8044L48.2957 28.35ZM50.5457 26.1L48.7199 27.9256L46.1743 25.38L47.1301 24.4242L48 25.2942L48.8699 24.4242L50.5457 26.1ZM48.4457 24L48 24.4456L47.5544 24L48 23.5544L48.4457 24Z" fill="url(#paint4_linear_2001_37)"/>
<path d="M1.82559 31.3198L-4.86374e-05 33.1456L-2.54565 30.6L-0.720019 28.7742L1.82559 31.3198ZM4.79556 28.35L2.24995 30.8956L-0.295654 28.35L2.24995 25.8044L4.79556 28.35ZM6.17559 26.9698L5.21978 27.9256L2.67417 25.38L3.62998 24.4242L6.17559 26.9698ZM9.14556 24L6.59995 26.5456L4.05435 24L6.59995 21.4544L9.14556 24ZM10.5256 22.6198L9.56978 23.5756L7.02417 21.03L7.97998 20.0742L10.5256 22.6198ZM13.4956 19.65L10.95 22.1956L8.40435 19.65L10.95 17.1044L13.4956 19.65ZM14.8756 18.2698L13.9198 19.2256L11.3742 16.68L12.33 15.7242L14.8756 18.2698ZM17.8456 15.3L15.3 17.8456L12.7543 15.3L15.3 12.7544L17.8456 15.3ZM19.2256 13.9198L18.2698 14.8756L15.7242 12.33L16.68 11.3742L19.2256 13.9198ZM22.1956 10.95L19.65 13.4956L17.1043 10.95L19.65 8.40441L22.1956 10.95ZM23.5756 9.56984L22.6198 10.5256L20.0742 7.98004L21.03 7.02423L23.5756 9.56984ZM26.5456 6.60001L24 9.14562L21.4543 6.60001L24 4.05441L26.5456 6.60001ZM27.9256 5.21984L26.9698 6.17565L24.4242 3.63004L25.38 2.67423L27.9256 5.21984ZM30.8956 2.25001L28.35 4.79562L25.8043 2.25001L28.35 -0.295593L30.8956 2.25001ZM33.1456 1.23978e-05L31.3198 1.82565L28.7742 -0.719958L30.6 -2.54559L33.1456 1.23978e-05Z" fill="url(#paint5_linear_2001_37)"/>
<path d="M0.445557 24L-4.86374e-05 24.4456L-0.445654 24L-4.86374e-05 23.5544L0.445557 24ZM1.82559 22.6198L0.869776 23.5756L-4.86374e-05 22.7058L-0.870019 23.5756L-2.54565 21.9L-0.720019 20.0742L1.82559 22.6198ZM4.79556 19.65L2.24995 22.1956L-0.295654 19.65L2.24995 17.1044L4.79556 19.65ZM6.17559 18.2698L5.21978 19.2256L2.67417 16.68L3.62998 15.7242L6.17559 18.2698ZM9.14556 15.3L6.59995 17.8456L4.05435 15.3L6.59995 12.7544L9.14556 15.3ZM10.5256 13.9198L9.56978 14.8756L7.02417 12.33L7.97998 11.3742L10.5256 13.9198ZM13.4956 10.95L10.95 13.4956L8.40435 10.95L10.95 8.40441L13.4956 10.95ZM14.8756 9.56984L13.9198 10.5256L11.3742 7.98004L12.33 7.02423L14.8756 9.56984ZM17.8456 6.60001L15.3 9.14562L12.7543 6.60001L15.3 4.05441L17.8456 6.60001ZM19.2256 5.21984L18.2698 6.17565L15.7242 3.63004L16.68 2.67423L19.2256 5.21984ZM22.1956 2.25001L19.65 4.79562L17.1043 2.25001L19.65 -0.295593L22.1956 2.25001ZM23.5756 -0.869958L22.7058 1.23978e-05L23.5756 0.869837L22.6198 1.82565L20.0742 -0.719958L21.9 -2.54559L23.5756 -0.869958ZM24.4456 1.23978e-05L24 0.445618L23.5543 1.23978e-05L24 -0.445593L24.4456 1.23978e-05Z" fill="url(#paint6_linear_2001_37)"/>
<path d="M-2.54556 -1.06174e-05L4.87644e-05 -2.54562L50.5457 48L48 50.5456L-2.54556 -1.06174e-05Z" fill="url(#paint7_linear_2001_37)"/>
<path d="M6.15444 -2.28221e-05L8.70005 -2.54563L50.5457 39.3L48 41.8456L6.15444 -2.28221e-05Z" fill="url(#paint8_linear_2001_37)"/>
<path d="M14.8544 2.60084e-05L17.4 -2.54558L50.5457 30.6L48 33.1456L14.8544 2.60084e-05Z" fill="url(#paint9_linear_2001_37)"/>
<path d="M23.5544 1.38037e-05L26.1 -2.54559L50.5457 21.9L48 24.4456L23.5544 1.38037e-05Z" fill="url(#paint10_linear_2001_37)"/>
<path d="M41.8456 48L39.3 50.5456L-2.54565 8.69999L-4.86374e-05 6.15439L41.8456 48Z" fill="url(#paint11_linear_2001_37)"/>
<path d="M33.1456 48L30.6 50.5456L-2.54565 17.4L-4.86374e-05 14.8544L33.1456 48Z" fill="url(#paint12_linear_2001_37)"/>
<path d="M24.4456 48L21.9 50.5456L-2.54565 26.1L-4.86374e-05 23.5544L24.4456 48Z" fill="url(#paint13_linear_2001_37)"/>
</g>
<defs>
<linearGradient id="paint0_linear_2001_37" x1="-21.8262" y1="24.4643" x2="30.1193" y2="24.4643" gradientUnits="userSpaceOnUse">
<stop stop-color="#5C6468"/>
<stop offset="0.05" stop-color="#5C6468"/>
<stop offset="0.16" stop-color="#92989A"/>
<stop offset="0.26" stop-color="#C1C4C6"/>
<stop offset="0.35" stop-color="#E3E4E5"/>
<stop offset="0.43" stop-color="#F8F8F8"/>
<stop offset="0.48" stop-color="white"/>
<stop offset="0.56" stop-color="#F0F1F1"/>
<stop offset="0.72" stop-color="#C7CBCC"/>
<stop offset="0.94" stop-color="#878E91"/>
<stop offset="1" stop-color="#737B7F"/>
</linearGradient>
<linearGradient id="paint1_linear_2001_37" x1="57.9666" y1="19.2618" x2="14.5334" y2="19.2618" gradientUnits="userSpaceOnUse">
<stop stop-color="#5C6468"/>
<stop offset="0.05" stop-color="#5C6468"/>
<stop offset="0.16" stop-color="#92989A"/>
<stop offset="0.26" stop-color="#C1C4C6"/>
<stop offset="0.35" stop-color="#E3E4E5"/>
<stop offset="0.43" stop-color="#F8F8F8"/>
<stop offset="0.48" stop-color="white"/>
<stop offset="0.56" stop-color="#F0F1F1"/>
<stop offset="0.72" stop-color="#C7CBCC"/>
<stop offset="0.94" stop-color="#878E91"/>
<stop offset="1" stop-color="#737B7F"/>
</linearGradient>
<linearGradient id="paint2_linear_2001_37" x1="-9.96662" y1="28.7382" x2="33.4666" y2="28.7382" gradientUnits="userSpaceOnUse">
<stop stop-color="#5C6468"/>
<stop offset="0.05" stop-color="#5C6468"/>
<stop offset="0.16" stop-color="#92989A"/>
<stop offset="0.26" stop-color="#C1C4C6"/>
<stop offset="0.35" stop-color="#E3E4E5"/>
<stop offset="0.43" stop-color="#F8F8F8"/>
<stop offset="0.48" stop-color="white"/>
<stop offset="0.56" stop-color="#F0F1F1"/>
<stop offset="0.72" stop-color="#C7CBCC"/>
<stop offset="0.94" stop-color="#878E91"/>
<stop offset="1" stop-color="#737B7F"/>
</linearGradient>
<linearGradient id="paint3_linear_2001_37" x1="1.89281" y1="33.0121" x2="36.8138" y2="33.0121" gradientUnits="userSpaceOnUse">
<stop stop-color="#5C6468"/>
<stop offset="0.05" stop-color="#5C6468"/>
<stop offset="0.16" stop-color="#92989A"/>
<stop offset="0.26" stop-color="#C1C4C6"/>
<stop offset="0.35" stop-color="#E3E4E5"/>
<stop offset="0.43" stop-color="#F8F8F8"/>
<stop offset="0.48" stop-color="white"/>
<stop offset="0.56" stop-color="#F0F1F1"/>
<stop offset="0.72" stop-color="#C7CBCC"/>
<stop offset="0.94" stop-color="#878E91"/>
<stop offset="1" stop-color="#737B7F"/>
</linearGradient>
<linearGradient id="paint4_linear_2001_37" x1="13.7524" y1="37.286" x2="40.1611" y2="37.286" gradientUnits="userSpaceOnUse">
<stop stop-color="#5C6468"/>
<stop offset="0.05" stop-color="#5C6468"/>
<stop offset="0.16" stop-color="#92989A"/>
<stop offset="0.26" stop-color="#C1C4C6"/>
<stop offset="0.35" stop-color="#E3E4E5"/>
<stop offset="0.43" stop-color="#F8F8F8"/>
<stop offset="0.48" stop-color="white"/>
<stop offset="0.56" stop-color="#F0F1F1"/>
<stop offset="0.72" stop-color="#C7CBCC"/>
<stop offset="0.94" stop-color="#878E91"/>
<stop offset="1" stop-color="#737B7F"/>
</linearGradient>
<linearGradient id="paint5_linear_2001_37" x1="46.1071" y1="14.9879" x2="11.1862" y2="14.9879" gradientUnits="userSpaceOnUse">
<stop stop-color="#5C6468"/>
<stop offset="0.05" stop-color="#5C6468"/>
<stop offset="0.16" stop-color="#92989A"/>
<stop offset="0.26" stop-color="#C1C4C6"/>
<stop offset="0.35" stop-color="#E3E4E5"/>
<stop offset="0.43" stop-color="#F8F8F8"/>
<stop offset="0.48" stop-color="white"/>
<stop offset="0.56" stop-color="#F0F1F1"/>
<stop offset="0.72" stop-color="#C7CBCC"/>
<stop offset="0.94" stop-color="#878E91"/>
<stop offset="1" stop-color="#737B7F"/>
</linearGradient>
<linearGradient id="paint6_linear_2001_37" x1="34.2476" y1="10.714" x2="7.83893" y2="10.714" gradientUnits="userSpaceOnUse">
<stop stop-color="#5C6468"/>
<stop offset="0.05" stop-color="#5C6468"/>
<stop offset="0.16" stop-color="#92989A"/>
<stop offset="0.26" stop-color="#C1C4C6"/>
<stop offset="0.35" stop-color="#E3E4E5"/>
<stop offset="0.43" stop-color="#F8F8F8"/>
<stop offset="0.48" stop-color="white"/>
<stop offset="0.56" stop-color="#F0F1F1"/>
<stop offset="0.72" stop-color="#C7CBCC"/>
<stop offset="0.94" stop-color="#878E91"/>
<stop offset="1" stop-color="#737B7F"/>
</linearGradient>
<linearGradient id="paint7_linear_2001_37" x1="24.4643" y1="69.8261" x2="24.4643" y2="17.8807" gradientUnits="userSpaceOnUse">
<stop stop-color="#5C6468"/>
<stop offset="0.05" stop-color="#5C6468"/>
<stop offset="0.16" stop-color="#92989A"/>
<stop offset="0.26" stop-color="#C1C4C6"/>
<stop offset="0.35" stop-color="#E3E4E5"/>
<stop offset="0.43" stop-color="#F8F8F8"/>
<stop offset="0.48" stop-color="white"/>
<stop offset="0.56" stop-color="#F0F1F1"/>
<stop offset="0.72" stop-color="#C7CBCC"/>
<stop offset="0.94" stop-color="#878E91"/>
<stop offset="1" stop-color="#737B7F"/>
</linearGradient>
<linearGradient id="paint8_linear_2001_37" x1="28.7382" y1="57.9666" x2="28.7382" y2="14.5334" gradientUnits="userSpaceOnUse">
<stop stop-color="#5C6468"/>
<stop offset="0.05" stop-color="#5C6468"/>
<stop offset="0.16" stop-color="#92989A"/>
<stop offset="0.26" stop-color="#C1C4C6"/>
<stop offset="0.35" stop-color="#E3E4E5"/>
<stop offset="0.43" stop-color="#F8F8F8"/>
<stop offset="0.48" stop-color="white"/>
<stop offset="0.56" stop-color="#F0F1F1"/>
<stop offset="0.72" stop-color="#C7CBCC"/>
<stop offset="0.94" stop-color="#878E91"/>
<stop offset="1" stop-color="#737B7F"/>
</linearGradient>
<linearGradient id="paint9_linear_2001_37" x1="33.0122" y1="46.1072" x2="33.0122" y2="11.1862" gradientUnits="userSpaceOnUse">
<stop stop-color="#5C6468"/>
<stop offset="0.05" stop-color="#5C6468"/>
<stop offset="0.16" stop-color="#92989A"/>
<stop offset="0.26" stop-color="#C1C4C6"/>
<stop offset="0.35" stop-color="#E3E4E5"/>
<stop offset="0.43" stop-color="#F8F8F8"/>
<stop offset="0.48" stop-color="white"/>
<stop offset="0.56" stop-color="#F0F1F1"/>
<stop offset="0.72" stop-color="#C7CBCC"/>
<stop offset="0.94" stop-color="#878E91"/>
<stop offset="1" stop-color="#737B7F"/>
</linearGradient>
<linearGradient id="paint10_linear_2001_37" x1="37.2861" y1="34.2477" x2="37.2861" y2="7.839" gradientUnits="userSpaceOnUse">
<stop stop-color="#5C6468"/>
<stop offset="0.05" stop-color="#5C6468"/>
<stop offset="0.16" stop-color="#92989A"/>
<stop offset="0.26" stop-color="#C1C4C6"/>
<stop offset="0.35" stop-color="#E3E4E5"/>
<stop offset="0.43" stop-color="#F8F8F8"/>
<stop offset="0.48" stop-color="white"/>
<stop offset="0.56" stop-color="#F0F1F1"/>
<stop offset="0.72" stop-color="#C7CBCC"/>
<stop offset="0.94" stop-color="#878E91"/>
<stop offset="1" stop-color="#737B7F"/>
</linearGradient>
<linearGradient id="paint11_linear_2001_37" x1="19.2618" y1="-9.96665" x2="19.2618" y2="33.4665" gradientUnits="userSpaceOnUse">
<stop stop-color="#5C6468"/>
<stop offset="0.05" stop-color="#5C6468"/>
<stop offset="0.16" stop-color="#92989A"/>
<stop offset="0.26" stop-color="#C1C4C6"/>
<stop offset="0.35" stop-color="#E3E4E5"/>
<stop offset="0.43" stop-color="#F8F8F8"/>
<stop offset="0.48" stop-color="white"/>
<stop offset="0.56" stop-color="#F0F1F1"/>
<stop offset="0.72" stop-color="#C7CBCC"/>
<stop offset="0.94" stop-color="#878E91"/>
<stop offset="1" stop-color="#737B7F"/>
</linearGradient>
<linearGradient id="paint12_linear_2001_37" x1="14.9878" y1="1.89283" x2="14.9879" y2="36.8138" gradientUnits="userSpaceOnUse">
<stop stop-color="#5C6468"/>
<stop offset="0.05" stop-color="#5C6468"/>
<stop offset="0.16" stop-color="#92989A"/>
<stop offset="0.26" stop-color="#C1C4C6"/>
<stop offset="0.35" stop-color="#E3E4E5"/>
<stop offset="0.43" stop-color="#F8F8F8"/>
<stop offset="0.48" stop-color="white"/>
<stop offset="0.56" stop-color="#F0F1F1"/>
<stop offset="0.72" stop-color="#C7CBCC"/>
<stop offset="0.94" stop-color="#878E91"/>
<stop offset="1" stop-color="#737B7F"/>
</linearGradient>
<linearGradient id="paint13_linear_2001_37" x1="10.7139" y1="13.7523" x2="10.7139" y2="40.161" gradientUnits="userSpaceOnUse">
<stop stop-color="#5C6468"/>
<stop offset="0.05" stop-color="#5C6468"/>
<stop offset="0.16" stop-color="#92989A"/>
<stop offset="0.26" stop-color="#C1C4C6"/>
<stop offset="0.35" stop-color="#E3E4E5"/>
<stop offset="0.43" stop-color="#F8F8F8"/>
<stop offset="0.48" stop-color="white"/>
<stop offset="0.56" stop-color="#F0F1F1"/>
<stop offset="0.72" stop-color="#C7CBCC"/>
<stop offset="0.94" stop-color="#878E91"/>
<stop offset="1" stop-color="#737B7F"/>
</linearGradient>
<clipPath id="clip0_2001_37">
<rect width="48" height="48" fill="white"/>
</clipPath>
</defs>
</svg>
